<svg width="26" height="24" viewBox="0 0 26 24" fill="none" xmlns="http://www.w3.org/2000/svg">
<path fill-rule="evenodd" clip-rule="evenodd" d="M18.6875 4.31567C18.6875 1.93395 16.1131 0.00317383 12.9375 0.00317383C9.76186 0.00317383 7.1875 1.93395 7.1875 4.31567H2C0.895431 4.31567 0 5.2111 0 6.31567V21.0032C0 22.1077 0.895431 23.0032 2 23.0032H23.875C24.9796 23.0032 25.875 22.1077 25.875 21.0032V6.31567C25.875 5.2111 24.9796 4.31567 23.875 4.31567H18.6875ZM17.1875 4.31567C17.1875 3.7028 16.8598 3.03358 16.1034 2.46628C15.3465 1.89862 14.2321 1.50317 12.9375 1.50317C11.6429 1.50317 10.5285 1.89862 9.77164 2.46628C9.01523 3.03358 8.6875 3.7028 8.6875 4.31567H17.1875ZM1.5 6.31567C1.5 6.03953 1.72386 5.81567 2 5.81567H23.875C24.1511 5.81567 24.375 6.03953 24.375 6.31567V21.0032C24.375 21.2793 24.1511 21.5032 23.875 21.5032H2C1.72386 21.5032 1.5 21.2793 1.5 21.0032V6.31567Z" fill="white"/>
</svg>
