<svg width="27" height="24" viewBox="0 0 27 24" fill="none" xmlns="http://www.w3.org/2000/svg">
<path fill-rule="evenodd" clip-rule="evenodd" d="M19.5369 4.31641C19.5369 1.93468 16.9625 0.00390625 13.7869 0.00390625C10.6112 0.00390625 8.03687 1.93468 8.03687 4.31641H2.84937C1.7448 4.31641 0.849365 5.21184 0.849365 6.31641V21.0039C0.849365 22.1085 1.7448 23.0039 2.84937 23.0039H24.7244C25.8289 23.0039 26.7244 22.1085 26.7244 21.0039V6.31641C26.7244 5.21184 25.8289 4.31641 24.7244 4.31641H19.5369ZM18.0369 4.31641C18.0369 3.70353 17.7091 3.03431 16.9527 2.46701C16.1959 1.89936 15.0815 1.50391 13.7869 1.50391C12.4922 1.50391 11.3779 1.89936 10.621 2.46701C9.86459 3.03431 9.53687 3.70353 9.53687 4.31641H18.0369ZM2.34937 6.31641C2.34937 6.04026 2.57322 5.81641 2.84937 5.81641H24.7244C25.0005 5.81641 25.2244 6.04026 25.2244 6.31641V21.0039C25.2244 21.28 25.0005 21.5039 24.7244 21.5039H2.84937C2.57322 21.5039 2.34937 21.28 2.34937 21.0039V6.31641Z" fill="black" fill-opacity="0.3"/>
</svg>
