<svg width="43" height="20" viewBox="0 0 43 20" fill="none" xmlns="http://www.w3.org/2000/svg">
<g clip-path="url(#clip0_44_454)">
<path fill-rule="evenodd" clip-rule="evenodd" d="M38.3718 16.8088L36.8533 15.2925L35.335 16.8088L36.853 19.979L38.3718 16.8088Z" fill="#E74C36"/>
<path d="M36.8533 8.68188C37.436 8.68188 37.9083 8.20952 37.9083 7.62683C37.9083 7.04414 37.436 6.57178 36.8533 6.57178C36.2706 6.57178 35.7982 7.04414 35.7982 7.62683C35.7982 8.20952 36.2706 8.68188 36.8533 8.68188Z" fill="#CE9B6B"/>
<path fill-rule="evenodd" clip-rule="evenodd" d="M36.8533 1.83643C36.5318 2.00113 32.3317 4.22073 32.3317 7.76713C32.3317 10.8004 34.8041 15.4014 34.8041 15.4014L36.8533 13.3482L38.9027 15.4014C38.9027 15.4014 41.3751 10.8004 41.3751 7.76713C41.3751 4.22073 37.1747 2.00113 36.8533 1.83643ZM38.2065 11.9632L36.8533 10.6077L35.5003 11.9632C35.4311 11.775 34.5246 9.32133 34.5246 7.72033C34.5246 5.56063 36.6906 4.35083 36.8533 4.26203C37.0163 4.35083 39.1822 5.56063 39.1822 7.72033C39.1822 9.32133 38.2757 11.775 38.2065 11.9632Z" fill="#CE9B6B"/>
<path d="M42.9204 1.837L41.375 0.291504L39.8297 1.8367L41.3751 3.3822L42.9204 1.837Z" fill="#CE9B6B"/>
<path fill-rule="evenodd" clip-rule="evenodd" d="M26.8405 3.38232C26.8405 3.70572 26.6939 3.89342 26.4405 3.89342C26.1871 3.89342 26.0414 3.69442 26.0414 3.38232H24.7281C24.7647 4.34442 25.3211 4.99382 26.4609 4.99382C27.5123 4.99382 28.1124 4.32652 28.1529 3.38232H26.8405Z" fill="white"/>
<path fill-rule="evenodd" clip-rule="evenodd" d="M24.0629 9.86818L24.0637 5.34668H25.5808C25.5808 5.34668 25.5803 7.29778 25.5803 7.45198C25.5803 7.60588 25.5477 7.78108 25.5477 7.78108H25.6132L27.2646 5.34668H28.7163V9.86818H27.1989C27.1989 9.86818 27.1989 7.94858 27.1989 7.74368C27.1989 7.59168 27.232 7.44768 27.232 7.44768H27.1663L25.5145 9.86818H24.0629Z" fill="white"/>
<path fill-rule="evenodd" clip-rule="evenodd" d="M20.9328 5.23096C22.3728 5.23096 23.4463 6.24896 23.4463 7.61406C23.4463 8.96536 22.3728 9.98386 20.9328 9.98386C19.5072 9.98386 18.4329 8.96536 18.4329 7.61406C18.4329 6.24896 19.5072 5.23096 20.9328 5.23096ZM20.9328 8.57816C21.483 8.57816 21.8495 8.15016 21.8495 7.61406C21.8495 7.06386 21.483 6.63616 20.9328 6.63616C20.3965 6.63616 20.0163 7.06386 20.0163 7.61406C20.0163 8.15016 20.3965 8.57816 20.9328 8.57816Z" fill="white"/>
<path fill-rule="evenodd" clip-rule="evenodd" d="M16.6153 5.3457C16.6153 5.3457 15.348 6.9929 15.2969 7.0552C15.2346 7.1323 15.2292 7.174 15.2292 7.174H15.1634C15.1634 7.174 15.151 7.1292 15.0914 7.0552C15.0021 6.9447 13.6891 5.3457 13.6891 5.3457H12.4929V9.8672H13.955C13.955 9.8672 13.955 8.1729 13.955 7.9691C13.955 7.7645 13.9219 7.6397 13.9219 7.6397H13.9882L15.1637 8.9905H15.2269L16.3168 7.6397H16.3823C16.3823 7.6397 16.3494 7.7625 16.3494 7.9691C16.3494 8.1755 16.3494 9.8672 16.3494 9.8672H17.8124V5.3457H16.6153Z" fill="white"/>
<path fill-rule="evenodd" clip-rule="evenodd" d="M2.7908 10.8231C2.02601 10.8231 1.22551 11.2478 0.933506 11.8819L0.891806 11.8813C0.908006 11.8155 0.935506 11.7503 0.940006 11.6877C1.01091 10.7137 1.39951 9.9382 2.1538 9.67C2.6278 9.5013 3.0978 9.4333 3.4566 9.3571C3.8402 9.2754 4.2336 9.1802 4.4646 9.1113L4.2095 8.3457C3.7891 8.4616 3.3982 8.5458 2.7403 8.6799C2.4622 8.7363 2.1586 8.7853 1.80321 8.935C0.595906 9.4432 0.0664062 10.4583 0.0664062 12.372C0.0664062 14.0915 0.924206 15.4481 2.5694 15.4481C4.0814 15.4481 5.0001 14.2678 5.0001 13.0815C5.0001 11.7129 4.1233 10.8231 2.7908 10.8231ZM2.5714 14.6845C1.56001 14.6845 0.980606 13.7547 0.980606 12.6937C1.21951 12.0763 1.96281 11.5777 2.5895 11.5777C3.5051 11.5777 4.089 12.1472 4.089 13.1218C4.089 14.0266 3.4288 14.6845 2.5714 14.6845Z" fill="white"/>
<path fill-rule="evenodd" clip-rule="evenodd" d="M6.53054 14.0119C6.53054 14.0119 6.51354 14.0116 6.48884 14.0116C6.50844 13.9396 6.53054 13.8339 6.53054 13.7287C6.53054 13.6238 6.53054 10.7725 6.53054 10.7725H5.62854V15.294H6.43784L9.02104 12.0438C9.02104 12.0438 9.04404 12.0438 9.06304 12.0438C9.04234 12.1147 9.02074 12.2343 9.02074 12.3381C9.02074 12.4551 9.02074 15.294 9.02074 15.294H9.92334V10.7725H9.11404L6.53054 14.0119Z" fill="white"/>
<path fill-rule="evenodd" clip-rule="evenodd" d="M13.3552 12.9765V12.9567C13.8887 12.7654 14.1503 12.4133 14.1503 11.8897C14.1503 11.1351 13.5363 10.6499 12.4495 10.6499C11.8251 10.6499 11.1671 10.8231 10.6252 11.2378L10.9806 11.8792C11.3863 11.5606 11.9047 11.4025 12.3291 11.4025C12.9226 11.4025 13.2421 11.6485 13.2421 12.051C13.2421 12.4133 12.9629 12.6684 12.5099 12.6684H11.7956V13.3711H12.5604C13.1137 13.3711 13.3906 13.5602 13.3906 13.9327C13.3906 14.3754 12.945 14.6773 12.2698 14.6773C11.7939 14.6773 11.2363 14.4724 10.874 14.1807L10.5177 14.8318C10.9109 15.1878 11.5892 15.4483 12.3792 15.4483C13.4655 15.4483 14.2963 14.8786 14.2963 14.0432C14.2963 13.4899 13.959 13.0471 13.3552 12.9765Z" fill="white"/>
<path fill-rule="evenodd" clip-rule="evenodd" d="M18.2532 12.6275H15.8267V10.7725H14.9247V15.294H15.8267V13.3302H18.2532V15.294H19.1555V10.7725H18.2532V12.6275Z" fill="white"/>
<path fill-rule="evenodd" clip-rule="evenodd" d="M21.9822 10.6499C20.6522 10.6499 19.7842 11.6947 19.7842 13.0726C19.7842 14.433 20.6573 15.4483 22.2418 15.4483C23.0063 15.4483 23.6572 15.2136 24.126 14.8318L23.7697 14.1807C23.4224 14.4409 22.8929 14.6836 22.2679 14.6836C21.2783 14.6836 20.8001 14.1458 20.7131 13.3552H20.7162H24.1722C24.1813 13.2628 24.187 13.169 24.187 13.0726C24.187 11.6947 23.5214 10.6499 21.9822 10.6499ZM20.7264 12.652C20.8412 11.9518 21.3534 11.4081 22.0264 11.4081C22.8422 11.4081 23.2385 11.9563 23.3099 12.652H20.7264Z" fill="white"/>
<path fill-rule="evenodd" clip-rule="evenodd" d="M27.2923 14.6654C26.3719 14.6654 25.6939 13.9732 25.6939 12.991C25.6939 12.1519 26.2344 11.422 27.2404 11.422C27.6977 11.422 28.1586 11.543 28.6881 11.8835C28.6881 11.8835 28.9177 11.4696 29.0549 11.219C28.5132 10.8349 27.8873 10.6445 27.2166 10.6445C25.7599 10.6445 24.7828 11.6669 24.7828 13.0448C24.7828 14.3873 25.7571 15.448 27.2316 15.448C27.9545 15.448 28.5849 15.2403 29.0538 14.8584L28.6974 14.207C28.3502 14.4675 27.8476 14.6654 27.2923 14.6654Z" fill="white"/>
</g>
<defs>
<clipPath id="clip0_44_454">
<rect width="42.8539" height="19.6877" fill="white" transform="translate(0.0664062 0.291504)"/>
</clipPath>
</defs>
</svg>
