<svg width="186" height="79" viewBox="0 0 186 79" fill="none" xmlns="http://www.w3.org/2000/svg">
<path d="M12.9929 36.6443C12.9077 30.1798 12.9929 23.7153 13.4181 17.1658C13.5031 15.2945 13.4181 13.3381 13.333 11.4668C13.333 10.276 12.6526 9.76562 11.4617 9.76562C10.0158 9.76562 8.56982 10.0208 7.12368 10.5312C5.76289 10.9565 4.57206 11.6369 3.63635 12.7427C2.27537 14.2738 1.8501 16.1451 1.76494 18.1014C1.76494 20.5681 2.61566 22.6946 4.06162 24.736C4.82718 25.8418 6.01801 26.3521 7.37899 26.4372C8.14437 26.4372 8.99509 26.4372 9.84564 26.4372C9.84564 26.6073 9.84564 26.7774 9.84564 27.0326C9.76065 31.6258 9.67549 36.304 9.59051 40.9823C9.59051 41.5777 9.42036 42.003 8.99509 42.3432C8.6548 42.6835 8.22953 43.0237 7.88924 43.3639C6.69841 44.2996 5.50758 45.3203 4.57206 46.5111C2.95577 48.4675 2.02025 50.7641 1.42483 53.2308C1.16952 53.9963 0.999559 54.7619 0.914395 55.5274C0.74425 56.463 0.914395 56.8033 1.76494 56.9734C2.10523 57.1435 2.5305 57.1435 2.95577 57.2286C3.4662 57.2286 3.89148 56.9734 4.1466 56.5481C4.31675 56.2929 4.40191 55.9527 4.57206 55.6975C4.99733 54.6768 5.4226 53.6561 5.84787 52.6354C6.61343 50.7641 7.54895 48.9778 9.16524 47.702C9.25022 47.6169 9.42036 47.5318 9.50535 47.4468C9.59051 47.6169 9.67549 47.787 9.67549 47.9571C9.76065 49.3181 9.67549 50.679 9.76065 52.04C9.76065 53.1457 9.76065 54.2515 9.76065 55.2722C9.84564 56.463 10.6112 57.0585 11.802 57.0585C12.4824 57.0585 12.9077 56.7182 12.9929 56.0377C13.163 55.1021 13.248 54.2515 13.248 53.4009C13.163 47.787 13.0778 42.2582 12.9929 36.6443ZM8.82495 23.0348C7.0387 22.6095 5.67772 21.5888 4.99733 19.8026C4.65704 18.8669 4.82718 17.9313 5.4226 17.0807C6.27314 15.8048 7.54895 14.9542 8.90993 14.1887C9.16524 14.1036 9.42036 14.0186 9.76065 13.8485V23.205C9.42036 23.1199 9.08007 23.1199 8.82495 23.0348Z" fill="white"/>
<path d="M18.1814 30.0941C18.1814 35.9631 18.0112 41.8322 17.926 47.7863C17.8411 49.6576 17.8411 51.5289 17.8411 53.4002C17.8411 54.506 18.0962 55.5267 19.287 55.952C20.648 56.5474 21.5837 55.952 21.6687 54.506V54.2508L21.7539 43.7886C21.7539 43.6184 21.7539 43.5334 21.7539 43.3633C21.8388 43.3633 21.8388 43.3633 21.924 43.3633C22.3493 43.5334 22.7745 43.7035 23.1998 43.7886C25.7516 44.6391 27.5379 46.2553 28.8988 48.5519C29.7494 50.168 30.3448 51.9542 30.7701 53.7405C31.0252 55.1865 31.9609 56.0371 33.3219 56.0371C34.1724 55.952 34.6829 55.4416 34.5127 54.5911C33.9173 52.2094 32.9816 49.9128 31.7908 47.7863C29.6642 43.9587 26.6022 41.2368 22.3493 39.8758C21.924 39.7057 21.6687 39.3655 21.6687 38.8551C21.5837 34.6872 21.4985 30.4343 21.3286 26.1813C21.3286 25.671 21.5837 25.2457 22.094 25.0756C22.2641 25.0756 22.3493 24.9905 22.5194 24.9055C25.5815 23.7146 27.708 21.6732 28.8988 18.526C29.5792 16.5697 30.0045 14.6133 30.3448 12.5719C30.5149 11.4661 30.0895 10.7006 29.239 10.1052C28.2183 9.33965 27.1126 9.76494 26.9425 11.0408C26.8573 11.3811 26.8573 11.7213 26.7723 12.0615C26.1769 13.8478 25.6665 15.634 25.1562 17.4203C24.4756 19.3766 23.1148 20.6525 21.4985 21.9284C21.4985 21.6732 21.4985 21.5031 21.4985 21.333C21.4985 18.1858 21.4985 15.0386 21.4985 11.8914C21.4985 10.3604 20.648 9.50977 19.202 9.50977C18.6066 9.59482 18.2663 9.76494 18.1814 10.3604C18.0962 10.8707 18.0962 11.3811 18.0962 11.8914C18.1814 18.0157 18.2663 24.0549 18.1814 30.0941Z" fill="white"/>
<path d="M44.2945 30.4347L39.9564 52.0397C39.7862 52.8903 39.7013 53.7409 39.5311 54.5064C39.446 55.2719 39.7013 55.7823 40.4668 55.9524C40.8069 56.0375 41.1472 56.1225 41.4875 56.1225C41.9978 56.2076 42.423 55.9524 42.5932 55.442C42.7633 55.1018 42.9335 54.6765 43.0185 54.3363C43.4437 52.465 43.8692 50.5937 44.2093 48.6373C45.3151 43.1085 46.3358 37.5796 47.3565 32.0508C48.4624 26.2668 49.4831 20.3977 50.5887 14.5286C50.7589 13.5079 50.929 12.4022 51.014 11.3815C51.0992 10.9562 50.929 10.5309 50.5887 10.2757C49.9083 9.76533 49.1428 9.68027 48.2922 9.93545C47.6116 10.1906 47.4415 10.786 47.2715 11.4665C46.7611 15.1241 46.1657 18.7816 45.6554 22.3541C45.6554 22.5242 45.4853 22.6092 45.4001 22.6943C45.4001 22.6943 45.23 22.6092 45.145 22.5242C44.8047 22.0989 44.3794 21.6736 44.0391 21.2483C42.6783 19.7172 41.5725 18.0161 40.9771 16.0597C40.4668 14.5286 40.2115 12.9976 39.9564 11.3815C39.7013 9.93545 39.361 9.68027 37.915 9.59521C36.8092 9.59521 36.3839 10.0205 36.554 11.0412C36.7242 12.6573 36.9793 14.3585 37.5747 15.9746C38.5954 19.1218 40.0414 22.0989 42.423 24.5656C42.9335 25.2461 43.6139 25.8415 44.2093 26.4369C44.7197 26.8622 44.8899 27.4576 44.7197 28.1381C44.5496 28.9036 44.4646 29.6692 44.2945 30.4347Z" fill="white"/>
<path d="M62.9224 31.1142C63.0075 37.7488 63.0075 44.2983 63.0925 50.8479C63.0925 52.0387 63.0925 53.2295 63.1775 54.4204C63.1775 55.1008 63.5178 55.5261 64.2833 55.5261C65.9844 55.5261 66.5798 55.1008 66.5798 53.3997C66.4949 51.1031 66.4099 48.7214 66.4099 46.4248C66.2397 41.4063 66.0696 36.4729 65.9844 31.4544C65.8995 26.7762 65.8995 22.183 65.8145 17.5047C65.8145 15.8886 65.8145 14.2725 65.8145 12.6564C65.8145 11.8908 65.9844 11.7207 66.75 11.8058C67.3454 11.8058 67.9408 11.8908 68.5362 11.8908C69.9822 11.8908 71.4283 11.8058 72.8743 11.4655C73.2996 11.3805 73.7248 10.8701 73.81 10.5299C73.81 10.1046 73.3847 9.93448 73.1294 9.6793C73.0444 9.6793 73.0444 9.6793 72.9593 9.6793C72.1087 9.50918 71.2582 9.16895 70.3225 9.16895C65.4742 9.16895 60.6259 9.16895 55.7774 9.254C54.7567 9.254 54.4164 9.59424 54.3314 10.6149C54.3314 11.2104 54.5016 11.5506 55.0118 11.6357C55.6924 11.7207 56.2878 11.8058 56.8832 11.8058C58.5843 11.8908 60.2856 11.8058 61.9867 11.8058H62.4121C62.4971 12.3161 62.4971 12.6564 62.4971 13.0817C62.6672 19.1209 62.8374 25.075 62.9224 31.1142Z" fill="white"/>
<path d="M77.8928 34.6025C77.8928 37.2394 77.978 39.9612 78.0629 42.5981C78.0629 43.959 78.1479 45.405 77.8078 46.851C77.8078 47.1062 77.7227 47.4464 77.7227 47.7016C77.8928 49.9132 78.0629 52.1247 78.2331 54.2512C78.2331 55.1868 78.6584 55.6972 79.3388 56.1225C79.679 56.3776 80.1043 56.3776 80.4446 56.1225C80.955 55.6972 81.4653 55.2719 81.6354 54.5914C81.7204 54.3362 81.8906 54.081 81.9757 53.8259L87.8447 42.7682C88.0999 42.3429 88.27 41.8325 88.5251 41.4072C88.6103 41.2371 88.7804 41.067 88.9506 40.8969L89.0356 40.982C89.0356 41.1521 89.0356 41.2371 89.0356 41.4072C89.1205 44.3843 89.0356 47.2763 89.1205 50.2534C89.2057 51.8695 89.2907 53.4856 89.4608 55.0167C89.546 55.9523 90.3965 56.5478 91.3322 56.4627C92.0976 56.4627 92.693 55.7822 92.7782 54.8466C92.7782 54.3362 92.7782 53.7408 92.693 53.2305C92.3529 49.9982 92.1828 46.851 92.0976 43.6188C91.9277 32.7312 91.7575 21.9287 91.5874 11.0412C91.5874 10.786 91.5874 10.4457 91.5022 10.1906C91.4172 9.68022 91.1621 9.16987 90.4815 9.08481C89.2057 8.82963 88.27 9.25493 88.27 10.7009C88.27 10.871 88.27 11.0412 88.27 11.2113C88.6103 14.8688 88.7804 18.6114 88.8654 22.354C88.8654 25.8414 88.9506 29.3289 88.9506 32.8163C89.0356 33.9221 88.7804 34.8577 88.27 35.8784C86.2286 39.621 84.1873 43.4487 82.2309 47.2763C82.0607 47.5315 81.8906 47.7867 81.7204 48.0419H81.6354C81.5503 47.4464 81.4653 46.9361 81.4653 46.3407C81.4653 43.874 81.3803 41.4072 81.3803 38.9405L80.8699 10.786C80.7849 9.42504 80.7849 9.42504 79.5089 9.33998C78.1479 9.25492 77.8928 9.5101 77.8928 10.786C77.8928 18.7815 77.8928 26.692 77.8928 34.6025Z" fill="white"/>
<path d="M2.78569 75.9409L2.70053 68.7959V61.736H3.80638C4.0615 61.736 4.23165 61.4809 4.23165 61.2257C4.23165 61.1406 4.23165 60.9705 4.14648 60.8855C4.0615 60.8004 3.89136 60.7153 3.72121 60.7153C2.70053 60.7153 1.59486 60.7153 0.489007 60.7153C0.318862 60.7153 0.148717 60.8004 0.0637357 60.9705C-0.0212452 61.1406 -0.0212452 61.3958 0.0637357 61.4809C0.148717 61.651 0.318862 61.736 0.489007 61.736H1.67984C1.67984 66.4143 1.67984 71.1776 1.76482 75.9409C1.76482 76.2811 2.02013 76.4513 2.27526 76.4513C2.53038 76.4513 2.78569 76.2811 2.78569 75.9409Z" fill="white"/>
<path d="M7.63416 68.6258L7.71914 75.9409C7.71914 76.1961 7.88928 76.3662 8.14441 76.4513C8.39972 76.4513 8.73982 76.5363 8.99513 76.5363C9.59055 76.5363 10.1008 76.3662 10.4411 76.111C11.1215 75.7708 11.4618 74.9202 11.2916 74.0696C11.1215 73.0489 10.2709 72.4535 8.90997 72.4535H8.73982L8.65484 64.7131H8.82499C10.2709 64.7131 11.2067 64.0326 11.2916 62.9269C11.3768 62.0763 11.1215 61.3958 10.4411 61.0556C10.0158 60.8004 9.59055 60.7153 8.90997 60.7153C8.65484 60.7153 8.39972 60.7153 8.14441 60.7153C7.8043 60.7153 7.63416 60.9705 7.63416 61.2257V68.6258ZM8.73982 74.4098V73.4742H8.90997C9.76069 73.4742 10.186 73.6443 10.2709 74.1547C10.4411 74.665 10.2709 75.0903 9.84567 75.2604C9.59055 75.4305 9.16528 75.5156 8.73982 75.5156V74.4098ZM10.3561 62.8418C10.2709 63.6073 9.33524 63.7775 8.65484 63.6924V61.736H8.90997C9.25026 61.736 9.59055 61.736 9.84567 61.8211C10.2709 61.9912 10.3561 62.5016 10.3561 62.8418Z" fill="white"/>
<path d="M14.9491 67.7752C14.9491 69.2212 14.9491 70.8374 15.0341 72.6236V72.7937C15.1191 73.7294 15.1191 75.0053 15.7996 75.8558C16.1399 76.1961 16.5652 76.4513 16.9905 76.4513C17.0755 76.4513 17.1606 76.4513 17.3308 76.3662C18.0112 76.2811 18.5214 75.6857 18.7767 74.8351V74.7501C19.0318 73.8995 19.0318 73.0489 19.1168 72.1132V71.773C19.1168 71.1776 19.1168 70.5822 19.1168 69.9868V69.0511V68.2005C19.1168 66.5844 19.1168 64.8832 18.9469 63.182C18.9469 62.5016 18.6066 60.8855 17.2456 60.7153H16.9905C16.0548 60.7153 15.2892 61.5659 15.1191 63.0119C15.0341 63.6073 15.0341 64.2028 15.0341 64.7982V65.2235C14.9491 66.0741 14.9491 66.9246 14.9491 67.7752ZM16.0548 72.4535C15.9698 69.8166 15.8846 66.6695 16.0548 63.5223C16.1399 62.8418 16.3099 61.736 16.9905 61.736C17.0755 61.736 17.1606 61.736 17.2456 61.736C17.926 61.9062 17.926 63.097 18.0112 63.6924C18.0961 65.2235 18.0961 66.7545 18.0961 68.2005V68.9661C18.0961 69.3914 18.0961 69.8166 18.0961 70.327C18.0961 70.7523 18.0961 71.1776 18.0961 71.6029V71.9431C18.0961 72.7937 18.0961 73.7294 17.841 74.4949C17.6709 74.9202 17.4157 75.4305 16.9905 75.4305H16.9053C16.7353 75.3455 16.5652 75.1754 16.3951 74.8351C16.1399 74.0696 16.0548 73.3041 16.0548 72.4535Z" fill="white"/>
<path d="M23.9654 69.3063V70.0718L24.0504 70.7523C24.0504 71.6029 24.0504 72.4535 23.9654 73.3041V73.3891C23.9654 73.9845 23.8802 74.58 23.6251 75.0903C23.5401 75.2604 23.4549 75.3455 23.2848 75.3455C23.1998 75.4305 23.1998 75.4305 23.1148 75.4305C22.8595 75.4305 22.6894 75.0053 22.6894 74.8351C22.6894 74.1547 21.6687 74.1547 21.6687 74.8351C21.7539 75.5156 22.009 76.026 22.5194 76.2811C22.6894 76.3662 22.9447 76.4513 23.1148 76.4513C23.37 76.4513 23.6251 76.3662 23.7952 76.2811C24.3907 76.026 24.6458 75.3455 24.8159 74.7501C24.9861 73.8995 24.9861 72.8788 24.9861 71.9431C24.9861 71.2627 24.9861 70.6672 24.9861 69.9868C24.9861 69.3063 24.9861 68.6258 25.0711 67.9454C25.0711 67.3499 25.0711 66.7545 25.1562 66.0741C25.2412 65.5637 25.3264 65.0533 25.6665 64.7131C25.8366 64.7131 26.0068 64.7131 26.1769 64.7131C26.1769 68.3707 26.1769 72.1983 26.2619 75.9409C26.2619 76.5363 27.2826 76.5363 27.2826 75.9409L27.1976 68.6258V61.2257C27.1976 60.9705 26.9425 60.7153 26.6872 60.7153C26.432 60.7153 26.2619 60.7153 26.0068 60.7153C25.5815 60.7153 24.9009 60.8004 24.3055 61.0556C23.7101 61.4809 23.4549 62.0763 23.5401 62.9269C23.6251 63.6073 23.9654 64.1177 24.6458 64.3729C24.2205 65.1384 24.1355 65.9039 24.0504 66.6695C23.9654 67.5201 23.9654 68.4557 23.9654 69.3063ZM26.1769 63.6924H26.0917C25.6665 63.6924 24.6458 63.6073 24.5608 62.8418C24.4756 62.5016 24.5608 62.3315 24.6458 62.1613C24.9009 61.9062 25.4113 61.736 26.0917 61.736H26.1769V62.6717V63.6924Z" fill="white"/>
<path d="M31.5356 68.2858C31.6206 68.541 31.6206 68.8813 31.7058 69.1364C31.7908 69.7319 32.1311 70.0721 32.6413 70.2422C33.2367 70.4123 33.8321 70.3273 34.4276 70.1571C34.5977 70.0721 34.7679 69.987 34.938 69.8169C35.7036 68.8813 35.6184 67.6054 34.7679 66.7548C34.4276 66.4996 34.0875 66.4146 33.7472 66.4146C33.662 66.4146 33.492 66.4146 33.4069 66.4146C32.3012 66.4146 31.5356 67.1801 31.5356 68.2858Z" fill="white"/>
<path d="M39.2761 65.2229C39.191 67.4344 39.2761 69.731 39.3611 72.1127V72.538C39.3611 73.6437 39.4461 75.0897 40.2116 75.9403C40.5519 76.2806 41.0622 76.4507 41.4876 76.4507C41.9129 76.4507 42.253 76.2806 42.5933 76.1104C43.2739 75.6001 43.614 74.6644 43.614 73.2184C43.614 72.538 42.5933 72.538 42.5933 73.2184C42.5933 73.8138 42.5933 74.8345 41.9979 75.2598C41.6576 75.515 41.1474 75.43 40.8922 75.0897C40.467 74.4943 40.3818 73.4736 40.3818 72.623V72.2828C40.2968 70.5816 40.2116 68.6252 40.2968 66.6689C40.2968 65.7332 40.3818 64.7976 40.3818 63.8619V63.7769C40.467 63.2665 40.467 62.6711 40.7221 62.2458C40.8922 61.9906 41.1474 61.7355 41.4876 61.7355C41.6576 61.7355 41.8278 61.8205 41.9129 61.9906C42.253 62.4159 42.168 63.2665 42.168 63.7769V63.947C42.168 64.1171 42.253 64.2022 42.3382 64.2872C42.5933 64.5424 43.1887 64.4573 43.1887 63.947C43.1887 63.0964 43.1887 62.2458 42.8484 61.5653C42.5083 61.055 41.9979 60.7998 41.4025 60.7998C41.2323 60.7998 41.0622 60.7998 40.8922 60.8849C39.3611 61.3102 39.3611 63.3516 39.3611 64.6275L39.2761 65.2229Z" fill="white"/>
<path d="M47.2717 61.2259C47.2717 66.0742 47.2717 71.0076 47.1865 75.6859V75.9411C47.1865 76.5365 48.2072 76.5365 48.2072 75.9411V74.5801V73.3042C48.8026 71.518 49.398 69.7318 50.0786 67.5202L49.9935 75.9411C49.9935 76.2813 50.2488 76.4514 50.5039 76.4514C50.759 76.4514 51.0141 76.2813 51.0141 75.9411L51.0993 68.626V61.2259C51.0993 60.6304 50.0786 60.6304 50.0786 61.2259V63.8627C49.4832 65.9041 48.8878 67.9455 48.2924 69.9019V61.2259C48.2924 60.6304 47.2717 60.6304 47.2717 61.2259Z" fill="white"/>
<path d="M57.0531 67.2649C57.0531 68.4557 57.0531 69.6465 56.968 70.8374C56.883 72.0282 56.7128 73.219 56.4577 74.3248L56.3726 74.4098C56.2876 74.7501 56.1174 75.2604 55.7771 75.3455C55.437 75.5156 55.0967 75.1754 55.0967 74.8351C55.0967 74.4949 54.8416 74.3248 54.5863 74.3248C54.4162 74.3248 54.3312 74.3248 54.2462 74.4949C54.161 74.58 54.076 74.665 54.076 74.8351C54.076 75.5156 54.4162 76.026 55.0116 76.2811C55.1817 76.3662 55.437 76.4513 55.6922 76.4513C55.9473 76.4513 56.2876 76.3662 56.5427 76.111C56.968 75.7708 57.2233 75.2604 57.3932 74.7501C57.5634 74.1547 57.6485 73.4742 57.7335 72.6236C58.0738 70.1569 58.0738 67.6051 58.0738 65.1384V64.7131L57.9887 63.6924C57.9887 63.0119 57.9887 62.4165 57.9887 61.736H59.0093V68.7959L59.0945 75.8558C59.0945 76.5363 60.1152 76.5363 60.1152 75.8558L60.0302 68.5408V61.2257C60.0302 61.0556 59.945 60.9705 59.8601 60.8855C59.7749 60.8004 59.6048 60.7153 59.5198 60.7153C58.8394 60.7153 58.1588 60.7153 57.4784 60.7153C57.3932 60.7153 57.2233 60.7153 57.1381 60.8004C57.0531 60.8855 56.968 61.0556 56.968 61.2257C56.968 62.2464 56.968 63.2671 57.0531 64.2028C57.0531 65.2235 57.0531 66.2442 57.0531 67.2649Z" fill="white"/>
<path d="M65.3041 61.2251C64.9638 64.8826 64.6237 68.6252 64.2834 72.2828L63.8582 75.9403C63.8582 76.0254 63.9431 76.1955 64.0283 76.2806C64.2834 76.5357 64.8788 76.4507 64.9638 75.9403C64.9638 75.1748 65.049 74.4093 65.134 73.6437C65.6444 73.6437 66.1547 73.6437 66.6651 73.6437C66.6651 74.4093 66.7501 75.1748 66.8352 75.9403C66.8352 76.2806 67.0904 76.4507 67.3455 76.4507C67.5156 76.4507 67.6858 76.3656 67.7708 76.2806C67.8559 76.1955 67.8559 76.0254 67.8559 75.9403L67.5156 72.2828C67.1753 68.6252 66.8352 64.8826 66.41 61.2251C66.41 60.9699 66.1547 60.7998 65.8995 60.7998C65.6444 60.7998 65.3891 60.9699 65.3041 61.2251ZM65.8995 65.9033L66.1547 68.5402L66.4949 72.623H66.1547H65.5592H65.2191L65.6444 68.5402L65.8995 65.9033Z" fill="white"/>
<path d="M74.1503 66.4146C73.0446 66.4146 72.2791 67.1801 72.2791 68.2858C72.2791 68.541 72.364 68.8813 72.4492 69.1364C72.5342 69.7319 72.8745 70.0721 73.3849 70.2422C73.9803 70.4123 74.5757 70.3273 75.1712 70.1571C75.3411 70.0721 75.5113 69.987 75.6814 69.8169C76.447 68.8813 76.3618 67.6054 75.5113 66.7548C75.1712 66.4996 74.8309 66.4146 74.4906 66.4146C74.3204 66.4146 74.2354 66.4146 74.1503 66.4146Z" fill="white"/>
<path d="M82.1457 63.3522C82.1457 65.0533 82.1457 66.8396 82.1457 68.5408V69.2212C82.0608 71.2627 81.9758 74.2397 81.0401 75.4305H80.3597C80.1044 75.4305 79.8492 75.6007 79.8492 75.9409C79.9342 76.1961 79.9342 76.5363 79.8492 76.7915C79.8492 77.472 80.8699 77.472 80.8699 76.7915V76.4513C82.4011 76.4513 83.932 76.4513 85.3781 76.4513C85.3781 76.5363 85.3781 76.7064 85.3781 76.7915C85.3781 77.1317 85.6333 77.3018 85.8884 77.3018C86.1437 77.3018 86.3988 77.1317 86.3988 76.7915V75.9409C86.3988 75.6007 86.2287 75.4305 85.8884 75.4305H85.208L85.1228 68.4557V61.2257C85.1228 60.9705 84.8677 60.7153 84.6126 60.7153C83.932 60.7153 83.3366 60.7153 82.6562 60.7153C82.4011 60.7153 82.1457 60.9705 82.1457 61.2257V63.3522ZM82.9113 72.7087C83.1666 70.4121 83.1666 67.9454 83.1666 65.6488V61.736H84.1021V68.5408L84.1873 75.4305H82.2309L82.3159 75.2604L82.4011 75.0903C82.7412 74.2397 82.8263 73.3891 82.9113 72.7087Z" fill="white"/>
<path d="M90.1413 66.6685L90.2263 67.0938C90.3964 68.7099 90.5666 70.4111 91.162 71.9421C91.247 72.2824 91.4171 72.8778 91.8424 73.133C91.7574 73.6433 91.6722 74.1537 91.5873 74.4939V74.579C91.5873 74.7491 91.5021 75.3445 91.247 75.4296C91.162 75.4296 91.162 75.4296 91.0768 75.3445C90.9918 75.2594 90.9067 75.0043 90.9067 74.8341C90.9067 74.664 90.9067 74.579 90.8217 74.4939C90.5666 74.1537 89.886 74.3238 89.886 74.8341C89.886 75.2594 90.0561 75.7698 90.3113 76.025C90.5666 76.2801 90.9067 76.4503 91.247 76.4503C91.3321 76.4503 91.5021 76.4503 91.6722 76.3652C92.5228 76.025 92.6079 74.8341 92.6929 73.9835V73.7284C92.9482 71.4318 93.2034 68.9651 93.4585 65.8179C93.5436 64.2868 93.7136 62.7558 93.7988 61.3098C93.7988 61.0546 93.7136 60.9695 93.7136 60.8845C93.4585 60.6293 92.7781 60.7143 92.7781 61.2247C92.6079 63.4362 92.4378 65.6478 92.2676 67.8593L92.1827 68.9651C92.0975 69.7306 92.0125 70.4961 91.9275 71.2617C91.7574 70.5812 91.6722 69.9858 91.5873 69.3904C91.247 67.7742 91.0768 66.0731 90.9067 64.4569L90.8217 63.7765V63.0109C90.7367 62.4155 90.6515 61.8201 90.6515 61.2247C90.5666 60.7143 89.9711 60.6293 89.7158 60.8845C89.6309 60.9695 89.6309 61.0546 89.6309 61.3098L89.801 63.096C89.886 64.2868 89.9711 65.4776 90.1413 66.6685Z" fill="white"/>
<path d="M97.5415 61.3958L98.8173 68.2005L97.4563 75.7708C97.3714 75.9409 97.4563 76.111 97.5415 76.1961C97.6265 76.3662 97.7966 76.4513 97.9668 76.4513C98.1369 76.4513 98.392 76.2811 98.392 76.026L99.3278 70.9224L99.4977 71.9431C99.753 73.3891 100.008 74.7501 100.263 76.026C100.348 76.2811 100.519 76.4513 100.689 76.4513C100.859 76.4513 101.029 76.3662 101.114 76.1961C101.199 76.111 101.284 75.9409 101.284 75.7708C100.944 74.0696 100.604 72.3684 100.348 70.6672L99.838 68.2005L100.093 66.6695L100.433 65.1384C100.689 63.8625 100.859 62.6717 101.114 61.3958C101.114 61.2257 101.114 61.0556 101.029 60.9705C100.944 60.8004 100.774 60.7153 100.604 60.7153C100.348 60.7153 100.178 60.8855 100.093 61.1406L99.6679 63.6924L99.3278 65.3936L99.2426 64.8832C98.9875 63.6073 98.7323 62.3315 98.5622 61.1406C98.477 60.8855 98.3069 60.7153 98.0518 60.7153C97.8816 60.7153 97.7116 60.8004 97.6265 60.9705C97.5415 61.0556 97.5415 61.2257 97.5415 61.3958Z" fill="white"/>
<path d="M106.303 61.2251C105.877 64.8826 105.537 68.6252 105.197 72.2828L104.856 75.9403C104.856 76.0254 104.856 76.1955 104.942 76.2806C105.197 76.5357 105.877 76.4507 105.877 75.9403C105.962 75.1748 106.047 74.4093 106.132 73.6437C106.558 73.6437 107.068 73.6437 107.578 73.6437C107.663 74.4093 107.749 75.1748 107.834 75.9403C107.834 76.2806 108.089 76.4507 108.344 76.4507C108.514 76.4507 108.599 76.3656 108.684 76.2806C108.769 76.1955 108.854 76.0254 108.854 75.9403L108.514 72.2828C108.174 68.6252 107.749 64.8826 107.408 61.2251C107.408 60.9699 107.153 60.7998 106.898 60.7998C106.643 60.7998 106.303 60.9699 106.303 61.2251ZM106.813 65.9033L107.068 68.5402L107.493 72.623H107.153H106.558H106.217L106.558 68.5402L106.813 65.9033Z" fill="white"/>
<path d="M91.2468 5.93766C92.4377 5.8526 93.1181 4.83189 92.778 3.64106L92.6928 3.04565C92.5227 2.28012 91.9274 1.76976 91.0767 1.59964C90.9066 1.59964 90.6514 1.51458 90.3963 1.42953C89.6307 1.17435 88.7802 1.34447 88.2698 2.02494C87.8445 2.62035 87.4192 3.30082 87.5042 4.06636C87.2491 5.4273 88.3549 6.44801 89.6307 6.19283C90.1412 6.10777 90.6514 6.02272 91.2468 5.93766Z" fill="white"/>
<path d="M81.2101 5.68249C81.7204 5.2572 81.8056 4.57673 81.8056 3.98131V3.81119C81.8905 2.53531 80.955 1.68472 79.679 1.76978C79.4239 1.85484 79.0836 1.85484 78.8285 1.76978C77.6376 1.59966 76.2767 2.45025 75.9364 3.55602C75.8514 3.98131 75.7662 4.40661 75.7662 4.8319C75.7662 5.76755 76.4468 6.53308 77.3825 6.61814C77.8928 6.61814 78.318 6.7032 78.7433 6.7032C79.7642 6.78826 80.4446 6.19285 81.2101 5.68249Z" fill="white"/>
<path d="M66.8351 5.17203C67.1752 4.74673 67.3454 4.32143 67.2604 3.81108C67.2604 3.64096 67.1752 3.47084 67.1752 3.30073C67.1752 2.1099 65.8994 0.834013 64.7086 0.919071C64.3683 0.919071 63.943 1.00413 63.5177 1.08919C62.582 1.25931 61.5614 2.79037 61.7315 3.81108C61.8167 4.15132 61.8167 4.40649 61.9016 4.74673C62.0718 5.59732 62.8373 6.19273 63.6879 6.19273L64.7086 6.10767C65.304 6.19273 66.4948 5.59732 66.8351 5.17203Z" fill="white"/>
<path d="M54.0763 4.74612C54.3314 4.32082 54.3314 3.72541 54.4164 3.38517C54.4164 2.36446 53.3957 1.17363 52.4602 1.00352C52.375 0.918457 52.2049 0.918457 52.1199 0.918457C51.3543 0.918457 50.5888 1.00352 49.9084 1.42881C48.9727 1.93917 48.2071 3.30011 48.4624 4.32082L48.5474 4.49094C48.5474 4.74612 48.6324 4.91623 48.7175 5.17141C49.0578 6.27718 50.2487 6.78753 51.2694 6.27718C51.4395 6.19212 51.5245 6.19212 51.6946 6.10706C52.29 5.93694 52.8003 5.85188 53.3107 5.59671C53.651 5.42659 53.9911 5.08635 54.0763 4.74612Z" fill="white"/>
<path d="M21.3288 6.02209C22.4344 4.74621 22.3495 2.95997 21.0735 1.8542C20.7334 1.51396 20.2229 1.34384 19.7125 1.4289C19.5425 1.4289 19.4574 1.4289 19.2872 1.4289C17.8413 1.34384 16.7356 2.36455 16.7356 3.89562C16.8206 4.32091 16.8206 4.66115 16.9056 5.08644C17.0757 5.85197 17.5861 6.27727 18.2665 6.53245C19.1171 6.78762 19.8826 6.70256 20.6482 6.44739C20.9033 6.36233 21.1586 6.19221 21.3288 6.02209Z" fill="white"/>
<path d="M14.0133 3.64122C14.0133 2.62051 13.588 2.0251 12.6523 1.68486C12.0569 1.42968 11.4615 1.34462 10.8661 1.34462C9.93036 1.25957 9.24997 1.5998 8.90968 2.53545C8.82469 2.62051 8.73953 2.70557 8.73953 2.87569C7.97415 4.15157 9.07982 6.36311 10.4408 6.70335C11.1212 6.78841 12.9926 6.19299 13.4179 5.68264C13.8431 5.17228 14.0983 4.57687 14.0133 3.8964V3.64122Z" fill="white"/>
<path d="M108.854 35.6229C108.769 29.0734 108.854 22.6089 109.28 16.1444C109.365 14.188 109.28 12.3167 109.195 10.3604C109.195 9.16953 108.514 8.65918 107.323 8.65918C105.877 8.74424 104.431 8.91436 102.985 9.42471C101.624 9.93506 100.433 10.5305 99.4977 11.6362C98.1369 13.2524 97.7117 15.1237 97.7117 17.08C97.6265 19.4617 98.4771 21.6732 99.9232 23.6296C100.689 24.7353 101.879 25.3308 103.24 25.4158C104.006 25.4158 104.856 25.4158 105.707 25.4158C105.707 25.5009 105.707 25.756 105.707 25.9262C105.622 30.6044 105.537 35.2827 105.537 39.9609C105.452 40.4713 105.282 40.8966 104.856 41.3219C104.516 41.577 104.091 41.9173 103.751 42.2575C102.56 43.2782 101.369 44.2139 100.433 45.4047C98.8173 47.4461 97.8816 49.7427 97.2862 52.1244C97.0311 52.8899 96.8609 53.7405 96.776 54.506C96.6058 55.3566 96.776 55.6968 97.6265 55.952C97.9668 56.0371 98.3921 56.1221 98.8173 56.1221C99.3278 56.2072 99.753 55.952 100.008 55.5267C100.178 55.1865 100.263 54.9313 100.433 54.5911C100.859 53.6554 101.284 52.5496 101.709 51.5289C102.475 49.6576 103.411 47.9565 105.027 46.5955C105.112 46.5105 105.282 46.5105 105.367 46.4254C105.452 46.5955 105.537 46.6806 105.537 46.8507C105.622 48.2116 105.537 49.5726 105.622 51.0186C105.622 52.0393 105.622 53.1451 105.622 54.2508C105.707 55.3566 106.473 56.0371 107.663 55.952C108.429 55.952 108.769 55.6968 108.854 54.9313C109.024 54.0807 109.11 53.2301 109.11 52.3795C109.024 46.7656 108.939 41.1517 108.854 35.6229ZM104.686 21.9284C102.9 21.5031 101.539 20.5674 100.859 18.7812C100.519 17.7605 100.689 16.9099 101.284 16.0593C102.135 14.6984 103.411 13.8478 104.772 13.1673C105.027 13.0823 105.282 12.9121 105.622 12.8271V22.0985C105.282 22.0985 104.942 22.0134 104.686 21.9284Z" fill="white"/>
<path d="M109.875 2.53536C109.875 1.59971 109.45 0.919241 108.514 0.579005C107.919 0.408887 107.323 0.323828 106.728 0.23877C105.792 0.23877 105.112 0.579005 104.772 1.4296C104.686 1.59971 104.601 1.68477 104.601 1.76983C103.836 3.04572 104.942 5.34231 106.303 5.59749C106.983 5.76761 108.854 5.1722 109.28 4.66184C109.705 4.15149 109.96 3.47101 109.875 2.79054V2.53536Z" fill="white"/>
<path d="M124.524 24.558C125.096 24.558 125.096 25.442 124.524 25.416C123.64 25.416 122.73 25.416 121.846 25.416C121.638 25.468 121.404 25.234 121.404 25C121.378 18.76 121.326 12.52 121.3 6.28C121.3 6.046 121.456 5.838 121.742 5.838C122.652 5.812 123.588 5.812 124.524 5.838C125.096 5.838 125.096 6.722 124.524 6.696C123.744 6.696 122.964 6.696 122.158 6.696C122.184 9.504 122.21 12.338 122.236 15.146C122.912 15.12 123.614 15.146 124.29 15.146C124.862 15.146 124.862 16.03 124.29 16.03C123.614 16.004 122.912 16.004 122.236 16.004C122.236 18.864 122.262 21.698 122.288 24.558C123.042 24.532 123.77 24.532 124.524 24.558ZM134.46 25C134.46 25.364 134.46 25.728 134.46 26.118C134.46 26.664 133.576 26.664 133.576 26.118C133.602 25.884 133.602 25.65 133.576 25.442C131.522 25.468 129.468 25.442 127.414 25.416C127.414 25.65 127.414 25.884 127.414 26.118C127.388 26.664 126.53 26.664 126.53 26.118C126.556 25.728 126.556 25.364 126.53 25C126.53 24.766 126.686 24.558 126.972 24.558C127.284 24.558 127.57 24.558 127.856 24.558C127.882 24.558 127.882 24.584 127.908 24.558C129.39 22.894 129.338 18.318 129.416 15.614C129.494 12.494 129.442 9.374 129.442 6.28C129.442 6.046 129.598 5.838 129.884 5.838C130.716 5.812 131.522 5.812 132.328 5.838C132.562 5.838 132.77 6.02 132.77 6.28C132.796 12.364 132.848 18.474 132.874 24.558C133.264 24.558 133.628 24.558 134.018 24.558C134.278 24.558 134.46 24.74 134.46 25ZM129.052 24.558C130.04 24.558 131.028 24.558 132.016 24.558C131.964 18.604 131.938 12.65 131.886 6.696C131.366 6.696 130.846 6.696 130.326 6.696C130.326 8.438 130.326 10.154 130.326 11.896C130.326 14.886 130.326 17.902 129.962 20.866C129.858 21.854 129.702 22.894 129.364 23.856C129.26 24.09 129.156 24.35 129.052 24.558ZM140.506 6.28C140.532 5.708 141.39 5.708 141.39 6.28C141.364 12.52 141.312 18.76 141.286 25C141.26 25.546 140.402 25.546 140.402 25C140.428 20.944 140.454 16.888 140.48 12.858C139.596 15.77 138.686 18.682 137.724 21.568C137.724 21.594 137.724 21.594 137.724 21.594C137.724 22.738 137.698 23.856 137.698 25C137.698 25.546 136.814 25.546 136.814 25C136.866 18.76 136.918 12.52 136.944 6.28C136.944 5.708 137.828 5.708 137.828 6.28C137.802 10.414 137.776 14.548 137.75 18.682C138.686 15.692 139.622 12.702 140.506 9.686C140.506 8.542 140.506 7.424 140.506 6.28ZM148.933 6.28C148.959 12.52 149.011 18.76 149.037 25C149.037 25.546 148.179 25.546 148.153 25C148.153 22.01 148.127 19.02 148.101 16.056C147.139 16.03 146.151 16.03 145.189 16.03C145.189 19.02 145.215 22.01 145.241 25C145.241 25.546 144.357 25.546 144.357 25C144.331 18.76 144.279 12.52 144.253 6.28C144.253 5.708 145.111 5.708 145.111 6.28C145.137 9.244 145.163 12.182 145.189 15.146C146.151 15.146 147.139 15.146 148.101 15.172C148.075 12.208 148.075 9.244 148.049 6.28C148.049 5.708 148.907 5.708 148.933 6.28ZM156.042 25C156.094 25.546 155.21 25.546 155.158 25C155.08 23.96 154.976 22.92 154.872 21.906C154.118 21.88 153.338 21.88 152.584 21.88C152.48 22.92 152.376 23.96 152.298 25C152.246 25.546 151.362 25.546 151.414 25C152.012 18.76 152.584 12.52 153.234 6.28C153.286 5.76 154.17 5.682 154.222 6.28C154.872 12.52 155.444 18.76 156.042 25ZM152.662 21.022C153.364 20.996 154.092 21.022 154.794 21.022C154.43 17.356 154.092 13.69 153.728 10.024C153.364 13.69 153.026 17.356 152.662 21.022ZM164.745 6.28C164.771 12.52 164.823 18.76 164.849 25C164.849 25.546 163.991 25.546 163.991 25C163.939 20.138 163.913 15.302 163.887 10.466C163.575 10.466 163.237 10.466 162.899 10.414C162.457 10.986 162.301 11.766 162.197 12.442C162.067 13.222 162.041 14.002 162.015 14.808C161.989 16.524 162.015 18.24 161.989 19.956C161.989 21.126 161.989 22.348 161.729 23.492C161.573 24.194 161.235 24.948 160.559 25.26C160.117 25.468 159.571 25.494 159.129 25.286C158.453 24.974 158.193 24.272 158.167 23.57C158.167 22.998 159.051 22.998 159.051 23.57C159.077 24.168 159.415 24.74 160.091 24.506C160.299 24.454 160.455 24.298 160.611 24.038C160.975 23.362 161.027 22.478 161.079 21.698C161.157 20.32 161.131 18.942 161.131 17.564C161.131 16.108 161.079 14.652 161.209 13.222C161.313 12.208 161.469 11.09 162.015 10.206C161.235 9.894 160.637 9.348 160.507 8.386C160.403 7.528 160.663 6.696 161.443 6.254C162.301 5.76 163.367 5.786 164.303 5.838C164.511 5.838 164.745 5.994 164.745 6.28ZM161.391 8.282C161.547 9.426 162.873 9.686 163.887 9.608C163.887 8.62 163.861 7.658 163.861 6.696C162.717 6.67 161.157 6.8 161.391 8.282ZM125.876 31.838C126.422 31.838 126.422 32.722 125.876 32.696C125.356 32.696 124.81 32.696 124.29 32.696C124.342 38.78 124.368 44.89 124.42 51C124.42 51.546 123.536 51.546 123.536 51C123.484 44.89 123.458 38.78 123.432 32.696C122.86 32.696 122.288 32.696 121.742 32.696C121.17 32.722 121.17 31.838 121.742 31.838C123.12 31.812 124.498 31.812 125.876 31.838ZM132.837 34.802C133.071 37.246 132.993 39.768 132.967 42.238C132.967 43.382 132.993 44.552 132.967 45.696C132.941 46.944 132.967 48.296 132.629 49.492V49.518C132.343 50.376 131.797 51.234 130.861 51.39C130.211 51.52 129.587 51.26 129.171 50.74C128.313 49.674 128.287 48.088 128.235 46.788C128.157 44.734 128.105 42.68 128.105 40.626C128.105 39.534 128.131 38.468 128.183 37.376C128.209 36.44 128.209 35.478 128.313 34.542C128.495 33.19 129.171 31.682 130.783 31.838C132.239 31.994 132.733 33.554 132.837 34.802ZM130.393 50.532C131.147 50.662 131.589 49.882 131.771 49.284C132.135 48.088 132.083 46.71 132.083 45.462C132.109 44.37 132.083 43.252 132.109 42.134C132.109 39.872 132.135 37.61 132.005 35.348C131.953 34.49 131.849 32.956 130.835 32.722C129.457 32.436 129.197 34.256 129.145 35.192C128.885 38.962 128.963 42.784 129.119 46.58C129.145 47.62 129.171 48.712 129.561 49.7C129.717 50.064 129.951 50.48 130.393 50.532ZM139.202 32.176C139.982 32.618 140.268 33.528 140.164 34.386C139.982 36.128 138.266 36.57 136.784 36.466C136.81 41.302 136.836 46.138 136.862 51C136.862 51.546 136.004 51.546 135.978 51C135.952 44.76 135.9 38.52 135.874 32.28C135.874 32.072 136.03 31.838 136.368 31.838C137.278 31.786 138.344 31.734 139.202 32.176ZM139.306 34.282C139.358 33.632 139.15 33.06 138.526 32.852C137.98 32.67 137.356 32.67 136.758 32.696C136.758 33.658 136.758 34.62 136.758 35.608C137.798 35.686 139.176 35.504 139.306 34.282ZM145.803 31.838C146.375 31.838 146.375 32.722 145.803 32.696C144.997 32.696 144.217 32.696 143.411 32.696C143.463 38.806 143.489 44.89 143.541 51C143.541 51.546 142.657 51.546 142.657 51C142.631 44.76 142.579 38.52 142.527 32.28C142.527 32.072 142.709 31.838 142.969 31.838C143.931 31.812 144.867 31.812 145.803 31.838ZM152.286 34.802C152.52 37.246 152.442 39.768 152.416 42.238C152.416 43.382 152.442 44.552 152.416 45.696C152.39 46.944 152.416 48.296 152.078 49.492V49.518C151.792 50.376 151.246 51.234 150.31 51.39C149.66 51.52 149.036 51.26 148.62 50.74C147.762 49.674 147.736 48.088 147.684 46.788C147.606 44.734 147.554 42.68 147.554 40.626C147.554 39.534 147.58 38.468 147.632 37.376C147.658 36.44 147.658 35.478 147.762 34.542C147.944 33.19 148.62 31.682 150.232 31.838C151.688 31.994 152.182 33.554 152.286 34.802ZM149.842 50.532C150.596 50.662 151.038 49.882 151.22 49.284C151.584 48.088 151.532 46.71 151.532 45.462C151.558 44.37 151.532 43.252 151.558 42.134C151.558 39.872 151.584 37.61 151.454 35.348C151.402 34.49 151.298 32.956 150.284 32.722C148.906 32.436 148.646 34.256 148.594 35.192C148.334 38.962 148.412 42.784 148.568 46.58C148.594 47.62 148.62 48.712 149.01 49.7C149.166 50.064 149.4 50.48 149.842 50.532ZM159.613 48.686C159.743 49.622 159.431 50.584 158.599 51.104C157.767 51.624 156.701 51.598 155.765 51.416C155.557 51.364 155.427 51.234 155.427 51C155.401 44.76 155.349 38.52 155.323 32.28C155.323 32.072 155.479 31.838 155.817 31.838C156.727 31.786 157.793 31.734 158.625 32.176C159.431 32.618 159.717 33.528 159.613 34.386C159.431 36.128 157.715 36.57 156.207 36.466C156.233 39.898 156.259 43.356 156.285 46.788C157.715 46.684 159.353 47.022 159.613 48.686ZM157.975 32.852C157.429 32.67 156.805 32.67 156.207 32.696C156.207 33.658 156.207 34.62 156.207 35.608C157.247 35.686 158.625 35.504 158.755 34.282C158.807 33.632 158.599 33.06 157.975 32.852ZM158.105 50.376C158.703 50.012 158.859 49.336 158.729 48.712C158.469 47.646 157.221 47.568 156.285 47.646C156.285 48.634 156.311 49.622 156.311 50.636C156.909 50.714 157.585 50.688 158.105 50.376ZM166.655 51C166.707 51.546 165.823 51.546 165.771 51C165.693 49.96 165.589 48.92 165.485 47.906C164.731 47.88 163.951 47.88 163.197 47.88C163.093 48.92 162.989 49.96 162.911 51C162.859 51.546 161.975 51.546 162.027 51C162.625 44.76 163.197 38.52 163.847 32.28C163.899 31.76 164.783 31.682 164.835 32.28C165.485 38.52 166.057 44.76 166.655 51ZM163.275 47.022C163.977 46.996 164.705 47.022 165.407 47.022C165.043 43.356 164.705 39.69 164.341 36.024C163.977 39.69 163.639 43.356 163.275 47.022ZM175.358 32.28C175.384 38.52 175.436 44.76 175.462 51C175.462 51.546 174.604 51.546 174.604 51C174.552 46.138 174.526 41.302 174.5 36.466C174.188 36.466 173.85 36.466 173.512 36.414C173.07 36.986 172.914 37.766 172.81 38.442C172.68 39.222 172.654 40.002 172.628 40.808C172.602 42.524 172.628 44.24 172.602 45.956C172.602 47.126 172.602 48.348 172.342 49.492C172.186 50.194 171.848 50.948 171.172 51.26C170.73 51.468 170.184 51.494 169.742 51.286C169.066 50.974 168.806 50.272 168.78 49.57C168.78 48.998 169.664 48.998 169.664 49.57C169.69 50.168 170.028 50.74 170.704 50.506C170.912 50.454 171.068 50.298 171.224 50.038C171.588 49.362 171.64 48.478 171.692 47.698C171.77 46.32 171.744 44.942 171.744 43.564C171.744 42.108 171.692 40.652 171.822 39.222C171.926 38.208 172.082 37.09 172.628 36.206C171.848 35.894 171.25 35.348 171.12 34.386C171.016 33.528 171.276 32.696 172.056 32.254C172.914 31.76 173.98 31.786 174.916 31.838C175.124 31.838 175.358 31.994 175.358 32.28ZM172.004 34.282C172.16 35.426 173.486 35.686 174.5 35.608C174.5 34.62 174.474 33.658 174.474 32.696C173.33 32.67 171.77 32.8 172.004 34.282ZM125.98 58.488C126.032 64.65 126.058 70.812 126.11 77C126.11 77.546 125.226 77.546 125.226 77C125.2 70.89 125.148 64.806 125.122 58.696C124.134 58.696 123.172 58.696 122.184 58.696C122.236 64.806 122.262 70.89 122.314 77C122.314 77.546 121.43 77.546 121.43 77C121.378 70.76 121.352 64.52 121.3 58.28C121.3 58.046 121.482 57.838 121.846 57.838C123.094 57.812 124.342 57.812 125.616 57.838C125.98 57.838 125.98 58.176 125.98 58.488ZM134.797 58.228C134.849 64.468 134.875 70.708 134.927 76.948C134.927 77.52 134.043 77.52 134.043 76.948C134.017 70.864 133.965 64.78 133.939 58.67C133.367 58.67 132.821 58.67 132.249 58.67C132.249 60.022 132.301 61.374 132.327 62.7C132.353 66.054 132.405 69.46 131.963 72.788C131.859 73.672 131.703 74.582 131.443 75.44C131.235 76.038 130.975 76.688 130.455 77.104C129.961 77.494 129.285 77.52 128.713 77.26C128.011 76.948 127.699 76.298 127.699 75.57C127.673 74.998 128.557 74.998 128.557 75.57C128.583 76.168 129.077 76.766 129.753 76.506C130.299 76.298 130.507 75.44 130.663 74.972C131.079 73.542 131.209 72.008 131.313 70.526C131.417 68.992 131.443 67.458 131.469 65.924C131.469 63.35 131.365 60.802 131.365 58.228C131.365 58.072 131.443 57.968 131.547 57.89C131.599 57.838 131.703 57.812 131.807 57.812C132.665 57.786 133.523 57.786 134.355 57.812C134.485 57.812 134.589 57.838 134.667 57.916C134.745 57.994 134.797 58.098 134.797 58.228ZM142.257 60.802C142.491 63.246 142.413 65.768 142.387 68.238C142.387 69.382 142.413 70.552 142.387 71.696C142.361 72.944 142.387 74.296 142.049 75.492V75.518C141.763 76.376 141.217 77.234 140.281 77.39C139.631 77.52 139.007 77.26 138.591 76.74C137.733 75.674 137.707 74.088 137.655 72.788C137.577 70.734 137.525 68.68 137.525 66.626C137.525 65.534 137.551 64.468 137.603 63.376C137.629 62.44 137.629 61.478 137.733 60.542C137.915 59.19 138.591 57.682 140.203 57.838C141.659 57.994 142.153 59.554 142.257 60.802ZM139.813 76.532C140.567 76.662 141.009 75.882 141.191 75.284C141.555 74.088 141.503 72.71 141.503 71.462C141.529 70.37 141.503 69.252 141.529 68.134C141.529 65.872 141.555 63.61 141.425 61.348C141.373 60.49 141.269 58.956 140.255 58.722C138.877 58.436 138.617 60.256 138.565 61.192C138.305 64.962 138.383 68.784 138.539 72.58C138.565 73.62 138.591 74.712 138.981 75.7C139.137 76.064 139.371 76.48 139.813 76.532ZM154.374 76.714C154.426 76.792 154.478 76.896 154.452 77C154.426 77.416 154.348 78.092 154.322 78.508C154.296 78.742 154.14 78.924 153.88 78.924C153.672 78.924 153.412 78.742 153.438 78.508C153.464 78.222 153.49 77.702 153.542 77.442C150.89 77.468 148.238 77.416 145.586 77.416C145.456 77.416 145.352 77.364 145.274 77.286C145.196 77.208 145.144 77.13 145.144 77C145.118 70.76 145.066 64.52 145.04 58.28C145.04 57.708 145.898 57.708 145.924 58.28C145.95 64.364 146.002 70.448 146.028 76.558C146.886 76.558 147.744 76.558 148.602 76.558C148.55 70.474 148.498 64.364 148.472 58.28C148.472 57.708 149.33 57.708 149.356 58.28C149.382 64.364 149.434 70.474 149.486 76.558C150.318 76.584 151.15 76.584 151.982 76.558C151.956 70.474 151.904 64.364 151.878 58.28C151.878 57.708 152.736 57.708 152.762 58.28C152.788 64.364 152.84 70.474 152.866 76.558C152.866 76.558 152.866 76.558 154.036 76.558C154.192 76.558 154.296 76.61 154.374 76.714ZM161.222 77C161.274 77.546 160.39 77.546 160.338 77C160.26 75.96 160.156 74.92 160.052 73.906C159.298 73.88 158.518 73.88 157.764 73.88C157.66 74.92 157.556 75.96 157.478 77C157.426 77.546 156.542 77.546 156.594 77C157.192 70.76 157.764 64.52 158.414 58.28C158.466 57.76 159.35 57.682 159.402 58.28C160.052 64.52 160.624 70.76 161.222 77ZM157.842 73.022C158.544 72.996 159.272 73.022 159.974 73.022C159.61 69.356 159.272 65.69 158.908 62.024C158.544 65.69 158.206 69.356 157.842 73.022ZM170.998 77C170.998 77.364 170.998 77.728 170.998 78.118C170.998 78.664 170.114 78.664 170.114 78.118C170.14 77.884 170.14 77.65 170.114 77.442C168.06 77.468 166.006 77.442 163.952 77.416C163.952 77.65 163.952 77.884 163.952 78.118C163.926 78.664 163.068 78.664 163.068 78.118C163.094 77.728 163.094 77.364 163.068 77C163.068 76.766 163.224 76.558 163.51 76.558C163.822 76.558 164.108 76.558 164.394 76.558C164.42 76.558 164.42 76.584 164.446 76.558C165.928 74.894 165.876 70.318 165.954 67.614C166.032 64.494 165.98 61.374 165.98 58.28C165.98 58.046 166.136 57.838 166.422 57.838C167.254 57.812 168.06 57.812 168.866 57.838C169.1 57.838 169.308 58.02 169.308 58.28C169.334 64.364 169.386 70.474 169.412 76.558C169.802 76.558 170.166 76.558 170.556 76.558C170.816 76.558 170.998 76.74 170.998 77ZM165.59 76.558C166.578 76.558 167.566 76.558 168.554 76.558C168.502 70.604 168.476 64.65 168.424 58.696C167.904 58.696 167.384 58.696 166.864 58.696C166.864 60.438 166.864 62.154 166.864 63.896C166.864 66.886 166.864 69.902 166.5 72.866C166.396 73.854 166.24 74.894 165.902 75.856C165.798 76.09 165.694 76.35 165.59 76.558ZM177.173 58.28C177.069 60.074 176.133 61.92 174.261 62.18C174.261 65.82 174.287 69.434 174.313 73.074C175.223 73.178 176.029 73.568 176.523 74.348C177.017 75.128 177.121 76.09 177.173 77C177.199 77.546 176.315 77.546 176.289 77C176.263 76.298 176.185 75.57 175.847 74.946C175.535 74.322 174.963 74.036 174.313 73.958C174.339 74.972 174.339 75.986 174.339 77C174.339 77.546 173.481 77.546 173.481 77C173.429 70.76 173.377 64.52 173.351 58.28C173.351 57.708 174.235 57.708 174.235 58.28C174.235 59.268 174.235 60.282 174.235 61.296C175.613 61.036 176.237 59.606 176.289 58.28C176.315 57.708 177.199 57.708 177.173 58.28ZM183.946 77C183.998 77.546 183.114 77.546 183.062 77C182.984 75.96 182.88 74.92 182.776 73.906C182.022 73.88 181.242 73.88 180.488 73.88C180.384 74.92 180.28 75.96 180.202 77C180.15 77.546 179.266 77.546 179.318 77C179.916 70.76 180.488 64.52 181.138 58.28C181.19 57.76 182.074 57.682 182.126 58.28C182.776 64.52 183.348 70.76 183.946 77ZM180.566 73.022C181.268 72.996 181.996 73.022 182.698 73.022C182.334 69.356 181.996 65.69 181.632 62.024C181.268 65.69 180.93 69.356 180.566 73.022Z" fill="white"/>
</svg>
