<svg width="39" height="28" viewBox="0 0 39 28" fill="none" xmlns="http://www.w3.org/2000/svg">
<g clip-path="url(#clip0_44_479)">
<path fill-rule="evenodd" clip-rule="evenodd" d="M10.4028 13.9254C11.2183 13.6711 11.2534 14.3639 11.2523 14.9997C11.2512 15.6171 11.3855 16.3708 10.8702 16.5409C10.1168 16.7892 10.026 16.1058 10.0289 15.4938C10.0317 14.8934 9.87719 14.0892 10.4028 13.9254ZM8.93159 16.4967C8.87319 16.5724 9.03219 16.6214 8.54409 16.5548C8.44059 16.3008 8.47949 14.2933 8.51769 13.9115C8.70989 13.8576 9.26179 13.7953 9.36899 13.9727C9.76869 14.0535 9.80779 14.5088 9.75389 14.996C9.69469 15.5329 9.45089 15.5275 8.94659 15.5479L8.93159 16.4967ZM14.566 13.9203L14.9237 13.9138L14.945 15.4876C15.1213 14.9688 15.2523 14.4217 15.434 13.9157L15.8586 13.9112L15.8546 16.5528L15.4901 16.527L15.4793 14.871L15.0672 16.1826C14.9561 16.6146 14.9626 16.5565 14.5533 16.531L14.566 13.9203ZM16.2044 13.9126L16.5556 13.9265L16.5718 15.4031C16.7926 15.0462 16.8873 14.3424 17.0786 13.9152L17.5072 13.918L17.5013 16.546L17.1257 16.5446L17.0973 14.82L16.5738 16.5452L16.1886 16.5432L16.2044 13.9126ZM14.2026 14.3344C14.2465 14.3874 14.2403 14.352 14.2661 14.454L14.2573 14.8228C13.8179 14.8852 13.9228 14.8302 13.8848 14.7625C13.8834 14.585 13.8644 14.4237 13.81 14.3075C13.3352 14.2171 13.4758 14.6944 13.4747 15.1097L13.4767 15.9349C13.5444 16.2818 13.8667 16.4678 13.888 15.5417L14.2511 15.5649C14.2647 16.1254 14.229 16.6038 13.6158 16.5746C13.0183 16.5457 13.0293 16.0757 13.0299 15.5496C13.0302 15.1375 12.9616 14.3248 13.1719 14.0677C13.395 13.795 14.1791 13.7851 14.2026 14.3344ZM12.7255 14.3307C12.8414 14.498 12.8312 14.5856 12.7893 14.8387C12.5701 14.8685 12.5752 14.8931 12.374 14.8041L12.3533 14.3642C12.2464 14.2312 12.313 14.2706 12.0712 14.2919C11.9397 14.5601 11.8802 15.9462 12.0942 16.1806C12.4729 16.1908 12.3745 15.8969 12.3958 15.5482L12.7711 15.5618C12.7955 16.12 12.7192 16.5959 12.1316 16.5749C11.5743 16.5551 11.5366 16.0823 11.5363 15.5494C11.5361 15.1009 11.4295 14.3614 11.6891 14.0671C11.9604 13.759 12.6402 13.8233 12.7255 14.3307ZM19.1627 10.7755L19.5964 10.7849L19.5819 13.4069L19.1493 13.3976L19.1627 10.7755ZM11.9859 10.8285C12.2456 10.7081 12.5718 10.7806 12.7224 10.9465C12.9009 11.1437 12.8576 11.5156 12.8559 11.8164C12.8528 12.3595 12.9911 13.2419 12.5299 13.4282C12.2317 13.5487 11.8972 13.4477 11.7679 13.274C11.6049 13.0549 11.631 12.7416 11.6322 12.4202C11.635 11.7657 11.4768 11.0649 11.9859 10.8285ZM17.7057 10.7622L18.1096 10.765L18.1144 11.758C18.8548 11.7821 18.9861 11.9794 18.9328 12.751C18.8852 13.4401 18.3423 13.3766 17.7008 13.3621L17.7057 10.7622ZM10.1564 10.7866C10.8229 10.7775 11.328 10.699 11.3708 11.4289C11.4215 12.3003 11.2517 12.3037 10.5573 12.4307L10.5309 13.395L10.1394 13.3947L10.1564 10.7866ZM16.2243 10.771L17.3805 10.7599C17.4902 10.8711 17.4265 10.6335 17.4647 10.9357C17.4729 11.0026 17.446 11.0865 17.4355 11.1522L17.0205 11.1673L17.0078 13.4197L16.5812 13.3874L16.5678 11.1752L16.1511 11.1372C16.1177 10.71 16.1341 10.8212 16.2243 10.771ZM13.6482 12.2623L13.6345 12.9659C13.7746 12.9806 13.8619 12.9744 13.9965 12.978C14.1913 12.9834 14.1882 12.9381 14.2687 13.0486L14.263 13.3976L13.1861 13.3848L13.1889 10.7656L14.2857 10.7659L14.2579 11.142L13.5869 11.1471L13.5889 11.87L14.1677 11.8759L14.1663 12.2535L13.6482 12.2623ZM8.54069 10.7908L9.81909 10.7891L9.80859 13.3993L9.40889 13.3766L9.40189 11.1429L8.94519 11.1466L8.93099 13.3987L8.53019 13.3749L8.54069 10.7908ZM15.0465 12.5871L15.0278 13.4098L14.5915 13.4013L14.6037 10.7704L15.0261 10.7857C15.0573 11.0865 14.9609 11.5508 15.0836 11.7949L15.5516 10.7871L15.9405 10.803C15.8113 11.0006 15.3591 11.8408 15.4053 12.0525C15.4932 12.4551 15.8215 12.9426 15.9241 13.4191L15.5386 13.4106L15.1338 12.404L15.0465 12.5871ZM26.3162 7.65463L26.7278 7.64663L26.7076 10.2653L26.3133 10.2429L26.3162 7.65463ZM11.813 7.65203L11.8076 8.08403L11.8133 10.2548C13.0146 10.2698 12.8834 10.1814 12.8853 10.6227L13.2675 10.6105C13.2278 8.95283 13.0945 11.0253 13.0911 8.52313L13.0897 7.66963L12.6824 7.63903L12.6642 9.88093L12.2175 9.87413L12.2067 7.64133L11.813 7.65203ZM24.8657 7.63763L25.2753 7.67023L25.2858 8.62943C26.0316 8.65013 26.1387 8.92003 26.0812 9.67913C26.0293 10.3594 25.4947 10.2693 24.862 10.261L24.8657 7.63763ZM21.7382 7.64663L22.1365 7.64303L22.1422 8.60763C22.8367 8.73403 23.0586 8.77283 22.9583 9.67913C22.8823 10.3656 22.3842 10.2729 21.7493 10.2622L21.7331 8.63283L21.7382 7.64663ZM16.3986 9.18193C16.3986 9.77123 16.4227 10.3483 15.697 10.2891C15.0584 10.2369 15.1585 9.58103 15.1587 9.01723C15.159 8.43583 15.0556 7.74443 15.5511 7.61263C16.5301 7.35213 16.3986 8.48463 16.3986 9.18193ZM18.6819 10.2318C18.6272 10.2644 18.6794 10.2769 18.4985 10.2968C18.433 10.3041 18.3403 10.2871 18.274 10.2817C18.3001 10.0635 18.2706 10.1678 18.3534 10.0762C18.3361 9.82193 18.6147 7.96953 18.695 7.69993C18.7723 7.65833 18.6941 7.68183 18.8307 7.65493C18.8897 7.64353 18.9263 7.64243 18.9864 7.64013C19.0793 7.63643 19.2154 7.64613 19.3129 7.64923L19.6936 10.265L19.2899 10.2542C19.1975 9.74913 19.3401 9.75873 18.7304 9.80863L18.6819 10.2318ZM10.5037 10.2259C10.3758 10.3081 10.6678 10.2622 10.3197 10.2973C10.244 10.305 10.1766 10.2814 10.1074 10.2693C10.1278 10.07 10.1031 10.1664 10.1757 10.0833C10.1391 9.53223 10.4419 8.31223 10.5093 7.65233L11.1347 7.64923C11.1999 8.17963 11.4927 9.44643 11.4485 9.90423C11.5281 9.99913 11.466 9.78343 11.5324 10.0578C11.5607 10.1763 11.542 10.1768 11.5389 10.2829C11.4964 10.2837 11.2758 10.2942 11.2466 10.2877C11.0071 10.2333 11.1545 10.3367 11.0944 10.17C11.036 9.72763 11.0956 9.76133 10.5558 9.80953L10.5037 10.2259ZM23.6479 7.67903C23.6768 7.72603 23.6873 7.70903 23.708 7.80963L23.7058 8.19373C23.7035 8.37603 23.7032 8.54863 23.7143 8.74113L24.0856 8.73373C24.0816 8.53643 24.0879 8.33803 24.087 8.13903C24.0865 7.97123 24.034 7.67103 24.1704 7.60413L24.5323 7.60103L24.534 10.2347L24.1341 10.2324L24.1318 9.13283L23.6689 9.14363L23.661 10.2911L23.2565 10.2871L23.259 7.67783L23.6479 7.67903ZM17.1138 7.65883C17.2243 7.77113 17.2073 7.73563 17.2224 7.91653C17.2224 7.91653 17.2141 8.16593 17.2139 8.19433C17.2113 8.37373 17.1883 8.51153 17.2456 8.63453L17.5101 8.66143L17.5177 7.61463C18.0013 7.43153 17.9656 7.56983 18.0118 7.65853L18.001 10.2344L17.5892 10.2358L17.5917 9.13993L17.126 9.13233C17.0962 10.3447 17.2637 10.2639 16.7127 10.2605L16.7223 7.63983L17.1138 7.65883ZM8.93239 10.2358C8.88989 10.2885 9.01209 10.3807 8.54489 10.2976C8.45029 10.0487 8.45759 7.96383 8.53299 7.66653C9.01609 7.54323 8.93219 7.70083 8.93979 7.71723L8.93189 8.74903L9.38199 8.76013C9.37379 8.54953 9.37859 8.34963 9.37749 8.13903C9.37519 7.63983 9.32249 7.66483 9.46729 7.59993L9.82079 7.60213L9.81969 10.2412L9.40869 10.2043L9.39989 9.12893L8.94489 9.13093L8.93239 10.2358ZM13.5608 7.64383L13.9373 7.64523L13.9481 9.14823C14.1326 8.76803 14.2114 7.97833 14.4336 7.63963L14.8475 7.66853L14.8393 10.2545L14.492 10.2636L14.4631 8.56593L13.9653 10.2576L13.56 10.2619L13.5532 8.57813L13.5608 7.64383ZM27.4739 9.84893L28.191 9.87723L28.1871 10.2585C27.9226 10.352 27.3429 10.3376 27.0665 10.2642C27.0331 9.83873 27.0557 9.34093 27.0557 8.90753L27.0492 7.91593C27.0552 7.62233 27.0668 7.68633 27.132 7.64473L28.1763 7.64643L28.1686 7.97433C28.0005 8.04803 27.7165 8.01463 27.4849 8.02313L27.492 8.74023L28.0445 8.74513L28.0433 9.12603L27.4866 9.13113L27.4739 9.84893ZM21.3145 7.64643C21.408 7.72063 21.4117 7.65403 21.4103 7.97213L21.4086 8.96223C21.4086 9.33953 21.4426 9.91493 21.3859 10.2761L20.9638 10.265L20.9556 8.01943L20.6174 8.06333C20.6151 8.53703 20.5913 9.03823 20.5729 9.51303C20.5522 10.0436 20.4828 10.2454 19.9362 10.2647C19.8898 9.32703 20.1942 10.6624 20.1979 8.96223C20.1987 8.52823 20.2138 8.09623 20.2118 7.64783L21.3145 7.64643ZM1.12299 0.540828L1.12499 8.41343C1.23689 8.63853 1.68849 8.78333 1.91439 8.90863L4.47349 10.2497C5.00929 10.5264 7.57549 11.9281 7.91619 12.0128L7.91909 7.43213C7.94459 7.24783 7.92589 7.31053 8.02139 7.20763C8.21699 7.01563 13.1453 7.10983 13.7746 7.10983C15.017 7.10983 28.3302 7.06843 28.5065 7.13443C28.7341 7.21973 29.3368 8.72753 29.5125 9.08613C30.152 10.39 30.7592 11.7328 31.3794 13.0923C32.9042 16.4335 34.5837 19.8634 36.0881 23.2035C36.386 23.8651 36.7624 24.5519 37.0241 25.1939C36.9787 24.8728 36.636 24.0445 36.4968 23.6726L32.5343 12.8706C31.4568 9.82343 30.2447 6.69683 29.1415 3.63793C28.9756 3.17783 28.1301 0.788828 27.9903 0.566028L1.12299 0.540828ZM0.920588 0.729328L0.920288 8.30373C0.920288 8.71253 0.981288 8.65583 1.62159 8.98633C1.92149 9.14113 2.21259 9.28993 2.52189 9.45743C3.11089 9.77663 3.72489 10.0912 4.32389 10.4002C4.94919 10.7228 5.53739 11.034 6.12419 11.3425C6.44589 11.5117 6.71009 11.6517 7.02469 11.8156C8.06479 12.3575 7.91589 12.0809 7.91679 13.1337L7.91619 15.9879C7.91589 17.2348 7.73959 16.9701 9.06959 17.4528L14.8628 19.5626C17.4386 20.5446 19.9907 21.425 22.5889 22.3791L36.1105 27.2995C38.0065 27.9852 38.4595 28.4059 37.9246 27.0203C37.8098 26.723 37.7211 26.4545 37.6009 26.1353C37.3812 25.5514 37.1644 24.9649 36.9518 24.3711C36.5291 23.1916 36.1184 22.037 35.668 20.8779C34.7793 18.5918 33.9581 16.2124 33.1049 13.8934C32.2474 11.5624 31.367 9.26153 30.5339 6.91163C30.1203 5.74543 29.6829 4.58753 29.2563 3.41883C29.0391 2.82413 28.8229 2.24103 28.6071 1.65113C28.0442 0.110728 28.2613 0.346028 27.2768 0.345728L1.64459 0.346028C1.16949 0.344928 0.920588 0.227828 0.920588 0.729328Z" fill="#E04E37"/>
<path fill-rule="evenodd" clip-rule="evenodd" d="M6.01505 5.48772C6.22175 5.36612 6.25285 5.13142 6.24265 4.83742L6.26845 4.31782C6.51875 4.24752 6.92695 4.24842 7.17245 4.31362L7.19545 5.50842L7.27025 5.50562C7.38955 5.56792 7.34595 5.46472 7.36695 5.72042C7.37375 5.80352 7.35355 5.95802 7.34285 6.04382L7.13365 6.05582L7.05335 5.67682L6.22005 5.67392L6.16645 6.04952H5.93595L5.91185 5.61442C5.95525 5.48462 5.90255 5.55542 6.01505 5.48772ZM21.082 5.70742L21.0528 4.56392C21.0647 4.26942 21.0296 4.32862 21.2393 4.31052C21.3326 4.44682 21.2906 4.62062 21.3093 4.83032C21.6934 4.84482 22.1872 4.86382 22.0639 5.38392C21.9721 5.77232 21.4981 5.72102 21.082 5.70742ZM15.9717 5.67792L16.4216 4.41992C16.6841 3.97262 16.8612 4.75322 16.9281 4.93212C17.0253 5.19202 17.1297 5.40892 17.1847 5.67822C16.8598 5.67902 16.9312 5.64022 16.8643 5.37462L16.2852 5.48322C16.1761 5.68532 16.2526 5.62832 16.1271 5.67002C16.0542 5.69412 16.046 5.67872 15.9717 5.67792ZM25.9823 5.12032C25.8371 4.09532 26.9313 3.94762 27.0886 4.80962C27.2794 5.85622 26.1019 5.96652 25.9823 5.12032ZM11.8465 4.87772L12.4482 4.84992L12.4474 4.35182C12.5112 4.30142 12.4519 4.30852 12.5673 4.28612C12.6498 4.32752 12.6844 4.24272 12.6849 4.62432L12.6861 5.39982C12.6798 5.70482 12.7141 5.61162 12.567 5.68442C12.3711 5.59372 12.4723 5.85762 12.4403 5.08322L11.8439 5.06622C11.845 5.27792 11.8717 5.51722 11.7985 5.67172L11.6339 5.67392C11.5726 5.49732 11.5695 4.46722 11.6339 4.30202L11.7985 4.28982C11.8722 4.44342 11.8433 4.67562 11.8465 4.87772ZM9.17685 5.18072C9.17935 5.84122 9.20315 5.61332 9.05435 5.68302C8.90305 5.60992 8.96675 5.80402 8.93755 5.45622L8.94805 4.29232C9.38605 4.26682 9.91525 4.20842 9.98155 4.63702C10.0649 5.17472 9.58275 5.12832 9.17685 5.18072ZM3.95225 5.16992C3.95255 5.23882 3.96335 5.39952 3.95795 5.45652C3.92625 5.80212 3.99055 5.60992 3.84005 5.68132C3.67675 5.61162 3.71195 5.87922 3.71675 5.06562C3.71815 4.80572 3.71445 4.55062 3.72265 4.28982C4.15975 4.27132 4.68085 4.21952 4.75305 4.64412C4.83895 5.14732 4.37915 5.15012 3.95225 5.16992ZM25.5684 4.95562C26.0384 4.27452 25.2424 4.23822 24.7642 4.30282L24.7648 5.66402C25.3915 5.74652 26.1455 5.50532 25.5684 4.95562ZM10.864 4.91992C10.773 5.22012 10.5601 5.67252 10.197 5.67992L10.1856 4.56562C10.197 4.24192 10.1525 4.35722 10.3166 4.28302C10.5363 4.38192 10.405 4.62092 10.4549 5.20932L10.7784 4.79602L10.9252 4.46672C11.053 4.26232 11.004 4.28922 11.2656 4.28922L11.2812 5.39982C11.275 5.75222 11.3079 5.61642 11.1401 5.68302C11.0346 5.61332 11.0777 5.68922 11.0465 5.55602L11.0383 4.77142L10.864 4.91992ZM14.716 4.84312L14.6511 5.09002C14.6046 5.57392 14.7508 5.55432 14.5431 5.68102C14.371 5.61302 14.4067 5.87432 14.4078 5.06562C14.4084 4.80372 14.4039 4.54972 14.4144 4.28752C14.7933 4.28892 14.7126 4.37912 14.8359 4.71812C14.9062 4.91112 14.9889 5.15432 15.0692 5.31762C15.1811 5.12542 15.2497 4.91682 15.3265 4.69682C15.4635 4.30482 15.3852 4.26772 15.8033 4.29232L15.8144 5.40152C15.8002 5.70262 15.8487 5.60652 15.6956 5.67932C15.6219 5.64872 15.5539 5.70622 15.5681 5.28902C15.5743 5.09762 15.5839 4.91932 15.5856 4.72632C15.2696 5.19912 15.3985 5.56312 15.0918 5.67992C14.8883 5.55012 14.7797 5.08262 14.716 4.84312ZM12.9865 5.67962L12.9721 4.56472C12.9911 4.21472 12.9364 4.35612 13.1158 4.28332C13.2385 4.35702 13.1665 4.26912 13.2057 4.41482L13.2196 5.19152L13.399 4.96382C13.4636 4.86012 13.509 4.78382 13.5645 4.69232C13.7057 4.46072 13.7261 4.29202 14.0504 4.28722L14.0575 5.40152C14.0453 5.70312 14.0946 5.60592 13.9393 5.68102C13.7579 5.60422 13.8494 5.81002 13.808 5.45592L13.8117 4.75132C13.5583 5.06502 13.4358 5.35982 13.3117 5.53362C13.1796 5.71792 13.2402 5.67532 12.9865 5.67962ZM19.818 4.45162L19.8453 4.28892C20.1398 4.26712 20.5208 4.24272 20.7804 4.31732L20.8005 5.50672C20.7566 5.74762 20.8105 5.58102 20.7138 5.67282L20.5409 5.66542L20.5366 4.49952L20.1009 4.50242C20.0774 4.92842 20.1265 5.90952 19.5901 5.66912C19.612 5.34312 19.7537 5.58892 19.8042 5.17222C19.8246 5.00242 19.8285 4.62282 19.818 4.45162ZM19.4889 5.67082C19.4135 5.78192 19.5139 5.72272 19.3214 5.74592L18.566 5.70652L18.5504 4.62342C18.5473 4.34422 18.5124 4.40002 18.6592 4.31642L19.3194 4.30652C19.5448 4.34282 19.3999 4.25092 19.4847 4.40682C19.3982 4.59562 19.4623 4.51232 18.8174 4.51772L18.8157 4.89812C19.5153 4.91712 19.3585 4.81082 19.3917 5.06282L18.8166 5.06652L18.8137 5.50072L19.428 5.50472L19.4889 5.67082ZM18.4084 4.45222C18.3724 4.19882 18.4183 4.38022 18.3301 4.28552C18.1286 4.28242 17.9268 4.28612 17.7244 4.28332C17.1682 4.27562 17.3374 4.29692 17.2975 4.40682C17.3848 4.55482 17.524 4.49222 17.7377 4.49612L17.7391 5.66712L17.9242 5.67732C18.0699 5.52792 17.9883 4.94092 18.0132 4.52992C18.3043 4.51462 18.2425 4.56022 18.4084 4.45222ZM7.77705 5.67192L7.57275 5.68212L7.57125 4.29032L8.67965 4.28472L8.68215 5.50302C8.68165 5.50642 8.74995 5.49282 8.61525 5.67932C8.22435 5.64532 8.49485 5.40952 8.40865 4.55232L7.84515 4.54122C7.82245 4.77452 7.92615 5.49852 7.77705 5.67192ZM5.16975 4.88502L5.17285 4.53162C5.32765 4.51372 5.40275 4.52452 5.54655 4.52022C5.92295 4.50922 5.82795 4.42902 5.84015 4.40682C5.75915 4.28922 5.89205 4.30852 5.59635 4.30962L4.93765 4.30852L4.95295 5.70652C5.11305 5.71282 5.27355 5.71392 5.43365 5.71502C5.78205 5.71762 5.76845 5.71932 5.84385 5.61442C5.76985 5.48402 5.86365 5.55712 5.70555 5.51042C5.69875 5.50842 5.56095 5.49902 5.54625 5.49872C5.40335 5.49452 5.32715 5.50732 5.17285 5.49052L5.17145 5.08122C5.91215 4.99562 5.66275 5.18472 5.76025 4.95562L5.48955 4.89812C5.37985 4.89182 5.28855 4.89582 5.16975 4.88502ZM2.55765 4.49412L2.58795 5.45622C2.56535 5.80322 2.61095 5.61532 2.46775 5.68612C2.30935 5.61242 2.33565 5.86952 2.34255 5.06562C2.34445 4.80402 2.33915 4.54552 2.34935 4.28412L3.45595 4.28212C3.46365 4.65232 3.52485 5.47182 3.40095 5.68302L3.23595 5.67562C3.10385 5.39732 3.19625 4.84112 3.18775 4.49902L2.55765 4.49412ZM24.0385 5.68192C23.8702 5.59912 23.9722 5.77882 23.9232 5.50842L23.9263 4.49982C23.6332 4.48562 23.5504 4.58662 23.4855 4.35182C23.4974 4.34332 23.5167 4.31812 23.5238 4.33032C23.5311 4.34282 23.5533 4.31392 23.5637 4.31102C23.6349 4.29122 23.6105 4.29062 23.7063 4.28162L24.6052 4.28522C24.5768 4.51062 24.733 4.46502 24.1828 4.49642C24.1239 4.82812 24.1876 5.27652 24.1695 5.45622C24.1335 5.80692 24.2081 5.60732 24.0385 5.68192ZM23.1008 5.29782C23.1833 5.22752 23.0719 5.25212 23.2176 5.22782C23.3137 5.21192 23.2888 5.22662 23.3735 5.23652C23.3897 5.50872 23.3667 5.33582 23.3234 5.40102C23.1091 5.91202 22.2283 5.85992 22.2558 4.95482C22.2831 4.04662 23.1907 4.09132 23.3262 4.61182C23.3324 4.62282 23.3472 4.62712 23.3466 4.64412L23.1601 4.74102L23.1111 4.58292C22.7746 4.23422 22.4852 4.57182 22.4934 5.01092C22.5042 5.56622 22.9546 5.66832 23.1008 5.29782ZM15.1086 3.10772C15.4428 2.99122 15.3495 2.43482 15.4031 1.97242L16.2444 1.94812L16.2742 3.08962L16.4579 3.18372L16.455 3.59672C16.3836 3.71042 16.5848 3.66962 16.2994 3.70752C16.0721 3.56012 16.2161 3.59132 16.1347 3.35152L15.3662 3.34782L15.2818 3.69592L15.0428 3.69452C14.9671 3.49612 14.9161 3.19502 15.1086 3.10772ZM3.87885 3.31922C3.94185 3.05762 4.05205 2.80672 4.14305 2.56862C4.22865 2.34552 4.27685 1.99682 4.49885 1.91182C4.62465 1.96932 4.55435 1.90732 4.63115 2.02292L4.84035 2.58362C4.93735 2.83962 5.04395 3.06692 5.10345 3.31642C4.69075 3.32002 4.92455 3.27982 4.77325 3.00202L4.27915 2.99212C4.05345 3.25652 4.31515 3.31322 3.87885 3.31922ZM6.70645 2.76022C6.54375 1.74602 7.73545 1.60142 7.84315 2.43682C7.98115 3.50972 6.83915 3.58542 6.70645 2.76022ZM17.507 2.50452L17.522 1.91012L17.7666 1.89192C17.8159 2.09492 17.8774 3.14682 17.7235 3.32682L17.5282 3.29622L17.5293 2.70752L16.9202 2.71292C16.9191 2.81752 16.9304 2.95472 16.9256 3.04002C16.9077 3.36262 16.9604 3.24692 16.7935 3.32402C16.599 3.22282 16.6826 3.23582 16.6824 2.59552C16.6821 2.24742 16.6041 1.90952 16.7935 1.90532C16.9789 1.90132 16.9111 2.05862 16.9219 2.47792L17.507 2.50452ZM12.8542 3.32062C12.7147 3.21262 12.7878 2.76782 12.7873 2.59552C12.7867 2.35652 12.7442 2.08922 12.8414 1.87492C13.0741 1.81512 13.3242 1.81372 13.5149 1.93642C13.772 1.99122 13.9719 2.24972 13.8367 2.54502C13.7139 2.81322 13.4225 2.78152 13.0671 2.79992L13.0611 3.31722L12.8542 3.32062ZM2.46775 3.32542C2.30135 3.24862 2.35215 3.36742 2.33655 3.04142L2.34785 2.10172C2.40995 1.72812 2.26315 2.37442 2.37315 2.00332L2.41305 1.91212C2.86125 1.94722 2.67645 2.48352 3.01685 2.91702C3.42845 2.36872 3.09055 1.90212 3.73965 1.91632L3.75215 3.04142C3.73545 3.36282 3.79045 3.24612 3.62065 3.32292C3.54185 3.28292 3.49365 3.32122 3.50615 2.92942C3.51155 2.75372 3.52285 2.58702 3.52535 2.40902C3.40575 2.55132 3.36415 2.69782 3.29835 2.87782C3.23655 3.04712 3.21185 3.21572 3.07155 3.31982C2.83995 3.25142 2.85445 3.03322 2.71725 2.67572L2.57465 2.41382C2.56275 2.89802 2.66485 3.22482 2.46775 3.32542ZM9.72335 3.32542C9.63205 3.25402 9.68315 3.33762 9.65225 3.19902L9.67605 1.90102L9.90305 1.90022L9.95725 2.81632C10.2661 2.31122 10.4121 1.90702 10.7307 1.90732L10.7633 3.04112C10.7511 3.34162 10.8033 3.24382 10.646 3.32232C10.5615 3.28382 10.5142 3.33792 10.5184 2.92862C10.5204 2.74552 10.5218 2.56432 10.5224 2.38122C10.3985 2.51052 10.0068 3.11452 9.93595 3.31382L9.72335 3.32542ZM19.4643 2.49202C20.0678 2.52122 19.8915 2.43932 19.9796 2.59552C19.9105 2.75342 20.0868 2.67972 19.7619 2.71292C19.6304 2.72622 19.5592 2.70322 19.4002 2.73102L19.3965 3.12272L19.9771 3.14602C20.1052 3.22682 20.0958 3.01052 20.0814 3.30902C19.8821 3.43572 19.424 3.38182 19.1638 3.35322L19.1496 1.94692L20.0729 1.93672L20.078 2.07482L19.9263 2.15932L19.4459 2.15102L19.4643 2.49202ZM8.35475 2.50142L8.33065 2.15582C8.55325 2.15272 8.81795 2.20012 9.00875 2.10142C9.03905 1.79242 9.01975 1.99992 8.92175 1.93932L8.06875 1.95122L8.07415 3.25462C8.16885 3.39882 7.93925 3.32942 8.28165 3.36742L8.83695 3.35922C8.98065 3.32742 8.90275 3.36172 8.97755 3.25432C8.85535 3.03742 8.78675 3.18142 8.31025 3.11762L8.30005 2.91782L8.30205 2.71992C8.43335 2.70782 8.56735 2.72282 8.67565 2.71202C8.99795 2.68052 8.82675 2.74772 8.88625 2.59552C8.82595 2.47452 9.00905 2.49032 8.35475 2.50142ZM18.2859 2.11162L18.2896 2.48072C18.8381 2.54702 18.7661 2.39002 18.8843 2.59552C18.7908 2.80532 19.0487 2.65472 18.2922 2.72282L18.289 3.12812C18.4379 3.14232 18.524 3.13352 18.6632 3.13612C18.6831 3.13642 18.8151 3.14122 18.8262 3.14432C18.9807 3.18912 18.8911 3.13102 18.9603 3.25432C18.8205 3.45042 18.2927 3.35722 18.0705 3.34872L18.0563 1.95292L18.7735 1.94352C19.0578 1.98212 18.8577 1.90022 18.9591 2.04672C18.7837 2.16182 18.5303 2.12332 18.2859 2.11162ZM14.3446 2.49662L14.3236 2.17142C14.4796 2.14962 14.5093 2.15702 14.6576 2.15442C14.7117 2.15362 14.761 2.15812 14.8149 2.14902C14.9538 2.12552 14.877 2.16462 14.9127 2.09602C14.9694 2.01042 14.9748 2.21822 14.958 1.94472L14.0354 1.93792L14.0614 3.35462C14.3166 3.37082 14.7724 3.43172 14.9654 3.30902C14.9674 3.05302 14.9853 3.23192 14.8727 3.15512L14.2854 3.12192L14.2871 2.72422C14.4348 2.70632 14.5396 2.72532 14.6581 2.71432C14.9858 2.68342 14.8087 2.75202 14.8761 2.59552C14.7894 2.44072 14.9623 2.50992 14.3446 2.49662ZM5.44585 3.30842C5.36595 3.36092 5.55865 3.38012 5.32625 3.36172C5.12045 3.34582 5.30045 3.37052 5.21515 3.30902C5.19305 3.00602 5.20125 3.23272 5.29025 3.14492C5.57175 2.97512 5.43365 2.37922 5.51445 1.96512L6.41105 1.94922L6.43945 3.04142C6.42465 3.37332 6.47625 3.24802 6.30985 3.32232C6.17915 3.26252 6.18855 3.49922 6.19965 2.76052C6.20305 2.54502 6.21095 2.32992 6.18115 2.11792L5.77865 2.11732C5.70495 2.56632 5.82425 3.17942 5.44585 3.30842ZM11.9068 3.08312C12.5288 3.17772 12.1013 2.87502 12.5846 2.86202C12.4998 3.53042 11.4728 3.51362 11.4779 2.59692C11.4828 1.69272 12.4222 1.60222 12.5846 2.31662C12.1441 2.31632 12.5115 2.28942 12.2297 2.10652C12.0928 2.01782 11.9227 2.06322 11.8334 2.18872C11.6336 2.46962 11.7776 2.89312 11.9068 3.08312ZM1.12505 8.41362C1.23695 8.63872 1.68855 8.78352 1.91445 8.90882L4.47355 10.2499C5.00935 10.5266 7.57555 11.9283 7.91625 12.013L7.91915 7.43232C7.94465 7.24802 7.92595 7.31072 8.02145 7.20782C8.21705 7.01582 13.1453 7.11002 13.7746 7.11002C15.017 7.11002 28.3302 7.06862 28.5065 7.13462C28.7341 7.21992 29.3368 8.72772 29.5125 9.08632C30.152 10.3902 30.7592 11.733 31.3794 13.0925C32.9042 16.4337 34.5837 19.8636 36.0881 23.2037C36.386 23.8653 36.7624 24.5521 37.0241 25.1941C36.9787 24.873 36.636 24.0447 36.4968 23.6728L32.5343 12.8708C31.4568 9.82362 30.2447 6.69702 29.1415 3.63812C28.9756 3.17802 28.1301 0.789015 27.9903 0.566216L1.12305 0.541016L1.12505 8.41362Z" fill="#FCFFFD"/>
<path fill-rule="evenodd" clip-rule="evenodd" d="M13.5532 8.57815L13.56 10.2619L13.9653 10.2576L14.4631 8.56595L14.492 10.2636L14.8393 10.2545L14.8475 7.66855L14.4336 7.63965C14.2114 7.97835 14.1326 8.76805 13.9481 9.14825L13.9373 7.64525L13.5608 7.64385L13.5532 8.57815Z" fill="#FAFAFD"/>
<path fill-rule="evenodd" clip-rule="evenodd" d="M14.5533 16.5309C14.9626 16.5564 14.9561 16.6145 15.0672 16.1825L15.4793 14.8709L15.4901 16.5269L15.8546 16.5527L15.8586 13.9111L15.434 13.9156C15.2523 14.4216 15.1213 14.9687 14.945 15.4875L14.9237 13.9137L14.566 13.9202L14.5533 16.5309Z" fill="#FAFAFD"/>
<path fill-rule="evenodd" clip-rule="evenodd" d="M16.1886 16.5432L16.5738 16.5452L17.0973 14.82L17.1257 16.5446L17.5013 16.546L17.5072 13.918L17.0786 13.9152C16.8873 14.3424 16.7926 15.0462 16.5718 15.4031L16.5556 13.9265L16.2044 13.9126L16.1886 16.5432Z" fill="#FAFAFD"/>
<path fill-rule="evenodd" clip-rule="evenodd" d="M11.8076 8.08416L11.8133 10.255C13.0146 10.27 12.8834 10.1816 12.8853 10.6229L13.2675 10.6107C13.2278 8.95296 13.0945 11.0255 13.0911 8.52326L13.0897 7.66976L12.6824 7.63916L12.6642 9.88106L12.2175 9.87426L12.2067 7.64146L11.813 7.65216L11.8076 8.08416Z" fill="#FAFAFD"/>
<path fill-rule="evenodd" clip-rule="evenodd" d="M15.5726 8.68761C15.5726 8.27291 15.487 7.93391 15.9488 8.01551C15.9697 8.42171 16.0417 9.57261 15.9025 9.89321L15.6415 9.89261C15.5465 9.64231 15.5726 9.00651 15.5726 8.68761ZM16.3986 9.18171C16.3986 8.48441 16.5301 7.35191 15.5511 7.61241C15.0556 7.74421 15.159 8.43561 15.1587 9.01701C15.1585 9.58081 15.0584 10.2367 15.697 10.2889C16.4227 10.3481 16.3986 9.77101 16.3986 9.18171Z" fill="#FAFAFD"/>
<path fill-rule="evenodd" clip-rule="evenodd" d="M12.4139 13.0304C11.9244 13.1562 12.0727 12.5709 12.0735 12.1457C12.0749 11.3492 11.9658 11.1283 12.4015 11.1621C12.5316 11.4716 12.4868 12.6582 12.4139 13.0304ZM11.9859 10.8284C11.4768 11.0648 11.635 11.7656 11.6322 12.4201C11.631 12.7415 11.6049 13.0548 11.7679 13.2739C11.8972 13.4476 12.2317 13.5486 12.5299 13.4281C12.9911 13.2418 12.8528 12.3594 12.8559 11.8163C12.8576 11.5155 12.9009 11.1436 12.7224 10.9464C12.5718 10.7805 12.2456 10.708 11.9859 10.8284Z" fill="#FEFDF8"/>
<path fill-rule="evenodd" clip-rule="evenodd" d="M18.0117 7.65835L17.5967 7.65015L17.5933 8.73495L17.1188 8.74175L17.1137 7.65865L16.7222 7.63965L16.7126 10.2603C17.2636 10.2637 17.0961 10.3445 17.1259 9.13215L17.5916 9.13975L17.5891 10.2356L18.0009 10.2342L18.0117 7.65835Z" fill="#FAFFFA"/>
<path fill-rule="evenodd" clip-rule="evenodd" d="M8.53015 13.3749L8.93095 13.3987L8.94515 11.1466L9.40185 11.1429L9.40885 13.3766L9.80855 13.3993L9.81905 10.7891L8.54065 10.7908L8.53015 13.3749Z" fill="#FAFAFD"/>
<path fill-rule="evenodd" clip-rule="evenodd" d="M10.4392 15.1645C10.4401 14.8218 10.3978 14.5213 10.5214 14.286C10.8928 14.275 10.835 14.332 10.835 14.7254C10.835 15.5667 10.9821 16.1739 10.5489 16.1915C10.3811 15.9687 10.4384 15.5381 10.4392 15.1645ZM10.4027 13.9255C9.87715 14.0893 10.0316 14.8935 10.0288 15.4939C10.0259 16.1059 10.1167 16.7893 10.8701 16.541C11.3854 16.3709 11.2511 15.6172 11.2522 14.9998C11.2533 14.364 11.2182 13.6712 10.4027 13.9255Z" fill="#FAFAFD"/>
<path fill-rule="evenodd" clip-rule="evenodd" d="M23.6479 7.67907L23.259 7.67787L23.2565 10.2872L23.661 10.2912L23.6689 9.14367L24.1318 9.13287L24.1341 10.2325L24.534 10.2348L24.5323 7.60107L24.1704 7.60417L24.1361 8.79307L23.6564 8.78197L23.6479 7.67907Z" fill="#FAFFFA"/>
<path fill-rule="evenodd" clip-rule="evenodd" d="M10.7596 8.22961C10.9102 8.51371 10.9351 9.03501 10.9796 9.41231L10.5811 9.41421L10.7596 8.22961ZM10.1757 10.0835L10.1865 10.2337L10.5037 10.2261L10.5558 9.80971C11.0956 9.76151 11.036 9.72781 11.0944 10.1702L11.5032 10.2425L11.4485 9.90441C11.4927 9.44661 11.1999 8.17981 11.1347 7.64941L10.5093 7.65251C10.4419 8.31241 10.1391 9.53241 10.1757 10.0835Z" fill="#FAFFFA"/>
<path fill-rule="evenodd" clip-rule="evenodd" d="M8.93183 8.7492L8.93973 7.7174L8.56104 7.7058L8.57744 10.2499L8.93234 10.236L8.94484 9.1311L9.39984 9.1291L9.40863 10.2045L9.81963 10.2414L9.82073 7.6023L9.46724 7.6001L9.43214 8.7861C9.31704 8.8167 9.03614 8.8924 8.93183 8.7492Z" fill="#FAFAFD"/>
<path fill-rule="evenodd" clip-rule="evenodd" d="M18.9277 8.41079L18.9311 8.26419L19.0062 8.14569L19.0465 8.25369L19.055 8.40139L19.1777 9.41899L18.7933 9.38389L18.9277 8.41079ZM18.3534 10.0761L18.3681 10.2354L18.6819 10.2317L18.7304 9.80849C19.3401 9.75859 19.1975 9.74899 19.2899 10.2541L19.6936 10.2649L19.3129 7.64909C19.2154 7.64599 19.0793 7.63629 18.9864 7.63999C18.9263 7.64229 18.8897 7.64339 18.8307 7.65479C18.6941 7.68169 18.7723 7.65819 18.695 7.69979C18.6147 7.96939 18.3361 9.82179 18.3534 10.0761Z" fill="#FAFAFD"/>
<path fill-rule="evenodd" clip-rule="evenodd" d="M20.9556 8.01948C21.0168 8.08808 21.0239 8.05548 21.0276 8.30068L21.0222 9.12698C21.0219 9.48758 21.0304 9.84928 21.0228 10.2127L21.3513 10.211L21.3145 7.64648L20.2118 7.64788C20.2138 8.09628 20.1987 8.52828 20.1979 8.96228C20.1942 10.6625 19.8898 9.32708 19.9362 10.2648C20.4828 10.2455 20.5522 10.0437 20.5729 9.51308C20.5913 9.03828 20.6151 8.53708 20.6174 8.06338L20.9556 8.01948Z" fill="#FAFAFD"/>
<path fill-rule="evenodd" clip-rule="evenodd" d="M13.8848 14.7626L14.1998 14.777L14.2026 14.3345C14.1791 13.7852 13.395 13.7951 13.1719 14.0678C12.9616 14.3249 13.0302 15.1376 13.0299 15.5497C13.0293 16.0758 13.0183 16.5458 13.6158 16.5747C14.229 16.6039 14.2647 16.1255 14.2511 15.565L13.888 15.5418C13.8667 16.4679 13.5444 16.2819 13.4767 15.935L13.4747 15.1098C13.4758 14.6945 13.3352 14.2172 13.81 14.3076C13.8644 14.4238 13.8834 14.5851 13.8848 14.7626Z" fill="#FAFAFD"/>
<path fill-rule="evenodd" clip-rule="evenodd" d="M12.3532 14.3644C12.4858 14.5676 12.4068 14.5934 12.4572 14.7981L12.7645 14.7992L12.7254 14.3309C12.6401 13.8235 11.9603 13.7592 11.689 14.0673C11.4294 14.3616 11.536 15.1011 11.5362 15.5496C11.5365 16.0825 11.5742 16.5553 12.1315 16.5751C12.7191 16.5961 12.7954 16.1202 12.771 15.562L12.3957 15.5484C12.3744 15.8971 12.4728 16.191 12.0941 16.1808C11.8801 15.9464 11.9396 14.5603 12.0711 14.2921C12.3129 14.2708 12.2463 14.2314 12.3532 14.3644Z" fill="#FEFDF8"/>
<path fill-rule="evenodd" clip-rule="evenodd" d="M18.4534 12.9797L18.1124 13.0163L18.079 12.3655L18.09 12.1345C18.3522 12.141 18.4566 12.0982 18.4931 12.3635C18.5186 12.548 18.4909 12.8355 18.4534 12.9797ZM17.7008 13.3621C18.3423 13.3766 18.8852 13.4401 18.9328 12.751C18.9861 11.9794 18.8548 11.7821 18.1144 11.758L18.1096 10.765L17.7057 10.7622L17.7008 13.3621Z" fill="#FAFAFD"/>
<path fill-rule="evenodd" clip-rule="evenodd" d="M25.6275 9.85269C25.4158 9.9717 25.4184 9.9213 25.3007 9.902C25.2063 9.7226 25.2477 9.6684 25.2469 9.4564C25.2446 8.9926 25.2094 9.0842 25.3206 9.0201L25.6395 9.0575C25.6823 9.2775 25.6984 9.6534 25.6275 9.85269ZM24.8619 10.2611C25.4946 10.2694 26.0292 10.3595 26.0811 9.67919C26.1386 8.92009 26.0315 8.6502 25.2857 8.6295L25.2752 7.6703L24.8656 7.6377L24.8619 10.2611Z" fill="#FAFFFA"/>
<path fill-rule="evenodd" clip-rule="evenodd" d="M15.0836 11.7949C15.0091 11.9031 15.1905 11.8439 14.9847 11.8938L14.9793 10.82L14.6511 10.8339L14.655 13.3621L14.9881 13.3585C14.981 13.1507 14.9011 12.7 15.0465 12.5871L15.1338 12.404L15.5386 13.4106L15.9241 13.4191C15.8215 12.9426 15.4932 12.4551 15.4053 12.0525C15.3591 11.8408 15.8113 11.0006 15.9405 10.803L15.5516 10.7871L15.0836 11.7949Z" fill="#FAFAFD"/>
<path fill-rule="evenodd" clip-rule="evenodd" d="M10.5507 11.1627C10.8351 11.1242 10.9266 11.1072 10.9595 11.3816C10.9839 11.5848 10.9558 11.7963 10.9255 11.9916L10.5553 12.008L10.5507 11.1627ZM10.1394 13.3947L10.5309 13.395L10.5573 12.4307C11.2517 12.3037 11.4215 12.3003 11.3708 11.4289C11.328 10.699 10.8229 10.7775 10.1564 10.7866L10.1394 13.3947Z" fill="#FAFFFA"/>
<path fill-rule="evenodd" clip-rule="evenodd" d="M22.4834 9.85067C22.4751 9.85457 22.4916 9.97057 22.1381 9.87697C22.1166 9.71797 22.1205 9.61477 22.1202 9.45637C22.1185 8.87837 22.1055 9.10487 22.2041 9.02147L22.5162 9.04387C22.5687 9.30247 22.5956 9.67177 22.4834 9.85067ZM21.733 8.63287L21.7492 10.2623C22.3841 10.273 22.8822 10.3657 22.9582 9.67917C23.0585 8.77287 22.8366 8.73407 22.1421 8.60767L22.1364 7.64307L21.7381 7.64667L21.733 8.63287Z" fill="#FAFFFA"/>
<path fill-rule="evenodd" clip-rule="evenodd" d="M8.94765 15.1723L8.94825 14.3006C9.33855 14.291 9.35275 14.3258 9.35955 14.725C9.36665 15.1555 9.36695 15.1796 8.94765 15.1723ZM8.93155 16.4969L8.94655 15.5481C9.45085 15.5277 9.69465 15.5331 9.75385 14.9962C9.80775 14.509 9.76865 14.0537 9.36895 13.9729L8.56165 13.9443L8.58255 16.4994L8.93155 16.4969Z" fill="#FAFAFD"/>
<path fill-rule="evenodd" clip-rule="evenodd" d="M14.2686 13.0486L13.5653 13.0257C13.5573 12.8774 13.5622 12.7688 13.5596 12.6393C13.5528 12.3008 13.535 12.3488 13.6481 12.2623L14.1662 12.2535L14.1676 11.8759L13.5888 11.87L13.5868 11.1471L14.2578 11.142L14.2856 10.7659L13.1888 10.7656L13.186 13.3848L14.2629 13.3976L14.2686 13.0486Z" fill="#FAFAFD"/>
<path fill-rule="evenodd" clip-rule="evenodd" d="M27.4739 9.84873L27.4866 9.13093L28.0433 9.12583L28.0445 8.74493L27.492 8.74003L27.4849 8.02293C27.7165 8.01443 28.0005 8.04783 28.1686 7.97413L28.1763 7.64623L27.132 7.64453L27.1096 10.2356L28.1482 10.2455L28.1377 9.92413L27.6609 9.92633C27.2879 9.90993 27.5742 9.92353 27.4739 9.84873Z" fill="#FAFFFA"/>
<path fill-rule="evenodd" clip-rule="evenodd" d="M2.46768 3.32541C2.66478 3.22481 2.56268 2.89801 2.57458 2.41381L2.71718 2.67571C2.85438 3.03321 2.83988 3.25141 3.07148 3.31981C3.21178 3.21571 3.23648 3.04711 3.29828 2.87781C3.36408 2.69781 3.40568 2.55131 3.52528 2.40901C3.52278 2.58701 3.51148 2.75371 3.50608 2.92941C3.49358 3.32121 3.54178 3.28291 3.62058 3.32291C3.79038 3.24611 3.73538 3.36281 3.75208 3.04141L3.73958 1.91631C3.09048 1.90211 3.42838 2.36871 3.01678 2.91701C2.67638 2.48351 2.86118 1.94721 2.41298 1.91211L2.37308 2.00331C2.26308 2.37441 2.40988 1.72811 2.34778 2.10171L2.33648 3.04141C2.35208 3.36741 2.30128 3.24861 2.46768 3.32541Z" fill="#DE4E3D"/>
<path fill-rule="evenodd" clip-rule="evenodd" d="M17.0205 11.1672C17.0735 11.1244 16.9689 11.136 17.1742 11.1C17.1889 11.0974 17.3632 11.094 17.395 11.0921L17.3805 10.7598L16.2243 10.7709L16.2013 11.1034L16.6002 11.121C16.7844 11.6315 16.5117 12.8972 16.6835 13.3586L16.965 13.362L16.9667 11.428C16.9675 11.3795 16.9655 11.3188 16.9743 11.2723C16.9947 11.1643 16.9834 11.2171 17.0205 11.1672Z" fill="#FAFEFD"/>
<path fill-rule="evenodd" clip-rule="evenodd" d="M14.6511 5.08975L14.5952 4.65605C14.6247 4.69035 14.6434 4.71015 14.6805 4.76485C14.7369 4.84875 14.6627 4.71525 14.716 4.84285C14.7797 5.08235 14.8883 5.54985 15.0918 5.67965C15.3985 5.56285 15.2696 5.19885 15.5856 4.72605C15.5839 4.91905 15.5743 5.09735 15.5681 5.28875C15.5539 5.70595 15.6219 5.64845 15.6956 5.67905C15.8487 5.60625 15.8002 5.70235 15.8144 5.40125L15.8033 4.29205C15.3852 4.26745 15.4635 4.30455 15.3265 4.69655C15.2497 4.91655 15.1811 5.12515 15.0692 5.31735C14.9889 5.15405 14.9062 4.91085 14.8359 4.71785C14.7126 4.37885 14.7933 4.28865 14.4144 4.28725C14.4039 4.54945 14.4084 4.80345 14.4078 5.06535C14.4067 5.87405 14.371 5.61275 14.5431 5.68075C14.7508 5.55405 14.6046 5.57365 14.6511 5.08975Z" fill="#DE4E3A"/>
<path fill-rule="evenodd" clip-rule="evenodd" d="M26.3132 10.2428L26.7075 10.2652L26.7277 7.64648L26.3161 7.65448L26.3132 10.2428Z" fill="#FAFAFD"/>
<path fill-rule="evenodd" clip-rule="evenodd" d="M15.6245 2.15635C15.7155 2.05825 15.7594 2.07155 16.0681 2.11125C16.1115 2.40065 16.1248 2.84485 16.0562 3.12665C15.411 3.19155 15.5309 3.10565 15.4816 3.03485C15.6265 2.80665 15.6307 2.47045 15.6245 2.15635ZM15.1086 3.10735C15.0524 3.28395 15.0139 3.49435 15.1468 3.64145C15.3815 3.54275 15.178 3.56575 15.3115 3.31115L16.1897 3.29135L16.2481 3.63715L16.455 3.59635L16.4579 3.18335L16.2742 3.08925L16.2444 1.94775L15.4031 1.97205C15.3495 2.43445 15.4428 2.99085 15.1086 3.10735Z" fill="#DE4E3A"/>
<path fill-rule="evenodd" clip-rule="evenodd" d="M12.9864 5.6795C13.2401 5.6752 13.1795 5.7178 13.3116 5.5335C13.4357 5.3597 13.5582 5.0649 13.8116 4.7512L13.8079 5.4558C13.8493 5.8099 13.7578 5.6041 13.9392 5.6809C14.0945 5.6058 14.0452 5.703 14.0574 5.4014L14.0503 4.2871C13.726 4.2919 13.7056 4.4606 13.5644 4.6922C13.5089 4.7837 13.4635 4.86 13.3989 4.9637L13.2195 5.1914L13.2056 4.4147C13.1664 4.269 13.2384 4.3569 13.1157 4.2832C12.9363 4.356 12.991 4.2146 12.972 4.5646L12.9864 5.6795Z" fill="#DE4E3A"/>
<path fill-rule="evenodd" clip-rule="evenodd" d="M25.4681 5.4552L25.0176 5.5156L25.0111 5.0671C25.3827 5.0614 25.5474 5.0878 25.4681 5.4552ZM25.0191 4.4574L25.4318 4.4968C25.5231 4.8574 25.3688 4.8605 25.0111 4.8548L25.0191 4.4574ZM25.5684 4.9554C26.0384 4.2743 25.2424 4.238 24.7642 4.3026L24.7648 5.6638C25.3915 5.7463 26.1455 5.5051 25.5684 4.9554Z" fill="#DE4E3A"/>
<path fill-rule="evenodd" clip-rule="evenodd" d="M6.54364 4.51625L6.95404 4.49905L6.95574 5.49335L6.36564 5.50165C6.46934 5.10335 6.52014 4.98485 6.54364 4.51625ZM6.24254 4.83715C6.25274 5.13115 6.22164 5.36585 6.01494 5.48745C5.97894 5.66605 5.93984 5.83275 6.03534 5.98805C6.22214 5.89195 6.02064 5.85085 6.21994 5.67365L7.05324 5.67655C7.29484 5.65755 7.01134 5.86755 7.24294 5.99055C7.33054 5.84465 7.30304 5.70375 7.27014 5.50535L7.19534 5.50815C7.14204 5.45455 7.11874 5.49395 7.11194 5.23345L7.11254 4.33545L6.36474 4.33915C6.29984 4.51235 6.33104 4.69855 6.24254 4.83715Z" fill="#DE4E3A"/>
<path fill-rule="evenodd" clip-rule="evenodd" d="M19.2075 13.3517L19.5414 13.3342L19.5244 10.8374L19.2072 10.8411L19.2075 13.3517Z" fill="#FAFEFD"/>
<path fill-rule="evenodd" clip-rule="evenodd" d="M9.95719 2.81623C9.85959 2.87493 9.99199 2.94213 9.87099 2.81513C9.85789 2.56393 9.92429 2.15433 9.82279 1.96103C9.66209 2.00273 9.70289 1.92273 9.70119 2.20593L9.72329 3.32533L9.93589 3.31373C10.0068 3.11443 10.3985 2.51043 10.5224 2.38113C10.5218 2.56423 10.5204 2.74543 10.5184 2.92853C10.5142 3.33783 10.5615 3.28373 10.646 3.32223C10.8033 3.24373 10.7511 3.34153 10.7633 3.04103L10.7307 1.90723C10.4121 1.90693 10.2661 2.31113 9.95719 2.81623Z" fill="#DE4E3A"/>
<path fill-rule="evenodd" clip-rule="evenodd" d="M7.77697 5.67187L7.81497 4.48507C7.98567 4.47197 8.30477 4.41447 8.40857 4.55227C8.49477 5.40947 8.22427 5.64527 8.61517 5.67927C8.74987 5.49277 8.68157 5.50637 8.68207 5.50297L8.67957 4.28467L7.57117 4.29027L7.57267 5.68207L7.77697 5.67187Z" fill="#DA513D"/>
<path fill-rule="evenodd" clip-rule="evenodd" d="M5.29019 3.14492L5.27429 3.32232L5.44579 3.30842C5.82419 3.17942 5.70489 2.56632 5.77859 2.11732L6.18109 2.11792C6.21089 2.32992 6.20299 2.54502 6.19959 2.76052C6.18849 3.49922 6.17909 3.26252 6.30979 3.32232C6.47619 3.24802 6.42459 3.37332 6.43939 3.04142L6.41099 1.94922L5.51439 1.96512C5.43359 2.37922 5.57169 2.97512 5.29019 3.14492Z" fill="#E24D3A"/>
<path fill-rule="evenodd" clip-rule="evenodd" d="M7.0562 3.10093C6.8648 2.75223 6.8935 2.49973 7.0627 2.13343L7.4596 2.16893C7.7127 2.54873 7.7884 3.25063 7.0562 3.10093ZM6.7064 2.75993C6.8391 3.58513 7.9811 3.50943 7.8431 2.43653C7.7354 1.60113 6.5437 1.74573 6.7064 2.75993Z" fill="#DE4E3D"/>
<path fill-rule="evenodd" clip-rule="evenodd" d="M26.3288 5.45587C26.1539 5.13957 26.1463 4.84167 26.3424 4.50407L26.7285 4.52617C26.9817 4.90877 27.0452 5.65777 26.3288 5.45587ZM25.9822 5.11997C26.1018 5.96617 27.2793 5.85587 27.0885 4.80927C26.9312 3.94727 25.837 4.09497 25.9822 5.11997Z" fill="#DE4E3D"/>
<path fill-rule="evenodd" clip-rule="evenodd" d="M10.4393 15.1644C10.4385 15.538 10.3812 15.9686 10.549 16.1914C10.9822 16.1738 10.8351 15.5666 10.8351 14.7253C10.8351 14.3319 10.8929 14.2749 10.5215 14.2859C10.3979 14.5212 10.4402 14.8217 10.4393 15.1644Z" fill="#E04E37"/>
<path fill-rule="evenodd" clip-rule="evenodd" d="M12.4139 13.0308C12.4868 12.6586 12.5316 11.472 12.4015 11.1625C11.9658 11.1287 12.0749 11.3496 12.0735 12.1461C12.0727 12.5713 11.9244 13.1566 12.4139 13.0308Z" fill="#E04E37"/>
<path fill-rule="evenodd" clip-rule="evenodd" d="M15.5725 8.68773C15.5725 9.00663 15.5464 9.64243 15.6414 9.89273L15.9024 9.89333C16.0416 9.57273 15.9696 8.42183 15.9487 8.01563C15.4869 7.93403 15.5725 8.27303 15.5725 8.68773Z" fill="#E04E37"/>
<path fill-rule="evenodd" clip-rule="evenodd" d="M16.5769 4.61723C16.6662 4.74023 16.7504 4.95793 16.7728 5.16253L16.398 5.14983L16.5769 4.61723ZM15.9717 5.67763C16.046 5.67843 16.0542 5.69383 16.1271 5.66973C16.2526 5.62803 16.1761 5.68503 16.2852 5.48293L16.8643 5.37433C16.9312 5.63993 16.8598 5.67873 17.1847 5.67793C17.1297 5.40863 17.0253 5.19173 16.9281 4.93183C16.8612 4.75293 16.6841 3.97233 16.4216 4.41963L15.9717 5.67763Z" fill="#DE4E3A"/>
<path fill-rule="evenodd" clip-rule="evenodd" d="M17.7235 3.32685L17.7431 2.20635C17.7434 1.92455 17.7839 2.01335 17.6167 1.95575C17.5004 2.16615 17.6623 2.26785 17.507 2.50455L16.9219 2.47795C16.9111 2.05865 16.9789 1.90135 16.7935 1.90535C16.6041 1.90955 16.6821 2.24745 16.6824 2.59555C16.6826 3.23585 16.599 3.22285 16.7935 3.32405C16.9604 3.24695 16.9077 3.36265 16.9256 3.04005C16.9304 2.95475 16.9191 2.81755 16.9202 2.71295L17.5293 2.70755L17.5282 3.29625L17.7235 3.32685Z" fill="#DA513D"/>
<path fill-rule="evenodd" clip-rule="evenodd" d="M9.1808 4.53122C9.4254 4.50312 9.7083 4.45352 9.721 4.73532C9.7341 5.02022 9.4974 5.00542 9.1728 4.95812L9.1808 4.53122ZM9.1768 5.18062C9.5827 5.12822 10.0649 5.17462 9.9815 4.63692C9.9152 4.20832 9.386 4.26672 8.948 4.29222L8.9375 5.45612C8.9667 5.80392 8.903 5.60982 9.0543 5.68292C9.2031 5.61322 9.1793 5.84112 9.1768 5.18062Z" fill="#E24D3A"/>
<path fill-rule="evenodd" clip-rule="evenodd" d="M3.95246 4.96988L3.95166 4.52228L4.16936 4.51578L4.46326 4.54188C4.56646 5.01748 4.41566 4.99788 3.95246 4.96988ZM3.95216 5.16968C4.37906 5.14988 4.83886 5.14708 4.75296 4.64388C4.68076 4.21928 4.15966 4.27108 3.72256 4.28958C3.71436 4.55038 3.71806 4.80548 3.71666 5.06538C3.71186 5.87898 3.67666 5.61138 3.83996 5.68108C3.99046 5.60968 3.92616 5.80188 3.95786 5.45628C3.96326 5.39928 3.95246 5.23858 3.95216 5.16968Z" fill="#DD5139"/>
<path fill-rule="evenodd" clip-rule="evenodd" d="M4.40008 2.65262L4.54548 2.26112L4.71758 2.73392C4.65378 2.83942 4.77598 2.78302 4.55568 2.81672C4.50298 2.82492 4.39868 2.81302 4.34228 2.81072C4.33098 2.53492 4.34288 2.72342 4.40008 2.65262ZM3.87878 3.31902C4.31508 3.31302 4.05338 3.25632 4.27908 2.99192L4.77318 3.00182C4.92448 3.27962 4.69068 3.31982 5.10338 3.31622C5.04388 3.06672 4.93728 2.83942 4.84028 2.58342L4.63108 2.02272C4.55428 1.90712 4.62458 1.96912 4.49878 1.91162C4.27678 1.99662 4.22858 2.34532 4.14298 2.56842C4.05198 2.80652 3.94178 3.05742 3.87878 3.31902Z" fill="#DE4E3A"/>
<path fill-rule="evenodd" clip-rule="evenodd" d="M19.818 4.45152C19.8285 4.62272 19.8246 5.00232 19.8042 5.17212C19.7537 5.58882 19.612 5.34302 19.5901 5.66902C20.1265 5.90942 20.0774 4.92832 20.1009 4.50232L20.5366 4.49942L20.5409 5.66532L20.7138 5.67272L20.7333 4.33982L19.9221 4.33252C19.881 4.43572 19.8342 4.43372 19.818 4.45152Z" fill="#DD5139"/>
<path fill-rule="evenodd" clip-rule="evenodd" d="M21.2996 5.01715C21.68 5.00335 21.8787 4.95825 21.8297 5.38595C21.6664 5.47835 21.5692 5.48685 21.3115 5.47615L21.292 5.23005L21.2996 5.01715ZM21.0819 5.70745C21.498 5.72105 21.972 5.77235 22.0638 5.38395C22.1871 4.86385 21.6933 4.84485 21.3092 4.83035C21.2905 4.62065 21.3325 4.44685 21.2392 4.31055C21.0295 4.32865 21.0646 4.26945 21.0527 4.56395L21.0819 5.70745Z" fill="#DC4E3D"/>
<path fill-rule="evenodd" clip-rule="evenodd" d="M13.0651 2.61502L13.0645 2.16262C13.4492 2.15212 13.6337 2.09622 13.5951 2.52992C13.4483 2.59802 13.2706 2.62262 13.0651 2.61502ZM12.8542 3.32052L13.0611 3.31712L13.0671 2.79982C13.4225 2.78142 13.7139 2.81312 13.8367 2.54492C13.9719 2.24962 13.772 1.99112 13.5149 1.93632L12.8533 1.91992L12.8542 3.32052Z" fill="#DA513D"/>
<path fill-rule="evenodd" clip-rule="evenodd" d="M5.17282 4.53144C5.32762 4.51354 5.40272 4.52434 5.54652 4.52004C5.92292 4.50904 5.82792 4.42884 5.84012 4.40664C5.75912 4.28904 5.89202 4.30834 5.59632 4.30944L4.93762 4.30834L4.95292 5.70634C5.11302 5.71264 5.27352 5.71374 5.43362 5.71484C5.78202 5.71744 5.76842 5.71914 5.84382 5.61424C5.76982 5.48384 5.86362 5.55694 5.70552 5.51024C5.69872 5.50824 5.56092 5.49884 5.54622 5.49854C5.40332 5.49434 5.32712 5.50714 5.17282 5.49034L5.17142 5.08104C5.91212 4.99544 5.66272 5.18454 5.76022 4.95544L5.48952 4.89794C5.37982 4.89164 5.28852 4.89564 5.16972 4.88484L5.17282 4.53144Z" fill="#E04E37"/>
<path fill-rule="evenodd" clip-rule="evenodd" d="M11.9068 3.08309C11.7776 2.89309 11.6336 2.46959 11.8334 2.18869C11.9227 2.06319 12.0928 2.01779 12.2297 2.10649C12.5115 2.28939 12.1441 2.31629 12.5846 2.31659C12.4222 1.60219 11.4828 1.69269 11.4779 2.59689C11.4728 3.51359 12.4998 3.53039 12.5846 2.86199C12.1013 2.87499 12.5288 3.17769 11.9068 3.08309Z" fill="#DE4E3A"/>
<path fill-rule="evenodd" clip-rule="evenodd" d="M23.3234 5.40107C23.2962 5.27937 23.3364 5.34437 23.2698 5.27717L23.1008 5.29787C22.9546 5.66837 22.5042 5.56627 22.4934 5.01097C22.4852 4.57187 22.7746 4.23427 23.1111 4.58297L23.2151 4.69467C23.392 4.70397 23.2658 4.72017 23.3262 4.61187C23.1907 4.09137 22.2831 4.04667 22.2558 4.95487C22.2283 5.85997 23.1091 5.91207 23.3234 5.40107Z" fill="#DE4E3D"/>
<path fill-rule="evenodd" clip-rule="evenodd" d="M19.4889 5.67045L19.428 5.50435L18.8137 5.50035L18.8166 5.06615L19.3917 5.06245C19.3585 4.81045 19.5153 4.91675 18.8157 4.89775L18.8174 4.51735C19.4623 4.51195 19.3982 4.59525 19.4847 4.40645C19.3999 4.25055 19.5448 4.34245 19.3194 4.30615L18.6592 4.31605C18.5875 4.60325 18.6247 5.33315 18.6281 5.66845L19.4889 5.67045Z" fill="#E34C37"/>
<path fill-rule="evenodd" clip-rule="evenodd" d="M7.05625 3.1008C7.78845 3.2505 7.71275 2.5486 7.45965 2.1688L7.06275 2.1333C6.89355 2.4996 6.86485 2.7521 7.05625 3.1008Z" fill="#FAFAFD"/>
<path fill-rule="evenodd" clip-rule="evenodd" d="M26.3289 5.45619C27.0453 5.65809 26.9818 4.90909 26.7286 4.52649L26.3425 4.50439C26.1464 4.84199 26.154 5.13989 26.3289 5.45619Z" fill="#FAFAFD"/>
<path fill-rule="evenodd" clip-rule="evenodd" d="M18.2859 2.11146C18.134 2.18406 18.2031 2.14976 18.2006 2.31616C18.1986 2.45276 18.2369 2.48766 18.2383 2.59506C18.2417 2.84256 18.1334 2.86696 18.2241 3.17586C18.4934 3.29386 18.5892 3.25416 18.8528 3.24106C18.6346 3.28106 18.7324 3.23036 18.5541 3.23206C18.3511 3.23396 18.3639 3.27826 18.1187 3.28926C18.1277 2.91876 18.0606 2.36406 18.1654 2.02416C18.3758 2.04826 18.187 2.00976 18.2859 2.11146ZM18.2859 2.11146C18.5303 2.12316 18.7837 2.16166 18.9591 2.04656C18.8577 1.90006 19.0578 1.98196 18.7735 1.94336L18.0563 1.95276L18.0705 3.34856C18.2927 3.35706 18.8205 3.45026 18.9603 3.25416C18.8911 3.13086 18.9807 3.18896 18.8262 3.14416C18.8151 3.14106 18.6831 3.13626 18.6632 3.13596C18.524 3.13336 18.4379 3.14216 18.289 3.12796L18.2922 2.72266C19.0487 2.65456 18.7908 2.80516 18.8843 2.59536C18.7661 2.38986 18.8381 2.54686 18.2896 2.48056L18.2859 2.11146Z" fill="#D45343"/>
<path fill-rule="evenodd" clip-rule="evenodd" d="M8.07413 3.25426L8.86983 3.25986C8.83693 3.23376 8.85873 3.21336 8.72953 3.19186C8.55123 3.16176 8.50413 3.22696 8.28103 3.14426L8.30003 2.91746L8.30203 2.71956C8.43333 2.70746 8.56733 2.72246 8.67563 2.71166C8.99793 2.68016 8.82673 2.74736 8.88623 2.59516C8.82593 2.47416 9.00903 2.48996 8.35473 2.50106C8.30063 2.42736 8.30913 2.56316 8.27733 2.32336C8.26883 2.26006 8.29013 2.17307 8.29783 2.10196L8.95513 2.09397L8.92173 1.93896L8.06873 1.95086L8.07413 3.25426Z" fill="#DF4F37"/>
<path fill-rule="evenodd" clip-rule="evenodd" d="M14.8727 3.15498L14.2854 3.12178L14.2871 2.72408C14.4348 2.70618 14.5396 2.72518 14.6581 2.71418C14.9858 2.68328 14.8087 2.75188 14.8761 2.59538C14.7894 2.44058 14.9623 2.50978 14.3446 2.49648C14.2687 2.40118 14.3041 2.59058 14.263 2.32328C14.2522 2.25178 14.2723 2.18438 14.2808 2.10558L14.9127 2.09588C14.8146 1.93378 14.2791 1.99898 14.0785 1.98508C14.0665 2.26688 14.0456 3.04208 14.1136 3.28758L14.8775 3.27738L14.8727 3.15498Z" fill="#DA513D"/>
<path fill-rule="evenodd" clip-rule="evenodd" d="M12.5673 4.28613C12.6263 4.51343 12.6535 5.41203 12.567 5.58633C12.393 5.32563 12.6665 5.40663 12.4902 5.01153C12.2816 4.98233 11.9783 5.04323 11.7637 4.99813C11.754 4.99623 11.7331 4.99473 11.7265 4.97923C11.72 4.96333 11.7027 4.96473 11.692 4.95563C11.7634 4.77733 11.6044 4.83833 11.8465 4.87773C11.8433 4.67563 11.8722 4.44343 11.7985 4.28983L11.6339 4.30203C11.5695 4.46723 11.5726 5.49733 11.6339 5.67393L11.7985 5.67173C11.8717 5.51723 11.845 5.27793 11.8439 5.06623L12.4403 5.08323C12.4723 5.85763 12.3711 5.59373 12.567 5.68443C12.7141 5.61163 12.6798 5.70483 12.6861 5.39983L12.6849 4.62433C12.6844 4.24273 12.6498 4.32753 12.5673 4.28613Z" fill="#D45343"/>
<path fill-rule="evenodd" clip-rule="evenodd" d="M19.9771 3.14567L19.3965 3.12237L19.4002 2.73067C19.5592 2.70287 19.6304 2.72587 19.7619 2.71257C20.0868 2.67937 19.9105 2.75307 19.9796 2.59517C19.8915 2.43897 20.0678 2.52087 19.4643 2.49167C19.358 2.38937 19.4223 2.58017 19.3781 2.32187C19.3705 2.27597 19.3886 2.16917 19.3928 2.10647L20.0051 2.08097L19.9997 1.99707L19.2194 2.00017L19.1995 3.29757H20.0097L19.9771 3.14567Z" fill="#DE4E3D"/>
<path fill-rule="evenodd" clip-rule="evenodd" d="M24.0385 5.68155C24.2081 5.60695 24.1335 5.80655 24.1695 5.45585C24.1876 5.27615 24.1239 4.82775 24.1828 4.49605C24.733 4.46465 24.5768 4.51025 24.6052 4.28485L23.7063 4.28125C23.6105 4.29025 23.6349 4.29085 23.5637 4.31065C23.5533 4.31355 23.5311 4.34245 23.5238 4.32995C23.5167 4.31775 23.4974 4.34295 23.4855 4.35145C23.5504 4.58625 23.6332 4.48525 23.9263 4.49945L23.9232 5.50805C23.9722 5.77845 23.8702 5.59875 24.0385 5.68155Z" fill="#DC4E3D"/>
<path fill-rule="evenodd" clip-rule="evenodd" d="M10.8639 4.91962L10.7014 4.99841L10.7783 4.79572L10.4548 5.20901C10.4049 4.62061 10.5362 4.38161 10.3165 4.28271C10.1524 4.35691 10.1969 4.24161 10.1855 4.56532L10.1969 5.67961C10.56 5.67221 10.7729 5.21982 10.8639 4.91962Z" fill="#DA5139"/>
<path fill-rule="evenodd" clip-rule="evenodd" d="M2.55759 4.49374C2.55049 4.50744 2.53969 4.51194 2.53799 4.53574L2.52869 5.06524C2.53659 5.25634 2.55359 5.48254 2.46769 5.61684C2.33589 5.44764 2.38949 4.48214 2.46769 4.35634C2.67609 4.41864 2.60689 4.29054 2.55759 4.49374ZM3.38219 4.36254C3.26029 4.35404 3.14489 4.34954 3.01649 4.34074C2.63809 4.31544 2.73159 4.37244 2.65169 4.46374L3.20789 4.42154C3.39549 4.81524 3.15089 5.40764 3.34589 5.60384C3.45959 5.44224 3.40659 4.62644 3.38219 4.36254ZM2.55759 4.49374L3.18769 4.49864C3.19619 4.84074 3.10379 5.39694 3.23589 5.67524L3.40089 5.68264C3.52479 5.47144 3.46359 4.65194 3.45589 4.28174L2.34929 4.28374C2.33909 4.54514 2.34439 4.80364 2.34249 5.06524C2.33559 5.86914 2.30929 5.61204 2.46769 5.68574C2.61089 5.61494 2.56529 5.80284 2.58789 5.45584L2.55759 4.49374Z" fill="#CB5A44"/>
<path fill-rule="evenodd" clip-rule="evenodd" d="M6.54372 4.51622C6.52022 4.98482 6.46942 5.10332 6.36572 5.50162L6.95582 5.49332L6.95412 4.49902L6.54372 4.51622Z" fill="#FAFAFD"/>
<path fill-rule="evenodd" clip-rule="evenodd" d="M17.9242 5.67715L17.9506 4.49085L18.4084 4.45205C18.3724 4.19865 18.4183 4.38005 18.3301 4.28535C18.1286 4.28225 17.9268 4.28595 17.7244 4.28315C17.1682 4.27545 17.3374 4.29675 17.2975 4.40665C17.3848 4.55465 17.524 4.49205 17.7377 4.49595L17.7391 5.66695L17.9242 5.67715Z" fill="#DE4E3A"/>
<path fill-rule="evenodd" clip-rule="evenodd" d="M10.7784 4.79605L10.7015 4.99875L10.864 4.91995L11.0383 4.77145L11.0465 5.55605C11.0777 5.68925 11.0346 5.61335 11.1401 5.68305C11.3079 5.61645 11.275 5.75225 11.2812 5.39985L11.2656 4.28925C11.004 4.28925 11.053 4.26235 10.9252 4.46675L10.7784 4.79605Z" fill="#E34C37"/>
<path fill-rule="evenodd" clip-rule="evenodd" d="M15.4816 3.03525L16.0236 3.07005L16.0429 2.14795L15.6245 2.15675C15.6307 2.47085 15.6265 2.80705 15.4816 3.03525Z" fill="#FAFAFD"/>
<path fill-rule="evenodd" clip-rule="evenodd" d="M20.9556 8.01948L20.9638 10.2651L21.3859 10.2762C21.4426 9.91498 21.4086 9.33958 21.4086 8.96228L21.4103 7.97218C21.4117 7.65408 21.408 7.72068 21.3145 7.64648L21.3513 10.211L21.0228 10.2127C21.0304 9.84928 21.0219 9.48758 21.0222 9.12698L21.0276 8.30068C21.0239 8.05548 21.0168 8.08808 20.9556 8.01948Z" fill="#FFCBBC"/>
<path fill-rule="evenodd" clip-rule="evenodd" d="M8.94763 15.1723C9.36693 15.1796 9.36663 15.1555 9.35953 14.725C9.35273 14.3258 9.33853 14.291 8.94823 14.3006L8.94763 15.1723Z" fill="#E04E37"/>
<path fill-rule="evenodd" clip-rule="evenodd" d="M10.5553 12.008L10.9255 11.9916C10.9558 11.7963 10.9839 11.5848 10.9595 11.3816C10.9266 11.1072 10.8351 11.1242 10.5507 11.1627L10.5553 12.008Z" fill="#DE4E3A"/>
<path fill-rule="evenodd" clip-rule="evenodd" d="M18.4534 12.98C18.4909 12.8358 18.5186 12.5483 18.4931 12.3638C18.4566 12.0985 18.3522 12.1413 18.09 12.1348L18.079 12.3658L18.1124 13.0166L18.4534 12.98Z" fill="#DF4F37"/>
<path fill-rule="evenodd" clip-rule="evenodd" d="M17.0205 11.1673C16.9834 11.2172 16.9947 11.1644 16.9743 11.2724C16.9655 11.3189 16.9675 11.3796 16.9667 11.4281L16.965 13.3621L16.6835 13.3587C16.5117 12.8973 16.7844 11.6316 16.6002 11.1211L16.2013 11.1035L16.2243 10.771C16.1341 10.8212 16.1177 10.71 16.1511 11.1372L16.5678 11.1752L16.5812 13.3874L17.0078 13.4197L17.0205 11.1673Z" fill="#FAB7A9"/>
<path fill-rule="evenodd" clip-rule="evenodd" d="M19.2072 10.8409L19.5244 10.8372L19.5414 13.334L19.2075 13.3515L19.2072 10.8409ZM19.1493 13.3975L19.5819 13.4068L19.5964 10.7848L19.1627 10.7754L19.1493 13.3975Z" fill="#FFCCC3"/>
<path fill-rule="evenodd" clip-rule="evenodd" d="M8.9316 16.4968L8.5826 16.4993L8.5617 13.9442L9.369 13.9728C9.2618 13.7954 8.7099 13.8577 8.5177 13.9116C8.4795 14.2934 8.4406 16.3009 8.5441 16.5549C9.0322 16.6215 8.8732 16.5725 8.9316 16.4968Z" fill="#E8A899"/>
<path fill-rule="evenodd" clip-rule="evenodd" d="M27.4739 9.84873C27.5742 9.92353 27.2879 9.90993 27.6609 9.92633L28.1377 9.92413L28.1482 10.2455L27.1096 10.2356L27.132 7.64453C27.0668 7.68613 27.0552 7.62213 27.0492 7.91573L27.0557 8.90733C27.0557 9.34073 27.0331 9.83853 27.0665 10.264C27.3429 10.3374 27.9226 10.3518 28.1871 10.2583L28.191 9.87703L27.4739 9.84873Z" fill="#F5A59B"/>
<path fill-rule="evenodd" clip-rule="evenodd" d="M22.4834 9.85068C22.5956 9.67178 22.5687 9.30248 22.5162 9.04388L22.2041 9.02148C22.1769 9.27498 22.1409 9.65108 22.2271 9.85578L22.4834 9.85068Z" fill="#E04E37"/>
<path fill-rule="evenodd" clip-rule="evenodd" d="M15.0464 12.5872C14.901 12.7001 14.9809 13.1508 14.988 13.3586L14.6549 13.3622L14.651 10.834L14.9792 10.8201L14.9846 11.8939C15.1904 11.844 15.009 11.9032 15.0835 11.795C14.9608 11.5509 15.0572 11.0866 15.026 10.7858L14.6036 10.7705L14.5914 13.4014L15.0277 13.4099L15.0464 12.5872Z" fill="#FFC4BB"/>
<path fill-rule="evenodd" clip-rule="evenodd" d="M25.6276 9.85262C25.6985 9.65332 25.6824 9.27742 25.6396 9.05742L25.3207 9.02002L25.3036 9.67852C25.3192 9.83982 25.2838 9.62272 25.3198 9.77572L25.6276 9.85262Z" fill="#E04E37"/>
<path fill-rule="evenodd" clip-rule="evenodd" d="M10.5811 9.41409L10.9796 9.41219C10.9351 9.03489 10.9102 8.51359 10.7596 8.22949L10.5811 9.41409Z" fill="#DA513D"/>
<path fill-rule="evenodd" clip-rule="evenodd" d="M17.1138 7.65871L17.1189 8.74181L17.5934 8.73501L17.5968 7.65021L18.0118 7.65841C17.9656 7.56971 18.0013 7.43141 17.5177 7.61451L17.5101 8.66131L17.2456 8.63441C17.1883 8.51141 17.2113 8.37361 17.2139 8.19421C17.2141 8.16581 17.2224 7.91641 17.2224 7.91641C17.2073 7.73551 17.2243 7.77101 17.1138 7.65871Z" fill="#CB5B4B"/>
<path fill-rule="evenodd" clip-rule="evenodd" d="M11.8465 4.87773C11.6044 4.83833 11.7634 4.77733 11.692 4.95563C11.7027 4.96473 11.72 4.96333 11.7265 4.97923C11.7331 4.99473 11.754 4.99623 11.7637 4.99813C11.9783 5.04323 12.2816 4.98233 12.4902 5.01153C12.6665 5.40663 12.393 5.32563 12.567 5.58633C12.6535 5.41203 12.6263 4.51343 12.5673 4.28613C12.4519 4.30853 12.5112 4.30143 12.4474 4.35183L12.4482 4.84993L11.8465 4.87773Z" fill="#EA4A32"/>
<path fill-rule="evenodd" clip-rule="evenodd" d="M8.93243 10.2357L8.57753 10.2496L8.56113 7.7055L8.93983 7.7171C8.93223 7.7007 9.01613 7.5431 8.53303 7.6664C8.45763 7.9637 8.45033 10.0486 8.54493 10.2975C9.01213 10.3806 8.88993 10.2884 8.93243 10.2357Z" fill="#E8A899"/>
<path fill-rule="evenodd" clip-rule="evenodd" d="M19.055 8.40137L18.9277 8.41077L18.7933 9.38387L19.1777 9.41897L19.055 8.40137Z" fill="#DF4F37"/>
<path fill-rule="evenodd" clip-rule="evenodd" d="M3.95246 4.96973C4.41566 4.99772 4.56646 5.01732 4.46326 4.54173L4.16936 4.51562L3.95166 4.52213L3.95246 4.96973Z" fill="#FAFAFD"/>
<path fill-rule="evenodd" clip-rule="evenodd" d="M9.17273 4.95797C9.49733 5.00526 9.73403 5.02006 9.72093 4.73516C9.70823 4.45337 9.42533 4.50296 9.18073 4.53106L9.17273 4.95797Z" fill="#FAFAFD"/>
<path fill-rule="evenodd" clip-rule="evenodd" d="M21.2921 5.23007L21.3116 5.47617C21.5693 5.48687 21.6665 5.47837 21.8298 5.38597C21.8788 4.95827 21.6801 5.00337 21.2997 5.01717L21.2921 5.23007Z" fill="#FEF8F6"/>
<path fill-rule="evenodd" clip-rule="evenodd" d="M13.0651 2.61473C13.2706 2.62233 13.4483 2.59773 13.5951 2.52963C13.6337 2.09593 13.4492 2.15183 13.0645 2.16233L13.0651 2.61473Z" fill="#FEF8F6"/>
<path fill-rule="evenodd" clip-rule="evenodd" d="M3.38223 4.36278C3.26033 4.35428 3.14493 4.34978 3.01653 4.34098C2.63813 4.31568 2.73163 4.37268 2.65173 4.46398L3.20793 4.42178C3.39553 4.81548 3.15093 5.40788 3.34593 5.60408C3.45963 5.44248 3.40663 4.62668 3.38223 4.36278Z" fill="#EA4A32"/>
<path fill-rule="evenodd" clip-rule="evenodd" d="M19.977 3.14582L20.0096 3.29772H19.1994L19.2193 2.00032L19.9996 1.99722L20.005 2.08112L20.0779 2.07462L20.0728 1.93652L19.1495 1.94672L19.1637 3.35302C19.4239 3.38162 19.882 3.43552 20.0813 3.30882C20.0957 3.01032 20.1051 3.22662 19.977 3.14582Z" fill="#D38274"/>
<path fill-rule="evenodd" clip-rule="evenodd" d="M25.4681 5.45513C25.5474 5.08773 25.3827 5.06133 25.0111 5.06703L25.0176 5.51553L25.4681 5.45513Z" fill="#FAFAFD"/>
<path fill-rule="evenodd" clip-rule="evenodd" d="M14.8727 3.1547L14.8775 3.2771L14.1136 3.2873C14.0456 3.0418 14.0665 2.2666 14.0785 1.9848C14.2791 1.9987 14.8146 1.9335 14.9127 2.0956C14.9694 2.01 14.9748 2.2178 14.958 1.9443L14.0354 1.9375L14.0614 3.3542C14.3166 3.3704 14.7724 3.4313 14.9654 3.3086C14.9674 3.0526 14.9853 3.2315 14.8727 3.1547Z" fill="#CA7667"/>
<path fill-rule="evenodd" clip-rule="evenodd" d="M6.24255 4.83717C6.33105 4.69857 6.29985 4.51237 6.36475 4.33917L7.11255 4.33547L7.11195 5.23347C7.11875 5.49397 7.14205 5.45457 7.19535 5.50817L7.17235 4.31337C6.92685 4.24817 6.51865 4.24727 6.26835 4.31757L6.24255 4.83717Z" fill="#E79788"/>
<path fill-rule="evenodd" clip-rule="evenodd" d="M25.0111 4.85492C25.3688 4.86062 25.5231 4.85752 25.4318 4.49692L25.0191 4.45752L25.0111 4.85492Z" fill="#FAFFF8"/>
<path fill-rule="evenodd" clip-rule="evenodd" d="M2.55759 4.49384C2.60689 4.29065 2.67609 4.41875 2.46769 4.35645C2.38949 4.48225 2.33589 5.44775 2.46769 5.61695C2.55359 5.48265 2.53659 5.25644 2.52869 5.06535L2.53799 4.53585C2.53969 4.51205 2.55049 4.50755 2.55759 4.49384Z" fill="#EC4634"/>
<path fill-rule="evenodd" clip-rule="evenodd" d="M23.6479 7.6789L23.6564 8.7818L24.1361 8.7929L24.1704 7.604C24.034 7.6709 24.0865 7.9711 24.087 8.1389C24.0879 8.3379 24.0816 8.5363 24.0856 8.7336L23.7143 8.741C23.7032 8.5485 23.7035 8.3759 23.7058 8.1936L23.708 7.8095C23.6873 7.7089 23.6768 7.7259 23.6479 7.6789Z" fill="#D97C75"/>
<path fill-rule="evenodd" clip-rule="evenodd" d="M16.4549 3.59642L16.248 3.63722L16.1896 3.29142L15.3114 3.31122C15.1779 3.56582 15.3814 3.54282 15.1467 3.64152C15.0138 3.49442 15.0523 3.28402 15.1085 3.10742C14.916 3.19472 14.967 3.49582 15.0427 3.69422L15.2817 3.69562L15.3661 3.34752L16.1346 3.35122C16.216 3.59102 16.072 3.55982 16.2993 3.70722C16.5847 3.66932 16.3835 3.71012 16.4549 3.59642Z" fill="#EAB5AB"/>
<path fill-rule="evenodd" clip-rule="evenodd" d="M19.818 4.45127C19.8342 4.43347 19.881 4.43547 19.9221 4.33227L20.7333 4.33957L20.7138 5.67247C20.8105 5.58067 20.7566 5.74727 20.8005 5.50637L20.7804 4.31697C20.5208 4.24237 20.1398 4.26677 19.8453 4.28857L19.818 4.45127Z" fill="#E79788"/>
<path fill-rule="evenodd" clip-rule="evenodd" d="M12.8542 3.32024L12.8533 1.91964L13.5149 1.93604C13.3242 1.81334 13.0741 1.81474 12.8414 1.87454C12.7442 2.08884 12.7867 2.35614 12.7873 2.59514C12.7878 2.76744 12.7147 3.21224 12.8542 3.32024Z" fill="#FFC4BB"/>
<path fill-rule="evenodd" clip-rule="evenodd" d="M19.4889 5.67081L18.6281 5.66881C18.6247 5.33351 18.5875 4.60361 18.6592 4.31641C18.5124 4.40001 18.5473 4.34421 18.5504 4.62341L18.566 5.70651L19.3214 5.74591C19.5139 5.72271 19.4135 5.78191 19.4889 5.67081Z" fill="#E79788"/>
<path fill-rule="evenodd" clip-rule="evenodd" d="M17.507 2.5042C17.6623 2.2675 17.5004 2.1658 17.6167 1.9554C17.7839 2.013 17.7434 1.9242 17.7431 2.206L17.7235 3.3265C17.8774 3.1465 17.8159 2.0946 17.7666 1.8916L17.522 1.9098L17.507 2.5042Z" fill="#DA9688"/>
<path fill-rule="evenodd" clip-rule="evenodd" d="M8.0741 3.25428C8.1688 3.39848 7.9392 3.32908 8.2816 3.36708L8.8369 3.35888C8.9806 3.32708 8.9027 3.36138 8.9775 3.25398C8.8553 3.03708 8.7867 3.18108 8.3102 3.11728L8.3 2.91748L8.281 3.14428C8.5041 3.22698 8.5512 3.16178 8.7295 3.19188C8.8587 3.21338 8.8369 3.23378 8.8698 3.25988L8.0741 3.25428Z" fill="#C86657"/>
<path fill-rule="evenodd" clip-rule="evenodd" d="M9.72332 3.3251L9.70122 2.2057C9.70292 1.9225 9.66212 2.0025 9.82282 1.9608C9.92432 2.1541 9.85792 2.5637 9.87102 2.8149C9.99202 2.9419 9.85962 2.8747 9.95722 2.816L9.90302 1.8999L9.67602 1.9007L9.65222 3.1987C9.68312 3.3373 9.63202 3.2537 9.72332 3.3251Z" fill="#DA9688"/>
<path fill-rule="evenodd" clip-rule="evenodd" d="M18.2859 2.11123C18.187 2.00953 18.3758 2.04803 18.1654 2.02393C18.0606 2.36383 18.1277 2.91853 18.1187 3.28903C18.3639 3.27803 18.3511 3.23373 18.5541 3.23183C18.7324 3.23013 18.6346 3.28083 18.8528 3.24083C18.5892 3.25393 18.4934 3.29363 18.2241 3.17563C18.1334 2.86673 18.2417 2.84233 18.2383 2.59483C18.2369 2.48743 18.1986 2.45253 18.2006 2.31593C18.2031 2.14953 18.134 2.18383 18.2859 2.11123Z" fill="#EB4B2C"/>
<path fill-rule="evenodd" clip-rule="evenodd" d="M15.4816 3.03497C15.5309 3.10577 15.411 3.19167 16.0562 3.12677C16.1248 2.84497 16.1115 2.40077 16.0681 2.11137C15.7594 2.07167 15.7155 2.05837 15.6245 2.15647L16.0429 2.14767L16.0236 3.06977L15.4816 3.03497Z" fill="#FBBAB4"/>
<path fill-rule="evenodd" clip-rule="evenodd" d="M16.3979 5.14979L16.7727 5.16249C16.7503 4.95789 16.6661 4.74019 16.5768 4.61719L16.3979 5.14979Z" fill="#FEF8F6"/>
<path fill-rule="evenodd" clip-rule="evenodd" d="M8.93188 8.7492C9.03619 8.8924 9.31709 8.8167 9.43219 8.7861L9.46729 7.6001C9.32248 7.665 9.37518 7.64 9.37749 8.1392C9.37858 8.3498 9.37379 8.5497 9.38198 8.7603L8.93188 8.7492Z" fill="#E8A899"/>
<path fill-rule="evenodd" clip-rule="evenodd" d="M7.77698 5.67176C7.92608 5.49836 7.82238 4.77436 7.84508 4.54106L8.40858 4.55216C8.30478 4.41436 7.98568 4.47186 7.81498 4.48496L7.77698 5.67176Z" fill="#FBBAB4"/>
<path fill-rule="evenodd" clip-rule="evenodd" d="M17.9242 5.67725C18.0699 5.52785 17.9883 4.94085 18.0132 4.52985C18.3043 4.51455 18.2425 4.56015 18.4084 4.45215L17.9506 4.49095L17.9242 5.67725Z" fill="#E8A899"/>
<path fill-rule="evenodd" clip-rule="evenodd" d="M14.2687 13.0485C14.1882 12.938 14.1913 12.9833 13.9965 12.9779C13.8619 12.9743 13.7746 12.9805 13.6345 12.9658L13.6482 12.2622C13.5351 12.3487 13.5529 12.3007 13.5597 12.6392C13.5623 12.7687 13.5574 12.8773 13.5654 13.0256L14.2687 13.0485Z" fill="#E79788"/>
<path fill-rule="evenodd" clip-rule="evenodd" d="M4.40014 2.65273C4.36874 2.83923 4.37864 2.69893 4.44384 2.75733L4.71764 2.73403L4.54554 2.26123L4.40014 2.65273Z" fill="#FEF8F6"/>
<path fill-rule="evenodd" clip-rule="evenodd" d="M25.6276 9.85262L25.3198 9.77572C25.2838 9.62272 25.3192 9.83982 25.3036 9.67852L25.3207 9.02002C25.2095 9.08412 25.2447 8.99252 25.247 9.45632C25.2478 9.66832 25.2064 9.72252 25.3008 9.90192C25.4185 9.92122 25.4159 9.97162 25.6276 9.85262Z" fill="#E8A899"/>
<path fill-rule="evenodd" clip-rule="evenodd" d="M12.3533 14.3641L12.374 14.804C12.5752 14.893 12.5701 14.8684 12.7893 14.8386C12.8312 14.5855 12.8414 14.4979 12.7255 14.3306L12.7646 14.7989L12.4573 14.7978C12.4069 14.5931 12.4859 14.5673 12.3533 14.3641Z" fill="#E8A9A4"/>
<path fill-rule="evenodd" clip-rule="evenodd" d="M7.05334 5.67657L7.13364 6.05557L7.34284 6.04357C7.35354 5.95777 7.37374 5.80327 7.36694 5.72017C7.34594 5.46447 7.38954 5.56767 7.27024 5.50537C7.30314 5.70377 7.33064 5.84467 7.24304 5.99057C7.01144 5.86757 7.29494 5.65757 7.05334 5.67657Z" fill="#E58677"/>
<path fill-rule="evenodd" clip-rule="evenodd" d="M8.35464 2.50119L8.33054 2.15559C8.55314 2.15249 8.81784 2.19989 9.00864 2.10119C9.03894 1.79219 9.01964 1.99969 8.92164 1.93909L8.95504 2.09409L8.29774 2.10209C8.29004 2.17319 8.26874 2.26019 8.27724 2.32349C8.30904 2.56329 8.30054 2.42749 8.35464 2.50119Z" fill="#FCC6C5"/>
<path fill-rule="evenodd" clip-rule="evenodd" d="M22.4835 9.85068L22.2272 9.85578C22.141 9.65108 22.177 9.27498 22.2042 9.02148C22.1056 9.10488 22.1186 8.87838 22.1203 9.45638C22.1206 9.61478 22.1167 9.71798 22.1382 9.87698C22.4917 9.97058 22.4752 9.85458 22.4835 9.85068Z" fill="#E79788"/>
<path fill-rule="evenodd" clip-rule="evenodd" d="M6.21994 5.6735C6.02064 5.8507 6.22214 5.8918 6.03534 5.9879C5.93984 5.8326 5.97894 5.6659 6.01494 5.4873C5.90244 5.555 5.95514 5.4842 5.91174 5.614L5.93584 6.0491H6.16634L6.21994 5.6735Z" fill="#D88578"/>
<path fill-rule="evenodd" clip-rule="evenodd" d="M19.4643 2.49191L19.4459 2.15091L19.9263 2.15921L20.078 2.07471L20.0051 2.08121L19.3928 2.10671C19.3886 2.16941 19.3705 2.27621 19.3781 2.32211C19.4223 2.58041 19.358 2.38961 19.4643 2.49191Z" fill="#EBC8B4"/>
<path fill-rule="evenodd" clip-rule="evenodd" d="M14.3446 2.4963L14.3236 2.1711C14.4796 2.1493 14.5093 2.1567 14.6576 2.1541C14.7117 2.1533 14.761 2.1578 14.8149 2.1487C14.9538 2.1252 14.877 2.1643 14.9127 2.0957L14.2808 2.1054C14.2723 2.1842 14.2522 2.2516 14.263 2.3231C14.3041 2.5904 14.2687 2.401 14.3446 2.4963Z" fill="#FFCBBC"/>
<path fill-rule="evenodd" clip-rule="evenodd" d="M13.8848 14.7626C13.9228 14.8303 13.8179 14.8853 14.2573 14.8229L14.2661 14.4541C14.2403 14.3521 14.2465 14.3875 14.2026 14.3345L14.1998 14.777L13.8848 14.7626Z" fill="#FFC4BB"/>
<path fill-rule="evenodd" clip-rule="evenodd" d="M11.0944 10.1701C11.1545 10.3368 11.0071 10.2334 11.2466 10.2878C11.2758 10.2943 11.4964 10.2838 11.5389 10.283C11.542 10.1769 11.5607 10.1764 11.5324 10.0579C11.466 9.7835 11.5281 9.9992 11.4485 9.9043L11.5032 10.2424L11.0944 10.1701Z" fill="#FDC6B5"/>
<path fill-rule="evenodd" clip-rule="evenodd" d="M17.0205 11.1672L17.4355 11.1521C17.446 11.0864 17.4729 11.0025 17.4647 10.9356C17.4265 10.6334 17.4902 10.871 17.3805 10.7598L17.395 11.0921C17.3632 11.094 17.1889 11.0974 17.1742 11.1C16.9689 11.136 17.0735 11.1244 17.0205 11.1672Z" fill="#FDC6B5"/>
<path fill-rule="evenodd" clip-rule="evenodd" d="M18.6818 10.2318L18.368 10.2355L18.3533 10.0762C18.2705 10.1678 18.3 10.0635 18.2739 10.2817C18.3402 10.2871 18.4329 10.3041 18.4984 10.2968C18.6793 10.2769 18.6271 10.2644 18.6818 10.2318Z" fill="#FAB7A9"/>
<path fill-rule="evenodd" clip-rule="evenodd" d="M10.5037 10.2261L10.1865 10.2337L10.1757 10.0835C10.1031 10.1666 10.1278 10.0702 10.1074 10.2695C10.1766 10.2816 10.244 10.3052 10.3197 10.2975C10.6678 10.2624 10.3758 10.3083 10.5037 10.2261Z" fill="#FAB7A9"/>
<path fill-rule="evenodd" clip-rule="evenodd" d="M4.71753 2.73413L4.44373 2.75743C4.37853 2.69903 4.36863 2.83933 4.40003 2.65283C4.34283 2.72363 4.33093 2.53513 4.34223 2.81093C4.39863 2.81323 4.50293 2.82513 4.55563 2.81693C4.77593 2.78323 4.65373 2.83963 4.71753 2.73413Z" fill="#EFAF95"/>
<path fill-rule="evenodd" clip-rule="evenodd" d="M14.6511 5.08995L14.716 4.84305C14.6627 4.71545 14.7369 4.84895 14.6805 4.76505C14.6434 4.71035 14.6247 4.69055 14.5952 4.65625L14.6511 5.08995Z" fill="#FAB7A9"/>
<path fill-rule="evenodd" clip-rule="evenodd" d="M23.3234 5.40093C23.3667 5.33573 23.3897 5.50863 23.3735 5.23643C23.2888 5.22653 23.3137 5.21183 23.2176 5.22773C23.0719 5.25203 23.1833 5.22743 23.1008 5.29773L23.2698 5.27703C23.3364 5.34423 23.2962 5.27923 23.3234 5.40093Z" fill="#D4908A"/>
<path fill-rule="evenodd" clip-rule="evenodd" d="M5.44576 3.30815L5.27426 3.32205L5.29016 3.14465C5.20116 3.23245 5.19296 3.00575 5.21506 3.30875C5.30036 3.37025 5.12036 3.34555 5.32616 3.36145C5.55856 3.37985 5.36586 3.36065 5.44576 3.30815Z" fill="#E8A899"/>
<path fill-rule="evenodd" clip-rule="evenodd" d="M18.9277 8.41101L19.055 8.40161L19.0465 8.25391L18.9311 8.26441L18.9277 8.41101Z" fill="#E79788"/>
<path fill-rule="evenodd" clip-rule="evenodd" d="M18.931 8.2645L19.0464 8.254L19.0061 8.146L18.931 8.2645Z" fill="#F4CDCD"/>
<path fill-rule="evenodd" clip-rule="evenodd" d="M23.3262 4.61142C23.2658 4.71972 23.392 4.70352 23.2151 4.69422L23.1111 4.58252L23.1601 4.74062L23.3466 4.64372C23.3472 4.62672 23.3324 4.62242 23.3262 4.61142Z" fill="#DA9688"/>
</g>
<defs>
<clipPath id="clip0_44_479">
<rect width="37.2132" height="27.6046" fill="white" transform="translate(0.920288 0.333008)"/>
</clipPath>
</defs>
</svg>
