<svg width="12" height="16" viewBox="0 0 12 16" fill="none" xmlns="http://www.w3.org/2000/svg">
<path fill-rule="evenodd" clip-rule="evenodd" d="M7.78952 13.5096C9.95362 10.6375 11.907 8.04518 11.907 5.62162C11.907 2.51689 9.24151 0 5.95349 0C2.66547 0 0 2.51689 0 5.62162C0 8.04518 1.95336 10.6375 4.11746 13.5096C4.72572 14.3168 5.35063 15.1461 5.95349 16C6.55635 15.1461 7.18126 14.3168 7.78952 13.5096ZM5.95349 7.81395C7.392 7.81395 8.55815 6.64781 8.55815 5.2093C8.55815 3.77079 7.392 2.60465 5.95349 2.60465C4.51499 2.60465 3.34884 3.77079 3.34884 5.2093C3.34884 6.64781 4.51499 7.81395 5.95349 7.81395Z" fill="white"/>
</svg>
