<svg width="23" height="24" viewBox="0 0 23 24" fill="none" xmlns="http://www.w3.org/2000/svg">
<path fill-rule="evenodd" clip-rule="evenodd" d="M16.3396 6.55263C16.3396 9.00223 14.2391 11.1053 11.4999 11.1053C8.7607 11.1053 6.66015 9.00223 6.66015 6.55263C6.66015 4.10304 8.7607 2 11.4999 2C14.2391 2 16.3396 4.10304 16.3396 6.55263ZM12.2629 12.5619C15.4045 12.2021 17.8396 9.64887 17.8396 6.55263C17.8396 3.20986 15.0012 0.5 11.4999 0.5C7.99854 0.5 5.16015 3.20986 5.16015 6.55263C5.16015 9.6489 7.59535 12.2022 10.737 12.5619C4.77716 12.9376 0.056505 17.6823 0 23.5H1.50009C1.55914 18.317 5.9597 14.0379 11.5 14.0379C17.0403 14.0379 21.4409 18.317 21.4999 23.5H23C22.9435 17.6823 18.2228 12.9375 12.2629 12.5619Z" fill="white"/>
</svg>
