<svg width="24" height="24" viewBox="0 0 24 24" fill="none" xmlns="http://www.w3.org/2000/svg">
<path fill-rule="evenodd" clip-rule="evenodd" d="M17.189 6.55263C17.189 9.00223 15.0884 11.1053 12.3493 11.1053C9.61007 11.1053 7.50951 9.00223 7.50951 6.55263C7.50951 4.10304 9.61007 2 12.3493 2C15.0884 2 17.189 4.10304 17.189 6.55263ZM13.1123 12.5619C16.2538 12.2021 18.689 9.64887 18.689 6.55263C18.689 3.20986 15.8506 0.5 12.3493 0.5C8.84791 0.5 6.00951 3.20986 6.00951 6.55263C6.00951 9.6489 8.44472 12.2022 11.5863 12.5619C5.62653 12.9376 0.90587 17.6823 0.849365 23.5H2.34945C2.4085 18.317 6.80906 14.0379 12.3494 14.0379C17.8897 14.0379 22.2902 18.317 22.3493 23.5H23.8494C23.7929 17.6823 19.0721 12.9375 13.1123 12.5619Z" fill="black" fill-opacity="0.3"/>
</svg>
