<svg width="102" height="39" viewBox="0 0 102 39" fill="none" xmlns="http://www.w3.org/2000/svg">
<path d="M69.3751 10.7679C68.9793 10.7543 68.5971 10.7543 68.2012 10.7679C68.1876 9.26645 68.1739 7.7786 68.1739 6.2771C68.5288 6.2771 68.8974 6.2771 69.2523 6.29075C69.5526 6.29075 69.5526 5.82665 69.2523 5.82665C68.8974 5.82665 68.5288 5.813 68.1739 5.82665C68.1602 4.35245 68.1466 2.8646 68.133 1.3904C68.5561 1.3904 68.9656 1.3904 69.3751 1.3904C69.6754 1.40405 69.6754 0.93995 69.3751 0.93995C68.8837 0.9263 68.3923 0.9263 67.9145 0.93995C67.7644 0.93995 67.6825 1.04915 67.6825 1.172C67.6962 4.448 67.7235 7.724 67.7371 11C67.7371 11.1229 67.8599 11.2457 67.9692 11.2184C68.4333 11.2184 68.911 11.2184 69.3751 11.2184C69.6754 11.2321 69.6754 10.7679 69.3751 10.7679ZM74.5917 11C74.5917 10.8635 74.4962 10.7679 74.3597 10.7679C74.1549 10.7679 73.9638 10.7679 73.7591 10.7679C73.7454 7.57385 73.7181 4.3661 73.7045 1.172C73.7045 1.0355 73.5953 0.93995 73.4724 0.93995C73.0493 0.9263 72.6261 0.9263 72.1893 0.93995C72.0392 0.93995 71.9573 1.04915 71.9573 1.172C71.9573 2.79635 71.9846 4.43435 71.9436 6.07235C71.9027 7.49195 71.93 9.89435 71.1519 10.7679C71.1383 10.7816 71.1383 10.7679 71.1246 10.7679C70.9745 10.7679 70.8243 10.7679 70.6605 10.7679C70.5104 10.7679 70.4285 10.8771 70.4285 11C70.4421 11.1911 70.4421 11.3822 70.4285 11.587C70.4285 11.8736 70.8789 11.8736 70.8926 11.587C70.8926 11.4641 70.8926 11.3412 70.8926 11.2184C71.9709 11.2321 73.0493 11.2457 74.1276 11.2321C74.1413 11.3412 74.1413 11.4641 74.1276 11.587C74.1276 11.8736 74.5917 11.8736 74.5917 11.587C74.5917 11.3822 74.5917 11.1911 74.5917 11ZM71.7525 10.7679C71.8071 10.6588 71.8617 10.5223 71.9163 10.3994C72.0938 9.89435 72.1757 9.34835 72.2303 8.82965C72.4214 7.27355 72.4214 5.69015 72.4214 4.1204C72.4214 3.20585 72.4214 2.30495 72.4214 1.3904C72.6944 1.3904 72.9674 1.3904 73.2404 1.3904C73.2677 4.51625 73.2813 7.6421 73.3086 10.7679C72.7899 10.7679 72.2712 10.7679 71.7525 10.7679ZM77.7655 1.172C77.7655 1.7726 77.7655 2.35955 77.7655 2.96015C77.3014 4.54355 76.81 6.1133 76.3186 7.68305C76.3322 5.5127 76.3459 3.34235 76.3595 1.172C76.3595 0.8717 75.8954 0.8717 75.8954 1.172C75.8818 4.448 75.8545 7.724 75.8272 11C75.8272 11.2867 76.2913 11.2867 76.2913 11C76.2913 10.3994 76.3049 9.81245 76.3049 9.21185C76.3049 9.21185 76.3049 9.21185 76.3049 9.1982C76.81 7.68305 77.2877 6.15425 77.7518 4.62545C77.7382 6.7412 77.7245 8.8706 77.7109 11C77.7109 11.2867 78.1613 11.2867 78.175 11C78.1886 7.724 78.2159 4.448 78.2296 1.172C78.2296 0.8717 77.7791 0.8717 77.7655 1.172ZM82.1899 1.172C82.1762 0.8717 81.7258 0.8717 81.7258 1.172C81.7394 2.7281 81.7394 4.2842 81.7531 5.8403C81.248 5.82665 80.7293 5.82665 80.2243 5.82665C80.2106 4.27055 80.197 2.7281 80.1833 1.172C80.1833 0.8717 79.7329 0.8717 79.7329 1.172C79.7465 4.448 79.7738 7.724 79.7875 11C79.7875 11.2867 80.2516 11.2867 80.2516 11C80.2379 9.43025 80.2243 7.8605 80.2243 6.29075C80.7293 6.29075 81.248 6.29075 81.7531 6.3044C81.7667 7.8605 81.7804 9.43025 81.7804 11C81.794 11.2867 82.2445 11.2867 82.2445 11C82.2308 7.724 82.2035 4.448 82.1899 1.172ZM85.922 11C85.608 7.724 85.3077 4.448 84.9665 1.172C84.9392 0.85805 84.4751 0.899 84.4478 1.172C84.1065 4.448 83.8062 7.724 83.4923 11C83.465 11.2867 83.9291 11.2867 83.9564 11C83.9973 10.454 84.0519 9.908 84.1065 9.362C84.5024 9.362 84.9119 9.362 85.3077 9.37565C85.3623 9.908 85.4169 10.454 85.4579 11C85.4852 11.2867 85.9493 11.2867 85.922 11ZM84.1475 8.91155C84.3386 6.9869 84.516 5.06225 84.7071 3.1376C84.8982 5.06225 85.0757 6.9869 85.2668 8.91155C84.8982 8.91155 84.516 8.8979 84.1475 8.91155ZM90.4912 1.172C90.4912 1.02185 90.3684 0.93995 90.2592 0.93995C89.7678 0.91265 89.2081 0.899 88.7577 1.15835C88.3482 1.3904 88.2117 1.8272 88.2663 2.27765C88.3345 2.7827 88.6485 3.06935 89.058 3.23315C88.7713 3.69725 88.6894 4.2842 88.6348 4.81655C88.5666 5.5673 88.5939 6.3317 88.5939 7.0961C88.5939 7.81955 88.6075 8.543 88.5666 9.26645C88.5393 9.67595 88.512 10.1401 88.3209 10.495C88.239 10.6315 88.1571 10.7133 88.0479 10.7406C87.693 10.8635 87.5155 10.5632 87.5019 10.2492C87.5019 9.94895 87.0378 9.94895 87.0378 10.2492C87.0514 10.6178 87.1879 10.9863 87.5428 11.1502C87.7749 11.2594 88.0615 11.2457 88.2936 11.1365C88.6485 10.9727 88.8259 10.5768 88.9078 10.2083C89.0443 9.6077 89.0443 8.96615 89.0443 8.3519C89.058 7.451 89.0443 6.5501 89.058 5.6492C89.0716 5.22605 89.0853 4.81655 89.1535 4.40705C89.2081 4.05215 89.29 3.64265 89.5221 3.34235C89.6995 3.36965 89.877 3.36965 90.0408 3.36965C90.0544 5.90855 90.0681 8.44745 90.0954 11C90.0954 11.2867 90.5458 11.2867 90.5458 11C90.5322 7.724 90.5049 4.448 90.4912 1.172ZM88.7304 2.22305C88.6075 1.445 89.4265 1.37675 90.0271 1.3904C90.0271 1.89545 90.0408 2.4005 90.0408 2.9192C89.5084 2.96015 88.8123 2.82365 88.7304 2.22305ZM70.0849 13.9399C69.3615 13.9263 68.638 13.9263 67.9145 13.9399C67.6143 13.9399 67.6143 14.4041 67.9145 14.3904C68.2012 14.3904 68.5015 14.3904 68.8018 14.3904C68.8154 17.5845 68.8291 20.7922 68.8564 24C68.8564 24.2867 69.3205 24.2867 69.3205 24C69.2932 20.7922 69.2796 17.5845 69.2523 14.3904C69.5252 14.3904 69.8119 14.3904 70.0849 14.3904C70.3716 14.4041 70.3716 13.9399 70.0849 13.9399ZM73.7393 15.496C73.6847 14.8409 73.4253 14.0219 72.6609 13.9399C71.8146 13.858 71.4597 14.6497 71.3642 15.3596C71.3096 15.851 71.3096 16.356 71.2959 16.8474C71.2686 17.4207 71.255 17.9803 71.255 18.5536C71.255 19.632 71.2823 20.7103 71.3232 21.7887C71.3505 22.4712 71.3642 23.3038 71.8146 23.8635C72.033 24.1365 72.3606 24.273 72.7019 24.2048C73.1933 24.1229 73.4799 23.6724 73.6301 23.2219V23.2083C73.8075 22.5804 73.7939 21.8706 73.8075 21.2154C73.8212 20.6148 73.8075 20.0005 73.8075 19.3999C73.8212 18.1032 73.8621 16.7791 73.7393 15.496ZM72.4562 23.7543C72.2241 23.727 72.1013 23.5086 72.0194 23.3175C71.8146 22.7988 71.801 22.2255 71.7873 21.6795C71.7054 19.6866 71.6645 17.68 71.801 15.7008C71.8283 15.2094 71.9648 14.2539 72.6882 14.4041C73.2206 14.5269 73.2752 15.3322 73.3025 15.7827C73.3707 16.9702 73.3571 18.1578 73.3571 19.3453C73.3434 19.9323 73.3571 20.5192 73.3434 21.0925C73.3434 21.7477 73.3707 22.4712 73.1796 23.0991C73.0841 23.413 72.852 23.8226 72.4562 23.7543ZM77.0812 14.1174C76.6307 13.8853 76.0711 13.9126 75.5933 13.9399C75.4159 13.9399 75.334 14.0628 75.334 14.172C75.3476 17.448 75.3749 20.724 75.3886 24C75.4022 24.2867 75.8527 24.2867 75.8527 24C75.839 21.4474 75.8254 18.9085 75.8117 16.3697C76.5898 16.4243 77.4907 16.1922 77.5862 15.2776C77.6408 14.8272 77.4907 14.3495 77.0812 14.1174ZM77.1358 15.2231C77.0675 15.8646 76.3441 15.9601 75.7981 15.9192C75.7981 15.4005 75.7981 14.8954 75.7981 14.3904C76.112 14.3767 76.4396 14.3767 76.7263 14.4723C77.0539 14.5815 77.1631 14.8818 77.1358 15.2231ZM80.5463 13.9399C80.0549 13.9263 79.5635 13.9263 79.0585 13.9399C78.922 13.9399 78.8264 14.0628 78.8264 14.172C78.8537 17.448 78.881 20.724 78.8947 24C78.8947 24.2867 79.3588 24.2867 79.3588 24C79.3315 20.7922 79.3178 17.5982 79.2905 14.3904C79.7137 14.3904 80.1232 14.3904 80.5463 14.3904C80.8466 14.4041 80.8466 13.9399 80.5463 13.9399ZM83.9501 15.496C83.8955 14.8409 83.6362 14.0219 82.8718 13.9399C82.0255 13.858 81.6706 14.6497 81.575 15.3596C81.5204 15.851 81.5204 16.356 81.5068 16.8474C81.4795 17.4207 81.4658 17.9803 81.4658 18.5536C81.4658 19.632 81.4931 20.7103 81.5341 21.7887C81.5614 22.4712 81.575 23.3038 82.0255 23.8635C82.2439 24.1365 82.5715 24.273 82.9127 24.2048C83.4041 24.1229 83.6908 23.6724 83.8409 23.2219V23.2083C84.0184 22.5804 84.0047 21.8706 84.0184 21.2154C84.032 20.6148 84.0184 20.0005 84.0184 19.3999C84.032 18.1032 84.073 16.7791 83.9501 15.496ZM82.667 23.7543C82.435 23.727 82.3121 23.5086 82.2302 23.3175C82.0255 22.7988 82.0118 22.2255 81.9982 21.6795C81.9163 19.6866 81.8753 17.68 82.0118 15.7008C82.0391 15.2094 82.1756 14.2539 82.8991 14.4041C83.4314 14.5269 83.486 15.3322 83.5133 15.7827C83.5816 16.9702 83.5679 18.1578 83.5679 19.3453C83.5543 19.9323 83.5679 20.5192 83.5543 21.0925C83.5543 21.7477 83.5816 22.4712 83.3905 23.0991C83.2949 23.413 83.0629 23.8226 82.667 23.7543ZM87.7971 22.7852C87.6606 21.9115 86.8006 21.7341 86.0499 21.7887C86.0362 19.9869 86.0226 18.1714 86.0089 16.3697C86.8006 16.4243 87.7015 16.1922 87.7971 15.2776C87.8517 14.8272 87.7015 14.3495 87.2784 14.1174C86.8416 13.8853 86.2819 13.9126 85.8042 13.9399C85.6267 13.9399 85.5448 14.0628 85.5448 14.172C85.5585 17.448 85.5858 20.724 85.5994 24C85.5994 24.1229 85.6677 24.1911 85.7769 24.2184C86.2683 24.314 86.8279 24.3276 87.2647 24.0546C87.7015 23.7816 87.8653 23.2765 87.7971 22.7852ZM86.9371 14.4723C87.2647 14.5815 87.3739 14.8818 87.3466 15.2231C87.2784 15.8646 86.5549 15.9601 86.0089 15.9192C86.0089 15.4005 86.0089 14.8954 86.0089 14.3904C86.3229 14.3767 86.6505 14.3767 86.9371 14.4723ZM87.0054 23.6724C86.7324 23.8362 86.3775 23.8498 86.0635 23.8089C86.0635 23.2765 86.0499 22.7578 86.0499 22.2391C86.5413 22.1982 87.1965 22.2391 87.333 22.7988C87.4012 23.1264 87.3193 23.4813 87.0054 23.6724ZM91.494 24C91.18 20.724 90.8797 17.448 90.5385 14.172C90.5112 13.858 90.0471 13.899 90.0198 14.172C89.6785 17.448 89.3782 20.724 89.0643 24C89.037 24.2867 89.5011 24.2867 89.5284 24C89.5693 23.454 89.6239 22.908 89.6785 22.362C90.0744 22.362 90.4839 22.362 90.8797 22.3757C90.9343 22.908 90.9889 23.454 91.0299 24C91.0572 24.2867 91.5213 24.2867 91.494 24ZM89.7195 21.9115C89.9106 19.9869 90.088 18.0622 90.2791 16.1376C90.4702 18.0622 90.6477 19.9869 90.8388 21.9115C90.4702 21.9115 90.088 21.8979 89.7195 21.9115ZM96.0632 14.172C96.0632 14.0219 95.9403 13.9399 95.8311 13.9399C95.3397 13.9126 94.7801 13.899 94.3296 14.1584C93.9201 14.3904 93.7836 14.8272 93.8382 15.2776C93.9065 15.7827 94.2204 16.0693 94.6299 16.2332C94.3433 16.6972 94.2614 17.2842 94.2068 17.8166C94.1385 18.5673 94.1658 19.3317 94.1658 20.0961C94.1658 20.8195 94.1795 21.543 94.1385 22.2664C94.1112 22.6759 94.0839 23.1401 93.8928 23.495C93.8109 23.6315 93.729 23.7133 93.6198 23.7406C93.2649 23.8635 93.0875 23.5632 93.0738 23.2492C93.0738 22.9489 92.6097 22.9489 92.6097 23.2492C92.6234 23.6178 92.7599 23.9863 93.1148 24.1502C93.3468 24.2594 93.6335 24.2457 93.8655 24.1365C94.2204 23.9727 94.3979 23.5768 94.4798 23.2083C94.6163 22.6077 94.6163 21.9662 94.6163 21.3519C94.6299 20.451 94.6163 19.5501 94.6299 18.6492C94.6436 18.2261 94.6572 17.8166 94.7255 17.4071C94.7801 17.0522 94.862 16.6426 95.094 16.3423C95.2715 16.3697 95.4489 16.3697 95.6127 16.3697C95.6264 18.9085 95.64 21.4474 95.6673 24C95.6673 24.2867 96.1178 24.2867 96.1178 24C96.1041 20.724 96.0768 17.448 96.0632 14.172ZM94.3023 15.2231C94.1795 14.445 94.9985 14.3767 95.5991 14.3904C95.5991 14.8954 95.6127 15.4005 95.6127 15.9192C95.0804 15.9601 94.3842 15.8236 94.3023 15.2231ZM70.1395 27.2812C70.1395 27.1174 70.1395 26.9399 69.9484 26.9399C69.2796 26.9263 68.6243 26.9263 67.9692 26.9399C67.7781 26.9399 67.6825 27.0491 67.6825 27.172C67.7098 30.448 67.7235 33.724 67.7508 37C67.7508 37.2867 68.2148 37.2867 68.2148 37C68.1876 33.7922 68.1739 30.5982 68.1466 27.3904C68.6653 27.3904 69.1704 27.3904 69.6891 27.3904C69.7027 30.5982 69.73 33.7922 69.7436 37C69.7436 37.2867 70.2078 37.2867 70.2078 37C70.1805 33.7513 70.1668 30.5162 70.1395 27.2812ZM74.7684 27.1447C74.7684 27.0764 74.7411 27.0219 74.7002 26.9809C74.6592 26.9399 74.6046 26.9263 74.5364 26.9263C74.0996 26.9126 73.6491 26.9126 73.1987 26.9263C73.1441 26.9263 73.0895 26.9399 73.0622 26.9673C73.0076 27.0082 72.9666 27.0628 72.9666 27.1447C72.9666 28.496 73.0212 29.8337 73.0212 31.1851C73.0076 31.9904 72.9939 32.7958 72.9393 33.6011C72.8847 34.3792 72.8165 35.1846 72.5981 35.9353C72.5162 36.181 72.407 36.6315 72.1203 36.7406C71.7654 36.8771 71.5061 36.5632 71.4924 36.2492C71.4924 35.9489 71.0283 35.9489 71.042 36.2492C71.042 36.6315 71.2058 36.9727 71.5743 37.1365C71.8746 37.273 72.2295 37.2594 72.4889 37.0546C72.7619 36.8362 72.8984 36.495 73.0076 36.181C73.1441 35.7306 73.226 35.2528 73.2806 34.7887C73.5126 33.0415 73.4853 31.2533 73.4717 29.4925C73.458 28.7964 73.4307 28.0865 73.4307 27.3767C73.731 27.3767 74.0177 27.3767 74.318 27.3767C74.3316 30.5845 74.3589 33.7786 74.3726 36.9727C74.3726 37.273 74.8367 37.273 74.8367 36.9727C74.8094 33.6967 74.7957 30.4207 74.7684 27.1447ZM78.6847 28.496C78.6301 27.8409 78.3708 27.0219 77.6064 26.9399C76.7601 26.858 76.4052 27.6497 76.3096 28.3596C76.255 28.851 76.255 29.356 76.2414 29.8474C76.2141 30.4207 76.2004 30.9803 76.2004 31.5536C76.2004 32.632 76.2277 33.7103 76.2687 34.7887C76.296 35.4712 76.3096 36.3038 76.7601 36.8635C76.9785 37.1365 77.3061 37.273 77.6473 37.2048C78.1387 37.1229 78.4254 36.6724 78.5755 36.2219V36.2083C78.753 35.5804 78.7393 34.8706 78.753 34.2154C78.7666 33.6148 78.753 33.0005 78.753 32.3999C78.7666 31.1032 78.8076 29.7791 78.6847 28.496ZM77.4016 36.7543C77.1696 36.727 77.0467 36.5086 76.9648 36.3175C76.7601 35.7988 76.7464 35.2255 76.7328 34.6795C76.6509 32.6866 76.6099 30.68 76.7464 28.7008C76.7737 28.2094 76.9102 27.2539 77.6337 27.4041C78.166 27.5269 78.2206 28.3322 78.2479 28.7827C78.3162 29.9702 78.3025 31.1578 78.3025 32.3453C78.2889 32.9323 78.3025 33.5192 78.2889 34.0925C78.2889 34.7477 78.3162 35.4712 78.1251 36.0991C78.0295 36.413 77.7975 36.8226 77.4016 36.7543ZM85.0465 36.8498C85.0055 36.7952 84.9509 36.7679 84.869 36.7679C84.2548 36.7679 84.2548 36.7679 84.2548 36.7679C84.2411 33.5738 84.2138 30.3661 84.2002 27.172C84.1865 26.8717 83.7361 26.8717 83.7361 27.172C83.7497 30.3661 83.777 33.5738 83.7907 36.7679C83.3539 36.7816 82.9171 36.7816 82.4803 36.7679C82.453 33.5738 82.4257 30.3661 82.412 27.172C82.3984 26.8717 81.9479 26.8717 81.9479 27.172C81.9616 30.3661 81.9889 33.5738 82.0162 36.7679C81.5657 36.7679 81.1153 36.7679 80.6648 36.7679C80.6512 33.5602 80.6239 30.3661 80.6102 27.172C80.5966 26.8717 80.1461 26.8717 80.1461 27.172C80.1598 30.448 80.1871 33.724 80.2007 37C80.2007 37.0683 80.228 37.1092 80.269 37.1502C80.3099 37.1911 80.3645 37.2184 80.4328 37.2184C81.8251 37.2184 83.2174 37.2457 84.6097 37.2321C84.5824 37.3685 84.5687 37.6416 84.5551 37.7917C84.5414 37.9145 84.6779 38.0101 84.7871 38.0101C84.9236 38.0101 85.0055 37.9145 85.0192 37.7917C85.0328 37.5733 85.0738 37.2184 85.0874 37C85.1011 36.9454 85.0738 36.8908 85.0465 36.8498ZM88.6413 37C88.3274 33.724 88.0271 30.448 87.6858 27.172C87.6585 26.858 87.1944 26.899 87.1671 27.172C86.8259 30.448 86.5256 33.724 86.2116 37C86.1843 37.2867 86.6484 37.2867 86.6757 37C86.7167 36.454 86.7713 35.908 86.8259 35.362C87.2217 35.362 87.6312 35.362 88.0271 35.3757C88.0817 35.908 88.1363 36.454 88.1772 37C88.2045 37.2867 88.6686 37.2867 88.6413 37ZM86.8668 34.9115C87.0579 32.9869 87.2354 31.0622 87.4265 29.1376C87.6176 31.0622 87.795 32.9869 87.9861 34.9115C87.6176 34.9115 87.2354 34.8979 86.8668 34.9115ZM93.7737 37C93.7737 36.8635 93.6782 36.7679 93.5417 36.7679C93.3369 36.7679 93.1458 36.7679 92.9411 36.7679C92.9274 33.5738 92.9001 30.3661 92.8865 27.172C92.8865 27.0355 92.7773 26.9399 92.6544 26.9399C92.2313 26.9263 91.8081 26.9263 91.3713 26.9399C91.2212 26.9399 91.1393 27.0491 91.1393 27.172C91.1393 28.7964 91.1666 30.4343 91.1256 32.0723C91.0847 33.492 91.112 35.8944 90.3339 36.7679C90.3203 36.7816 90.3203 36.7679 90.3066 36.7679C90.1565 36.7679 90.0063 36.7679 89.8425 36.7679C89.6924 36.7679 89.6105 36.8771 89.6105 37C89.6241 37.1911 89.6241 37.3822 89.6105 37.587C89.6105 37.8736 90.0609 37.8736 90.0746 37.587C90.0746 37.4641 90.0746 37.3412 90.0746 37.2184C91.1529 37.2321 92.2313 37.2457 93.3096 37.2321C93.3233 37.3412 93.3233 37.4641 93.3096 37.587C93.3096 37.8736 93.7737 37.8736 93.7737 37.587C93.7737 37.3822 93.7737 37.1911 93.7737 37ZM90.9345 36.7679C90.9891 36.6588 91.0437 36.5223 91.0983 36.3994C91.2758 35.8944 91.3577 35.3483 91.4123 34.8296C91.6034 33.2736 91.6034 31.6901 91.6034 30.1204C91.6034 29.2058 91.6034 28.3049 91.6034 27.3904C91.8764 27.3904 92.1494 27.3904 92.4224 27.3904C92.4497 30.5162 92.4633 33.6421 92.4906 36.7679C91.9719 36.7679 91.4532 36.7679 90.9345 36.7679ZM97.0157 27.172C97.0294 26.8717 96.5653 26.8717 96.5516 27.172C96.5243 27.8681 96.1967 28.6189 95.4733 28.7554C95.4733 28.2231 95.4733 27.6907 95.4733 27.172C95.4733 26.8717 95.0092 26.8717 95.0092 27.172C95.0228 30.448 95.0501 33.724 95.0774 37C95.0774 37.2867 95.5279 37.2867 95.5279 37C95.5279 36.4677 95.5279 35.9353 95.5142 35.4029C95.8555 35.4439 96.1558 35.594 96.3196 35.9216C96.497 36.2492 96.538 36.6315 96.5516 37C96.5653 37.2867 97.0294 37.2867 97.0157 37C96.9884 36.5223 96.9338 36.0172 96.6745 35.6077C96.4151 35.1982 95.992 34.9935 95.5142 34.9388C95.5006 33.0278 95.4869 31.1305 95.4869 29.2195C96.4697 29.083 96.9611 28.1138 97.0157 27.172ZM100.572 37C100.258 33.724 99.9575 30.448 99.6162 27.172C99.5889 26.858 99.1248 26.899 99.0975 27.172C98.7563 30.448 98.456 33.724 98.142 37C98.1147 37.2867 98.5788 37.2867 98.6061 37C98.6471 36.454 98.7017 35.908 98.7563 35.362C99.1521 35.362 99.5616 35.362 99.9575 35.3757C100.012 35.908 100.067 36.454 100.108 37C100.135 37.2867 100.599 37.2867 100.572 37ZM98.7972 34.9115C98.9883 32.9869 99.1658 31.0622 99.3569 29.1376C99.548 31.0622 99.7254 32.9869 99.9165 34.9115C99.548 34.9115 99.1658 34.8979 98.7972 34.9115Z" fill="white"/>
<path d="M6.26633 18.5581C6.22526 15.4403 6.26633 12.3225 6.47144 9.16372C6.51243 8.2612 6.47144 7.31765 6.43037 6.41514C6.43037 5.84081 6.10221 5.59467 5.52788 5.59467C4.8305 5.59467 4.13312 5.71774 3.43566 5.96388C2.77935 6.169 2.20502 6.49718 1.75373 7.03049C1.09734 7.76891 0.892236 8.67143 0.851162 9.61497C0.851162 10.8047 1.26146 11.8302 1.95884 12.8148C2.32807 13.3481 2.9024 13.5943 3.55879 13.6353C3.92793 13.6353 4.33823 13.6353 4.74844 13.6353C4.74844 13.7173 4.74844 13.7994 4.74844 13.9224C4.70746 16.1377 4.66638 18.394 4.6254 20.6503C4.6254 20.9375 4.54334 21.1426 4.33823 21.3067C4.17411 21.4708 3.969 21.6349 3.80488 21.799C3.23055 22.2502 2.65622 22.7425 2.20502 23.3168C1.42549 24.2604 0.974297 25.368 0.68713 26.5577C0.563996 26.9269 0.482024 27.2961 0.44095 27.6653C0.35889 28.1166 0.44095 28.2807 0.851162 28.3627C1.01528 28.4448 1.22039 28.4448 1.42549 28.4858C1.67167 28.4858 1.87678 28.3627 1.99983 28.1576C2.08189 28.0345 2.12296 27.8705 2.20502 27.7474C2.41013 27.2551 2.61523 26.7628 2.82034 26.2705C3.18957 25.368 3.64076 24.5065 4.42029 23.8912C4.46128 23.8501 4.54334 23.8091 4.58432 23.7681C4.6254 23.8501 4.66638 23.9322 4.66638 24.0142C4.70746 24.6706 4.66638 25.327 4.70746 25.9834C4.70746 26.5167 4.70746 27.05 4.70746 27.5423C4.74844 28.1166 5.11767 28.4038 5.692 28.4038C6.02015 28.4038 6.22526 28.2397 6.26633 27.9115C6.34839 27.4602 6.38938 27.05 6.38938 26.6397C6.34839 23.9322 6.30732 21.2657 6.26633 18.5581ZM4.25617 11.9943C3.39467 11.7892 2.73828 11.2969 2.41013 10.4354C2.24601 9.98419 2.32807 9.53293 2.61523 9.12269C3.02545 8.50734 3.64076 8.0971 4.29716 7.72789C4.42029 7.68687 4.54334 7.64584 4.70746 7.5638V12.0764C4.54334 12.0354 4.37922 12.0354 4.25617 11.9943Z" fill="white"/>
<path d="M8.76873 15.3993C8.76873 18.2299 8.68667 21.0605 8.6456 23.9322C8.60461 24.8347 8.60461 25.7372 8.60461 26.6397C8.60461 27.173 8.72766 27.6653 9.30199 27.8704C9.95839 28.1576 10.4097 27.8704 10.4507 27.173V27.0499L10.4917 22.004C10.4917 21.922 10.4917 21.881 10.4917 21.7989C10.5327 21.7989 10.5327 21.7989 10.5738 21.7989C10.7789 21.881 10.984 21.963 11.1891 22.004C12.4198 22.4143 13.2813 23.1937 13.9377 24.3014C14.3479 25.0808 14.6351 25.9423 14.8402 26.8038C14.9633 27.5012 15.4145 27.9114 16.0709 27.9114C16.4811 27.8704 16.7273 27.6243 16.6453 27.214C16.3581 26.0654 15.9068 24.9577 15.3325 23.9322C14.3069 22.0861 12.83 20.7733 10.7789 20.117C10.5738 20.0349 10.4507 19.8708 10.4507 19.6247C10.4097 17.6145 10.3686 15.5633 10.2866 13.5122C10.2866 13.266 10.4097 13.0609 10.6558 12.9789C10.7378 12.9789 10.7789 12.9378 10.861 12.8968C12.3378 12.3225 13.3634 11.3379 13.9377 9.82005C14.2659 8.87651 14.471 7.93297 14.6351 6.94841C14.7172 6.4151 14.512 6.04589 14.1018 5.75872C13.6095 5.38951 13.0762 5.59463 12.9942 6.20998C12.9531 6.37408 12.9531 6.53817 12.9121 6.70226C12.6249 7.56376 12.3788 8.42525 12.1327 9.28675C11.8044 10.2303 11.1481 10.8456 10.3686 11.461C10.3686 11.3379 10.3686 11.2559 10.3686 11.1738C10.3686 9.65596 10.3686 8.13809 10.3686 6.62022C10.3686 5.88179 9.95839 5.47156 9.26101 5.47156C8.97384 5.51258 8.80972 5.59463 8.76873 5.88179C8.72766 6.12793 8.72766 6.37408 8.72766 6.62022C8.76873 9.57391 8.80972 12.4866 8.76873 15.3993Z" fill="white"/>
<path d="M21.3629 15.5633L19.2707 25.9833C19.1887 26.3936 19.1477 26.8038 19.0656 27.173C19.0245 27.5422 19.1477 27.7884 19.5169 27.8704C19.6809 27.9114 19.845 27.9525 20.0092 27.9525C20.2553 27.9935 20.4604 27.8704 20.5424 27.6243C20.6245 27.4602 20.7065 27.2551 20.7475 27.091C20.9526 26.1884 21.1578 25.2859 21.3219 24.3424C21.8552 21.6759 22.3475 19.0093 22.8398 16.3428C23.3731 13.5532 23.8654 10.7226 24.3986 7.89194C24.4807 7.39966 24.5627 6.86635 24.6037 6.37407C24.6448 6.16895 24.5627 5.96383 24.3986 5.84076C24.0705 5.59462 23.7012 5.5536 23.291 5.67667C22.9628 5.79974 22.8807 6.0869 22.7988 6.41509C22.5526 8.17911 22.2654 9.94312 22.0193 11.6661C22.0193 11.7482 21.9373 11.7892 21.8962 11.8302C21.8962 11.8302 21.8141 11.7892 21.7731 11.7482C21.609 11.543 21.4039 11.3379 21.2398 11.1328C20.5835 10.3944 20.0501 9.57391 19.763 8.63036C19.5169 7.89194 19.3938 7.15352 19.2707 6.37407C19.1477 5.67667 18.9835 5.5536 18.2862 5.51257C17.7528 5.51257 17.5477 5.71769 17.6298 6.20997C17.7118 6.98942 17.8349 7.80989 18.122 8.58934C18.6143 10.1072 19.3117 11.543 20.4604 12.7327C20.7065 13.0609 21.0347 13.3481 21.3219 13.6352C21.568 13.8404 21.6501 14.1275 21.568 14.4557C21.486 14.8249 21.445 15.1941 21.3629 15.5633Z" fill="white"/>
<path d="M30.3472 15.8916C30.3883 19.0914 30.3883 22.2502 30.4293 25.409C30.4293 25.9834 30.4293 26.5577 30.4703 27.132C30.4703 27.4602 30.6344 27.6653 31.0036 27.6653C31.824 27.6653 32.1112 27.4602 32.1112 26.6397C32.0702 25.5321 32.0292 24.3834 32.0292 23.2758C31.9472 20.8554 31.8651 18.4761 31.824 16.0557C31.7831 13.7994 31.7831 11.5841 31.7421 9.3278C31.7421 8.54836 31.7421 7.76891 31.7421 6.98946C31.7421 6.62025 31.824 6.5382 32.1933 6.57923C32.4804 6.57923 32.7676 6.62025 33.0548 6.62025C33.7522 6.62025 34.4496 6.57923 35.147 6.41513C35.3521 6.37411 35.5572 6.12797 35.5983 5.96387C35.5983 5.75875 35.3932 5.67671 35.27 5.55364C35.2291 5.55364 35.2291 5.55364 35.188 5.55364C34.7778 5.47159 34.3676 5.3075 33.9163 5.3075C31.578 5.3075 29.2396 5.3075 26.9012 5.34852C26.409 5.34852 26.2448 5.51261 26.2039 6.0049C26.2039 6.29206 26.2859 6.45615 26.532 6.49718C26.8602 6.5382 27.1474 6.57923 27.4346 6.57923C28.255 6.62025 29.0755 6.57923 29.8959 6.57923H30.1011C30.1421 6.82537 30.1421 6.98946 30.1421 7.19458C30.2242 10.1073 30.3062 12.9789 30.3472 15.8916Z" fill="white"/>
<path d="M37.5674 17.5735C37.5674 18.8452 37.6085 20.158 37.6495 21.4297C37.6495 22.0861 37.6905 22.7835 37.5264 23.4809C37.5264 23.604 37.4854 23.7681 37.4854 23.8911C37.5674 24.9578 37.6495 26.0244 37.7315 27.05C37.7315 27.5012 37.9366 27.7474 38.2648 27.9525C38.4289 28.0755 38.634 28.0755 38.7981 27.9525C39.0443 27.7474 39.2904 27.5422 39.3725 27.2141C39.4135 27.091 39.4955 26.9679 39.5366 26.8448L42.3672 21.5118C42.4902 21.3067 42.5723 21.0605 42.6953 20.8554C42.7364 20.7734 42.8185 20.6913 42.9005 20.6093L42.9415 20.6503C42.9415 20.7323 42.9415 20.7734 42.9415 20.8554C42.9825 22.2912 42.9415 23.686 42.9825 25.1219C43.0236 25.9013 43.0646 26.6807 43.1466 27.4192C43.1877 27.8704 43.5979 28.1576 44.0492 28.1166C44.4183 28.1166 44.7055 27.7884 44.7466 27.3371C44.7466 27.091 44.7466 26.8038 44.7055 26.5577C44.5415 24.9988 44.4594 23.4809 44.4183 21.922C44.3364 16.671 44.2543 11.461 44.1722 6.20999C44.1722 6.08692 44.1722 5.92283 44.1312 5.79976C44.0902 5.55362 43.9671 5.30747 43.6389 5.26645C43.0236 5.14338 42.5723 5.3485 42.5723 6.0459C42.5723 6.12795 42.5723 6.20999 42.5723 6.29204C42.7364 8.05605 42.8185 9.86109 42.8594 11.6661C42.8594 13.3481 42.9005 15.0301 42.9005 16.712C42.9415 17.2453 42.8185 17.6966 42.5723 18.1889C41.5877 19.9939 40.6032 21.84 39.6596 23.686C39.5776 23.8091 39.4955 23.9322 39.4135 24.0552H39.3725C39.3314 23.7681 39.2904 23.5219 39.2904 23.2348C39.2904 22.0451 39.2494 20.8554 39.2494 19.6657L39.0032 6.08692C38.9623 5.43054 38.9623 5.43054 38.3469 5.38952C37.6905 5.3485 37.5674 5.47157 37.5674 6.08692C37.5674 9.94314 37.5674 13.7583 37.5674 17.5735Z" fill="white"/>
<path d="M1.34352 37.5109L1.30245 34.065V30.66H1.8358C1.95884 30.66 2.0409 30.5369 2.0409 30.4139C2.0409 30.3728 2.0409 30.2908 1.99983 30.2498C1.95884 30.2087 1.87678 30.1677 1.79472 30.1677C1.30245 30.1677 0.769192 30.1677 0.235845 30.1677C0.153785 30.1677 0.0717253 30.2087 0.0307394 30.2908C-0.0102465 30.3728 -0.0102465 30.4959 0.0307394 30.5369C0.0717253 30.619 0.153785 30.66 0.235845 30.66H0.810178C0.810178 32.9163 0.810178 35.2136 0.851164 37.5109C0.851164 37.675 0.974298 37.7571 1.09734 37.7571C1.22039 37.7571 1.34352 37.675 1.34352 37.5109Z" fill="white"/>
<path d="M3.68188 33.9829L3.72287 37.5109C3.72287 37.634 3.80493 37.7161 3.92798 37.7571C4.05111 37.7571 4.21514 37.7981 4.33828 37.7981C4.62544 37.7981 4.87154 37.7161 5.03566 37.593C5.36381 37.4289 5.52793 37.0187 5.44587 36.6084C5.36381 36.1161 4.9536 35.829 4.2972 35.829H4.21514L4.17416 32.0958H4.25622C4.9536 32.0958 5.40488 31.7676 5.44587 31.2343C5.48694 30.8241 5.36381 30.4959 5.03566 30.3318C4.83055 30.2087 4.62544 30.1677 4.2972 30.1677C4.17416 30.1677 4.05111 30.1677 3.92798 30.1677C3.76394 30.1677 3.68188 30.2908 3.68188 30.4139V33.9829ZM4.21514 36.7725V36.3213H4.2972C4.7075 36.3213 4.91261 36.4033 4.9536 36.6494C5.03566 36.8956 4.9536 37.1007 4.74849 37.1828C4.62544 37.2648 4.42034 37.3058 4.21514 37.3058V36.7725ZM4.99467 31.1933C4.9536 31.5625 4.50231 31.6446 4.17416 31.6035V30.66H4.2972C4.46132 30.66 4.62544 30.66 4.74849 30.701C4.9536 30.7831 4.99467 31.0292 4.99467 31.1933Z" fill="white"/>
<path d="M7.20996 33.5727C7.20996 34.2701 7.20996 35.0495 7.25095 35.911V35.9931C7.29193 36.4443 7.29193 37.0597 7.62017 37.4699C7.78429 37.634 7.9894 37.7571 8.19451 37.7571C8.23549 37.7571 8.27657 37.7571 8.35863 37.7161C8.68678 37.675 8.93287 37.3879 9.056 36.9776V36.9366C9.17905 36.5264 9.17905 36.1161 9.22004 35.6649V35.5008C9.22004 35.2136 9.22004 34.9265 9.22004 34.6393V34.188V33.7778C9.22004 32.9984 9.22004 32.1779 9.13806 31.3574C9.13806 31.0292 8.97394 30.2498 8.31755 30.1677H8.19451C7.74322 30.1677 7.37399 30.578 7.29193 31.2754C7.25095 31.5625 7.25095 31.8497 7.25095 32.1369V32.342C7.20996 32.7522 7.20996 33.1624 7.20996 33.5727ZM7.74322 35.829C7.70223 34.5572 7.66116 33.0394 7.74322 31.5215C7.78429 31.1933 7.86627 30.66 8.19451 30.66C8.23549 30.66 8.27657 30.66 8.31755 30.66C8.6457 30.7421 8.6457 31.3164 8.68678 31.6036C8.72776 32.342 8.72776 33.0804 8.72776 33.7778V34.147C8.72776 34.3521 8.72776 34.5572 8.72776 34.8034C8.72776 35.0085 8.72776 35.2136 8.72776 35.4187V35.5828C8.72776 35.9931 8.72776 36.4443 8.60472 36.8135C8.52266 37.0187 8.39961 37.2648 8.19451 37.2648H8.15343C8.07146 37.2238 7.9894 37.1417 7.90734 36.9776C7.78429 36.6084 7.74322 36.2392 7.74322 35.829Z" fill="white"/>
<path d="M11.5584 34.3111V34.6803L11.5993 35.0085C11.5993 35.4187 11.5993 35.829 11.5584 36.2392V36.2802C11.5584 36.5674 11.5173 36.8546 11.3942 37.1007C11.3533 37.1828 11.3122 37.2238 11.2301 37.2238C11.1891 37.2648 11.1891 37.2648 11.1482 37.2648C11.025 37.2648 10.943 37.0597 10.943 36.9776C10.943 36.6494 10.4507 36.6494 10.4507 36.9776C10.4918 37.3058 10.6148 37.552 10.861 37.675C10.943 37.7161 11.0661 37.7571 11.1482 37.7571C11.2712 37.7571 11.3942 37.7161 11.4763 37.675C11.7635 37.552 11.8865 37.2238 11.9686 36.9366C12.0506 36.5264 12.0506 36.0341 12.0506 35.5828C12.0506 35.2546 12.0506 34.9675 12.0506 34.6393C12.0506 34.3111 12.0506 33.9829 12.0916 33.6547C12.0916 33.3676 12.0916 33.0804 12.1327 32.7522C12.1737 32.5061 12.2148 32.2599 12.3788 32.0958C12.4608 32.0958 12.5429 32.0958 12.625 32.0958C12.625 33.8598 12.625 35.7059 12.666 37.5109C12.666 37.7981 13.1582 37.7981 13.1582 37.5109L13.1172 33.9829V30.4139C13.1172 30.2908 12.9942 30.1677 12.8711 30.1677C12.748 30.1677 12.666 30.1677 12.5429 30.1677C12.3378 30.1677 12.0096 30.2087 11.7224 30.3318C11.4352 30.5369 11.3122 30.8241 11.3533 31.2343C11.3942 31.5625 11.5584 31.8087 11.8865 31.9317C11.6814 32.301 11.6404 32.6702 11.5993 33.0394C11.5584 33.4496 11.5584 33.9009 11.5584 34.3111ZM12.625 31.6036H12.5839C12.3788 31.6036 11.8865 31.5625 11.8455 31.1933C11.8045 31.0292 11.8455 30.9472 11.8865 30.8651C12.0096 30.7421 12.2557 30.66 12.5839 30.66H12.625V31.1113V31.6036Z" fill="white"/>
<path d="M15.2095 33.8188C15.2505 33.9419 15.2505 34.106 15.2915 34.2291C15.3325 34.5162 15.4966 34.6803 15.7427 34.7624C16.0299 34.8444 16.3171 34.8034 16.6042 34.7214C16.6863 34.6803 16.7684 34.6393 16.8504 34.5573C17.2196 34.106 17.1786 33.4907 16.7684 33.0804C16.6042 32.9573 16.4402 32.9163 16.2761 32.9163C16.235 32.9163 16.153 32.9163 16.112 32.9163C15.5787 32.9163 15.2095 33.2855 15.2095 33.8188Z" fill="white"/>
<path d="M18.9426 32.342C18.9015 33.4086 18.9426 34.5162 18.9835 35.6649V35.87C18.9835 36.4033 19.0245 37.1007 19.3938 37.5109C19.5579 37.675 19.804 37.7571 20.0092 37.7571C20.2143 37.7571 20.3783 37.675 20.5424 37.593C20.8707 37.3468 21.0347 36.8956 21.0347 36.1982C21.0347 35.87 20.5424 35.87 20.5424 36.1982C20.5424 36.4853 20.5424 36.9776 20.2552 37.1827C20.0911 37.3058 19.845 37.2648 19.722 37.1007C19.5169 36.8135 19.4758 36.3212 19.4758 35.911V35.7469C19.4348 34.9264 19.3938 33.9829 19.4348 33.0394C19.4348 32.5881 19.4758 32.1368 19.4758 31.6856V31.6446C19.5169 31.3984 19.5169 31.1113 19.6399 30.9061C19.722 30.7831 19.845 30.66 20.0092 30.66C20.0911 30.66 20.1732 30.701 20.2143 30.7831C20.3783 30.9882 20.3373 31.3984 20.3373 31.6446V31.7266C20.3373 31.8087 20.3783 31.8497 20.4194 31.8907C20.5424 32.0138 20.8296 31.9728 20.8296 31.7266C20.8296 31.3164 20.8296 30.9061 20.6655 30.578C20.5014 30.3318 20.2552 30.2087 19.9681 30.2087C19.886 30.2087 19.804 30.2087 19.722 30.2498C18.9835 30.4549 18.9835 31.4394 18.9835 32.0548L18.9426 32.342Z" fill="white"/>
<path d="M22.7989 30.4139C22.7989 32.7522 22.7989 35.1316 22.7578 37.3879V37.5109C22.7578 37.7981 23.2501 37.7981 23.2501 37.5109V36.8546V36.2392C23.5373 35.3777 23.8244 34.5162 24.1527 33.4496L24.1116 37.5109C24.1116 37.675 24.2347 37.7571 24.3578 37.7571C24.4808 37.7571 24.6039 37.675 24.6039 37.5109L24.6449 33.9829V30.4139C24.6449 30.1267 24.1527 30.1267 24.1527 30.4139V31.6856C23.8655 32.6702 23.5783 33.6547 23.2912 34.5983V30.4139C23.2912 30.1267 22.7989 30.1267 22.7989 30.4139Z" fill="white"/>
<path d="M27.5166 33.3265C27.5166 33.9009 27.5166 34.4752 27.4756 35.0495C27.4346 35.6239 27.3525 36.1982 27.2295 36.7315L27.1884 36.7725C27.1474 36.9366 27.0654 37.1828 26.9012 37.2238C26.7372 37.3058 26.5731 37.1417 26.5731 36.9776C26.5731 36.8135 26.45 36.7315 26.3269 36.7315C26.2448 36.7315 26.2039 36.7315 26.1629 36.8135C26.1218 36.8546 26.0808 36.8956 26.0808 36.9776C26.0808 37.3058 26.2448 37.552 26.532 37.675C26.6141 37.7161 26.7372 37.7571 26.8602 37.7571C26.9833 37.7571 27.1474 37.7161 27.2705 37.593C27.4756 37.4289 27.5987 37.1828 27.6807 36.9366C27.7627 36.6494 27.8038 36.3213 27.8448 35.911C28.0089 34.7213 28.0089 33.4906 28.0089 32.301V32.0958L27.9678 31.6036C27.9678 31.2754 27.9678 30.9882 27.9678 30.66H28.4601V34.065L28.5012 37.4699C28.5012 37.7981 28.9935 37.7981 28.9935 37.4699L28.9525 33.9419V30.4139C28.9525 30.3318 28.9114 30.2908 28.8704 30.2498C28.8293 30.2087 28.7473 30.1677 28.7063 30.1677C28.3781 30.1677 28.0499 30.1677 27.7217 30.1677C27.6807 30.1677 27.5987 30.1677 27.5576 30.2087C27.5166 30.2498 27.4756 30.3318 27.4756 30.4139C27.4756 30.9061 27.4756 31.3984 27.5166 31.8497C27.5166 32.342 27.5166 32.8343 27.5166 33.3265Z" fill="white"/>
<path d="M31.4957 30.4139C31.3316 32.1779 31.1676 33.9829 31.0034 35.7469L30.7983 37.5109C30.7983 37.552 30.8393 37.634 30.8804 37.675C31.0034 37.7981 31.2906 37.7571 31.3316 37.5109C31.3316 37.1417 31.3727 36.7725 31.4137 36.4033C31.6598 36.4033 31.9059 36.4033 32.1521 36.4033C32.1521 36.7725 32.1931 37.1417 32.2342 37.5109C32.2342 37.675 32.3572 37.7571 32.4803 37.7571C32.5623 37.7571 32.6444 37.716 32.6854 37.675C32.7264 37.634 32.7264 37.552 32.7264 37.5109L32.5623 35.7469C32.3982 33.9829 32.2342 32.1779 32.0291 30.4139C32.0291 30.2908 31.9059 30.2087 31.7829 30.2087C31.6598 30.2087 31.5367 30.2908 31.4957 30.4139ZM31.7829 32.6702L31.9059 33.9419L32.0701 35.911H31.9059H31.6188H31.4547L31.6598 33.9419L31.7829 32.6702Z" fill="white"/>
<path d="M35.7623 32.9163C35.2291 32.9163 34.8599 33.2855 34.8599 33.8188C34.8599 33.9419 34.9008 34.106 34.9419 34.2291C34.9829 34.5162 35.147 34.6803 35.3932 34.7624C35.6804 34.8444 35.9675 34.8034 36.2547 34.7214C36.3367 34.6803 36.4187 34.6393 36.5008 34.5573C36.87 34.106 36.829 33.4907 36.4187 33.0804C36.2547 32.9573 36.0906 32.9163 35.9265 32.9163C35.8444 32.9163 35.8034 32.9163 35.7623 32.9163Z" fill="white"/>
<path d="M39.6183 31.4395C39.6183 32.2599 39.6183 33.1214 39.6183 33.9419V34.2701C39.5773 35.2546 39.5364 36.6905 39.0851 37.2648H38.7569C38.6338 37.2648 38.5107 37.3468 38.5107 37.5109C38.5517 37.634 38.5517 37.7981 38.5107 37.9212C38.5107 38.2494 39.003 38.2494 39.003 37.9212V37.7571C39.7415 37.7571 40.4798 37.7571 41.1773 37.7571C41.1773 37.7981 41.1773 37.8802 41.1773 37.9212C41.1773 38.0853 41.3003 38.1673 41.4234 38.1673C41.5465 38.1673 41.6696 38.0853 41.6696 37.9212V37.5109C41.6696 37.3468 41.5875 37.2648 41.4234 37.2648H41.0952L41.0542 33.9009V30.4139C41.0542 30.2908 40.9311 30.1677 40.8081 30.1677C40.4798 30.1677 40.1927 30.1677 39.8645 30.1677C39.7415 30.1677 39.6183 30.2908 39.6183 30.4139V31.4395ZM39.9876 35.952C40.1107 34.8444 40.1107 33.6547 40.1107 32.5471V30.66H40.5619V33.9419L40.603 37.2648H39.6594L39.7004 37.1828L39.7415 37.1007C39.9055 36.6905 39.9466 36.2802 39.9876 35.952Z" fill="white"/>
<path d="M43.4747 33.0394L43.5157 33.2445C43.5977 34.024 43.6798 34.8445 43.967 35.5829C44.008 35.747 44.09 36.0341 44.2951 36.1572C44.2541 36.4034 44.2131 36.6495 44.1721 36.8136V36.8546C44.1721 36.9367 44.131 37.2238 44.008 37.2648C43.967 37.2648 43.967 37.2648 43.9259 37.2238C43.8849 37.1828 43.8438 37.0597 43.8438 36.9777C43.8438 36.8956 43.8438 36.8546 43.8028 36.8136C43.6798 36.6495 43.3516 36.7315 43.3516 36.9777C43.3516 37.1828 43.4336 37.4289 43.5567 37.552C43.6798 37.6751 43.8438 37.7571 44.008 37.7571C44.049 37.7571 44.131 37.7571 44.2131 37.7161C44.6233 37.552 44.6643 36.9777 44.7053 36.5674V36.4444C44.8285 35.3367 44.9515 34.1471 45.0746 32.6292C45.1156 31.8908 45.1976 31.1523 45.2387 30.4549C45.2387 30.3319 45.1976 30.2908 45.1976 30.2498C45.0746 30.1268 44.7464 30.1678 44.7464 30.4139C44.6643 31.4805 44.5823 32.5471 44.5002 33.6138L44.4592 34.1471C44.4182 34.5163 44.3772 34.8855 44.3362 35.2547C44.2541 34.9265 44.2131 34.6393 44.1721 34.3522C44.008 33.5727 43.9259 32.7523 43.8438 31.9728L43.8028 31.6446V31.2754C43.7619 30.9882 43.7208 30.7011 43.7208 30.4139C43.6798 30.1678 43.3926 30.1268 43.2695 30.2498C43.2285 30.2908 43.2285 30.3319 43.2285 30.4549L43.3106 31.3164C43.3516 31.8908 43.3926 32.4651 43.4747 33.0394Z" fill="white"/>
<path d="M47.0439 30.4959L47.6592 33.7778L47.0028 37.4289C46.9618 37.5109 47.0028 37.593 47.0439 37.634C47.0849 37.7161 47.1669 37.7571 47.249 37.7571C47.3311 37.7571 47.4541 37.675 47.4541 37.552L47.9054 35.0906L47.9874 35.5828C48.1105 36.2802 48.2335 36.9366 48.3566 37.552C48.3977 37.675 48.4797 37.7571 48.5617 37.7571C48.6438 37.7571 48.7258 37.7161 48.7669 37.634C48.8079 37.593 48.8489 37.5109 48.8489 37.4289C48.6848 36.6084 48.5207 35.788 48.3977 34.9675L48.1515 33.7778L48.2745 33.0394L48.4386 32.301C48.5617 31.6856 48.6438 31.1113 48.7669 30.4959C48.7669 30.4139 48.7669 30.3318 48.7258 30.2908C48.6848 30.2087 48.6028 30.1677 48.5207 30.1677C48.3977 30.1677 48.3156 30.2498 48.2745 30.3728L48.0694 31.6036L47.9054 32.424L47.8643 32.1779C47.7413 31.5625 47.6182 30.9472 47.5362 30.3728C47.4951 30.2498 47.413 30.1677 47.29 30.1677C47.2079 30.1677 47.1259 30.2087 47.0849 30.2908C47.0439 30.3318 47.0439 30.4139 47.0439 30.4959Z" fill="white"/>
<path d="M51.2692 30.4139C51.064 32.1779 50.9 33.9829 50.7359 35.7469L50.5718 37.5109C50.5718 37.552 50.5718 37.634 50.6129 37.675C50.7359 37.7981 51.064 37.7571 51.064 37.5109C51.1051 37.1417 51.1461 36.7725 51.1872 36.4033C51.3923 36.4033 51.6384 36.4033 51.8846 36.4033C51.9255 36.7725 51.9666 37.1417 52.0076 37.5109C52.0076 37.675 52.1307 37.7571 52.2538 37.7571C52.3358 37.7571 52.3768 37.716 52.4179 37.675C52.4589 37.634 52.4999 37.552 52.4999 37.5109L52.3358 35.7469C52.1717 33.9829 51.9666 32.1779 51.8025 30.4139C51.8025 30.2908 51.6795 30.2087 51.5564 30.2087C51.4333 30.2087 51.2692 30.2908 51.2692 30.4139ZM51.5153 32.6702L51.6384 33.9419L51.8436 35.911H51.6795H51.3923H51.2282L51.3923 33.9419L51.5153 32.6702Z" fill="white"/>
<path d="M44.0079 3.74859C44.5822 3.70757 44.9104 3.21528 44.7464 2.64095L44.7053 2.35379C44.6232 1.98458 44.3362 1.73843 43.9259 1.65639C43.8438 1.65639 43.7208 1.61536 43.5977 1.57434C43.2285 1.45127 42.8183 1.53332 42.5721 1.86151C42.367 2.14867 42.1619 2.47686 42.2029 2.84607C42.0798 3.50245 42.6132 3.99473 43.2285 3.87166C43.4747 3.83064 43.7208 3.78961 44.0079 3.74859Z" fill="white"/>
<path d="M39.1673 3.62553C39.4134 3.42041 39.4545 3.09222 39.4545 2.80506V2.72301C39.4955 2.10766 39.0443 1.69742 38.4289 1.73845C38.3058 1.77947 38.1417 1.77947 38.0187 1.73845C37.4443 1.6564 36.7879 2.06664 36.6238 2.59994C36.5828 2.80506 36.5417 3.01018 36.5417 3.21529C36.5417 3.66655 36.87 4.03577 37.3213 4.07679C37.5674 4.07679 37.7725 4.11781 37.9776 4.11781C38.4699 4.15884 38.7981 3.87167 39.1673 3.62553Z" fill="white"/>
<path d="M32.2342 3.37936C32.3982 3.17424 32.4802 2.96912 32.4393 2.72298C32.4393 2.64093 32.3982 2.55888 32.3982 2.47684C32.3982 1.90251 31.7829 1.28715 31.2085 1.32818C31.0444 1.32818 30.8393 1.3692 30.6342 1.41023C30.1829 1.49227 29.6906 2.2307 29.7727 2.72298C29.8138 2.88707 29.8138 3.01014 29.8548 3.17424C29.9368 3.58447 30.3061 3.87164 30.7163 3.87164L31.2085 3.83061C31.4957 3.87164 32.07 3.58447 32.2342 3.37936Z" fill="white"/>
<path d="M26.0806 3.17425C26.2037 2.96913 26.2037 2.68196 26.2447 2.51787C26.2447 2.02559 25.7524 1.45126 25.3012 1.36921C25.2601 1.32819 25.1781 1.32819 25.1371 1.32819C24.7678 1.32819 24.3986 1.36921 24.0705 1.57433C23.6192 1.82047 23.25 2.47685 23.3731 2.96913L23.4141 3.05118C23.4141 3.17425 23.4551 3.25629 23.4961 3.37936C23.6603 3.91267 24.2346 4.15881 24.7269 3.91267C24.8089 3.87165 24.8499 3.87165 24.932 3.83062C25.2191 3.74858 25.4652 3.70755 25.7114 3.58448C25.8755 3.50243 26.0396 3.33834 26.0806 3.17425Z" fill="white"/>
<path d="M10.2867 3.78963C10.8199 3.17428 10.779 2.31278 10.1635 1.77948C9.99951 1.61538 9.75333 1.53333 9.50715 1.57436C9.42518 1.57436 9.38411 1.57436 9.30205 1.57436C8.60467 1.53333 8.07141 2.02562 8.07141 2.76404C8.1124 2.96916 8.1124 3.13325 8.15338 3.33837C8.23544 3.70758 8.48162 3.9127 8.80978 4.03577C9.21999 4.15884 9.58921 4.11782 9.95844 3.99475C10.0815 3.95372 10.2046 3.87168 10.2867 3.78963Z" fill="white"/>
<path d="M6.75863 2.64093C6.75863 2.14865 6.55352 1.86148 6.10223 1.69739C5.81507 1.57432 5.5279 1.5333 5.24073 1.5333C4.78945 1.49227 4.4613 1.65637 4.29718 2.10763C4.25619 2.14865 4.21512 2.18967 4.21512 2.27172C3.84598 2.88707 4.37924 3.95369 5.03563 4.11778C5.36378 4.1588 6.26635 3.87164 6.47146 3.6255C6.67657 3.37936 6.79961 3.09219 6.75863 2.764V2.64093Z" fill="white"/>
<path d="M52.4999 18.0658C52.4589 14.907 52.4999 11.7892 52.7051 8.67141C52.7461 7.72787 52.7051 6.82535 52.664 5.88181C52.664 5.30748 52.3359 5.06134 51.7615 5.06134C51.0641 5.10236 50.3667 5.18441 49.6693 5.43055C49.0129 5.67669 48.4386 5.96386 47.9873 6.49717C47.331 7.27661 47.1259 8.17913 47.1259 9.12267C47.0848 10.2713 47.495 11.3379 48.1925 12.2815C48.5616 12.8148 49.136 13.102 49.7923 13.143C50.1616 13.143 50.5718 13.143 50.9821 13.143C50.9821 13.184 50.9821 13.3071 50.9821 13.3891C50.941 15.6454 50.9 17.9017 50.9 20.158C50.859 20.4041 50.7769 20.6093 50.5718 20.8144C50.4078 20.9375 50.2026 21.1015 50.0385 21.2656C49.4642 21.7579 48.8899 22.2092 48.4386 22.7835C47.6591 23.7681 47.2079 24.8757 46.9207 26.0244C46.7976 26.3936 46.7156 26.8038 46.6746 27.173C46.5925 27.5833 46.6746 27.7474 47.0848 27.8704C47.2489 27.9115 47.454 27.9525 47.6591 27.9525C47.9053 27.9935 48.1104 27.8704 48.2335 27.6653C48.3155 27.5012 48.3565 27.3782 48.4386 27.2141C48.6437 26.7628 48.8488 26.2295 49.054 25.7372C49.4231 24.8347 49.8744 24.0142 50.6538 23.3578C50.6949 23.3168 50.7769 23.3168 50.818 23.2758C50.859 23.3578 50.9 23.3989 50.9 23.4809C50.941 24.1373 50.9 24.7937 50.941 25.4911C50.941 25.9834 50.941 26.5167 50.941 27.05C50.9821 27.5833 51.3512 27.9115 51.9256 27.8704C52.2948 27.8704 52.4589 27.7474 52.4999 27.3782C52.5819 26.9679 52.623 26.5577 52.623 26.1474C52.5819 23.4399 52.541 20.7323 52.4999 18.0658ZM50.4897 11.461C49.6283 11.2559 48.9719 10.8046 48.6437 9.94314C48.4796 9.45086 48.5616 9.04063 48.8488 8.63039C49.2591 7.97401 49.8744 7.56378 50.5308 7.23559C50.6538 7.19457 50.7769 7.11252 50.941 7.07149V11.5431C50.7769 11.5431 50.6129 11.502 50.4897 11.461Z" fill="white"/>
<path d="M52.9921 2.10764C52.9921 1.65638 52.787 1.32819 52.3358 1.16409C52.0486 1.08205 51.7615 1.04102 51.4743 1C51.023 1 50.6949 1.16409 50.5307 1.57433C50.4897 1.65638 50.4487 1.6974 50.4487 1.73842C50.0794 2.35378 50.6128 3.46141 51.2692 3.58448C51.5973 3.66653 52.4998 3.37937 52.705 3.13322C52.9101 2.88708 53.0332 2.55889 52.9921 2.23071V2.10764Z" fill="white"/>
</svg>
