<svg width="30" height="29" viewBox="0 0 30 29" fill="none" xmlns="http://www.w3.org/2000/svg">
<path fill-rule="evenodd" clip-rule="evenodd" d="M14.7795 28.0676C22.6485 28.0676 29.0664 21.8093 29.0664 14.1356C29.0664 6.46221 22.6485 0.203613 14.7795 0.203613C6.91063 0.203613 0.492432 6.46221 0.492432 14.1356C0.492432 21.8093 6.91063 28.0676 14.7795 28.0676Z" fill="#393185"/>
<path fill-rule="evenodd" clip-rule="evenodd" d="M14.7713 25.2071C21.0175 25.2071 26.1116 20.2393 26.1116 14.1485C26.1116 8.05773 21.0175 3.09033 14.7713 3.09033C8.52519 3.09033 3.43079 8.05773 3.43079 14.1485C3.43079 20.2393 8.52519 25.2071 14.7713 25.2071Z" fill="url(#paint0_linear_44_394)"/>
<path fill-rule="evenodd" clip-rule="evenodd" d="M16.8097 26.6435C16.9486 26.6435 17.02 26.5655 17.02 26.4057C17.02 26.2653 16.9486 26.1914 16.8057 26.1914C16.6428 26.1914 16.5594 26.2653 16.5594 26.4057C16.5594 26.5774 16.6428 26.663 16.8057 26.663L16.8097 26.6435Z" fill="#FEFEFE"/>
<path fill-rule="evenodd" clip-rule="evenodd" d="M7.8962 11.0508V10.9099L8.1992 10.6485L8.547 10.4113L8.8787 10.2585L8.7517 9.97733L8.5306 9.77213L8.7352 9.66353L8.8787 9.78823L9.0054 9.89683L9.1324 10.2103H9.3699L9.5624 10.2426L9.7835 10.335L9.9266 10.4132L10.0046 10.2565L10.0987 10.1638L10.1803 10.2565L10.0658 10.4575L10.2747 10.6003L10.4998 10.7412L10.6268 10.9099L10.7461 10.7401L10.8241 10.6006L10.9474 10.5581L11.0316 10.6383L10.8805 11.0065L10.7988 11.131L10.9091 11.332L11.1359 11.5131L11.2799 11.3529L11.3567 11.4306L11.2901 11.754L11.245 11.9071L11.2901 12.08L11.4987 12.3612L11.5602 11.6738L11.6583 11.3161L11.7853 11.0065H11.5438L11.3882 11.0989L11.2901 11.2237L11.245 11.3481L11.2121 11.4085L11.1509 11.3966L11.1345 11.2395V11.0989L11.2286 10.9904L11.3391 10.8818L11.3882 10.8013L11.6583 10.7412L11.8794 10.7248L11.9922 10.6752L12.0946 10.5862L11.9599 10.3245L11.9123 10.1179L12.0228 9.92883L12.1498 9.86843L12.3545 9.83643H12.4976L12.5966 9.94503L12.7111 10.1462L12.6601 10.3583L12.5399 10.6037L12.6572 10.7412V10.7732L12.7516 10.8013L12.8457 10.8336L12.9889 10.8977L13.0833 10.9422L13.3534 11.0346L13.3248 11.2838L12.9277 11.131L12.6859 11.0828L12.6411 11.3481L12.4976 11.923L12.547 12.3935L12.6737 12.5463L12.7842 12.6265L13.0218 12.7674L14.2633 5.78973L14.4025 5.90223L14.3399 6.43113C15.4856 6.93913 16.1362 6.98733 17.3738 7.40543L17.386 7.60643L16.185 7.33713C16.0271 7.49923 15.9539 7.74333 15.9188 8.02453L17.1201 8.24563L17.1037 8.49503L15.9023 8.27393C15.7651 8.45823 15.717 8.72613 15.7428 9.06993L16.8006 9.30723L16.6739 9.49203C15.5029 9.23943 14.932 9.45853 13.9575 8.97213L13.3367 12.6869L15.1302 12.4859L16.5588 12.1563L17.21 12.1883L17.8279 12.285L18.3192 12.3935L18.8923 12.5341L19.2895 12.7351L19.7645 13.077L20.1002 13.3423L20.2393 13.5152L21.1274 13.7321L21.2587 13.9172L21.6232 14.6689L21.8931 15.0108L22.3682 15.445L22.5278 15.4932L22.6383 15.7424L22.6222 16.0842V16.9406L22.8594 18.0019L23.1131 18.6091L23.2072 18.9506L22.9085 18.9064L22.7653 18.5167L22.5893 17.9698L22.5113 17.4392L22.4132 16.1324L22.3191 15.65L21.7786 15.2922L21.4469 14.8217L21.1932 14.3072L21.0333 14.1221L20.8125 14.0297L20.5424 14.1663L20.3825 14.6811L20.2269 15.1956L19.8748 15.678L19.7481 15.8348L20.2107 16.241L20.448 16.6792L20.6076 17.19L20.62 17.9095L20.4809 18.1104L20.1943 18.9668L20.1002 19.5618L20.2884 19.8875L19.527 19.8112L19.6376 19.0311L19.8136 18.6734L20.1614 18.0019L20.2107 17.5035L19.9403 17.0973L19.9077 16.8964L19.8462 16.5545L19.576 16.2572L19.097 15.8991L18.7327 15.3526L18.2741 15.6661L18.4462 16.2892L18.4952 16.5545L18.1471 17.1297L17.7993 17.4874L17.5578 17.628L17.1935 17.9537L16.7675 18.4242L16.526 18.9668L16.3868 19.7146L15.7524 19.6704L15.9899 18.8424L16.3542 18.2029L16.9395 17.7366L17.4472 17.3026L17.9385 16.5826L17.7993 16.209L17.7174 15.8833L17.3531 15.8348L16.9395 15.7104L16.2272 15.2599L15.7847 14.939L15.495 14.8991L15.3966 14.8509V14.7744L15.6254 14.6972C15.6699 14.6267 15.6274 14.6012 15.4984 14.6207H14.4014L13.4515 14.8217L13.0547 15.1032L12.8948 15.8509L12.6575 16.7813L12.5305 17.5894L12.42 18.712C12.42 19.0215 12.3749 19.0011 12.4035 19.0612C12.3423 19.0612 12.2644 19.2188 12.0515 19.1182L12.1785 18.4523L12.3707 17.0973L12.5918 15.8833L12.6859 15.1797L12.2601 15.1956L11.3062 15.5255L10.2132 15.9757L9.8776 16.2892L9.6565 17.0653L9.7506 18.2352L9.7835 19.4053L9.1981 19.964L9.2307 18.9829L9.3084 17.1455L9.3863 16.2892L9.6114 15.5255L8.8787 15.678L8.4365 16.1486L8.0722 16.7073L7.9288 17.6765L7.9126 18.2029L7.9738 19.0311L8.0393 19.4053L8.0232 19.6704L7.5767 19.638L7.5316 17.9375L7.6096 16.8159L8.2604 15.5255L9.0382 14.9626L9.0547 14.8055L8.8951 14.5564L8.801 14.1663L8.8171 13.7644L8.9606 13.2941L9.1981 13.0447L9.4969 12.6869L9.5133 12.1724L9.5295 11.9071L9.4192 11.6738L9.2432 11.4085L8.9441 11.1752L8.8951 11.8949L9.1817 12.0639L9.5295 12.08V12.1883L9.1652 12.1282L8.8787 11.9712L8.8622 12.6265L8.8171 12.9364L8.6904 13.1575L8.5144 13.1413L8.3874 12.9364V12.4216L8.6085 11.8467L8.3545 11.5652L8.1663 11.0989L8.2604 11.1148L8.3384 11.2838L8.4654 11.5329L8.6576 11.6738L8.8171 11.1471L8.6085 11.0346L8.1828 11.1148L7.9738 11.131L7.8962 11.0508ZM14.7795 3.78223C8.9314 3.78223 4.1615 8.43323 4.1615 14.136C4.1615 19.8387 8.9314 24.4901 14.7795 24.4901C20.6274 24.4901 25.3973 19.8387 25.3973 14.136C25.3973 8.43323 20.6274 3.78223 14.7795 3.78223ZM14.7795 4.12883C9.127 4.12883 4.517 8.62433 4.517 14.136C4.517 19.648 9.127 24.1434 14.7795 24.1434C20.4318 24.1434 25.0418 19.648 25.0418 14.136C25.0418 8.62433 20.4318 4.12883 14.7795 4.12883Z" fill="#E31E24"/>
<path fill-rule="evenodd" clip-rule="evenodd" d="M14.6033 1.03488L15.0869 0.563477L15.5714 1.03608L15.088 1.50748L14.6033 1.03488Z" fill="#FEFEFE"/>
<path fill-rule="evenodd" clip-rule="evenodd" d="M13.9221 1.61974L14.2004 1.34814L14.4796 1.62034L14.201 1.89184L13.9221 1.61974Z" fill="#FEFEFE"/>
<path fill-rule="evenodd" clip-rule="evenodd" d="M15.6937 1.6465L15.9721 1.375L16.2513 1.6471L15.9726 1.9187L15.6937 1.6465Z" fill="#FEFEFE"/>
<path fill-rule="evenodd" clip-rule="evenodd" d="M15.2439 1.64534L15.7175 1.17334L15.8125 1.27284L15.4593 1.64194L15.8162 2.00594L15.715 2.10514L15.2439 1.64534Z" fill="#FEFEFE"/>
<path fill-rule="evenodd" clip-rule="evenodd" d="M14.955 1.63929L14.4816 1.16699L14.3867 1.26649L14.7399 1.63559L14.3827 1.99959L14.4839 2.09879L14.955 1.63929Z" fill="#FEFEFE"/>
<path fill-rule="evenodd" clip-rule="evenodd" d="M14.6168 2.23263L15.1004 1.76123L15.5851 2.23383L15.1016 2.70523L14.6168 2.23263Z" fill="#FEFEFE"/>
<path fill-rule="evenodd" clip-rule="evenodd" d="M17.3259 1.20091L17.8988 0.836914L18.273 1.39681L17.7001 1.76081L17.3259 1.20091Z" fill="#FEFEFE"/>
<path fill-rule="evenodd" clip-rule="evenodd" d="M16.5353 1.63616L16.8653 1.42676L17.081 1.74926L16.751 1.95876L16.5353 1.63616Z" fill="#FEFEFE"/>
<path fill-rule="evenodd" clip-rule="evenodd" d="M18.2633 2.01888L18.5933 1.80908L18.8087 2.13168L18.4788 2.34118L18.2633 2.01888Z" fill="#FEFEFE"/>
<path fill-rule="evenodd" clip-rule="evenodd" d="M17.8234 1.92735L18.3866 1.56055L18.4586 1.67705L18.0348 1.96735L18.3073 2.39535L18.1873 2.47195L17.8234 1.92735Z" fill="#FEFEFE"/>
<path fill-rule="evenodd" clip-rule="evenodd" d="M17.5422 1.86296L17.1788 1.30566L17.0648 1.38396L17.3324 1.81646L16.9058 2.10056L16.9838 2.21786L17.5422 1.86296Z" fill="#FEFEFE"/>
<path fill-rule="evenodd" clip-rule="evenodd" d="M17.0854 2.37572L17.6583 2.01172L18.0325 2.57162L17.4597 2.93552L17.0854 2.37572Z" fill="#FEFEFE"/>
<path fill-rule="evenodd" clip-rule="evenodd" d="M19.8723 1.89469L20.5052 1.64209L20.7649 2.26059L20.1319 2.51319L19.8723 1.89469Z" fill="#FEFEFE"/>
<path fill-rule="evenodd" clip-rule="evenodd" d="M19.0122 2.17714L19.3765 2.03174L19.5262 2.38804L19.1616 2.53344L19.0122 2.17714Z" fill="#FEFEFE"/>
<path fill-rule="evenodd" clip-rule="evenodd" d="M20.6353 2.87001L20.9999 2.72461L21.1496 3.08091L20.785 3.22631L20.6353 2.87001Z" fill="#FEFEFE"/>
<path fill-rule="evenodd" clip-rule="evenodd" d="M20.2209 2.69918L20.8451 2.44238L20.893 2.56968L20.4211 2.77718L20.6062 3.24738L20.4735 3.30068L20.2209 2.69918Z" fill="#FEFEFE"/>
<path fill-rule="evenodd" clip-rule="evenodd" d="M19.9573 2.5847L19.7076 1.9707L19.5806 2.0266L19.76 2.5002L19.2863 2.7012L19.3405 2.8308L19.9573 2.5847Z" fill="#FEFEFE"/>
<path fill-rule="evenodd" clip-rule="evenodd" d="M19.4099 3.00455L20.0429 2.75195L20.3026 3.37055L19.6696 3.62305L19.4099 3.00455Z" fill="#FEFEFE"/>
<path fill-rule="evenodd" clip-rule="evenodd" d="M22.2743 3.18827L22.9493 3.08057L23.0595 3.74017L22.3849 3.84787L22.2743 3.18827Z" fill="#FEFEFE"/>
<path d="M21.4331 3.65555L21.8218 3.59375L21.7613 3.21332L21.3726 3.27512L21.4331 3.65555Z" fill="#FEFEFE"/>
<path d="M22.8558 4.68612L23.2444 4.62402L23.1835 4.24334L22.795 4.30544L22.8558 4.68612Z" fill="#FEFEFE"/>
<path fill-rule="evenodd" clip-rule="evenodd" d="M22.4288 4.04876L23.0961 3.93506L23.1134 4.06976L22.6057 4.16836L22.6777 4.66726L22.5363 4.68996L22.4288 4.04876Z" fill="#FEFEFE"/>
<path fill-rule="evenodd" clip-rule="evenodd" d="M22.1984 3.87887L22.0963 3.22607L21.9597 3.25267L22.0255 3.75357L21.5178 3.84567L21.5405 3.98377L22.1984 3.87887Z" fill="#FEFEFE"/>
<path fill-rule="evenodd" clip-rule="evenodd" d="M21.5682 4.16844L22.2432 4.06104L22.3534 4.72063L21.6788 4.82803L21.5682 4.16844Z" fill="#FEFEFE"/>
<path fill-rule="evenodd" clip-rule="evenodd" d="M13.0241 1.13602L12.4799 0.732422L12.0652 1.26412L12.6092 1.66782L13.0241 1.13602Z" fill="#FEFEFE"/>
<path fill-rule="evenodd" clip-rule="evenodd" d="M13.7801 1.62595L13.4666 1.39355L13.2277 1.69995L13.5412 1.93245L13.7801 1.62595Z" fill="#FEFEFE"/>
<path fill-rule="evenodd" clip-rule="evenodd" d="M12.0282 1.88523L11.7147 1.65283L11.4758 1.95923L11.7893 2.19163L12.0282 1.88523Z" fill="#FEFEFE"/>
<path fill-rule="evenodd" clip-rule="evenodd" d="M12.4737 1.82552L11.9393 1.41992L11.8588 1.53072L12.2599 1.85022L11.9563 2.25782L12.0703 2.34252L12.4737 1.82552Z" fill="#FEFEFE"/>
<path fill-rule="evenodd" clip-rule="evenodd" d="M12.759 1.78108L13.1629 1.25098L13.2709 1.33718L12.9719 1.74938L13.3758 2.06308L13.2894 2.17458L12.759 1.78108Z" fill="#FEFEFE"/>
<path fill-rule="evenodd" clip-rule="evenodd" d="M13.176 2.32509L12.6317 1.92139L12.2167 2.45319L12.761 2.85709L13.176 2.32509Z" fill="#FEFEFE"/>
<path fill-rule="evenodd" clip-rule="evenodd" d="M10.4442 1.6957L9.82316 1.4165L9.53625 2.0236L10.1574 2.3026L10.4442 1.6957Z" fill="#FEFEFE"/>
<path fill-rule="evenodd" clip-rule="evenodd" d="M11.2912 2.01422L10.9335 1.85352L10.7682 2.20322L11.126 2.36402L11.2912 2.01422Z" fill="#FEFEFE"/>
<path fill-rule="evenodd" clip-rule="evenodd" d="M9.6386 2.63775L9.2809 2.47705L9.1156 2.82685L9.4734 2.98755L9.6386 2.63775Z" fill="#FEFEFE"/>
<path fill-rule="evenodd" clip-rule="evenodd" d="M10.0602 2.48456L9.44815 2.20166L9.39465 2.32696L9.85695 2.55406L9.65115 3.01606L9.78125 3.07476L10.0602 2.48456Z" fill="#FEFEFE"/>
<path fill-rule="evenodd" clip-rule="evenodd" d="M10.3289 2.38132L10.6052 1.77832L10.7297 1.83962L10.5296 2.30532L10.9939 2.52582L10.9341 2.65312L10.3289 2.38132Z" fill="#FEFEFE"/>
<path fill-rule="evenodd" clip-rule="evenodd" d="M10.857 2.82412L10.2359 2.54492L9.94897 3.15212L10.5701 3.43102L10.857 2.82412Z" fill="#FEFEFE"/>
<path fill-rule="evenodd" clip-rule="evenodd" d="M8.10424 2.81034L7.45454 2.60254L7.24084 3.23744L7.89054 3.44524L8.10424 2.81034Z" fill="#FEFEFE"/>
<path fill-rule="evenodd" clip-rule="evenodd" d="M8.98304 3.0325L8.60884 2.9126L8.48584 3.2785L8.85994 3.3982L8.98304 3.0325Z" fill="#FEFEFE"/>
<path fill-rule="evenodd" clip-rule="evenodd" d="M7.41461 3.83591L7.04011 3.71631L6.91711 4.08201L7.29131 4.20161L7.41461 3.83591Z" fill="#FEFEFE"/>
<path fill-rule="evenodd" clip-rule="evenodd" d="M7.81535 3.63692L7.17415 3.42432L7.13525 3.55472L7.62145 3.72882L7.47125 4.21072L7.60755 4.25462L7.81535 3.63692Z" fill="#FEFEFE"/>
<path fill-rule="evenodd" clip-rule="evenodd" d="M8.06995 3.50441L8.27405 2.87451L8.40475 2.92161L8.26045 3.40631L8.74775 3.57381L8.70325 3.70681L8.06995 3.50441Z" fill="#FEFEFE"/>
<path fill-rule="evenodd" clip-rule="evenodd" d="M8.64653 3.88505L7.99682 3.67725L7.78333 4.31215L8.43313 4.52025L8.64653 3.88505Z" fill="#FEFEFE"/>
<path fill-rule="evenodd" clip-rule="evenodd" d="M14.7745 24.8293C20.82 24.8293 25.7506 20.0212 25.7506 14.126C25.7506 8.23095 20.82 3.42285 14.7745 3.42285C8.72906 3.42285 3.79846 8.23095 3.79846 14.126C3.79846 20.0212 8.72906 24.8293 14.7745 24.8293Z" stroke="#E31E24" stroke-width="0.216" stroke-miterlimit="22.9256"/>
<path fill-rule="evenodd" clip-rule="evenodd" d="M4.30157 5.98584L4.34207 6.01444L4.30777 6.06074C4.29187 6.08194 4.28397 6.10544 4.28307 6.13244C4.28277 6.15874 4.30007 6.18424 4.33527 6.20924L5.10857 6.75714C5.12957 6.77194 5.15357 6.78094 5.18137 6.78434C5.20887 6.78804 5.23587 6.77214 5.26187 6.73704L5.29647 6.69054L5.33707 6.71944L4.95467 7.23254C4.92517 7.27254 4.88577 7.31334 4.83647 7.35554C4.78657 7.39834 4.72587 7.42674 4.65417 7.44144C4.58247 7.45614 4.50907 7.43634 4.43337 7.38274C4.38457 7.34814 4.34687 7.30344 4.32047 7.24924C4.29447 7.19454 4.28817 7.12854 4.30237 7.05144C4.31657 6.97374 4.35847 6.88814 4.42907 6.79344C4.45147 6.76344 4.48237 6.72624 4.52207 6.68264L4.16917 6.43264C4.10877 6.38984 4.05747 6.39664 4.01577 6.45274L3.96677 6.51794L3.92617 6.48954L4.30157 5.98584ZM5.00647 7.02584L4.58957 6.73024C4.55807 6.75834 4.53507 6.78214 4.52007 6.80224C4.48177 6.85354 4.46597 6.90934 4.47307 6.96834C4.47987 7.02734 4.52547 7.08654 4.60967 7.14634C4.66887 7.18834 4.72077 7.21044 4.76497 7.21214C4.80897 7.21444 4.84467 7.20444 4.87217 7.18354C4.89937 7.16254 4.92657 7.13334 4.95407 7.09674L5.00647 7.02584ZM4.11927 8.52964L4.63597 7.65684L4.59297 7.63254L4.56377 7.68184C4.55187 7.70224 4.53337 7.71864 4.50907 7.73114C4.48407 7.74444 4.45207 7.73964 4.41297 7.71754L3.58547 7.25154C3.54777 7.23054 3.52827 7.20644 3.52627 7.17894C3.52397 7.15204 3.52937 7.12764 3.54187 7.10664L3.57107 7.05734L3.52797 7.03274L3.01087 7.90544L3.32467 8.15574L3.34967 8.11354C3.19207 7.96754 3.17047 7.79804 3.28477 7.60504L3.29497 7.58774L3.30627 7.56874C3.32977 7.52874 3.35187 7.50184 3.37287 7.48854C3.39357 7.47494 3.42387 7.47944 3.46327 7.50154L3.82817 7.70674L3.81397 7.73034C3.78387 7.78134 3.74397 7.81674 3.69377 7.83684C3.64357 7.85704 3.56427 7.84174 3.45537 7.79014L3.43127 7.83124L3.98747 8.14414L4.01157 8.10304C3.94297 8.05774 3.89727 8.01464 3.87377 7.97384C3.85027 7.93294 3.84147 7.89724 3.84737 7.86604C3.85307 7.83544 3.86587 7.80374 3.88567 7.77054L3.89957 7.74704L4.34067 7.99534L4.23437 8.17474C4.19407 8.24284 4.14847 8.28904 4.09797 8.31394C4.04787 8.33894 3.99987 8.34854 3.95517 8.34404C3.91037 8.33914 3.86897 8.32844 3.83097 8.31114L3.80577 8.35304L4.11927 8.52964ZM3.56447 9.69494L3.16847 9.51494L3.19067 9.46904C3.25017 9.48554 3.31057 9.48974 3.37177 9.48294C3.43327 9.47554 3.48907 9.45604 3.53897 9.42404C3.58857 9.39224 3.62687 9.34914 3.65267 9.29474C3.67277 9.25254 3.68447 9.20804 3.68697 9.16094C3.68977 9.11384 3.67907 9.06514 3.65607 9.01414C3.63257 8.96304 3.59117 8.91204 3.53247 8.86104C3.47327 8.80944 3.39417 8.76124 3.29577 8.71644C3.12177 8.63734 2.97747 8.61154 2.86237 8.63934C2.74757 8.66714 2.66477 8.73374 2.61407 8.83924C2.58997 8.88994 2.57867 8.94094 2.57977 8.99174C2.58057 9.04274 2.59227 9.09264 2.61347 9.14164C2.63527 9.19074 2.66427 9.24084 2.70197 9.29304L2.65087 9.32934C2.58717 9.25104 2.54457 9.17594 2.52167 9.10364C2.49897 9.03144 2.49157 8.96594 2.49927 8.90614C2.50717 8.84654 2.52367 8.78984 2.54967 8.73574C2.58797 8.65554 2.63877 8.58724 2.70107 8.52994C2.76427 8.47324 2.83547 8.43074 2.91507 8.40294C2.99477 8.37514 3.07897 8.36384 3.16707 8.36894C3.25527 8.37404 3.34287 8.39674 3.42957 8.43644C3.55037 8.49114 3.64477 8.56454 3.71247 8.65664C3.77997 8.74874 3.81817 8.84914 3.82647 8.95774C3.83497 9.06654 3.81427 9.17254 3.76437 9.27684C3.74057 9.32644 3.71677 9.36534 3.69237 9.39314C3.66767 9.42144 3.63877 9.45004 3.60477 9.47954C3.56737 9.51274 3.54527 9.53594 3.53877 9.54954C3.52257 9.58334 3.53847 9.61674 3.58637 9.64904L3.56447 9.69494ZM2.28777 9.42684L2.08797 9.99294L2.13527 10.0087L2.15427 9.95464C2.17757 9.88914 2.22457 9.86794 2.29517 9.89174L3.27397 10.2205L3.11187 10.6803L2.13277 10.3515C2.09137 10.3376 2.06757 10.318 2.05987 10.2925C2.05247 10.2667 2.05277 10.242 2.06157 10.2171L2.08087 10.1632L2.03327 10.1474L1.83367 10.7134L1.88077 10.7293L1.89997 10.6749C1.92327 10.6094 1.97007 10.5884 2.04057 10.612L2.94457 10.9155C2.98597 10.9294 3.01067 10.9493 3.01767 10.9745C3.02477 11.0003 3.02397 11.0252 3.01577 11.0496L2.99647 11.1041L3.04347 11.1199L3.49787 9.83334L3.45057 9.81744L3.43157 9.87134C3.41707 9.91244 3.39617 9.93534 3.36867 9.93964C3.34117 9.94444 3.31537 9.94274 3.29067 9.93454L2.38727 9.63094C2.34587 9.61704 2.32177 9.59744 2.31417 9.57224C2.30677 9.54644 2.30737 9.52124 2.31587 9.49684L2.33517 9.44274L2.28777 9.42684ZM3.03647 11.1573L2.92217 11.7305L2.87317 11.7212L2.89417 11.6154C2.89607 11.6064 2.89497 11.5976 2.89047 11.5888C2.88587 11.5803 2.87827 11.5746 2.86777 11.5726C2.85497 11.5704 2.83627 11.574 2.81107 11.5842L2.16677 11.7932L2.66677 12.1415C2.68837 12.1557 2.70847 12.1648 2.72577 12.1682C2.76347 12.1753 2.78697 12.1529 2.79717 12.101L2.81557 12.0086L2.86497 12.0179L2.78527 12.4173L2.73597 12.4083L2.74017 12.3884C2.74677 12.3544 2.74417 12.3281 2.73137 12.3091C2.71837 12.2904 2.69347 12.2674 2.65547 12.2402L1.84817 11.6642C1.80587 11.6344 1.77157 11.6072 1.74497 11.5823C1.71857 11.5576 1.69647 11.5241 1.67977 11.4819C1.66277 11.4394 1.66017 11.3895 1.67187 11.3322C1.68567 11.2631 1.71237 11.2135 1.75207 11.1834C1.79177 11.1531 1.83537 11.1426 1.88327 11.1517C1.92357 11.1596 1.95247 11.1769 1.96917 11.205C1.98557 11.233 1.99047 11.2639 1.98387 11.2974C1.97797 11.3263 1.96377 11.3498 1.94087 11.3682C1.91757 11.3864 1.88527 11.3915 1.84387 11.3838C1.79877 11.375 1.77277 11.3875 1.76617 11.4204C1.75517 11.4757 1.79457 11.5301 1.88497 11.5837L2.87857 11.2631C2.93977 11.2429 2.97607 11.2047 2.98737 11.148L3.03647 11.1573ZM2.68267 13.4095L2.76887 12.4494L2.71897 12.4451L2.71387 12.5021C2.71017 12.5455 2.69517 12.5727 2.66957 12.5835C2.64407 12.5942 2.61887 12.5985 2.59277 12.5965L1.64067 12.5151C1.59727 12.5115 1.56897 12.4981 1.55527 12.4752C1.54197 12.4519 1.53637 12.4275 1.53827 12.4018L1.54367 12.3448L1.49377 12.3405L1.44417 12.8921C1.41357 13.236 1.51757 13.4183 1.75687 13.4387C1.81127 13.4432 1.86737 13.435 1.92527 13.4134C1.98367 13.3916 2.03607 13.3474 2.08257 13.2805C2.12907 13.2136 2.15767 13.1198 2.16877 12.999C2.17497 12.9256 2.17777 12.8712 2.17587 12.836L2.64777 12.8763L2.63247 13.0458C2.62597 13.1186 2.60557 13.1762 2.57127 13.2184C2.53727 13.2607 2.49837 13.2893 2.45477 13.3052C2.41107 13.3207 2.36797 13.329 2.32607 13.3301L2.32157 13.3786L2.68267 13.4095ZM2.08877 12.8287C2.09077 12.8482 2.09017 12.8709 2.08827 12.8961C2.08397 12.9418 2.07177 12.984 2.05197 13.0234C2.03187 13.0628 1.99947 13.0943 1.95477 13.1178C1.91047 13.141 1.85207 13.1495 1.78007 13.1433C1.71177 13.1376 1.65847 13.1203 1.61967 13.0914C1.58107 13.0628 1.55507 13.0299 1.54257 12.9931C1.52977 12.9562 1.52497 12.9211 1.52807 12.887C1.53437 12.817 1.57857 12.785 1.66107 12.7921L2.08877 12.8287ZM1.38837 14.2516L1.43857 14.2508L1.43937 14.3081C1.43967 14.3341 1.44787 14.3579 1.46407 14.3795C1.47967 14.401 1.50937 14.4115 1.55337 14.4107L2.58857 14.3931L2.58317 14.0884L1.96177 14.0989C1.78637 14.102 1.65337 14.085 1.56297 14.0484C1.47257 14.0121 1.41557 13.9716 1.39207 13.9274C1.36767 13.8834 1.35547 13.8406 1.35467 13.7995C1.35347 13.7315 1.37017 13.6799 1.40537 13.6445C1.44047 13.609 1.48217 13.5909 1.53037 13.59C1.56577 13.5895 1.59557 13.5985 1.62027 13.6178C1.64487 13.6371 1.65767 13.6652 1.65817 13.7017C1.65907 13.74 1.64887 13.7686 1.62787 13.7868C1.60687 13.8052 1.58397 13.8145 1.55847 13.8151C1.54797 13.8151 1.54057 13.8145 1.53547 13.8131C1.53207 13.8123 1.52637 13.812 1.51847 13.8123C1.48527 13.8126 1.46887 13.8287 1.46947 13.8602C1.47027 13.9072 1.51167 13.9452 1.59527 13.975C1.67837 14.0042 1.81837 14.0172 2.01537 14.0138L2.50517 14.0056C2.53837 14.005 2.56477 13.9945 2.58397 13.975C2.60327 13.9551 2.61267 13.9296 2.61207 13.8979L2.61127 13.8474L2.66107 13.8466L2.67867 14.8288L2.62877 14.8296L2.62797 14.7724C2.62707 14.7463 2.61887 14.723 2.60357 14.7012C2.58797 14.6794 2.55767 14.6692 2.51367 14.6698L1.55847 14.6862C1.48357 14.6873 1.44677 14.7228 1.44787 14.7925L1.44907 14.8495L1.39917 14.8503L1.38837 14.2516ZM1.78717 15.4949L2.64217 15.8654C2.68007 15.8612 2.70557 15.8473 2.71947 15.824C2.73337 15.8011 2.73847 15.7761 2.73507 15.7495L2.72797 15.6928L2.77757 15.6865L2.85277 16.2827L2.80317 16.2886L2.79607 16.2319C2.79267 16.2061 2.78187 16.1835 2.76427 16.1636C2.74647 16.1438 2.71587 16.1364 2.67157 16.1415L1.72317 16.2552C1.64887 16.264 1.61597 16.3031 1.62477 16.3722L1.63187 16.4289L1.58227 16.4349L1.50737 15.8405L1.55707 15.8345L1.56407 15.8912C1.56747 15.917 1.57827 15.9397 1.59647 15.9595C1.61487 15.9794 1.64517 15.9867 1.68857 15.9813L2.48677 15.8858L1.62987 15.5139C1.58787 15.5187 1.56067 15.5335 1.54707 15.5573C1.53377 15.5814 1.52807 15.6058 1.53147 15.6307L1.53857 15.6874L1.48897 15.6933L1.41417 15.0992L1.46377 15.0932L1.47087 15.1499C1.47427 15.1757 1.48507 15.1984 1.50317 15.2185C1.52157 15.2378 1.55187 15.2452 1.59497 15.2404L2.54377 15.1264C2.56957 15.1236 2.59397 15.1139 2.61657 15.0981C2.63897 15.0825 2.64747 15.0527 2.64187 15.0099L2.63477 14.9529L2.68467 14.947L2.75917 15.5414L2.70957 15.5474L2.70247 15.4904C2.69937 15.4649 2.68857 15.4422 2.67107 15.4224C2.65317 15.4025 2.62227 15.3951 2.57837 15.4005L1.78717 15.4949ZM2.38447 16.9763L2.82637 16.8765C2.86977 16.8669 2.90117 16.8711 2.92107 16.8893C2.94087 16.9069 2.95367 16.9284 2.95987 16.9536L2.97297 17.0092L3.02167 16.9984L2.88367 16.415L2.83487 16.4261L2.84817 16.4817C2.85817 16.5242 2.85307 16.5542 2.83207 16.5724C2.81137 16.5902 2.78807 16.6021 2.76287 16.6078L1.83167 16.8176C1.78887 16.8272 1.75797 16.8227 1.73787 16.8054C1.71777 16.7872 1.70447 16.7657 1.69847 16.7407L1.68517 16.6846L1.63637 16.6957L1.77187 17.268L1.82067 17.2572L1.81017 17.2124C1.79427 17.1447 1.82267 17.1027 1.89517 17.0863L2.28387 16.9987L2.33857 17.0282L1.96607 17.3848C1.93547 17.4123 1.91447 17.4273 1.90397 17.4296C1.87707 17.4355 1.85867 17.4179 1.84897 17.3768L1.84017 17.3389L1.79147 17.3496L1.91357 17.8664L1.96237 17.8553C1.95727 17.8295 1.95927 17.8071 1.96887 17.7881C1.97857 17.7692 1.99667 17.7468 2.02277 17.721L2.59107 17.1597L2.88957 17.3133C2.95367 17.3459 3.00157 17.3802 3.03327 17.4165C3.06507 17.4525 3.08917 17.5044 3.10617 17.5719L3.15487 17.5608L3.04807 17.1101L2.99927 17.1212L3.01377 17.1815C3.02307 17.2221 3.01147 17.2459 2.97827 17.2535C2.96107 17.2572 2.93607 17.2513 2.90317 17.2357L2.38447 16.9763ZM1.96497 17.9392L2.01257 17.9242L2.01597 17.9338C2.02357 17.9571 2.03377 17.9747 2.04627 17.9874C2.05847 18.0005 2.07747 18.0098 2.10217 18.0161C2.12707 18.0226 2.16137 18.0265 2.20527 18.0294L3.38987 18.0946L3.40267 18.1326L2.43747 18.9387C2.41677 18.9574 2.40177 18.9759 2.39207 18.9934C2.38277 19.0113 2.38217 19.0334 2.39097 19.0598L2.39267 19.0646L2.34507 19.0796L2.16557 18.5405L2.21297 18.5257L2.22967 18.5753C2.24387 18.6181 2.25917 18.6451 2.27557 18.6564C2.29177 18.6677 2.31047 18.6697 2.33147 18.6632C2.33967 18.6607 2.35267 18.6521 2.37167 18.638L2.55847 18.4852L2.43657 18.1187L2.23107 18.1076C2.19877 18.1062 2.17327 18.1085 2.15567 18.1138C2.12597 18.1235 2.11067 18.1419 2.10977 18.1694C2.10897 18.1972 2.11517 18.2318 2.12877 18.2729L2.13077 18.2788L2.08337 18.2941L1.96497 17.9392ZM2.96807 18.1464L2.52537 18.1243L2.62877 18.4344L2.96807 18.1464ZM4.36017 20.1508L3.97097 20.3441L3.94777 20.2991C3.99737 20.2634 4.03817 20.2197 4.07047 20.1684C4.10257 20.1165 4.12097 20.0618 4.12547 20.0037C4.13057 19.9459 4.11927 19.89 4.09117 19.8367C4.06967 19.7951 4.04047 19.7588 4.00387 19.7279C3.96787 19.6967 3.92197 19.6746 3.86667 19.6613C3.81087 19.648 3.74397 19.6482 3.66627 19.6621C3.58857 19.6757 3.50077 19.7066 3.40407 19.7548C3.23317 19.8399 3.12347 19.9348 3.07527 20.0403C3.02677 20.1457 3.02957 20.2503 3.08377 20.3541C3.11017 20.404 3.14387 20.4442 3.18607 20.4745C3.22777 20.5054 3.27507 20.5273 3.32787 20.5409C3.38057 20.5542 3.43947 20.5633 3.50447 20.5661L3.50217 20.6276C3.40007 20.6285 3.31307 20.6151 3.24027 20.5882C3.16827 20.561 3.11067 20.5261 3.06707 20.4839C3.02397 20.4408 2.98827 20.3932 2.96047 20.3402C2.91907 20.2614 2.89497 20.1803 2.88757 20.0967C2.88047 20.0133 2.88987 19.9328 2.91647 19.8543C2.94287 19.7761 2.98567 19.7044 3.04407 19.6397C3.10277 19.5754 3.17477 19.5218 3.26007 19.4796C3.37887 19.4203 3.49617 19.3931 3.61247 19.3977C3.72867 19.4028 3.83297 19.4351 3.92567 19.4957C4.01887 19.5558 4.09207 19.6372 4.14557 19.7398C4.17117 19.7886 4.18787 19.8311 4.19527 19.8668C4.20257 19.9031 4.20797 19.9428 4.21077 19.987C4.21477 20.0363 4.21987 20.0678 4.22697 20.0808C4.24457 20.1143 4.28107 20.1225 4.33697 20.1058L4.36017 20.1508ZM3.31787 20.8864L3.36017 20.8606L3.36577 20.8694C3.37917 20.8901 3.39357 20.9051 3.40857 20.9142C3.42387 20.9241 3.44457 20.9284 3.47017 20.9289C3.49587 20.9289 3.52997 20.925 3.57307 20.9173L4.73867 20.701L4.76047 20.735L4.02397 21.745C4.00867 21.768 3.99847 21.7892 3.99397 21.8085C3.98917 21.8284 3.99397 21.8499 4.00927 21.8732L4.01187 21.8777L3.96957 21.9035L3.66177 21.423L3.70397 21.3972L3.73207 21.4412C3.75697 21.4797 3.77827 21.5021 3.79727 21.5092C3.81567 21.5163 3.83437 21.514 3.85277 21.5027C3.86017 21.4981 3.87097 21.4868 3.88597 21.4687L4.02937 21.2762L3.81987 20.9496L3.61777 20.987C3.58577 20.9933 3.56197 21.0015 3.54637 21.0111C3.51977 21.0273 3.50957 21.0488 3.51547 21.0758C3.52147 21.103 3.53617 21.135 3.55937 21.1716L3.56277 21.177L3.52057 21.203L3.31787 20.8864ZM4.34237 20.851L3.90727 20.934L4.08437 21.2104L4.34237 20.851ZM5.08557 21.213L5.04557 21.2424C5.08277 21.2983 5.08187 21.3675 5.04417 21.4502L4.80667 21.978L4.38487 22.0058C4.32197 22.0098 4.26637 22.0061 4.21847 21.9945C4.17027 21.982 4.12917 21.9585 4.09407 21.9228L4.05407 21.9522L4.31967 22.2958L4.35967 22.2663L4.33497 22.2343C4.29307 22.1804 4.29107 22.1399 4.32877 22.1121C4.34177 22.1025 4.36417 22.0962 4.39587 22.0926L4.77607 22.0597L4.61817 22.3967C4.60677 22.4231 4.59407 22.4421 4.57927 22.4528C4.54697 22.4764 4.51497 22.4676 4.48327 22.4265L4.46767 22.4061L4.42737 22.4355L4.77317 22.8829L4.81347 22.8534C4.78147 22.7913 4.78227 22.7218 4.81627 22.6453L5.06967 22.0753L5.44387 22.0515C5.51247 22.0464 5.57007 22.0492 5.61597 22.0605C5.66187 22.0716 5.70157 22.096 5.73477 22.1339L5.77467 22.1047L5.51957 21.7748L5.47957 21.804L5.50427 21.836C5.54367 21.887 5.54647 21.925 5.51277 21.9497C5.50367 21.9565 5.49547 21.9613 5.48837 21.9639C5.48107 21.9664 5.47417 21.9681 5.46687 21.9687C5.45947 21.9695 5.45097 21.9704 5.44077 21.9712L5.09947 21.999L5.24407 21.6886C5.25457 21.6648 5.26677 21.6484 5.27887 21.6393C5.29677 21.626 5.31377 21.6234 5.32967 21.6302C5.34557 21.6376 5.36227 21.6521 5.37987 21.6747L5.39007 21.6881L5.43027 21.6589L5.08557 21.213ZM4.88037 22.9259L4.91697 22.8928L4.92427 22.9004C4.94127 22.918 4.95827 22.9302 4.97507 22.9364C4.99177 22.9432 5.01307 22.9438 5.03827 22.9393C5.06347 22.9347 5.09637 22.9242 5.13717 22.9087L6.23897 22.4795L6.26707 22.509L5.74177 23.6372C5.73127 23.6627 5.72567 23.6856 5.72447 23.7058C5.72397 23.7256 5.73277 23.746 5.75227 23.7658L5.75567 23.7698L5.71917 23.803L5.32287 23.3886L5.35937 23.3554L5.39567 23.3934C5.42747 23.4265 5.45297 23.4447 5.47277 23.4481C5.49237 23.4518 5.51017 23.4458 5.52637 23.4314C5.53257 23.4254 5.54087 23.4124 5.55187 23.3917L5.65507 23.1762L5.38547 22.8945L5.19477 22.969C5.16467 22.9812 5.14287 22.9937 5.12927 23.0059C5.10627 23.0269 5.10037 23.0498 5.11137 23.075C5.12277 23.1006 5.14337 23.1292 5.17347 23.1609L5.17797 23.1655L5.14147 23.1989L4.88037 22.9259ZM5.87927 22.7006L5.69647 23.1014L5.46857 22.863L5.87927 22.7006ZM7.58207 23.6094L7.58487 23.6593C7.50047 23.6661 7.41907 23.6851 7.34137 23.716C7.26287 23.7469 7.18517 23.7931 7.10787 23.8543C7.03047 23.9155 6.95247 23.9932 6.87307 24.0887C6.81697 24.1565 6.76877 24.2228 6.72887 24.2871C6.68917 24.3523 6.65737 24.4153 6.63417 24.4773C6.61087 24.5394 6.59587 24.6018 6.58827 24.6647C6.58057 24.7276 6.58117 24.7923 6.58937 24.858L6.53867 24.8657C6.50037 24.756 6.47877 24.6446 6.47487 24.5315C6.47057 24.4178 6.48477 24.3092 6.51677 24.2047C6.54907 24.1003 6.59897 24.0071 6.66677 23.9254C6.72057 23.8608 6.78327 23.8055 6.85557 23.7602C6.92727 23.714 7.00347 23.6785 7.08457 23.6536C7.16537 23.6287 7.24787 23.6122 7.33237 23.6054C7.41627 23.598 7.49957 23.5992 7.58207 23.6094ZM7.71757 25.0477C7.69377 25.0837 7.66877 25.1015 7.64157 25.1027C7.61407 25.1038 7.58947 25.097 7.56707 25.0828L7.51767 25.0516L7.49047 25.0925L8.00557 25.4187L8.03307 25.3779L7.98377 25.3467C7.92387 25.3087 7.91427 25.2591 7.95507 25.1982L8.47557 24.4167C8.49967 24.3804 8.52517 24.362 8.55237 24.3614C8.57927 24.3611 8.60397 24.3676 8.62637 24.3818L8.67537 24.4127L8.70257 24.3722L8.13987 24.0156C8.06847 23.9705 7.99927 23.9433 7.93247 23.9348C7.86527 23.9263 7.80427 23.9351 7.74927 23.9612C7.69407 23.9875 7.64807 24.0283 7.61127 24.0839C7.57187 24.1426 7.55087 24.2007 7.54837 24.2577C7.54607 24.3146 7.55827 24.3662 7.58577 24.4127C7.61327 24.4589 7.65037 24.4969 7.69657 24.5269L7.68897 24.538C7.65207 24.5233 7.61867 24.519 7.58747 24.5258C7.55687 24.5323 7.52257 24.544 7.48427 24.5612L7.13107 24.7206C7.07667 24.7441 7.02447 24.7432 6.97457 24.7183L6.95247 24.7517L7.26627 24.9504L7.75867 24.7024C7.78727 24.688 7.81107 24.6795 7.82897 24.6761C7.84737 24.6724 7.86467 24.6729 7.88027 24.6786C7.89617 24.6837 7.91687 24.6948 7.94237 24.7106L7.71757 25.0477ZM7.98737 24.6429L7.93387 24.6086C7.89217 24.5825 7.85897 24.5553 7.83347 24.5267C7.80797 24.4986 7.79527 24.4601 7.79527 24.4113C7.79527 24.3623 7.81817 24.3036 7.86467 24.2341C7.95737 24.0947 8.07447 24.07 8.21647 24.1599L8.28167 24.2012L7.98737 24.6429ZM8.94977 25.1585L9.49117 24.947C9.52467 24.9332 9.54537 24.9187 9.55387 24.9034C9.56997 24.8742 9.55927 24.8495 9.52157 24.83L9.46567 24.8011L9.48897 24.758L9.90757 24.9751L9.88437 25.0179C9.82087 24.9862 9.76507 24.97 9.71657 24.97C9.66727 24.9694 9.60937 24.9822 9.54197 25.008L9.22727 25.127L9.28877 25.9134C9.29167 25.9494 9.29727 25.9774 9.30557 25.997C9.31407 26.0166 9.32987 26.033 9.35317 26.046L9.32987 26.0891L8.84997 25.84L8.87327 25.7969L8.90867 25.8153C8.94697 25.8351 8.97277 25.8332 8.98547 25.8096C8.99057 25.8003 8.99287 25.7753 8.99147 25.7345L8.95967 25.2265L8.90127 25.2475L8.71417 25.5908C8.67907 25.6549 8.69297 25.7036 8.75587 25.7362L8.79727 25.7578L8.77407 25.8008L8.24227 25.525L8.26547 25.4819L8.31767 25.5089C8.34087 25.5211 8.36617 25.5256 8.39337 25.5225C8.42027 25.5188 8.44377 25.4987 8.46447 25.4612L8.91317 24.6384C8.92507 24.616 8.93137 24.591 8.93077 24.5638C8.93047 24.5369 8.91067 24.5133 8.87127 24.4929L8.81967 24.466L8.84287 24.4232L9.38517 24.7041L9.36167 24.7472L9.30977 24.7203C9.28657 24.7084 9.26127 24.7038 9.23437 24.7067C9.20777 24.7092 9.18367 24.7296 9.16297 24.7679L8.94977 25.1585ZM10.0253 24.9952L10.0066 25.0403C10.0613 25.0618 10.0927 25.1038 10.1015 25.1662L10.2348 26.1787C10.1636 26.2547 10.101 26.2822 10.0477 26.2609C10.0156 26.2484 10.0083 26.2212 10.0256 26.1801C10.0414 26.1416 10.0423 26.1098 10.0284 26.0843C10.0145 26.0588 9.99347 26.0404 9.96517 26.0296C9.93287 26.0166 9.90107 26.0151 9.86937 26.0259C9.83817 26.0364 9.81487 26.0605 9.79957 26.0979C9.78147 26.1421 9.78317 26.1858 9.80637 26.2294C9.82907 26.2734 9.87387 26.3082 9.94077 26.3349C9.99637 26.3567 10.0471 26.3638 10.093 26.3556C10.1389 26.3476 10.1766 26.3329 10.2067 26.3125C10.2367 26.2918 10.2708 26.264 10.3087 26.2294L11.0426 25.5664C11.0772 25.5352 11.1053 25.5154 11.1265 25.5069C11.1478 25.4984 11.175 25.5007 11.2079 25.5137L11.2269 25.5211L11.2456 25.476L10.8589 25.3235L10.8399 25.3688L10.9295 25.404C10.98 25.4238 10.9978 25.4508 10.9837 25.4851C10.9769 25.5012 10.9641 25.5188 10.9454 25.5367L10.4995 25.9488L10.4119 25.2923C10.4065 25.2662 10.4062 25.2475 10.4111 25.2356C10.4153 25.226 10.4221 25.2197 10.4318 25.2172C10.4414 25.2146 10.4505 25.2152 10.4593 25.2186L10.5616 25.2591L10.5803 25.2138L10.0253 24.9952ZM11.9151 25.7084L11.6124 26.6739C11.5906 26.7434 11.6135 26.7884 11.6818 26.8088L11.7496 26.829L11.7348 26.8755L11.1248 26.6938L11.1396 26.647L11.2073 26.6674C11.2323 26.6748 11.2581 26.6745 11.2839 26.6665C11.3096 26.658 11.3289 26.6339 11.3417 26.5931L11.6444 25.6276L11.5951 25.6129C11.5407 25.5967 11.4933 25.5882 11.4534 25.588C11.414 25.5877 11.3743 25.6021 11.3349 25.6322C11.2955 25.6622 11.2589 25.7138 11.2252 25.7878L11.177 25.7733L11.2827 25.4357L12.3256 25.7464L12.2196 26.0843L12.1719 26.0701C12.183 26.0075 12.1856 25.9553 12.1779 25.9137C12.1708 25.872 12.1566 25.8385 12.1357 25.8144C12.1153 25.7901 12.0912 25.7719 12.0648 25.7597C12.0379 25.7473 12.0047 25.7351 11.9645 25.7232L11.9151 25.7084ZM12.6669 26.7161L12.7777 25.9465C12.7839 25.9037 12.799 25.8768 12.8233 25.8652C12.8477 25.8536 12.873 25.8493 12.8993 25.853L12.9571 25.8609L12.9642 25.8125L12.3562 25.7291L12.3494 25.7776L12.4072 25.7855C12.4514 25.7915 12.4784 25.8068 12.4883 25.8323C12.4979 25.8578 12.5013 25.8833 12.4976 25.9083L12.3647 26.8309C12.3585 26.8732 12.3432 26.9001 12.3193 26.9123C12.2947 26.9242 12.2695 26.9285 12.2431 26.9251L12.185 26.9168L12.1782 26.9653L12.7859 27.0484L12.793 27.0002L12.7349 26.9922C12.7094 26.9886 12.6867 26.9772 12.6663 26.9585C12.6462 26.9395 12.6388 26.91 12.6448 26.8695L13.2349 26.1586L13.123 26.935C13.117 26.9772 13.1017 27.0039 13.0776 27.0161C13.0532 27.0282 13.028 27.0322 13.0016 27.0288L12.9433 27.0209L12.9365 27.0691L13.5448 27.1524L13.5516 27.1042L13.4935 27.0963C13.4229 27.0866 13.3925 27.0455 13.403 26.9735L13.536 26.0506C13.5422 26.0078 13.5575 25.9806 13.5819 25.9692C13.6063 25.9576 13.6312 25.9533 13.6579 25.957L13.716 25.9647L13.7228 25.9165L13.1128 25.8332L13.106 25.8811L13.1641 25.8893C13.1913 25.893 13.2148 25.9043 13.2341 25.9233C13.2534 25.9423 13.2605 25.9701 13.2551 26.0069L12.6669 26.7161ZM14.5479 27.0268L14.5624 26.6252C14.5324 26.624 14.5085 26.6252 14.4927 26.6286C14.4759 26.6317 14.4609 26.6396 14.4473 26.6518C14.4334 26.664 14.4176 26.6835 14.4005 26.7102L14.1097 27.17L13.7355 27.1572L13.7372 27.1172C13.7931 27.1138 13.8382 27.0883 13.8725 27.0407L14.091 26.7266C14.1148 26.6929 14.1378 26.6657 14.1607 26.6447C14.1837 26.6235 14.2149 26.6101 14.2543 26.6042L14.2548 26.5909C14.1993 26.5883 14.1474 26.5744 14.0995 26.5486C14.051 26.5225 14.0136 26.4846 13.9856 26.4344C13.9578 26.3845 13.945 26.3241 13.9476 26.2541C13.9498 26.1878 13.968 26.1297 14.0011 26.0795C14.0346 26.0293 14.0822 25.9913 14.144 25.9647C14.2058 25.9386 14.2798 25.927 14.3648 25.9298L15.0355 25.9528L15.0338 26.0015L14.9751 25.9995C14.9488 25.9984 14.9238 26.0052 14.9009 26.0194C14.8779 26.0333 14.8657 26.0619 14.8643 26.105L14.8308 27.0365C14.8283 27.109 14.8626 27.147 14.934 27.1493L14.9924 27.1513L14.9907 27.2L14.3767 27.179L14.3787 27.1306L14.4371 27.1323C14.464 27.1331 14.4887 27.1266 14.5117 27.1121C14.5343 27.0977 14.5465 27.0696 14.5479 27.0268ZM14.5652 26.5441L14.5842 26.018L14.5068 26.0151C14.3376 26.0095 14.25 26.0894 14.2441 26.2555C14.2412 26.3383 14.2523 26.4004 14.2781 26.442C14.3042 26.484 14.3353 26.5106 14.3722 26.522C14.4088 26.5336 14.4519 26.5401 14.5012 26.5418L14.5652 26.5441ZM15.3122 27.5416L15.2745 27.5076C15.3108 27.4679 15.3428 27.4245 15.3711 27.3766C15.3998 27.329 15.4236 27.2737 15.4431 27.2111C15.4627 27.1481 15.4763 27.0756 15.4834 26.9928C15.4908 26.9095 15.4899 26.8168 15.4808 26.7147C15.4692 26.5872 15.4482 26.4761 15.4171 26.3819C15.3862 26.2878 15.3473 26.2079 15.3008 26.1421C15.2541 26.0767 15.1993 26.0194 15.1367 25.9706L15.1676 25.9309C15.247 25.9715 15.3204 26.0191 15.3884 26.0735C15.4562 26.128 15.5154 26.1875 15.5662 26.253C15.6172 26.3182 15.6577 26.3879 15.6889 26.4616C15.7192 26.5353 15.7382 26.6124 15.7456 26.6921C15.753 26.7774 15.7476 26.8604 15.7286 26.9415C15.7093 27.022 15.6798 27.0988 15.6393 27.172C15.5988 27.2445 15.5506 27.312 15.4959 27.3735C15.4406 27.435 15.3793 27.4911 15.3122 27.5416ZM18.646 25.3087L18.7665 25.7178L18.7169 25.7317C18.6905 25.6772 18.6542 25.6299 18.6083 25.5894C18.5624 25.5488 18.5108 25.5208 18.4535 25.5052C18.396 25.4893 18.3379 25.4896 18.2789 25.506C18.2327 25.5191 18.1908 25.5398 18.1525 25.569C18.1145 25.5976 18.0833 25.6373 18.0592 25.6877C18.0354 25.7388 18.0227 25.8025 18.0218 25.8794C18.021 25.9567 18.0354 26.0463 18.0652 26.1484C18.1182 26.3281 18.1927 26.4514 18.2897 26.5177C18.3866 26.5841 18.4926 26.6013 18.6072 26.569C18.6627 26.5537 18.7098 26.5288 18.748 26.4945C18.7869 26.4605 18.8181 26.4194 18.8419 26.3715C18.8654 26.3233 18.8855 26.2688 18.9011 26.207L18.9626 26.2209C18.9439 26.319 18.9139 26.3998 18.8728 26.4641C18.8317 26.5279 18.7857 26.5764 18.7344 26.6101C18.6831 26.6433 18.6284 26.6682 18.5697 26.6847C18.4824 26.7091 18.3963 26.7167 18.3109 26.7082C18.2256 26.6989 18.1462 26.6745 18.0723 26.6342C17.9986 26.5937 17.9348 26.5393 17.8809 26.4709C17.8268 26.4026 17.7868 26.3233 17.7605 26.2334C17.7236 26.1087 17.7188 25.991 17.7454 25.8811C17.7729 25.7705 17.8254 25.677 17.9039 25.5993C17.9824 25.5219 18.0782 25.4672 18.1916 25.4357C18.2455 25.4207 18.2914 25.4128 18.3288 25.4125C18.3668 25.4119 18.4079 25.4145 18.453 25.4201C18.5031 25.4261 18.536 25.4269 18.5505 25.4227C18.5873 25.4128 18.6026 25.379 18.5964 25.3226L18.646 25.3087ZM19.1953 26.4806L19.1766 26.4352L19.1863 26.4315C19.2095 26.4225 19.2271 26.4111 19.2393 26.3981C19.2515 26.3853 19.2597 26.3664 19.2645 26.342C19.2693 26.317 19.271 26.2836 19.2708 26.2408L19.2549 25.084L19.2929 25.0689L20.1849 25.9514C20.2056 25.9704 20.2252 25.9834 20.2439 25.9916C20.2629 25.9995 20.2856 25.9984 20.3119 25.9882L20.3167 25.9862L20.3354 26.0313L19.7966 26.2436L19.7779 26.1985L19.8275 26.179C19.8706 26.162 19.8969 26.1452 19.9074 26.1285C19.9179 26.1121 19.9188 26.0937 19.9102 26.0735C19.9071 26.0659 19.8978 26.0537 19.8816 26.0364L19.7124 25.8652L19.3462 26.0095L19.349 26.2099C19.3498 26.2419 19.3538 26.266 19.3609 26.283C19.3725 26.3114 19.3926 26.3247 19.4207 26.3238C19.4491 26.323 19.4842 26.3142 19.525 26.298L19.5313 26.2958L19.55 26.3408L19.1953 26.4806ZM19.3374 25.4904L19.3456 25.9227L19.6557 25.8006L19.3374 25.4904ZM19.828 24.8818L19.8516 24.9249C19.9139 24.8977 19.9839 24.9093 20.0616 24.9589L20.5594 25.2702L20.5211 25.6807C20.5157 25.7422 20.5033 25.7949 20.4837 25.8391C20.4639 25.8836 20.4335 25.9199 20.3919 25.948L20.4151 25.9908L20.8049 25.7889L20.7813 25.7458L20.7451 25.7646C20.6841 25.7963 20.6424 25.7918 20.6203 25.7512C20.6127 25.7373 20.6098 25.7149 20.6113 25.6838L20.6373 25.3121L20.954 25.5174C20.9789 25.5324 20.9959 25.5477 21.0044 25.5636C21.0234 25.5982 21.0095 25.6276 20.963 25.6517L20.9398 25.6639L20.9633 25.7067L21.4707 25.4437L21.4469 25.4006C21.3794 25.4218 21.3089 25.4102 21.2366 25.3652L20.6991 25.0321L20.7334 24.6678C20.7388 24.6009 20.7507 24.5462 20.7691 24.5034C20.7879 24.4609 20.819 24.4266 20.8627 24.4008L20.8392 24.3577L20.4647 24.5516L20.4882 24.5947L20.5248 24.576C20.5826 24.5459 20.6215 24.5493 20.641 24.5856C20.6464 24.5955 20.6501 24.6043 20.6515 24.6114C20.6529 24.6188 20.6538 24.6259 20.6532 24.6332C20.6529 24.6398 20.6524 24.6483 20.6515 24.6582L20.6263 24.9915L20.3346 24.8036C20.3122 24.7897 20.2975 24.7755 20.2901 24.7622C20.2796 24.7429 20.2793 24.7265 20.2887 24.7121C20.2989 24.6979 20.3162 24.684 20.342 24.6707L20.357 24.6627L20.3337 24.6199L19.828 24.8818ZM21.56 25.4102L21.5328 25.3691L21.5416 25.3637C21.5626 25.3504 21.5776 25.336 21.5869 25.3212C21.5966 25.3062 21.6008 25.2858 21.6008 25.2608C21.6008 25.2359 21.5957 25.2024 21.5869 25.1608L21.3451 24.0278L21.3794 24.0062L22.4277 24.7067C22.4515 24.7211 22.4736 24.7305 22.4937 24.735C22.5139 24.7393 22.5357 24.7339 22.5595 24.7191L22.564 24.7163L22.5913 24.7571L22.104 25.0658L22.0768 25.0247L22.1216 24.9964C22.1604 24.9717 22.1831 24.9502 22.1902 24.932C22.1972 24.9139 22.1944 24.8957 22.1825 24.8776C22.1777 24.8705 22.1661 24.8603 22.1471 24.8461L21.9472 24.7098L21.6159 24.9198L21.6578 25.116C21.6649 25.1469 21.6737 25.1698 21.6839 25.1854C21.7009 25.2109 21.7233 25.2203 21.7505 25.2144C21.7783 25.2078 21.8112 25.1931 21.848 25.1696L21.8537 25.1659L21.8809 25.207L21.56 25.4102ZM21.5056 24.4119L21.5983 24.8345L21.8789 24.6571L21.5056 24.4119ZM22.782 23.8268C22.7177 23.7571 22.6698 23.6834 22.6383 23.604C22.6063 23.5249 22.5915 23.4452 22.5935 23.3647C22.5958 23.2842 22.6153 23.2063 22.6528 23.1309C22.6899 23.0555 22.7443 22.986 22.8158 22.9231C22.8855 22.8619 22.9603 22.8171 23.0411 22.789C23.1219 22.761 23.2035 22.7496 23.286 22.755C23.3688 22.7604 23.4493 22.7825 23.5267 22.8213C23.6046 22.8599 23.6761 22.9143 23.741 22.9846C23.809 23.0583 23.8586 23.1363 23.8898 23.2179C23.921 23.2998 23.934 23.3815 23.9292 23.4625C23.9241 23.5439 23.9026 23.6207 23.8646 23.6941C23.8266 23.7678 23.775 23.8333 23.7095 23.8909C23.6392 23.9527 23.5635 23.9977 23.4836 24.0261C23.4031 24.0541 23.3215 24.0649 23.2376 24.0589C23.1539 24.0527 23.0731 24.0303 22.9955 23.9909C22.9181 23.9518 22.8469 23.8971 22.782 23.8268ZM22.964 23.5669L23.4519 23.1388C23.3923 23.0807 23.33 23.0308 23.2659 22.9889C23.2016 22.9475 23.1341 22.9228 23.0646 22.916C22.9943 22.9092 22.93 22.9316 22.8713 22.9832C22.8129 23.0342 22.7826 23.0932 22.7792 23.1601C22.7764 23.2267 22.7919 23.2947 22.8274 23.3639C22.8625 23.4331 22.9082 23.5002 22.964 23.5669ZM23.5074 23.1989L23.0199 23.6272C23.0731 23.6851 23.1267 23.7352 23.18 23.7769C23.2333 23.8189 23.2877 23.8509 23.3436 23.8733C23.3988 23.8954 23.453 23.9036 23.5051 23.8974C23.5573 23.8914 23.6061 23.8685 23.6517 23.8285C23.7416 23.7494 23.7659 23.6536 23.7251 23.5396C23.6843 23.426 23.6117 23.3123 23.5074 23.1989ZM24.2943 23.3208L24.7297 22.8656L24.6931 22.8321L24.6367 22.8914C24.588 22.9421 24.5364 22.9427 24.4817 22.8931L24.1625 22.6031C24.2073 22.5642 24.243 22.5314 24.2688 22.5039C24.3507 22.4183 24.4032 22.3383 24.4267 22.2629C24.4505 22.1881 24.4528 22.1215 24.4335 22.0645C24.4142 22.0075 24.3828 21.9588 24.3382 21.9185C24.2699 21.8561 24.1993 21.8281 24.1265 21.834C24.0534 21.84 23.9896 21.8612 23.9349 21.8975C23.8807 21.9335 23.8365 21.9695 23.8019 22.0058L23.3583 22.4696L23.3949 22.5027L23.4351 22.4611C23.4652 22.429 23.4944 22.4166 23.521 22.4236C23.5482 22.4302 23.5709 22.4421 23.5899 22.4594L24.2886 23.0949C24.3207 23.1238 24.3343 23.1516 24.3309 23.1777C24.3272 23.204 24.3161 23.2267 24.2977 23.2457L24.258 23.2874L24.2943 23.3208ZM23.7245 22.2045L23.7858 22.1405C23.8175 22.1073 23.8484 22.0818 23.8779 22.0642C23.9079 22.0466 23.9448 22.041 23.9879 22.0483C24.0315 22.0554 24.08 22.0835 24.1339 22.1322C24.2098 22.2017 24.2475 22.266 24.2473 22.3253C24.2467 22.3845 24.224 22.4378 24.1795 22.4843C24.1622 22.5027 24.1364 22.5237 24.1021 22.5478L23.7245 22.2045Z" fill="#FEFEFE"/>
<path fill-rule="evenodd" clip-rule="evenodd" d="M24.6793 22.0196C24.6007 21.9658 24.5367 21.9043 24.4876 21.8342C24.4383 21.7642 24.4054 21.6897 24.3887 21.6109C24.3725 21.5321 24.3737 21.4518 24.3927 21.3699C24.4114 21.2883 24.4485 21.2086 24.5038 21.1318C24.5576 21.0567 24.6203 20.9969 24.6923 20.9515C24.7643 20.9067 24.8414 20.8778 24.9233 20.8648C25.005 20.852 25.0883 20.8557 25.1731 20.8767C25.2578 20.8971 25.3397 20.9345 25.4194 20.9887C25.5027 21.0456 25.5691 21.1108 25.6184 21.1834C25.6674 21.2563 25.6989 21.3331 25.7128 21.413C25.7269 21.4932 25.7235 21.5732 25.7037 21.6528C25.6836 21.733 25.6481 21.8082 25.5977 21.8787C25.5435 21.9541 25.4803 22.0148 25.4086 22.0599C25.3369 22.1049 25.2595 22.1336 25.1765 22.146C25.0937 22.1582 25.0098 22.154 24.9253 22.133C24.8405 22.1117 24.7589 22.0738 24.6793 22.0196ZM24.7969 21.7265L25.1733 21.2027C25.1019 21.1587 25.0296 21.1239 24.9573 21.0972C24.8851 21.0709 24.8139 21.0618 24.7445 21.0703C24.6744 21.0791 24.6172 21.1151 24.5715 21.178C24.5265 21.2407 24.5106 21.305 24.5228 21.3708C24.5353 21.4363 24.5662 21.4992 24.6166 21.5587C24.6668 21.6182 24.7269 21.6741 24.7969 21.7265ZM25.2411 21.2489L24.8646 21.773C24.9301 21.8178 24.9939 21.8549 25.0557 21.8838C25.1169 21.9128 25.1773 21.932 25.2371 21.9417C25.2961 21.951 25.3508 21.9473 25.4001 21.9298C25.4497 21.9125 25.4917 21.8793 25.5271 21.8303C25.5963 21.7339 25.598 21.635 25.5319 21.5332C25.4662 21.4314 25.3692 21.3362 25.2411 21.2489ZM25.4673 19.6311L25.4423 19.6754C25.4877 19.7111 25.5013 19.7454 25.4826 19.778C25.4752 19.791 25.4514 19.8129 25.4117 19.8435C25.3754 19.8704 25.3448 19.897 25.3182 19.9234C25.2921 19.9498 25.2652 19.9869 25.2382 20.0345C25.1807 20.1351 25.1526 20.2397 25.1535 20.3489C25.1541 20.4577 25.1847 20.5601 25.2456 20.657C25.3066 20.7534 25.3953 20.833 25.5118 20.896C25.5957 20.9413 25.6813 20.9697 25.7689 20.981C25.8568 20.9921 25.9415 20.9867 26.0229 20.9643C26.1042 20.9419 26.1782 20.9045 26.2451 20.852C26.3117 20.7993 26.3673 20.7344 26.4112 20.657C26.4407 20.6049 26.4614 20.5493 26.4736 20.4906C26.4852 20.4317 26.4829 20.3656 26.4656 20.2919C26.4478 20.2182 26.4107 20.1405 26.3525 20.058L26.299 20.0909C26.333 20.1454 26.3582 20.1975 26.3764 20.248C26.3942 20.2981 26.4022 20.3486 26.3993 20.3996C26.3971 20.4504 26.382 20.5005 26.354 20.5493C26.2961 20.6513 26.2088 20.7123 26.092 20.7318C25.9755 20.752 25.8332 20.7163 25.6654 20.6255C25.5705 20.5742 25.4953 20.5207 25.4398 20.4654C25.3848 20.4104 25.3471 20.3565 25.3273 20.3041C25.308 20.2519 25.3009 20.2023 25.3071 20.1556C25.3131 20.1088 25.3275 20.0651 25.3508 20.0243C25.3805 19.9719 25.4216 19.9316 25.4735 19.9033C25.5257 19.8746 25.5824 19.8588 25.6445 19.8557C25.7062 19.8531 25.7661 19.8613 25.8242 19.882L25.8494 19.8378L25.4673 19.6311ZM26.7596 19.9943L26.714 19.9744L26.7378 19.922C26.7485 19.8985 26.7517 19.8735 26.7463 19.8471C26.7409 19.8214 26.7188 19.7998 26.6788 19.7822L25.8057 19.4032C25.7819 19.393 25.7567 19.3891 25.7286 19.3913C25.7011 19.3933 25.6782 19.4146 25.66 19.4543L25.6362 19.5061L25.5906 19.4866L26.1578 18.2433L26.2034 18.2631L26.1796 18.3156C26.1689 18.3391 26.166 18.3641 26.1708 18.3901C26.1757 18.4159 26.1983 18.438 26.2386 18.4553L27.1117 18.8346C27.1797 18.8641 27.2285 18.8471 27.2574 18.7836L27.2815 18.7311L27.3271 18.751L27.0774 19.2981L27.0317 19.2782L27.0555 19.2261C27.0663 19.2023 27.0691 19.1773 27.0643 19.151C27.0589 19.1252 27.0365 19.1036 26.9966 19.0863L26.0507 18.6756L25.848 19.1198L26.7939 19.5302C26.8622 19.56 26.9107 19.543 26.9399 19.4798L26.9637 19.4273L27.0093 19.4472L26.7596 19.9943ZM26.1524 18.2053L26.1981 18.2201L26.2 18.2133C26.2134 18.1741 26.2375 18.1464 26.272 18.1302C26.3066 18.1143 26.3523 18.1038 26.4087 18.0993L27.0621 18.0126L27.3605 18.1072C27.4303 18.1294 27.4544 18.1733 27.4323 18.2396L27.4113 18.3031L27.4606 18.3187L27.6576 17.7271L27.6083 17.7115L27.5859 17.7787C27.5641 17.845 27.5179 17.8669 27.4479 17.8448L27.087 17.7305L26.6848 17.3379C26.6737 17.3274 26.6593 17.3135 26.6414 17.2963C26.6233 17.2787 26.6077 17.2605 26.5946 17.243C26.5816 17.2248 26.5719 17.205 26.5654 17.1831C26.5589 17.1613 26.5589 17.1392 26.5657 17.1163L26.5201 17.1018L26.4084 17.4377L26.4537 17.4522L26.4625 17.4264C26.4844 17.3603 26.5161 17.334 26.5581 17.3473C26.5702 17.351 26.5915 17.3637 26.6216 17.385L27.0054 17.7467L26.4807 17.8073C26.435 17.8139 26.4056 17.8147 26.3928 17.8107C26.3755 17.8054 26.3645 17.7951 26.3596 17.7804C26.3545 17.7654 26.3576 17.7404 26.3696 17.7047L26.3718 17.6982L26.3262 17.6837L26.1524 18.2053ZM26.5093 17.0873L26.6261 16.5507L26.6731 16.5604L26.6717 16.5672C26.6638 16.6037 26.6632 16.629 26.67 16.6434C26.6765 16.6576 26.6885 16.6667 26.706 16.6704C26.7191 16.6732 26.7483 16.6692 26.7933 16.6576L27.3084 16.5439L26.8877 16.2233C26.8557 16.2052 26.833 16.195 26.8208 16.1924C26.7777 16.1834 26.7488 16.2131 26.7341 16.2809L26.7284 16.3075L26.6814 16.2976L26.7568 15.9523L26.8035 15.962C26.7993 15.9855 26.8016 16.0076 26.8103 16.0286C26.8191 16.0496 26.831 16.0683 26.8461 16.085C26.8608 16.1014 26.8784 16.1176 26.8979 16.1332C26.9178 16.1488 26.9336 16.161 26.9456 16.1703L27.3878 16.5196L27.7591 16.5967C27.8311 16.6114 27.8745 16.585 27.8892 16.517L27.9042 16.4478L27.955 16.4583L27.8223 17.0666L27.7716 17.0564L27.786 16.9907C27.8008 16.9229 27.7721 16.8815 27.7001 16.8665L27.3931 16.803L26.7528 16.9555C26.697 16.966 26.6527 16.981 26.6201 17.0003C26.5873 17.0199 26.5666 17.0499 26.5575 17.0905L26.5561 17.097L26.5093 17.0873ZM26.8753 14.8933L26.7551 15.85L26.8047 15.8557L26.8118 15.799C26.8171 15.7559 26.833 15.7293 26.8588 15.7193C26.8849 15.7094 26.9101 15.7057 26.9362 15.7089L27.8847 15.8225C27.928 15.8276 27.9558 15.8421 27.9686 15.8653C27.9813 15.8889 27.9862 15.9135 27.983 15.939L27.9757 15.996L28.0253 16.002L28.0944 15.4523C28.1375 15.1099 28.04 14.9242 27.8016 14.8956C27.7475 14.8894 27.6911 14.8956 27.6324 14.9151C27.5731 14.935 27.5193 14.9772 27.4705 15.0424C27.4215 15.1076 27.3897 15.2006 27.3744 15.3208C27.3654 15.3942 27.3608 15.4486 27.3611 15.4835L26.8914 15.4274L26.9127 15.2584C26.9217 15.1859 26.9441 15.1292 26.9799 15.0881C27.015 15.0472 27.0553 15.0197 27.0992 15.0053C27.1437 14.9911 27.1868 14.9843 27.229 14.9846L27.2353 14.9364L26.8753 14.8933ZM27.4481 15.494C27.447 15.4741 27.4481 15.4517 27.4513 15.4265C27.4569 15.3812 27.4705 15.3395 27.4918 15.3007C27.5136 15.2618 27.5465 15.2315 27.5924 15.2097C27.6378 15.1876 27.6962 15.1813 27.7679 15.1901C27.8362 15.1983 27.8886 15.217 27.9263 15.2471C27.9638 15.2771 27.9887 15.3109 28 15.348C28.0114 15.3854 28.0151 15.4209 28.0105 15.4546C28.002 15.5246 27.9564 15.5549 27.8742 15.545L27.4481 15.494ZM26.8724 14.7349L26.8821 14.1864L26.93 14.1872V14.194C26.9291 14.2314 26.9336 14.2564 26.9427 14.2691C26.9521 14.2822 26.9657 14.2887 26.9838 14.289C26.9971 14.2893 27.0252 14.2799 27.0669 14.2603L27.5502 14.0529L27.0748 13.8164C27.0397 13.8048 27.0153 13.7986 27.0028 13.7986C26.9586 13.7977 26.9362 13.832 26.9351 13.9015L26.9345 13.9284L26.8869 13.9276L26.8931 13.5746L26.941 13.5755C26.9413 13.5993 26.9478 13.6206 26.9606 13.6396C26.9733 13.6586 26.9886 13.6744 27.0065 13.6883C27.0241 13.7016 27.0445 13.7144 27.0672 13.726C27.0893 13.7376 27.1074 13.7464 27.121 13.7535L27.6233 14.014L28.0032 14.0205C28.0766 14.0217 28.1137 13.9877 28.1151 13.9182L28.1165 13.8473L28.1681 13.8485L28.1571 14.4704L28.1055 14.4695L28.1063 14.4026C28.1078 14.3329 28.0718 14.2978 27.9981 14.2963L27.6843 14.2912L27.0856 14.5603C27.0329 14.5809 26.9923 14.6036 26.964 14.6289C26.9356 14.6541 26.9209 14.6875 26.92 14.7289V14.7357L26.8724 14.7349ZM28.1061 12.8144L28.0562 12.8189L28.0513 12.7617C28.0488 12.7356 28.0389 12.7126 28.0213 12.6922C28.0046 12.6718 27.974 12.6633 27.93 12.667L26.8988 12.7551L26.926 13.0585L27.5451 13.0057C27.7194 12.9907 27.8538 12.9986 27.9465 13.0293C28.0392 13.0593 28.099 13.0956 28.1256 13.1381C28.1531 13.1806 28.1684 13.2223 28.1721 13.2634C28.1781 13.3311 28.165 13.3839 28.1327 13.4216C28.1001 13.4593 28.0599 13.48 28.0117 13.4842C27.9765 13.4871 27.9462 13.48 27.9201 13.4624C27.8943 13.4451 27.8796 13.4179 27.8759 13.3813C27.8728 13.3433 27.881 13.3141 27.9005 13.2946C27.9198 13.2747 27.9425 13.2637 27.968 13.2617C27.9782 13.2609 27.9856 13.2609 27.9904 13.262C27.9938 13.2626 27.9998 13.2626 28.0077 13.2617C28.0409 13.2591 28.0562 13.2419 28.0533 13.2107C28.0491 13.1639 28.0049 13.1285 27.9195 13.1047C27.8348 13.0811 27.6939 13.0774 27.4975 13.0945L27.0096 13.1361C26.9765 13.1387 26.9509 13.1509 26.9334 13.1716C26.9152 13.1928 26.9079 13.2192 26.9107 13.2509L26.9152 13.3011L26.8653 13.3054L26.7777 12.3268L26.8273 12.3226L26.8325 12.3796C26.8347 12.4051 26.8449 12.4283 26.8616 12.4487C26.8787 12.4694 26.9098 12.4776 26.9535 12.474L27.9056 12.3929C27.9799 12.3864 28.0139 12.3484 28.008 12.2789L28.0029 12.222L28.0525 12.2177L28.1061 12.8144ZM26.7633 12.2659L26.8098 12.2546L26.8081 12.2477C26.7976 12.2078 26.803 12.1718 26.8237 12.1403C26.8444 12.1089 26.8775 12.0765 26.9229 12.0434L27.4297 11.6321L27.7342 11.5584C27.8056 11.5408 27.8501 11.5657 27.8674 11.6335L27.8838 11.6981L27.934 11.6859L27.7798 11.0824L27.7296 11.0946L27.7469 11.1632C27.7642 11.2307 27.7373 11.2729 27.6658 11.2905L27.2976 11.3801L26.7432 11.2551C26.7281 11.2517 26.7083 11.2477 26.6839 11.2423C26.659 11.2366 26.6357 11.2293 26.6153 11.2208C26.5941 11.2123 26.5751 11.2006 26.5578 11.1853C26.5405 11.1706 26.5283 11.1513 26.5218 11.1286L26.4753 11.14L26.5632 11.4824L26.6094 11.4711L26.6026 11.445C26.5853 11.3778 26.598 11.3387 26.6408 11.3282C26.653 11.3254 26.678 11.3251 26.7151 11.3276L27.2372 11.4359L26.8254 11.7585C26.7899 11.788 26.7656 11.8038 26.7525 11.807C26.7349 11.8112 26.7205 11.8081 26.7077 11.7982C26.6955 11.7883 26.6845 11.765 26.6754 11.729L26.6737 11.7222L26.6272 11.7335L26.7633 12.2659ZM26.9217 10.4197L26.3783 10.2142C26.3438 10.202 26.3185 10.1989 26.3015 10.2045C26.2695 10.2153 26.2601 10.2403 26.274 10.2797L26.2947 10.338L26.2474 10.3539L26.0929 9.91683L26.1402 9.90093C26.164 9.96643 26.1938 10.0152 26.2292 10.0478C26.2647 10.0807 26.316 10.1099 26.3834 10.1359L26.6967 10.2581L27.2018 9.64213C27.2251 9.61383 27.2404 9.58973 27.2483 9.56993C27.2557 9.54973 27.2554 9.52733 27.2474 9.50243L27.2948 9.48653L27.4717 9.98773L27.4243 10.0036L27.4113 9.96673C27.3974 9.92673 27.377 9.91093 27.3509 9.91973C27.3407 9.92333 27.3217 9.94013 27.2942 9.97073L26.962 10.3633L27.0195 10.3868L27.3965 10.2604C27.4668 10.2366 27.4907 10.1918 27.4677 10.126L27.4524 10.0826L27.4997 10.0671L27.6956 10.6221L27.6485 10.638L27.6293 10.5841C27.6208 10.5594 27.6052 10.5396 27.5831 10.5237C27.5612 10.5081 27.5301 10.5073 27.4887 10.5212L26.585 10.8245C26.5603 10.8327 26.5385 10.8469 26.5201 10.867C26.5011 10.8871 26.4991 10.9174 26.5136 10.9586L26.5328 11.0127L26.4855 11.0286L26.2859 10.4625L26.333 10.4466L26.352 10.5008C26.3608 10.5251 26.3761 10.5453 26.3973 10.5609C26.4192 10.5767 26.4509 10.5776 26.4929 10.5637L26.9217 10.4197ZM26.0217 9.77483L26.4396 9.58493L26.4186 9.54043C26.3565 9.56143 26.2939 9.56963 26.2301 9.56533C26.166 9.56143 26.1068 9.54093 26.0518 9.50473C25.9968 9.46783 25.9523 9.41373 25.9186 9.34283C25.8741 9.25043 25.8673 9.16683 25.8979 9.09253C25.9285 9.01823 25.9747 8.95733 26.0365 8.91083C26.0983 8.86373 26.1621 8.82553 26.2275 8.79573L26.3171 8.98313C26.3514 9.05483 26.3608 9.11263 26.3457 9.15633C26.3307 9.20023 26.2876 9.24023 26.2173 9.27593L26.2383 9.32013L26.7091 9.10613L26.6879 9.06193C26.606 9.09483 26.5442 9.09993 26.5016 9.07783C26.4588 9.05543 26.4223 9.01263 26.3919 8.94913L26.3024 8.76173C26.3925 8.72093 26.4793 8.69403 26.5632 8.68123C26.6465 8.66843 26.7239 8.67783 26.795 8.70933C26.8659 8.74073 26.9223 8.80033 26.9645 8.88813C27.0022 8.96723 27.017 9.04803 27.0085 9.12993C26.9994 9.21163 26.9648 9.30063 26.9045 9.39553L26.9637 9.43213C27.0255 9.34113 27.0649 9.25633 27.0811 9.17813C27.0981 9.09933 27.1 9.03243 27.0879 8.97713C27.0757 8.92163 27.057 8.86713 27.0309 8.81303C26.9762 8.69853 26.9019 8.60813 26.8078 8.54093C26.714 8.47343 26.6096 8.43513 26.4963 8.42583C26.3826 8.41643 26.2706 8.43693 26.1612 8.48653C26.0736 8.52613 25.9985 8.57773 25.9361 8.64013C25.8735 8.70273 25.8267 8.77283 25.7953 8.85013C25.7644 8.92723 25.7502 9.00893 25.7533 9.09423C25.7567 9.18013 25.778 9.26493 25.8182 9.34933C25.8437 9.40233 25.8695 9.44373 25.8956 9.47403C25.9217 9.50383 25.9489 9.53103 25.9778 9.55543C26.0062 9.58063 26.0277 9.60703 26.0407 9.63423C26.0583 9.67133 26.045 9.70313 26.0005 9.73033L26.0217 9.77483ZM25.2283 8.02193L26.1249 7.51703C26.1898 7.48043 26.2043 7.43253 26.1686 7.37223L26.1331 7.31233L26.1765 7.28803L26.4954 7.82663L26.4523 7.85123L26.4166 7.79113C26.4036 7.76903 26.3846 7.75203 26.3599 7.74093C26.3353 7.72993 26.3044 7.73473 26.2667 7.75633L25.3701 8.26083L25.3956 8.30453C25.4242 8.35243 25.4528 8.39013 25.4817 8.41703C25.5104 8.44343 25.5498 8.45923 25.5994 8.46323C25.6493 8.46753 25.7122 8.45413 25.7887 8.42273L25.8137 8.46523L25.5002 8.64153L24.9551 7.72083L25.2686 7.54453L25.2935 7.58673C25.2416 7.62473 25.2034 7.66133 25.1799 7.69673C25.156 7.73223 25.1427 7.76593 25.1413 7.79763C25.1396 7.82883 25.1441 7.85833 25.1549 7.88493C25.1657 7.91193 25.1816 7.94283 25.2025 7.97823L25.2283 8.02193ZM24.84 7.61003L25.2127 7.34583L25.1835 7.30613C25.1266 7.33813 25.0668 7.35803 25.0033 7.36563C24.9398 7.37363 24.8777 7.36483 24.8165 7.33903C24.7552 7.31323 24.7011 7.26843 24.6537 7.20523C24.5925 7.12243 24.5693 7.04193 24.5849 6.96313C24.6002 6.88463 24.6336 6.81633 24.6852 6.75903C24.7368 6.70153 24.7918 6.65193 24.8502 6.61083L24.9749 6.77773C25.0225 6.84213 25.0432 6.89683 25.037 6.94273C25.0308 6.98863 24.9962 7.03573 24.9341 7.08393L24.9633 7.12333L25.3837 6.82563L25.3542 6.78623C25.2805 6.83363 25.2207 6.85033 25.1742 6.83643C25.128 6.82223 25.084 6.78743 25.0415 6.73043L24.9171 6.56313C24.9976 6.50623 25.0772 6.46373 25.1569 6.43563C25.2365 6.40753 25.3142 6.40273 25.3905 6.42003C25.4662 6.43763 25.5331 6.48583 25.5917 6.56433C25.6445 6.63493 25.6745 6.71143 25.6822 6.79333C25.6892 6.87503 25.6728 6.96883 25.6323 7.07343L25.6975 7.09833C25.7403 6.99713 25.7624 6.90703 25.7629 6.82713C25.7641 6.74683 25.753 6.68083 25.7303 6.62863C25.7077 6.57623 25.6782 6.52633 25.6422 6.47813C25.5662 6.37613 25.4755 6.30093 25.3701 6.25223C25.2643 6.20343 25.1549 6.18533 25.0415 6.19753C24.9281 6.20943 24.8224 6.24993 24.7243 6.31943C24.6464 6.37463 24.5829 6.43903 24.5338 6.51213C24.4845 6.58503 24.4525 6.66243 24.4366 6.74433C24.421 6.82593 24.4233 6.90873 24.4431 6.99173C24.4633 7.07573 24.501 7.15473 24.5568 7.23013C24.5922 7.27753 24.6257 7.31353 24.6571 7.33793C24.6886 7.36223 24.7204 7.38413 24.7538 7.40283C24.7864 7.42203 24.8128 7.44423 24.8309 7.46853C24.8553 7.50143 24.8485 7.53513 24.8102 7.57033L24.84 7.61003Z" fill="#FEFEFE"/>
<defs>
<linearGradient id="paint0_linear_44_394" x1="3.57047" y1="2.94784" x2="25.9736" y2="25.351" gradientUnits="userSpaceOnUse">
<stop stop-color="white"/>
<stop offset="0.34" stop-color="#F3F4F4"/>
<stop offset="0.38" stop-color="white"/>
<stop offset="0.54" stop-color="#F3F4F4"/>
<stop offset="0.55" stop-color="white"/>
<stop offset="0.59" stop-color="white"/>
<stop offset="0.69" stop-color="#EBEBEC"/>
<stop offset="0.76" stop-color="white"/>
<stop offset="1" stop-color="white"/>
</linearGradient>
</defs>
</svg>
