<?xml version="1.0" standalone="no"?>
  <!DOCTYPE svg PUBLIC "-//W3C//DTD SVG 1.1//EN" "http://www.w3.org/Graphics/SVG/1.1/DTD/svg11.dtd" >
  <svg>
  <metadata>
  Created by font-carrier
  </metadata>
  <defs>
  <font id="MADEBarista" horiz-adv-x="599" vert-adv-y="599" >
    <font-face
      
      font-family="MADE Barista"
      
      font-weight="400"
      
      font-stretch="normal"
      
      units-per-em="1000"
      
      ascent="806"
      
      descent="-158"
      
    />
      <missing-glyph />

      

      
      <glyph glyph-name="uni21" unicode="&#x21;" d="M91 130Q91 114 74 114Q57 114 57 130Q57 195 56.50 313.50Q56 432 55.50 529.50Q55 627 54 714Q54 730 71 730Q88 730 88 714Q90 324 91 130M74 19Q90 19 96 6.50Q102-6 96-19Q90-32 74-32Q59-32 52.50-19.50Q46-7 52.50 6Q59 19 74 19Z"  horiz-adv-x="149" vert-adv-y="1000"  />

      
      <glyph glyph-name="uni22" unicode="&#x22;" d="M50 692Q50 708 66.50 708Q83 708 84 692Q84 673 84.50 635.50Q85 598 85 580Q85 570 77 565.50Q69 561 60.50 565.50Q52 570 52 580Q51 599 50.50 636Q50 673 50 692M148 692Q148 654 150 580Q150 564 133 564Q116 564 116 580Q115 599 114.50 636Q114 673 114 692Q114 708 130.50 708Q147 708 148 692Z"  horiz-adv-x="200" vert-adv-y="1000"  />

      
      <glyph glyph-name="uni23" unicode="&#x23;" d="M494 499Q504 499 508.50 491Q513 483 508.50 474.50Q504 466 494 466Q451 465 365 465Q360 442 351.50 397Q343 352 339 329L460 329Q476 329 476 312.50Q476 296 460 296Q418 295 333 295Q321 229 286 50Q285 44 280.50 41Q276 38 271 38Q266 38 261.50 40.50Q257 43 254.50 48Q252 53 253 59Q272 153 299 295L221 295Q209 229 174 50Q173 44 168.50 41Q164 38 159 38Q154 38 149.50 40.50Q145 43 142.50 48Q140 53 141 59Q160 153 187 295Q107 295 67 294Q50 294 50 311Q50 328 67 328L193 328Q204 382 218 465Q140 465 101 464Q85 464 85 481Q85 498 101 498Q122 498 162.50 498.50Q203 499 224 499Q240 585 264 725Q266 735 275 737Q284 739 291 732.50Q298 726 297 716Q291 684 278.50 611Q266 538 259 499L336 499Q352 585 376 725Q378 735 387 737Q396 739 403 732.50Q410 726 409 716Q403 684 390.50 611Q378 538 371 499L494 499M305 329Q312 366 330 465L253 465Q249 445 240.50 399Q232 353 227 329L305 329Z"  horiz-adv-x="561" vert-adv-y="1000"  />

      
      <glyph glyph-name="uni24" unicode="&#x24;" d="M223 257Q251 136 229 52Q215-7 179-21Q180-38 180-70Q180-86 163-86Q146-86 146-70L146-24Q124-20 109.50-2.50Q95 15 88.50 39Q82 63 80 85Q78 107 79 128Q79 138 87.50 142.50Q96 147 104 142.50Q112 138 112 128Q108 63 132 26Q144 6 164 9Q169 9 178 18Q210 56 203 163Q195 290 125 433Q123 438 102 478.50Q81 519 75 534.50Q69 550 58.50 583Q48 616 49.50 642Q51 668 61 693Q76 728 116 735L116 790Q116 800 124 804Q132 808 140.50 804Q149 800 149 790Q150 770 150 732L156 729Q195 711 197 641Q197 631 189 626.50Q181 622 172 626.50Q163 631 163 641Q163 684 147 696Q135 705 118 701Q101 697 94 684Q68 637 113 534Q121 517 144 470Q167 423 178 396Q209 324 223 257Z"  horiz-adv-x="289" vert-adv-y="1000"  />

      
      <glyph glyph-name="uni25" unicode="&#x25;" d="M165 459Q146 441 119 443Q92 445 76 465Q43 504 52 588Q61 656 114 661Q116 662 122 662Q182 657 190 570Q195 488 165 459M85 547Q86 533 87.50 524.50Q89 516 93 502.50Q97 489 105.50 482.50Q114 476 126 477Q157 480 157 550Q156 567 155.50 574.50Q155 582 151.50 597.50Q148 613 140 620.50Q132 628 119 628Q82 626 85 547M343 703Q346 712 355.50 714Q365 716 371.50 709.50Q378 703 375 694Q247 272 143-35Q140-44 130-46Q120-48 113.50-41.50Q107-35 110-26Q206 258 343 703M431 133Q438 52 406 22Q387 5 360.50 7Q334 9 317 29Q283 69 294 151Q301 219 356 225L364 225Q425 221 431 133M367 41Q401 43 398 113Q398 191 360 192Q321 190 327 110Q328 93 330 79.50Q332 66 341.50 52.50Q351 39 367 41Z"  horiz-adv-x="483" vert-adv-y="1000"  />

      
      <glyph glyph-name="uni26" unicode="&#x26;" d="M358 6Q364-2 358.50-10Q353-18 344.50-18.50Q336-19 329-11Q305 25 259 99Q258 95 254 87Q205-20 139-17Q106-16 83 7.50Q60 31 54 65Q44 126 70 242Q83 297 115 407Q102 444 90 493Q55 629 87 696Q102 731 134 731Q162 731 179 706Q191 686 193.50 653.50Q196 621 193.50 603.50Q191 586 185 549Q173 483 150 407Q190 294 253 179Q273 241 289 334Q291 344 300 346Q309 348 316.50 341.50Q324 335 322 325Q299 205 275 139Q315 70 358 6M112 669Q92 596 132 467Q150 539 155 576Q163 632 159 661Q154 692 140 696Q123 702 112 669M230 114Q231 118 233.50 125Q236 132 238 136Q174 250 135 352Q131 341 125 319Q87 179 85 116Q83 23 137 16Q154 14 169 23Q184 32 196.50 51.50Q209 71 215 82.50Q221 94 230 114Z"  horiz-adv-x="411" vert-adv-y="1000"  />

      
      <glyph glyph-name="uni27" unicode="&#x27;" d="M84 642Q84 604 86 530Q86 514 69 514Q52 514 52 530Q51 549 50.50 586Q50 623 50 642Q50 658 66.50 658Q83 658 84 642Z"  horiz-adv-x="136" vert-adv-y="1000"  />

      
      <glyph glyph-name="uni28" unicode="&#x28;" d="M159-105Q164-114 158.50-122Q153-130 144.50-130Q136-130 130-122Q98-63 77 26Q41 178 54 350Q66 526 126 644Q131 652 139.50 652Q148 652 153.50 644Q159 636 155 627Q124 566 105 478Q75 332 89 168Q103 0 159-105Z"  horiz-adv-x="212" vert-adv-y="1000"  />

      
      <glyph glyph-name="uni29" unicode="&#x29;" d="M138 489Q172 334 156 163Q140-13 82-122Q76-130 67.50-130Q59-130 53.50-122Q48-114 53-105Q85-44 103 37Q136 184 124 345Q114 513 57 627Q52 636 57.50 644Q63 652 71.50 652Q80 652 86 644Q121 573 138 489Z"  horiz-adv-x="211" vert-adv-y="1000"  />

      
      <glyph glyph-name="uni2a" unicode="&#x2a;" d="M201 548Q209 542 208 532.50Q207 523 200 518.50Q193 514 184 519Q178 524 165 533Q152 542 146 546L146 502Q146 492 138 487.50Q130 483 121.50 487.50Q113 492 113 502L113 546Q110 544 96 534.50Q82 525 75 520Q67 514 59 519Q51 524 50.50 533Q50 542 58 549Q86 569 101 579Q86 589 58 609Q49 615 50 625Q51 635 58.50 639Q66 643 75 638Q91 626 112 612Q113 626 113 656Q113 666 121.50 670.50Q130 675 138 670.50Q146 666 146 656L146 611Q152 616 165 625Q178 634 184 638Q192 644 200 639Q208 634 208 625Q208 616 201 609L159 579Q187 559 201 548Z"  horiz-adv-x="259" vert-adv-y="1000"  />

      
      <glyph glyph-name="uni2b" unicode="&#x2b;" d="M239 376Q256 376 256 359Q256 342 239 342Q193 342 170 343L170 273Q170 256 153 256Q136 256 136 273L136 343Q90 343 67 342Q50 342 50 359Q50 376 67 376L136 376Q136 422 137 445Q137 455 145.50 459.50Q154 464 162 459.50Q170 455 170 445L170 376L239 376Z"  horiz-adv-x="306" vert-adv-y="1000"  />

      
      <glyph glyph-name="uni2c" unicode="&#x2c;" d="M66 2Q68 12 77 14Q86 16 93 9.50Q100 3 99-7L84-91Q82-101 73-103Q64-105 57-98.50Q50-92 51-82L66 2Z"  horiz-adv-x="150" vert-adv-y="1000"  />

      
      <glyph glyph-name="uni2d" unicode="&#x2d;" d="M229 318Q246 318 246 301Q246 284 229 284L67 284Q50 284 50 301Q50 318 67 318L229 318Z"  horiz-adv-x="296" vert-adv-y="1000"  />

      
      <glyph glyph-name="uni2e" unicode="&#x2e;" d="M75 19Q90 19 96.50 6.50Q103-6 96.50-19Q90-32 75-32Q59-32 53-19.50Q47-7 53 6Q59 19 75 19Z"  horiz-adv-x="149" vert-adv-y="1000"  />

      
      <glyph glyph-name="uni2f" unicode="&#x2f;" d="M174 675Q176 691 192.50 686.50Q209 682 206 666Q160 387 83 0Q81-10 72.50-12Q64-14 56.50-7.50Q49-1 51 9Q119 351 174 675Z"  horiz-adv-x="257" vert-adv-y="1000"  />

      
      <glyph glyph-name="uni30" unicode="&#x30;" d="M214 537Q219 376 211 175Q207 114 200 72Q193 32 176 9Q158-16 130-15Q102-14 85 11Q73 29 66 56.50Q59 84 57.50 98Q56 112 54 148Q50 224 50 320Q50 384 54 508Q54 516 55.50 553Q57 590 58 606Q59 622 65 649.50Q71 677 80 697Q94 728 125.50 735.50Q157 743 180 716Q198 694 206 643Q212 599 214 537M180 259Q184 445 181 537Q177 618 172 644Q164 692 147 701Q135 708 124.50 700.50Q114 693 109 680Q96 652 92 595Q81 452 84 257Q86 162 90 115Q96 73 103 53Q113 23 126 18Q137 14 146.50 23Q156 32 161.50 52.50Q167 73 170.50 95Q174 117 176 146Q178 175 178.50 194Q179 213 179.50 235.50Q180 258 180 259Z"  horiz-adv-x="267" vert-adv-y="1000"  />

      
      <glyph glyph-name="uni31" unicode="&#x31;" d="M117 720Q117 736 134 736.50Q151 737 151 720Q150 695 149 646.50Q148 598 148 574Q140 190 136-1Q135-18 118.50-18Q102-18 102-1Q104 97 105 145L111 457Q98 400 83 355Q80 346 70.50 344Q61 342 54.50 348.50Q48 355 51 364Q104 530 117 720Z"  horiz-adv-x="201" vert-adv-y="1000"  />

      
      <glyph glyph-name="uni32" unicode="&#x32;" d="M173 18Q190 18 190 1Q190-16 173-16L67-16Q59-16 54-9.50Q49-3 51 5Q70 122 90 232Q95 262 116.50 381Q138 500 148 564Q155 607 156 640Q158 676 147 692Q140 705 121 703Q100 700 95 666.50Q90 633 96 615Q98 605 90.50 598.50Q83 592 74 594Q65 596 63 606Q60 634 62.50 667.50Q65 701 87 723Q109 745 144 734Q198 717 188 612Q186 584 181 553.50Q176 523 168.50 485.50Q161 448 158 427Q147 362 123 225Q99 88 87 17Q116 18 173 18Z"  horiz-adv-x="240" vert-adv-y="1000"  />

      
      <glyph glyph-name="uni33" unicode="&#x33;" d="M220 338Q226 255 219 179Q212 118 199 71Q186 20 158-2Q126-30 88-10Q53 8 51 55Q51 65 59 69Q67 73 76 69Q85 65 85 55Q85 37 98 24Q111 11 129 18Q153 28 168 84Q199 199 185 353Q177 484 125 469Q114 466 107 475Q100 484 106 494Q153 575 156 649Q159 700 136 704Q119 707 111.50 694.50Q104 682 103 663Q102 647 85.50 647Q69 647 69 663Q73 723 117 736Q140 742 158 731Q176 720 185 698Q199 660 181 582Q171 544 149 502Q183 492 201 445Q216 405 220 338Z"  horiz-adv-x="273" vert-adv-y="1000"  />

      
      <glyph glyph-name="uni34" unicode="&#x34;" d="M200 377Q216 377 216 360Q216 343 200 343L194 343Q191 227 187 0Q186-16 169.50-16Q153-16 153 0L156 147Q156 179 158 244.50Q160 310 160 343L68 343Q60 343 54.50 350Q49 357 51 364Q98 517 103 720Q104 736 120.50 736Q137 736 137 720Q132 524 90 377L161 377Q165 608 168 720Q168 730 176.50 734.50Q185 739 193 734.50Q201 730 201 720Q200 672 198 574Q196 442 194 377L200 377Z"  horiz-adv-x="266" vert-adv-y="1000"  />

      
      <glyph glyph-name="uni35" unicode="&#x35;" d="M207 227Q209 127 194 69Q175 1 133-14Q101-24 75.50-2Q50 20 50 54Q51 70 67.50 70Q84 70 84 54Q84 38 93.50 26.50Q103 15 119 17Q136 21 148 42Q171 82 173 173Q176 191 174 223.50Q172 256 168 288.50Q164 321 145 337.50Q126 354 96 340Q88 335 79 339.50Q70 344 71 354Q78 506 82 720Q82 726 87 731.50Q92 737 99 737L191 737Q207 737 207 720.50Q207 704 191 704Q166 703 116 703Q113 521 106 378Q159 388 185 340Q205 302 207 227Z"  horiz-adv-x="258" vert-adv-y="1000"  />

      
      <glyph glyph-name="uni36" unicode="&#x36;" d="M207 257Q215 189 207 121Q198 40 174 8Q159-13 134.50-15Q110-17 91 2Q63 32 54 121Q48 177 52 268Q55 385 65 485Q77 607 95 659Q113 710 134 727Q150 738 169.50 738Q189 738 203 726Q211 719 208 710Q205 701 196.50 698.50Q188 696 180 702Q166 714 153 698Q140 682 133 663Q120 635 113 592Q103 541 92 409L89 364Q110 382 138 378Q194 368 207 257M175 139Q179 189 174 249Q170 283 165 299Q155 335 138 343Q112 354 98 323.50Q84 293 84 260Q81 191 87 123Q94 53 113 28Q126 15 136 19.50Q146 24 154 40Q171 74 175 139Z"  horiz-adv-x="261" vert-adv-y="1000"  />

      
      <glyph glyph-name="uni37" unicode="&#x37;" d="M179 737Q187 737 192 730.50Q197 724 195 716Q121 423 119 0Q119-16 102.50-16Q86-16 86 0Q86 410 158 704L67 704Q50 704 50 720.50Q50 737 67 737L179 737Z"  horiz-adv-x="246" vert-adv-y="1000"  />

      
      <glyph glyph-name="uni38" unicode="&#x38;" d="M207 173Q211 80 187 27Q174-1 148.50-12Q123-23 95-6Q51 26 51 134Q51 151 51.50 168Q52 185 55 204Q58 223 59.50 237Q61 251 66 273.50Q71 296 73 306Q75 316 82 341.50Q89 367 91 374Q93 381 101 409.50Q109 438 110 442Q109 446 106 454.50Q103 463 101 467Q62 570 61 632Q59 673 74 706.50Q89 740 127 737L132 736Q189 728 180 609Q175 558 155 478Q151 466 145 442Q157 410 166 379Q202 258 207 173M95 655Q91 605 110 541Q120 511 125 497Q139 549 144 590Q150 636 146 665Q144 698 125 704Q97 704 95 655M172 110Q178 186 156 284Q146 334 129 384Q86 228 84 139Q84 87 95 54Q104 23 123 18Q163 8 172 110Z"  horiz-adv-x="258" vert-adv-y="1000"  />

      
      <glyph glyph-name="uni39" unicode="&#x39;" d="M210 552Q212 509 207 385Q204 285 193 171Q192 164 190 146Q188 128 187 119Q186 110 183.50 94Q181 78 178 67.50Q175 57 170.50 44Q166 31 160 20Q141-15 114-16Q90-17 75.50-1Q61 15 59 40Q58 50 66 54Q74 58 83 54Q92 50 92 40Q93 29 99 22Q105 15 115 18Q123 22 130 35Q139 51 145.50 71Q152 91 155.50 121Q159 151 161 168Q163 185 165 226Q167 267 168 278Q172 332 173 360Q147 336 115 347Q61 364 53 480Q46 559 56 625Q68 708 102 731Q129 744 151 733Q173 722 185 696Q206 650 210 552M120 382Q143 367 158.50 395Q174 423 176 456L176 457Q178 512 176 568Q172 644 155 680Q148 697 137 702.50Q126 708 113 695Q94 670 87 599Q81 543 86 482Q86 480 87 469Q88 458 89 453Q90 448 91.50 437Q93 426 95.50 419.50Q98 413 101 405Q104 397 109 391.50Q114 386 120 382Z"  horiz-adv-x="261" vert-adv-y="1000"  />

      
      <glyph glyph-name="uni3a" unicode="&#x3a;" d="M74 426Q59 426 52.50 439Q46 452 52.50 464.50Q59 477 74 477Q90 477 96 464.50Q102 452 96 439Q90 426 74 426M75 19Q90 19 96.50 6.50Q103-6 96.50-19Q90-32 75-32Q59-32 53-19.50Q47-7 53 6Q59 19 75 19Z"  horiz-adv-x="149" vert-adv-y="1000"  />

      
      <glyph glyph-name="uni3b" unicode="&#x3b;" d="M76 432Q61 432 54.50 445Q48 458 54.50 470.50Q61 483 76 483Q92 483 98 470.50Q104 458 98 445Q92 432 76 432M66 2Q68 12 77 14Q86 16 93 9.50Q100 3 99-7L84-91Q82-101 73-103Q64-105 57-98.50Q50-92 51-82L66 2Z"  horiz-adv-x="151" vert-adv-y="1000"  />

      
      <glyph glyph-name="uni3d" unicode="&#x3d;" d="M67 379Q57 379 52.50 387Q48 395 52.50 403.50Q57 412 67 412Q89 412 114.50 412Q140 412 171 412Q202 412 219 412Q235 412 235 395Q235 378 219 378Q168 379 67 379M221 334Q238 334 238 317Q238 300 221 300L69 300Q52 300 52 317Q52 334 69 334L221 334Z"  horiz-adv-x="288" vert-adv-y="1000"  />

      
      <glyph glyph-name="uni3f" unicode="&#x3f;" d="M146 19Q161 19 167.50 6.50Q174-6 167.50-19Q161-32 146-32Q130-32 124-19.50Q118-7 124 6Q130 19 146 19M127 731Q161 735 182.50 718.50Q204 702 211.50 676Q219 650 219.50 615Q220 580 216.50 553Q213 526 207 501Q170 347 167 324Q153 232 156 128Q156 118 148 113.50Q140 109 131.50 113.50Q123 118 123 128Q119 217 131 311Q141 384 163 463Q189 565 187 617Q185 696 140 698Q122 698 110.50 689Q99 680 93.50 663Q88 646 86 633Q84 620 84 602Q84 592 75.50 587.50Q67 583 59 587.50Q51 592 51 602Q51 660 69 690Q90 727 127 731Z"  horiz-adv-x="271" vert-adv-y="1000"  />

      
      <glyph glyph-name="uni40" unicode="&#x40;" d="M376 239Q377 208 376 175Q377 148 379 127Q381 106 387.50 78Q394 50 409 36Q424 22 447 27Q495 37 510 146Q523 236 501 330Q475 436 405 485Q354 519 293 515.50Q232 512 185 473Q124 423 99 319Q75 221 90 121Q108 12 167-46Q228-107 327-105.50Q426-104 483-37Q490-29 498.50-32Q507-35 509.50-43.50Q512-52 506-61Q494-76 476-89Q393-150 288-137Q230-131 182-100.50Q134-70 103-20Q55 61 51 182Q48 304 92 401Q142 515 253 543Q316 560 378 536Q440 512 481 458Q534 388 545 267Q557 152 525 70Q510 31 482 7.50Q454-16 417-5Q377 7 359 54Q355 42 347 29Q332 4 308.50-4.50Q285-13 258 0Q215 23 203 98Q189 194 202 283Q217 396 277 409Q373 431 376 239M342 169Q342 274 341 288Q336 362 306 375Q284 384 263 363Q236 330 231 233Q227 161 236 107Q239 88 243.50 71.50Q248 55 261 40Q274 25 292 26Q319 27 333 81Q340 105 342 169Z"  horiz-adv-x="599" vert-adv-y="1000"  />

      
      <glyph glyph-name="uni41" unicode="&#x41;" d="M229 0Q230-10 222-14Q214-18 205-14Q196-10 195 0Q192 44 184 119Q155 120 96 120Q88 40 85 0Q84-10 75-14Q66-18 58-14Q50-10 51 0Q109 600 121 720Q123 735 140 736Q157 737 159 720Q172 600 229 0M99 153Q111 153 124.50 153Q138 153 155 153Q172 153 181 153Q174 224 160.50 365Q147 506 140 576Q133 506 119.50 364.50Q106 223 99 153Z"  horiz-adv-x="280" vert-adv-y="1000"  />

      
      <glyph glyph-name="uni42" unicode="&#x42;" d="M215 89Q224 26 176-4Q135-29 67-16Q54-13 54 0Q54 120 52 360Q50 600 50 720Q50 737 69 737Q144 741 177 724Q222 699 215 639Q210 593 172 574.50Q134 556 84 559Q84 493 85 360.50Q86 228 87 162Q202 170 215 89M152 698Q128 706 84 704L84 592Q176 585 182 643Q186 687 152 698M157 24Q190 44 181 88Q169 136 87 129Q87 110 87.50 72Q88 34 88 14Q131 8 157 24Z"  horiz-adv-x="267" vert-adv-y="1000"  />

      
      <glyph glyph-name="uni43" unicode="&#x43;" d="M215 134Q215 144 223.50 148.50Q232 153 240 148.50Q248 144 248 134Q248 33 200-2Q177-19 147-16.50Q117-14 97 6Q88 15 81 26Q74 37 70 52Q66 67 63 77Q60 87 58.50 106Q57 125 56.50 132Q56 139 55.50 160.50Q55 182 55 186Q47 362 53 525Q53 533 53.50 559.50Q54 586 55 601.50Q56 617 60 642Q64 667 71 682Q78 697 91.50 711.50Q105 726 124 732Q149 741 173.50 732.50Q198 724 211 701Q230 665 228 588Q228 578 219 573.50Q210 569 202 573.50Q194 578 194 588Q196 665 178 690Q163 707 140.50 701.50Q118 696 107 677Q94 654 90 597Q86 500 85 455Q83 344 88 180Q88 177 89 156.50Q90 136 90 129Q90 122 92 104.50Q94 87 97 77.50Q100 68 105.50 55.50Q111 43 118 34Q129 19 148.50 17Q168 15 183 27Q213 51 215 134Z"  horiz-adv-x="298" vert-adv-y="1000"  />

      
      <glyph glyph-name="uni44" unicode="&#x44;" d="M240 468Q244 354 240 183Q240 181 239 160Q238 139 238 134Q238 129 236 111.50Q234 94 232 86Q230 78 226 65Q222 52 217 42Q179-35 70-16Q60-15 58-6.50Q56 2 62.50 9.50Q69 17 78 16Q77 131 75.50 360Q74 589 73 704Q72 704 69.50 703.50Q67 703 66 703Q56 702 52 710Q48 718 52 727Q56 736 66 737Q194 752 226 659Q235 635 237 592Q238 573 238.50 552.50Q239 532 239.50 507Q240 482 240 468M207 235Q209 342 206 492Q206 504 205.50 525Q205 546 204.50 563.50Q204 581 203 597Q201 632 193 653Q174 701 107 705Q108 590 109.50 359.50Q111 129 111 14Q145 14 166 30Q188 48 197 86Q205 116 207 235Z"  horiz-adv-x="292" vert-adv-y="1000"  />

      
      <glyph glyph-name="uni45" unicode="&#x45;" d="M174 17Q184 17 188.50 8.50Q193 0 188.50-8Q184-16 174-16L71-16Q65-17 59.50-12Q54-7 54 0Q54 120 52 360Q50 600 50 720Q50 737 67 737Q120 739 174 737Q184 737 188.50 728.50Q193 720 188.50 712Q184 704 174 704L83 704Q84 650 85 541.50Q86 433 86 379L165 379Q182 379 182 362Q182 345 165 345Q139 346 86 346Q86 237 88 17Q131 18 174 17Z"  horiz-adv-x="241" vert-adv-y="1000"  />

      
      <glyph glyph-name="uni46" unicode="&#x46;" d="M174 703Q129 704 84 703Q84 595 86 379L166 379Q182 379 182 362Q182 345 166 345Q126 346 86 345Q86 288 87 173Q88 58 88 0Q88-16 71.50-16Q55-16 54 0Q54 120 52 360Q50 600 50 720Q50 726 55 731.50Q60 737 67 737Q67 738 120 738L174 737Q190 737 190 720Q190 703 174 703Z"  horiz-adv-x="241" vert-adv-y="1000"  />

      
      <glyph glyph-name="uni47" unicode="&#x47;" d="M225 151Q240 150 244.50 143.50Q249 137 248 118Q244 31 200-2Q177-19 147-16.50Q117-14 97 6Q88 15 81 26Q74 37 70 52Q66 67 63 77Q60 87 58.50 106Q57 125 56.50 132Q56 139 55.50 160.50Q55 182 55 186Q47 362 53 524Q58 633 63 657Q74 717 119 732Q143 741 168 732.50Q193 724 206 700Q225 665 223 588Q223 578 214 573.50Q205 569 197 573.50Q189 578 189 588Q191 665 173 689Q158 707 136.50 701.50Q115 696 105 677Q92 653 90 596Q86 502 85 455Q83 344 88 180Q88 177 89 156.50Q90 136 90 129Q90 122 92 104.50Q94 87 97 77.50Q100 68 105.50 55.50Q111 43 118 34Q129 19 148.50 17.50Q168 16 183 28Q212 51 214 118L152 118Q142 118 138 126Q134 134 138 142.50Q142 151 152 151Q202 152 225 151Z"  horiz-adv-x="322" vert-adv-y="1000"  />

      
      <glyph glyph-name="uni48" unicode="&#x48;" d="M230 720Q230 600 232 360Q234 120 234 0Q234-16 217.50-16Q201-16 200 0Q200 116 198 344Q161 345 86 345Q86 230 88 0Q88-16 71-16Q54-16 54 0Q54 120 52 360Q50 600 50 720Q50 730 58 734.50Q66 739 74.50 734.50Q83 730 83 720Q84 663 85 549.50Q86 436 86 379Q161 379 198 378Q198 435 197 549Q196 663 196 720Q196 736 212.50 736Q229 736 230 720Z"  horiz-adv-x="284" vert-adv-y="1000"  />

      
      <glyph glyph-name="uni49" unicode="&#x49;" d="M173 17Q183 17 187.50 8.50Q192 0 187.50-8Q183-16 173-16L67-16Q57-16 52.50-8Q48 0 52.50 8.50Q57 17 67 17Q80 18 106 18Q105 132 103.50 361Q102 590 101 704Q96 704 84 703.50Q72 703 67 703Q50 703 50 719.50Q50 736 67 737Q83 737 100.50 737Q118 737 139.50 737Q161 737 173 737Q190 737 190 720Q190 703 173 703Q148 703 135 704Q136 589 137.50 360.50Q139 132 139 18Q145 18 156.50 17.50Q168 17 173 17Z"  horiz-adv-x="240" vert-adv-y="1000"  />

      
      <glyph glyph-name="uni4a" unicode="&#x4a;" d="M226 142Q226 113 224.50 94.50Q223 76 217 49.50Q211 23 196 6.50Q181-10 157-15Q104-25 73 17Q47 54 51 128Q52 138 61 142.50Q70 147 78 142.50Q86 138 85 128Q80 47 112 25Q131 12 153 19Q174 25 184 55Q189 71 191 92Q193 113 193 125.50Q193 138 192 165.50Q191 193 191 200Q189 322 188 382Q187 418 185.50 483Q184 548 183 601.50Q182 655 182 703Q137 704 92 703Q76 703 76 719.50Q76 736 92 737Q108 737 125.50 737Q143 737 164.50 737Q186 737 198 737Q205 737 210 732Q215 727 215 720L218 537Q224 271 226 142Z"  horiz-adv-x="276" vert-adv-y="1000"  />

      
      <glyph glyph-name="uni4b" unicode="&#x4b;" d="M197 720Q194 664 165 620.50Q136 577 85 570Q85 431 87 151Q145 144 172 102Q193 69 197 0Q197-10 189-14Q181-18 172-14Q163-10 163 0Q161 51 146 79Q130 112 87 117Q88 78 88 0Q88-16 71.50-16Q55-16 55 0Q51 480 50 720Q50 736 67 736Q84 736 84 720L84 604Q121 611 141 644.50Q161 678 163 720Q163 730 172 734.50Q181 739 189 734.50Q197 730 197 720Z"  horiz-adv-x="248" vert-adv-y="1000"  />

      
      <glyph glyph-name="uni4c" unicode="&#x4c;" d="M175 17Q185 17 189.50 8.50Q194 0 189.50-8Q185-16 175-16L72-16Q66-16 60.50-11.50Q55-7 55 0Q54 120 53 360Q52 600 51 720Q51 730 59 734.50Q67 739 75.50 734.50Q84 730 84 720Q85 603 86.50 369Q88 135 89 18Q146 18 175 17Z"  horiz-adv-x="242" vert-adv-y="1000"  />

      
      <glyph glyph-name="uni4d" unicode="&#x4d;" d="M275 727Q280 740 293.50 737Q307 734 307 720Q306 600 305 360Q304 120 303 0Q302-16 285.50-16Q269-16 269 0Q270 186 272 556Q268 534 240.50 374.50Q213 215 195 132Q193 120 179 119.50Q165 119 162 132Q144 215 116.50 374.50Q89 534 85 556Q87 186 88 0Q88-16 71.50-16Q55-16 54 0Q54 120 52 360Q50 600 50 720Q50 734 65 735.50Q80 737 83 724Q107 627 138 444Q169 261 178 218Q189 272 219.50 450Q250 628 274 724L275 727Z"  horiz-adv-x="357" vert-adv-y="1000"  />

      
      <glyph glyph-name="uni4e" unicode="&#x4e;" d="M221 720Q225 240 226 0Q226-16 209-16Q192-16 192 0L192 132Q158 248 86 478Q88 160 89 0Q89-16 72-16Q55-16 55 0Q54 240 50 720Q50 736 67 736Q84 736 84 720Q84 698 84.50 655Q85 612 85 590L85 589Q157 365 191 253Q190 331 189 486.50Q188 642 188 720Q188 730 196 734.50Q204 739 212.50 734.50Q221 730 221 720Z"  horiz-adv-x="276" vert-adv-y="1000"  />

      
      <glyph glyph-name="uni4f" unicode="&#x4f;" d="M232 623Q239 548 237 337Q237 322 237 295Q237 268 237 246Q237 224 237 204Q235 96 224 58L224 57Q203-7 156-15Q117-23 91 10Q76 29 67.50 59Q59 89 58 106.50Q57 124 55 162Q50 294 50 399Q50 461 53 524Q55 609 58 633Q64 679 87.50 710Q111 741 153 737Q223 729 232 623M138 18Q174 12 191 66Q203 105 203 213Q204 234 204 276.50Q204 319 204 341Q204 532 200 602Q194 694 155 703Q136 707 123 698.50Q110 690 103.50 672.50Q97 655 94 640Q91 625 90 608Q78 435 89 170Q91 88 106 50Q119 20 138 18Z"  horiz-adv-x="289" vert-adv-y="1000"  />

      
      <glyph glyph-name="uni50" unicode="&#x50;" d="M178 724Q222 699 215 639Q210 593 172.50 574.50Q135 556 85 559Q87 187 88 0Q88-16 71.50-16Q55-16 54 0Q54 120 52 360Q50 600 50 720Q50 737 69 737Q144 741 178 724M182 643Q186 687 152 698Q128 706 84 704L84 592Q176 585 182 643Z"  horiz-adv-x="266" vert-adv-y="1000"  />

      
      <glyph glyph-name="uni51" unicode="&#x51;" d="M248-17Q254-25 248.50-33Q243-41 234.50-41.50Q226-42 219-34Q210-21 192 3Q175-12 156-15Q117-23 91 10Q76 29 67.50 59Q59 89 58 106.50Q57 124 55 162Q50 294 50 399Q50 461 53 524Q55 609 58 633Q64 678 87.50 709Q111 740 153 736Q190 733 209 699.50Q228 666 232 623Q239 548 237 337L237 204Q235 97 224 59Q224 58 223 55Q217 39 213 31Q237-1 248-17M138 18Q155 14 171 30L147 57Q140 65 143.50 74Q147 83 155 85.50Q163 88 171 81L189 60L192 66Q197 82 200 101.50Q203 121 203 138.50Q203 156 203 176Q203 196 203 212Q204 212 204 276L203 341Q205 515 200 602Q194 693 155 702Q136 706 123 698Q110 690 103.50 672.50Q97 655 94 640Q91 625 90 608Q78 435 89 170Q91 88 106 50Q119 20 138 18Z"  horiz-adv-x="301" vert-adv-y="1000"  />

      
      <glyph glyph-name="uni52" unicode="&#x52;" d="M277 55Q277 65 285.50 69.50Q294 74 302 69.50Q310 65 310 55Q310 31 298.50 11Q287-9 265-15Q239-23 212-6Q180 14 172 72Q164 120 164 218Q164 234 164 303.50Q164 373 162 411Q160 521 129 561Q110 557 85 559Q87 187 88 0Q88-10 80-14Q72-18 63.50-14Q55-10 55 0Q54 120 52.50 360Q51 600 50 720Q50 735 69 737Q149 739 178 723Q199 712 208.50 688.50Q218 665 216 639Q210 589 163 570Q189 527 195 433Q198 383 197 272.50Q196 162 200 112Q207 48 222 29Q230 20 242 17Q259 14 267.50 26Q276 38 277 55M85 592Q121 588 150 599.50Q179 611 182 643Q187 685 153 698Q128 706 84 704Q84 629 85 592Z"  horiz-adv-x="361" vert-adv-y="1000"  />

      
      <glyph glyph-name="uni53" unicode="&#x53;" d="M217 343Q272 208 253 93Q246 50 226 17Q206-16 170-17Q136-19 112.50 8Q89 35 81.50 69Q74 103 76 135Q76 145 85 149Q94 153 102 149Q110 145 110 135Q104 64 139 29Q154 15 169.50 16.50Q185 18 196 33Q214 56 222 107Q229 160 217 225Q204 298 169 369Q164 380 113 468Q100 491 91.50 507.50Q83 524 71.50 551Q60 578 56.50 596.50Q53 615 50.50 642Q48 669 57 687Q68 719 97 734Q126 749 158 739Q208 724 210 648Q210 638 202 633.50Q194 629 185.50 633.50Q177 638 177 648Q175 694 155 704Q139 713 119 706.50Q99 700 92 684Q73 642 105 561Q120 522 161 451Q202 380 217 343Z"  horiz-adv-x="308" vert-adv-y="1000"  />

      
      <glyph glyph-name="uni54" unicode="&#x54;" d="M226 737Q236 737 240 728.50Q244 720 240 712Q236 704 226 704L165 704Q166 587 167.50 352Q169 117 170 0Q170-16 153-16Q136-16 136 0Q134 234 132 704L67 704Q57 704 52.50 712Q48 720 52.50 728.50Q57 737 67 737Q146 738 226 737Z"  horiz-adv-x="292" vert-adv-y="1000"  />

      
      <glyph glyph-name="uni55" unicode="&#x55;" d="M240 391Q242 209 238 140Q236 105 234 89.50Q232 74 223 47Q214 20 197 4Q167-22 133-13.50Q99-5 82 30Q61 74 59 162Q59 164 53 335Q47 577 54 720Q54 730 62.50 734.50Q71 739 79 734.50Q87 730 87 720Q81 584 87 312Q88 295 89 263Q90 231 91 205Q92 179 93 156Q95 69 117 35Q136 7 162 21Q190 34 198 81Q205 114 207 221Q209 517 199 720Q199 730 207 734.50Q215 739 223.50 734.50Q232 730 232 720Q238 610 240 391Z"  horiz-adv-x="292" vert-adv-y="1000"  />

      
      <glyph glyph-name="uni56" unicode="&#x56;" d="M209 720Q210 730 219 734.50Q228 739 236 734.50Q244 730 243 720Q230 587 203 341.50Q176 96 166 0Q164-15 147-15.50Q130-16 128 0Q118 96 91 341.50Q64 587 51 720Q50 730 58 734.50Q66 739 75 734.50Q84 730 85 720Q93 640 147 137Q201 640 209 720Z"  horiz-adv-x="294" vert-adv-y="1000"  />

      
      <glyph glyph-name="uni57" unicode="&#x57;" d="M344 720Q345 730 353.50 734.50Q362 739 370 734.50Q378 730 377 720L308 0Q306-15 288.50-15.50Q271-16 269 0Q262 68 216 461Q170 110 159 0Q157-15 140-15.50Q123-16 121 0Q109 120 51 720Q50 730 58 734.50Q66 739 75 734.50Q84 730 85 720Q94 623 113 428.50Q132 234 141 137Q148 197 168 349Q188 501 197 584Q199 599 216 599.50Q233 600 235 584Q243 512 261 363.50Q279 215 288 138Q297 235 315.50 429Q334 623 344 720Z"  horiz-adv-x="428" vert-adv-y="1000"  />

      
      <glyph glyph-name="uni58" unicode="&#x58;" d="M223 5Q225-5 217.50-11.50Q210-18 201.50-16Q193-14 191-4Q169 117 154 196Q148 232 137 288Q128 240 110 142Q92 44 83-4Q81-14 72.50-16Q64-18 56.50-11.50Q49-5 51 5L87 203L120 380L57 716Q55 726 62.50 732.50Q70 739 79 737Q88 735 90 725Q112 603 124 542Q126 532 130.50 508Q135 484 137 471Q145 513 160.50 597.50Q176 682 184 725Q186 735 195 737Q204 739 211.50 732.50Q219 726 217 716Q205 655 183 533Q178 508 168.50 457Q159 406 154 380L223 5Z"  horiz-adv-x="274" vert-adv-y="1000"  />

      
      <glyph glyph-name="uni59" unicode="&#x59;" d="M228 729Q234 737 242.50 736.50Q251 736 256.50 728Q262 720 257 712Q241 687 212 642Q183 597 172 580Q174 194 176 0Q176-16 159-16Q142-16 142 0Q142 97 140 290Q138 483 138 579Q124 601 95.50 645Q67 689 53 712Q48 720 53.50 728Q59 736 67.50 736.50Q76 737 82 729Q87 720 155 616Q222 720 228 729Z"  horiz-adv-x="310" vert-adv-y="1000"  />

      
      <glyph glyph-name="uni5a" unicode="&#x5a;" d="M196 17Q206 17 210.50 8.50Q215 0 210.50-8Q206-16 196-16Q174-16 131.50-16.50Q89-17 68-17Q60-18 54.50-12Q49-6 51 4Q69 85 95 225Q107 288 132.50 451.50Q158 615 176 703Q130 704 85 703Q68 703 68 719.50Q68 736 85 737Q85 738 140 738L196 737Q204 737 209 730Q214 723 212 716Q211 709 199 649Q187 589 182 558Q176 522 165 448.50Q154 375 148 337Q127 205 88 17L196 17Z"  horiz-adv-x="263" vert-adv-y="1000"  />

      
      <glyph glyph-name="uni5c" unicode="&#x5c;" d="M83 675Q138 351 206 9Q208-1 200.50-7.50Q193-14 184.50-12Q176-10 174 0Q97 387 51 666Q48 682 64.50 686.50Q81 691 83 675Z"  horiz-adv-x="257" vert-adv-y="1000"  />

      
      <glyph glyph-name="uni5f" unicode="&#x5f;" d="M287 18Q304 18 304 1Q304-16 287-16L67-16Q50-16 50 1Q50 18 67 18Q91 18 132 18Q173 18 222 18Q271 18 287 18Z"  horiz-adv-x="354" vert-adv-y="1000"  />

      
      <glyph glyph-name="uni60" unicode="&#x60;" d="M122 529Q125 520 118.50 513.50Q112 507 102.50 509Q93 511 89 520Q77 554 51 620Q48 630 54.50 636Q61 642 70.50 640Q80 638 84 629Q92 610 105 574.50Q118 539 122 529Z"  horiz-adv-x="173" vert-adv-y="1000"  />

      
      <glyph glyph-name="uni61" unicode="&#x61;" d="M235 5Q238-5 231.50-11.50Q225-18 215.50-16Q206-14 203-4Q199 10 198 17Q186 2 173-6Q149-20 119-14Q89-8 73 14Q53 41 58.50 77.50Q64 114 90 134Q134 168 187 138Q186 161 186 208Q186 214 186.50 235.50Q187 257 186.50 267.50Q186 278 183.50 295Q181 312 176 324Q167 342 153 343Q126 346 120 312Q119 306 114.50 303Q110 300 105 300Q100 300 95.50 302.50Q91 305 88.50 310Q86 315 87 321Q93 351 115.50 367Q138 383 168 375Q205 363 215 310Q220 284 220 197Q220 192 220 166Q220 140 220 131.50Q220 123 221 101Q222 79 223.50 66.50Q225 54 228 36.50Q231 19 235 5M164 29Q184 48 186 97Q168 114 147.50 117Q127 120 107 104Q92 89 91 65Q90 41 106 27Q119 17 135.50 17.50Q152 18 164 29Z"  horiz-adv-x="287" vert-adv-y="1000"  />

      
      <glyph glyph-name="uni62" unicode="&#x62;" d="M205 231Q211 161 201 94Q187 7 146-12Q116-28 87-6Q83-18 68.50-16.50Q54-15 54 0L54 70Q54 82 53.50 107Q53 132 53 145L53 277Q53 278 52 280Q52 281 52.50 282.50Q53 284 53 285L50 720Q50 736 67 736Q84 736 84 720Q84 696 84.50 647Q85 598 85 573Q85 538 85.50 468Q86 398 86 363Q86 364 88 365L90 366Q122 388 155 367Q174 355 185.50 327.50Q197 300 199.50 282Q202 264 205 231M171 128Q175 178 171 229Q169 267 160 298Q151 327 139 336Q124 349 107 336Q88 322 86 285Q87 213 87 69Q89 22 117 16Q134 12 147 33Q167 66 171 128Z"  horiz-adv-x="258" vert-adv-y="1000"  />

      
      <glyph glyph-name="uni63" unicode="&#x63;" d="M185 60Q188 69 197.50 71Q207 73 213.50 67Q220 61 217 51Q201 4 173-10Q147-24 115-12Q77 4 62 60Q49 109 51 213Q51 335 104 367Q139 387 172 365Q199 348 203 302Q205 288 191 286Q175 285 171 299Q170 300 170 302Q167 323 153.50 335.50Q140 348 121 337Q98 324 88 268Q84 242 84 188Q84 137 87 112Q94 46 118 25Q131 14 148 17Q172 20 185 60Z"  horiz-adv-x="268" vert-adv-y="1000"  />

      
      <glyph glyph-name="uni64" unicode="&#x64;" d="M175 720Q175 736 192 736Q209 736 209 720Q208 671 208 573L205 0Q205-15 190-16.50Q175-18 172-5Q172-6 170-7L168-8Q137-29 103-10Q59 17 52 123Q47 195 58 264Q70 350 112 370Q145 387 173 362Q174 422 174.50 541Q175 660 175 720M150 20Q170 35 172 78L172 145Q172 164 172.50 210Q173 256 173 288Q171 336 141 341Q125 345 111 325Q93 296 87 230Q82 171 86 123Q91 42 118 21Q133 10 150 20Z"  horiz-adv-x="259" vert-adv-y="1000"  />

      
      <glyph glyph-name="uni65" unicode="&#x65;" d="M178 60Q181 70 190.50 72Q200 74 207 67.50Q214 61 211 51Q191-12 146-17Q109-20 86 8Q69 28 60.50 61Q52 94 51 116Q50 138 50 176Q50 255 59 294Q74 363 119 374Q154 383 175 359Q196 335 200.50 304Q205 273 202 242Q202 237 200.50 233Q199 229 197.50 226.50Q196 224 192.50 222.50Q189 221 187 220Q185 219 179.50 218.50Q174 218 172.50 218Q171 218 164.50 218Q158 218 157 218L85 218Q81 136 90 88Q99 36 120 22Q140 9 155 22.50Q170 36 178 60M94 296Q87 273 86 252L135 252L169 252Q171 277 169 289Q164 340 137 342Q120 343 110 329.50Q100 316 94 296Z"  horiz-adv-x="262" vert-adv-y="1000"  />

      
      <glyph glyph-name="uni66" unicode="&#x66;" d="M243 698Q250 690 247 681Q244 672 235.50 669.50Q227 667 220 674Q206 690 186 691.50Q166 693 150 680Q126 660 124 601L203 601Q220 601 220 584Q220 567 203 567Q194 567 178 567Q162 567 148.50 567Q135 567 123 567Q123 541 123.50 487Q124 433 124 406Q126 136 126 0Q126-10 118-14.50Q110-19 101.50-14.50Q93-10 93 0Q92 69 92 206Q90 508 90 567L67 567Q57 567 52.50 575Q48 583 52.50 591.50Q57 600 67 600Q75 601 90 601Q92 676 128 706Q152 727 187 725Q222 723 243 698Z"  horiz-adv-x="298" vert-adv-y="1000"  />

      
      <glyph glyph-name="uni67" unicode="&#x67;" d="M209 224Q211 36 209-27Q207-124 167-148Q134-167 101-148Q76-135 65-100Q62-90 69-83.50Q76-77 85.50-79Q95-81 98-91Q103-108 115-117Q127-126 144-121Q168-114 174-50Q174-49 177 0Q159-18 132-18Q76-17 60 72Q42 173 59 278Q76 376 137 376Q158 376 174 363Q175 372 183.50 374.50Q192 377 199.50 372.50Q207 368 207 359Q209 269 209 224M137 16Q174 22 177 112L177 140Q176 160 176 200Q176 240 175 260L175 261Q175 311 159 331Q143 351 122 338Q110 330 99 301Q91 274 87 232Q81 134 94 75Q97 59 100.50 48Q104 37 113.50 25.50Q123 14 137 16Z"  horiz-adv-x="261" vert-adv-y="1000"  />

      
      <glyph glyph-name="uni68" unicode="&#x68;" d="M216 167L216 0Q216-16 199-16Q182-16 182 0L182 163Q182 228 179 260Q177 296 169 315Q166 321 159 331Q148 339 140 340Q123 343 111.50 334Q100 325 95 306Q90 287 88 274.50Q86 262 85 244Q85 81 86 0Q86-10 78-14.50Q70-19 61.50-14.50Q53-10 53 0Q52 40 52 120L52 252Q52 556 50 709Q50 725 67 725Q84 725 84 709Q84 632 85 594L85 353Q103 373 129 374Q200 380 211 276Q216 240 216 167Z"  horiz-adv-x="266" vert-adv-y="1000"  />

      
      <glyph glyph-name="uni69" unicode="&#x69;" d="M84 359Q84 299 85 179.50Q86 60 86 0Q86-10 78-14.50Q70-19 61.50-14.50Q53-10 53 0Q52 60 51.50 179.50Q51 299 50 359Q50 376 67 376Q84 376 84 359M84 426Q84 426 84 417.50Q84 409 67 409Q50 409 50 426Q50 443 67 443Q84 443 84 426Z"  horiz-adv-x="136" vert-adv-y="1000"  />

      
      <glyph glyph-name="uni6a" unicode="&#x6a;" d="M199 224Q201 58 198-25Q196-124 154-148Q120-165 91-149.50Q62-134 51-100Q48-90 55-83.50Q62-77 71.50-79Q81-81 84-91Q95-130 130-121Q158-114 164-47Q166-16 166 142Q166 178 165 250.50Q164 323 163 359Q163 369 171 373.50Q179 378 188 373.50Q197 369 197 359Q198 337 198 292Q198 247 199 224M179 409Q163 409 163 426Q163 443 179 443Q196 443 196 426Q196 409 179 409Z"  horiz-adv-x="250" vert-adv-y="1000"  />

      
      <glyph glyph-name="uni6b" unicode="&#x6b;" d="M224 8Q229-1 223.50-9Q218-17 209.50-17Q201-17 195-9Q178 22 146 82.50Q114 143 97 173Q91 163 87 159Q87 53 88 0Q88-16 71-16Q54-16 54 0Q54 24 53.50 72.50Q53 121 53 145Q52 241 51 432.50Q50 624 50 720Q50 736 67 736Q84 736 84 720Q84 622 85 573Q85 514 85.50 394Q86 274 86 214Q112 248 162 316Q168 324 178 323Q188 322 192 315Q196 308 191 299Q179 283 155 250.50Q131 218 119 202Q154 138 224 8Z"  horiz-adv-x="277" vert-adv-y="1000"  />

      
      <glyph glyph-name="uni6c" unicode="&#x6c;" d="M85 573L88 0Q88-16 71-16Q54-16 54 0Q54 24 53.50 72.50Q53 121 53 145Q50 719 50 720Q50 736 67 736Q84 736 84 720Q84 696 84.50 647Q85 598 85 573Z"  horiz-adv-x="138" vert-adv-y="1000"  />

      
      <glyph glyph-name="uni6d" unicode="&#x6d;" d="M372 174L372 0Q372-16 355-16Q338-16 338 0L338 169Q338 236 334 269Q330 304 319 323Q313 331 306 335Q285 345 266 337Q260 334 254.50 329.50Q249 325 245.50 318.50Q242 312 239 306.50Q236 301 234.50 291.50Q233 282 232 276.50Q231 271 230.50 260Q230 249 230 245Q230 241 230 229.50Q230 218 230 217L229 216Q230 201 230 172Q230 144 229.50 86Q229 28 229 0Q229-10 220.50-14.50Q212-19 204-14.50Q196-10 196 0L196 168Q196 232 193 264Q189 303 181 317Q171 336 151 340Q126 345 110.50 327Q95 309 90.50 288.50Q86 268 85 243L85 242Q86 202 86 121.50Q86 41 87 0Q87-16 70-16Q53-16 53 0Q50 358 50 359Q50 376 67 376Q84 376 84 359L84 349Q106 374 139 374Q190 375 212 327Q225 355 253 368Q275 378 299.50 373Q324 368 340 350Q359 328 365 287Q370 258 372 174Z"  horiz-adv-x="422" vert-adv-y="1000"  />

      
      <glyph glyph-name="uni6e" unicode="&#x6e;" d="M215 167Q216 167 216 84L215 0Q215-10 206.50-14.50Q198-19 190-14.50Q182-10 182 0L182 163Q182 212 179 260Q175 300 168 315Q163 326 158 331Q150 339 139 340Q123 343 111.50 333.50Q100 324 94.50 305.50Q89 287 87.50 273Q86 259 85 243Q84 243 84 242Q84 202 85 121.50Q86 41 86 0Q86-16 69-16Q52-16 52 0Q52 60 51 179.50Q50 299 50 359Q50 369 58 373.50Q66 378 74.50 373.50Q83 369 83 359Q84 357 84 353Q102 373 128 374Q197 380 211 276Q215 240 215 167Z"  horiz-adv-x="266" vert-adv-y="1000"  />

      
      <glyph glyph-name="uni6f" unicode="&#x6f;" d="M213 206Q215 140 208 88Q200 33 181 9Q158-21 125-16Q92-11 76 23Q62 51 54 114Q47 183 53 242Q63 369 128 375L134 375Q152 375 165.50 367Q179 359 187.50 342Q196 325 201 311.50Q206 298 208.50 272.50Q211 247 211.50 238Q212 229 213 206M164 48Q184 103 178 223Q176 274 165 308Q155 342 131 342Q109 341 97 301Q85 263 85 203Q83 149 89 104Q95 59 106 37Q118 13 136 16Q153 19 164 48Z"  horiz-adv-x="264" vert-adv-y="1000"  />

      
      <glyph glyph-name="uni70" unicode="&#x70;" d="M199 286Q218 181 200 80Q183-18 123-18Q102-18 84-4L84-138Q84-154 67-154Q50-154 50-138Q50 193 53 359Q54 375 70 375.50Q86 376 87 361Q104 376 127 376Q183 375 199 286M172 126Q179 216 166 283Q162 301 159 310.50Q156 320 146 332Q136 344 122 342Q103 338 94 308Q85 280 85 236Q84 190 84 98L84 97Q84 47 100 27Q117 7 137 20Q152 30 160 57Q168 84 172 126Z"  horiz-adv-x="259" vert-adv-y="1000"  />

      
      <glyph glyph-name="uni71" unicode="&#x71;" d="M206 359Q209 193 209-138Q209-154 192-154Q175-154 175-138L175-4Q153-24 121-16Q69-3 56 102Q42 219 63 304Q73 339 94 360.50Q115 382 147 374Q162 369 172 361Q172 370 180.50 374Q189 378 197.50 373.50Q206 369 206 359M175 97L175 98Q175 100 176 119Q177 138 177 159Q177 180 176.50 207.50Q176 235 173 259Q170 283 165 303.50Q160 324 150 334.50Q140 345 127 342Q100 336 90 266Q80 187 89 104Q99 23 130 16Q144 13 154 21Q164 29 168 45.50Q172 62 173 72.50Q174 83 175 97Z"  horiz-adv-x="259" vert-adv-y="1000"  />

      
      <glyph glyph-name="uni72" unicode="&#x72;" d="M187 333Q194 318 177.50 314Q161 310 155 324Q147 342 131.50 341.50Q116 341 106 326Q87 300 85 245L85 244Q86 203 86 122Q86 41 87 0Q87-16 70-16Q53-16 53 0Q52 60 52 179.50Q52 299 51 359Q51 369 59 373.50Q67 378 75.50 373.50Q84 369 84 359L84 354Q90 360 98 365Q124 382 149.50 371.50Q175 361 187 333Z"  horiz-adv-x="239" vert-adv-y="1000"  />

      
      <glyph glyph-name="uni73" unicode="&#x73;" d="M190 107Q198 70 188 34Q178-2 146-14Q111-27 82-5Q53 17 51 55Q51 65 59 69Q67 73 76 69Q85 65 85 55Q86 35 100 23Q114 11 133 17Q160 27 160 75Q160 99 149 126.50Q138 154 129.50 167.50Q121 181 100 212Q88 230 84 237Q80 244 70 262.50Q60 281 58 292.50Q56 304 56.50 319.50Q57 335 64 348Q83 379 115.50 374Q148 369 163 338Q168 329 162 321Q156 313 147.50 313Q139 313 134 321Q122 344 106 342Q90 339 90 318Q88 294 120 244Q122 241 132 226Q142 211 144.50 206.50Q147 202 155.50 189Q164 176 167 168.50Q170 161 175.50 149.50Q181 138 184.50 128Q188 118 190 107Z"  horiz-adv-x="244" vert-adv-y="1000"  />

      
      <glyph glyph-name="uni74" unicode="&#x74;" d="M222 59Q223 65 227.50 68Q232 71 237 71Q242 71 246.50 68.50Q251 66 253 61Q255 56 254 50Q246 11 213-8Q180-27 144-9Q103 12 96 93Q93 134 95 276Q95 470 96 567L67 567Q57 567 52.50 575Q48 583 52.50 591.50Q57 600 67 600Q76 601 96 601Q97 637 97 709Q97 725 114 725Q131 725 131 709Q130 673 130 601L203 601Q219 601 219 584Q219 567 203 567Q195 567 180 567Q165 567 153 567Q141 567 130 567Q130 555 129.50 531Q129 507 129 495Q129 465 127.50 316Q126 167 128 137Q128 54 149 29Q165 11 189 18Q214 23 222 59Z"  horiz-adv-x="305" vert-adv-y="1000"  />

      
      <glyph glyph-name="uni75" unicode="&#x75;" d="M201 359Q203 201 201 121Q199 36 175 6Q155-19 124-16Q93-13 76 14Q54 49 52 151Q49 262 53 359Q53 369 61.50 373.50Q70 378 78 373.50Q86 369 86 359Q83 257 86 153Q88 63 103 35Q117 9 138 18Q150 23 160 50Q168 80 168 165L168 359Q168 369 176 373.50Q184 378 192.50 373.50Q201 369 201 359Z"  horiz-adv-x="253" vert-adv-y="1000"  />

      
      <glyph glyph-name="uni76" unicode="&#x76;" d="M178 364Q179 374 188 376Q197 378 204.50 371.50Q212 365 211 355Q188 211 147-5Q145-17 131.50-17Q118-17 115-5Q74 211 51 355Q50 365 57.50 371.50Q65 378 74 376Q83 374 84 364Q102 249 131 91Q160 249 178 364Z"  horiz-adv-x="262" vert-adv-y="1000"  />

      
      <glyph glyph-name="uni77" unicode="&#x77;" d="M304 364Q306 380 322.50 375.50Q339 371 336 355Q309 182 273-5Q270-19 257-17Q242-17 241-5Q226 72 194 251Q176 150 147-5Q144-19 131-17Q116-17 115-5Q74 211 51 355Q50 365 57 371.50Q64 378 73 376Q82 374 84 364Q102 243 131 90Q135 111 152.50 207.50Q170 304 179 355Q181 367 195 367.50Q209 368 211 355Q225 267 257 91Q274 182 304 364Z"  horiz-adv-x="387" vert-adv-y="1000"  />

      
      <glyph glyph-name="uni78" unicode="&#x78;" d="M208 4Q211-6 204-12Q197-18 187.50-16Q178-14 175-5Q145 89 129 136Q121 112 105.50 65.50Q90 19 83-5Q80-14 70.50-16Q61-18 54.50-12Q48-6 51 4L111 190Q75 300 58 355Q55 364 61.50 370.50Q68 377 77.50 375Q87 373 90 364Q97 344 110 303.50Q123 263 129 243Q164 351 168 364Q171 373 181 375Q191 377 197.50 370.50Q204 364 201 355L147 190Q157 159 177.50 97Q198 35 208 4Z"  horiz-adv-x="259" vert-adv-y="1000"  />

      
      <glyph glyph-name="uni79" unicode="&#x79;" d="M201 120Q201 24 200-24Q200-25 199.50-36Q199-47 199-49.50Q199-52 198-62.50Q197-73 196-77Q195-81 193.50-90Q192-99 190.50-103.50Q189-108 186-115.50Q183-123 179.50-127.50Q176-132 171.50-137Q167-142 162-146Q150-156 131-156.50Q112-157 99-149Q74-136 63-100Q60-90 67-83.50Q74-77 83.50-79Q93-81 96-91Q101-108 112.50-117.50Q124-127 140-120Q162-111 165-45Q167-17 167-1L165-3Q149-18 125.50-17Q102-16 86 0Q61 26 55 88Q51 128 51 209Q50 259 52 359Q52 369 61 373.50Q70 378 78 373.50Q86 369 86 359Q83 288 85 200Q85 112 90 79Q92 63 95.50 50.50Q99 38 109.50 25Q120 12 135 17Q167 29 167 113L167 144Q167 252 164 359Q164 376 181 376Q198 376 198 359Q198 337 199 292Q200 247 200 224Q200 207 200.50 172.50Q201 138 201 121L201 120Z"  horiz-adv-x="251" vert-adv-y="1000"  />

      
      <glyph glyph-name="uni7a" unicode="&#x7a;" d="M176 17Q192 17 192 0Q192-17 176-17L67-17Q60-17 54-10.50Q48-4 51 4Q70 71 107.50 196Q145 321 151 342L78 342Q62 342 62 358.50Q62 375 78 376L173 376Q180 376 186.50 369.50Q193 363 190 355Q179 317 143.50 199Q108 81 90 16Q105 16 133.50 16.50Q162 17 176 17Z"  horiz-adv-x="243" vert-adv-y="1000"  />

      
      <glyph glyph-name="uni7e" unicode="&#x7e;" d="M264 390Q264 406 281 406Q298 406 298 390Q298 341 269 320Q232 295 189 327Q183 332 170.50 343Q158 354 147.50 361Q137 368 125 370Q88 376 84 330Q83 320 74.50 315.50Q66 311 58 315.50Q50 320 51 330Q55 377 83 395Q111 414 150 397Q163 391 183.50 373.50Q204 356 215 350Q240 335 254 352Q264 366 264 390Z"  horiz-adv-x="348" vert-adv-y="1000"  />

      
      <glyph glyph-name="unia5" unicode="&#xa5;" d="M228 729Q234 737 242.50 736.50Q251 736 256.50 728Q262 720 257 712Q243 689 215 646.50Q187 604 177 588Q187 588 207.50 587.50Q228 587 238 587Q254 587 254 570Q254 553 238 553Q216 554 172 554L172 503L238 503Q254 503 254 486Q254 469 238 469Q227 469 205 469.50Q183 470 172 470Q174 156 175 0Q175-10 167-14.50Q159-19 150.50-14.50Q142-10 142 0Q141 156 139 470L75 470Q65 470 61 478Q57 486 61 494.50Q65 503 75 503Q96 504 139 504Q138 521 138 554L75 554Q59 554 59 570.50Q59 587 75 588L132 588Q128 594 98 640.50Q68 687 53 712Q47 720 52.50 728Q58 736 66.50 736.50Q75 737 82 729Q86 722 155 616Q217 712 228 729Z"  horiz-adv-x="310" vert-adv-y="1000"  />

      
      <glyph glyph-name="uni0401" unicode="&#x0401;" d="M64 785.50Q64 785.50 64 793.75Q64 802 80 802Q96 802 96 785.50Q96 769 80 769Q64 769 64 785.50M144 785.50Q144 785.50 144 793.75Q144 802 161 802Q178 802 178 785.50Q178 769 161 769Q144 769 144 785.50M174 17Q184 17 188.50 8.50Q193 0 188.50-8Q184-16 174-16L71-16Q65-17 59.50-12Q54-7 54 0Q54 120 52 360Q50 600 50 720Q50 737 67 737Q120 739 174 737Q184 737 188.50 728.50Q193 720 188.50 712Q184 704 174 704L83 704Q84 650 85 541.50Q86 433 86 379L165 379Q182 379 182 362Q182 345 165 345Q139 346 86 346Q86 237 88 17Q131 18 174 17Z"  horiz-adv-x="241" vert-adv-y="1000"  />

      
      <glyph glyph-name="uni0410" unicode="&#x0410;" d="M229 0Q230-10 222-14Q214-18 205-14Q196-10 195 0Q192 44 184 119Q155 120 96 120Q88 40 85 0Q84-10 75-14Q66-18 58-14Q50-10 51 0Q109 600 121 720Q123 735 140 736Q157 737 159 720Q172 600 229 0M99 153Q111 153 124.50 153Q138 153 155 153Q172 153 181 153Q174 224 160.50 365Q147 506 140 576Q133 506 119.50 364.50Q106 223 99 153Z"  horiz-adv-x="280" vert-adv-y="1000"  />

      
      <glyph glyph-name="uni0411" unicode="&#x0411;" d="M215 89Q224 26 176-4Q135-29 67-16Q54-13 54 0Q54 120 52 360Q50 600 50 720Q50 737 67 737Q121 738 175 737Q185 737 189.50 728.50Q194 720 189.50 712Q185 704 175 704L84 704Q84 614 85 433Q86 252 87 162Q202 170 215 89M157 24Q190 44 181 88Q169 136 87 129Q87 110 87.50 72Q88 34 88 14Q131 8 157 24Z"  horiz-adv-x="267" vert-adv-y="1000"  />

      
      <glyph glyph-name="uni0412" unicode="&#x0412;" d="M215 89Q224 26 176-4Q135-29 67-16Q54-13 54 0Q54 120 52 360Q50 600 50 720Q50 737 69 737Q144 741 177 724Q222 699 215 639Q210 593 172 574.50Q134 556 84 559Q84 493 85 360.50Q86 228 87 162Q202 170 215 89M152 698Q128 706 84 704L84 592Q176 585 182 643Q186 687 152 698M157 24Q190 44 181 88Q169 136 87 129Q87 110 87.50 72Q88 34 88 14Q131 8 157 24Z"  horiz-adv-x="267" vert-adv-y="1000"  />

      
      <glyph glyph-name="uni0413" unicode="&#x0413;" d="M176 737Q186 737 190.50 728.50Q195 720 190.50 712Q186 704 176 704L84 704Q85 586 86.50 352Q88 118 89 0Q89-16 72-16Q55-16 55 0Q54 240 50 720Q50 726 55 731.50Q60 737 67 737Q122 738 176 737Z"  horiz-adv-x="243" vert-adv-y="1000"  />

      
      <glyph glyph-name="uni0414" unicode="&#x0414;" d="M355 0L355-43Q355-59 338-59Q321-59 321-43Q323-29 321-17Q242-18 84-16L84-43Q83-59 66.50-59Q50-59 50-43Q51-21 50 0Q50 17 67 17L101 17L103 17Q115 30 124 49Q133 68 139 97Q145 126 149 145Q153 164 155 204Q157 244 158 257Q159 270 160 314.50Q161 359 161 361Q162 401 162 720Q162 737 179 737Q227 738 273 737Q280 737 285 732Q290 727 290 720Q290 603 292 368.50Q294 134 294 17L338 17Q355 17 355 0M147 17L261 17Q260 131 258.50 360Q257 589 256 704L196 704L196 504Q196 273 182 159Q175 88 159 44L147 17Z"  horiz-adv-x="405" vert-adv-y="1000"  />

      
      <glyph glyph-name="uni0415" unicode="&#x0415;" d="M174 17Q184 17 188.50 8.50Q193 0 188.50-8Q184-16 174-16L71-16Q65-17 59.50-12Q54-7 54 0Q54 120 52 360Q50 600 50 720Q50 737 67 737Q120 739 174 737Q184 737 188.50 728.50Q193 720 188.50 712Q184 704 174 704L83 704Q84 650 85 541.50Q86 433 86 379L165 379Q182 379 182 362Q182 345 165 345Q139 346 86 346Q86 237 88 17Q131 18 174 17Z"  horiz-adv-x="241" vert-adv-y="1000"  />

      
      <glyph glyph-name="uni0416" unicode="&#x0416;" d="M320 261Q342 171 350 0Q350-10 342-14.50Q334-19 325-14.50Q316-10 316 0Q310 151 291 240L288 250Q286 261 285.50 264Q285 267 282 277.50Q279 288 277.50 292.50Q276 297 272.50 305.50Q269 314 266 318.50Q263 323 259 329Q255 335 250.50 338Q246 341 241 343L233 343Q233 230 235 2Q235-14 218-14Q201-14 201 2Q200 59 200 172.50Q200 286 199 343L189 343Q159 333 140 240Q122 157 114 0Q114-10 105-14.50Q96-19 88-14.50Q80-10 80 0Q88 166 110 261Q126 336 156 362Q130 388 114 466Q100 542 89 721Q89 731 97 735Q105 739 114 735Q123 731 123 721Q131 565 144 488Q154 434 164 411Q179 382 190 377L199 377Q197 607 197 722Q197 732 205 736.50Q213 741 221.50 736.50Q230 732 230 722Q232 492 232 377L241 377Q252 383 267 412Q278 439 286 488Q299 565 307 721Q308 731 316.50 735Q325 739 333 735Q341 731 341 721Q330 536 316 466Q303 391 275 362Q304 336 320 261Z"  horiz-adv-x="421" vert-adv-y="1000"  />

      
      <glyph glyph-name="uni0417" unicode="&#x0417;" d="M228 321Q230 164 217 88Q198-15 139-17Q111-18 92-3.50Q73 11 65 37Q57 63 54 86.50Q51 110 51 135Q51 145 59.50 149.50Q68 154 76 149.50Q84 145 84 135Q84 58 107 30Q116 18 130.50 16.50Q145 15 157 25Q171 38 180 76Q187 103 191 160Q198 254 193 365Q186 474 166 516Q142 563 98 567Q86 561 79.50 574Q73 587 81 596Q131 662 154 696L155 698Q156 700 157 700L151 700L123 700L68 700Q52 700 52 717Q52 734 68 734L144 734Q156 734 161.50 733.50Q167 733 176 731Q185 729 189 722.50Q193 716 193 706Q193 692 179 674Q155 640 153 636Q148 630 138 616.50Q128 603 123 596Q177 580 202 514Q226 451 228 321Z"  horiz-adv-x="279" vert-adv-y="1000"  />

      
      <glyph glyph-name="uni0418" unicode="&#x0418;" d="M192 720Q193 736 209.50 736Q226 736 226 720Q226 600 224 360Q222 120 222 0Q221-16 204.50-16Q188-16 188 0Q190 312 191 467Q133 277 85 132L85 131Q85 109 84.50 65.50Q84 22 84 0Q84-16 67-16Q50-16 50 0Q54 480 55 720Q55 736 72 736Q89 736 89 720L86 243Q158 473 192 589L192 720Z"  horiz-adv-x="276" vert-adv-y="1000"  />

      
      <glyph glyph-name="uni0419" unicode="&#x0419;" d="M171 791Q181 791 185.50 783Q190 775 185.50 766Q181 757 171 757L116 757Q100 758 100 774.50Q100 791 116 791Q144 789 171 791M192 720Q193 736 209.50 736Q226 736 226 720Q226 600 224 360Q222 120 222 0Q221-16 204.50-16Q188-16 188 0Q190 312 191 467Q133 277 85 132L85 131Q85 109 84.50 65.50Q84 22 84 0Q84-16 67-16Q50-16 50 0Q54 480 55 720Q55 736 72 736Q89 736 89 720L86 243Q158 473 192 589L192 720Z"  horiz-adv-x="276" vert-adv-y="1000"  />

      
      <glyph glyph-name="uni041A" unicode="&#x041A;" d="M197 720Q194 664 165 620.50Q136 577 85 570Q85 431 87 151Q145 144 172 102Q193 69 197 0Q197-10 189-14Q181-18 172-14Q163-10 163 0Q161 51 146 79Q130 112 87 117Q88 78 88 0Q88-16 71.50-16Q55-16 55 0Q51 480 50 720Q50 736 67 736Q84 736 84 720L84 604Q121 611 141 644.50Q161 678 163 720Q163 730 172 734.50Q181 739 189 734.50Q197 730 197 720Z"  horiz-adv-x="248" vert-adv-y="1000"  />

      
      <glyph glyph-name="uni041B" unicode="&#x041B;" d="M324 722Q325 602 326.50 362Q328 122 329 2Q329-14 312-14Q295-14 295 2Q295 119 293.50 353Q292 587 291 705L226 705Q226 703 229 550Q231 283 215 162Q208 103 195 60Q179 13 157-4Q128-27 90-10Q51 7 51 55Q51 65 59 69.50Q67 74 75.50 69.50Q84 65 84 55Q85 36 98.50 24Q112 12 130 19Q148 26 165 78Q182 137 190 249Q194 308 196 426Q196 475 194 573.50Q192 672 192 722Q192 730 199 735Q202 738 209 738Q259 740 307 738Q315 738 319 734Q324 729 324 722Z"  horiz-adv-x="379" vert-adv-y="1000"  />

      
      <glyph glyph-name="uni041C" unicode="&#x041C;" d="M275 727Q280 740 293.50 737Q307 734 307 720Q306 600 305 360Q304 120 303 0Q302-16 285.50-16Q269-16 269 0Q270 186 272 556Q268 534 240.50 374.50Q213 215 195 132Q193 120 179 119.50Q165 119 162 132Q144 215 116.50 374.50Q89 534 85 556Q87 186 88 0Q88-16 71.50-16Q55-16 54 0Q54 120 52 360Q50 600 50 720Q50 734 65 735.50Q80 737 83 724Q107 627 138 444Q169 261 178 218Q189 272 219.50 450Q250 628 274 724L275 727Z"  horiz-adv-x="357" vert-adv-y="1000"  />

      
      <glyph glyph-name="uni041D" unicode="&#x041D;" d="M230 720Q230 600 232 360Q234 120 234 0Q234-16 217.50-16Q201-16 200 0Q200 116 198 344Q161 345 86 345Q86 230 88 0Q88-16 71-16Q54-16 54 0Q54 120 52 360Q50 600 50 720Q50 730 58 734.50Q66 739 74.50 734.50Q83 730 83 720Q84 663 85 549.50Q86 436 86 379Q161 379 198 378Q198 435 197 549Q196 663 196 720Q196 736 212.50 736Q229 736 230 720Z"  horiz-adv-x="284" vert-adv-y="1000"  />

      
      <glyph glyph-name="uni041E" unicode="&#x041E;" d="M232 623Q239 548 237 337Q237 322 237 295Q237 268 237 246Q237 224 237 204Q235 96 224 58L224 57Q203-7 156-15Q117-23 91 10Q76 29 67.50 59Q59 89 58 106.50Q57 124 55 162Q50 294 50 399Q50 461 53 524Q55 609 58 633Q64 679 87.50 710Q111 741 153 737Q223 729 232 623M138 18Q174 12 191 66Q203 105 203 213Q204 234 204 276.50Q204 319 204 341Q204 532 200 602Q194 694 155 703Q136 707 123 698.50Q110 690 103.50 672.50Q97 655 94 640Q91 625 90 608Q78 435 89 170Q91 88 106 50Q119 20 138 18Z"  horiz-adv-x="289" vert-adv-y="1000"  />

      
      <glyph glyph-name="uni041F" unicode="&#x041F;" d="M230 712Q231 593 232.50 356Q234 119 235 0Q235-16 218-16Q201-16 201 0Q200 117 199 352Q198 587 197 704L84 704Q85 586 86.50 352Q88 118 89 0Q89-16 72-16Q55-16 55 0Q54 120 52.50 360Q51 600 50 720Q50 737 71 737Q143 738 216 737Q230 737 230 712Z"  horiz-adv-x="285" vert-adv-y="1000"  />

      
      <glyph glyph-name="uni0420" unicode="&#x0420;" d="M178 724Q222 699 215 639Q210 593 172.50 574.50Q135 556 85 559Q87 187 88 0Q88-16 71.50-16Q55-16 54 0Q54 120 52 360Q50 600 50 720Q50 737 69 737Q144 741 178 724M182 643Q186 687 152 698Q128 706 84 704L84 592Q176 585 182 643Z"  horiz-adv-x="266" vert-adv-y="1000"  />

      
      <glyph glyph-name="uni0421" unicode="&#x0421;" d="M215 134Q215 144 223.50 148.50Q232 153 240 148.50Q248 144 248 134Q248 33 200-2Q177-19 147-16.50Q117-14 97 6Q88 15 81 26Q74 37 70 52Q66 67 63 77Q60 87 58.50 106Q57 125 56.50 132Q56 139 55.50 160.50Q55 182 55 186Q47 362 53 525Q53 533 53.50 559.50Q54 586 55 601.50Q56 617 60 642Q64 667 71 682Q78 697 91.50 711.50Q105 726 124 732Q149 741 173.50 732.50Q198 724 211 701Q230 665 228 588Q228 578 219 573.50Q210 569 202 573.50Q194 578 194 588Q196 665 178 690Q163 707 140.50 701.50Q118 696 107 677Q94 654 90 597Q86 500 85 455Q83 344 88 180Q88 177 89 156.50Q90 136 90 129Q90 122 92 104.50Q94 87 97 77.50Q100 68 105.50 55.50Q111 43 118 34Q129 19 148.50 17Q168 15 183 27Q213 51 215 134Z"  horiz-adv-x="298" vert-adv-y="1000"  />

      
      <glyph glyph-name="uni0422" unicode="&#x0422;" d="M226 737Q236 737 240 728.50Q244 720 240 712Q236 704 226 704L165 704Q166 587 167.50 352Q169 117 170 0Q170-16 153-16Q136-16 136 0Q134 234 132 704L67 704Q57 704 52.50 712Q48 720 52.50 728.50Q57 737 67 737Q146 738 226 737Z"  horiz-adv-x="292" vert-adv-y="1000"  />

      
      <glyph glyph-name="uni0423" unicode="&#x0423;" d="M207 720Q207 730 216 734.50Q225 739 233 734.50Q241 730 240 720Q228 572 223 498Q206 270 188 108Q188 106 186 88Q184 70 183 63Q182 56 178.50 40Q175 24 171 15.50Q167 7 159-1.50Q151-10 141-14Q108-26 85.50-2Q63 22 65 55Q65 65 74 69.50Q83 74 91 69.50Q99 65 99 55Q98 40 105 26Q112 12 127 17Q142 22 149 67Q156 100 159 143Q139 152 125 198Q99 273 78 455Q73 494 68.50 538.50Q64 583 59 636.50Q54 690 51 720Q50 730 58 734.50Q66 739 74.50 734.50Q83 730 84 720Q85 713 96 596Q118 397 131 320Q142 253 155 212Q156 209 158.50 201.50Q161 194 163 190Q164 196 165 208.50Q166 221 166 227Q166 232 181 394Q197 612 207 720Z"  horiz-adv-x="291" vert-adv-y="1000"  />

      
      <glyph glyph-name="uni0424" unicode="&#x0424;" d="M238 732Q275 722 292 690.50Q309 659 299 621Q284 560 197 550Q199 184 200 0Q200-16 183.50-16Q167-16 167 0Q165 183 163 549Q93 553 64 598Q43 630 53.50 669.50Q64 709 99 725Q127 737 162 739L162 756Q162 772 179 772Q196 772 196 756L196 739Q221 737 238 732M105 602Q128 585 163 583Q163 664 162 705Q124 703 105 689Q84 674 84.50 645.50Q85 617 105 602M269 645Q270 672 253 686.50Q236 701 207 704Q200 704 196 705Q196 624 197 584Q268 592 269 645Z"  horiz-adv-x="353" vert-adv-y="1000"  />

      
      <glyph glyph-name="uni0425" unicode="&#x0425;" d="M223 5Q225-5 217.50-11.50Q210-18 201.50-16Q193-14 191-4Q169 117 154 196Q148 232 137 288Q128 240 110 142Q92 44 83-4Q81-14 72.50-16Q64-18 56.50-11.50Q49-5 51 5L87 203L120 380L57 716Q55 726 62.50 732.50Q70 739 79 737Q88 735 90 725Q112 603 124 542Q126 532 130.50 508Q135 484 137 471Q145 513 160.50 597.50Q176 682 184 725Q186 735 195 737Q204 739 211.50 732.50Q219 726 217 716Q205 655 183 533Q178 508 168.50 457Q159 406 154 380L223 5Z"  horiz-adv-x="274" vert-adv-y="1000"  />

      
      <glyph glyph-name="uni0426" unicode="&#x0426;" d="M263 17Q270 17 275 12.50Q280 8 279 0Q277-36 274-58Q272-74 257-74Q250-74 244.50-69.50Q239-65 240-58Q240-53 241-37.50Q242-22 243-17Q215-17 157.50-16.50Q100-16 71-16Q64-16 59-11Q55-7 55 0Q54 120 52.50 360Q51 600 50 720Q50 736 67 736Q84 736 84 720Q84 603 85.50 369Q87 135 88 17L183 17Q182 134 181 368.50Q180 603 179 720Q179 730 187 734.50Q195 739 203.50 734.50Q212 730 212 720Q213 603 214.50 368.50Q216 134 217 17L262 17L263 17Z"  horiz-adv-x="330" vert-adv-y="1000"  />

      
      <glyph glyph-name="uni0427" unicode="&#x0427;" d="M220 720Q221 600 222.50 360Q224 120 225 0Q225-16 208-16Q191-16 191 0Q189 384 187 577Q147 559 107 577Q70 594 60.50 642Q51 690 63 726Q64 732 68.50 735Q73 738 78 738Q83 738 87.50 735.50Q92 733 94.50 728Q97 723 96 717Q91 696 90 675Q89 654 97.50 632.50Q106 611 126 605Q158 594 186 615L187 616Q187 686 186 720Q186 736 203 736Q220 736 220 720Z"  horiz-adv-x="275" vert-adv-y="1000"  />

      
      <glyph glyph-name="uni0428" unicode="&#x0428;" d="M351 0Q351-8 344-13Q341-16 334-16L71-16Q62-16 59-11Q54-6 54 0Q54 120 52 360Q50 600 50 720Q50 730 58 734.50Q66 739 74.50 734.50Q83 730 83 720Q84 603 85.50 368.50Q87 134 88 17L187 17Q183 484 182 720Q182 730 190 734.50Q198 739 206.50 734.50Q215 730 215 720Q219 253 220 17L317 17Q317 134 315.50 368.50Q314 603 313 720Q313 730 321.50 734.50Q330 739 338 734.50Q346 730 346 720Q347 600 348.50 360Q350 120 351 0Z"  horiz-adv-x="401" vert-adv-y="1000"  />

      
      <glyph glyph-name="uni0429" unicode="&#x0429;" d="M409 11Q413 5 412 0Q412-8 410-29Q408-50 407-58Q405-74 390-74Q384-74 378-69Q372-64 373-58Q376-20 377-17Q319-18 212-17Q105-16 71-16Q64-16 59-11Q54-6 54 0Q54 120 52 360Q50 600 50 720Q50 736 66.50 736Q83 736 84 720Q84 603 85.50 369Q87 135 88 17L187 17Q183 484 182 720Q182 736 198.50 736Q215 736 216 720Q217 484 221 17Q269 16 317 17Q317 134 315.50 368.50Q314 603 313 720Q313 736 329.50 736Q346 736 347 720Q348 603 349 368.50Q350 134 351 17L396 17Q404 17 409 11Z"  horiz-adv-x="463" vert-adv-y="1000"  />

      
      <glyph glyph-name="uni042A" unicode="&#x042A;" d="M297 89Q307 26 259-4Q218-29 149-16Q138-12 137 0Q137 117 135.50 352Q134 587 133 704L67 704Q57 704 52.50 712Q48 720 52.50 728.50Q57 737 67 737Q108 739 149 737Q166 737 166 720Q166 627 168 441Q170 255 170 162Q201 164 226 159.50Q251 155 272 137Q293 119 297 89M240 24Q274 45 263 88Q252 136 170 129Q170 53 171 14Q214 8 240 24Z"  horiz-adv-x="349" vert-adv-y="1000"  />

      
      <glyph glyph-name="uni042B" unicode="&#x042B;" d="M286 720Q286 600 288 360Q290 120 290 0Q290-10 282-14Q274-18 265.50-14Q257-10 257 0Q256 120 254.50 360Q253 600 252 720Q252 736 269 736Q286 736 286 720M88 162Q202 170 215 89Q225 26 177-4Q135-29 67-16Q58-13 55 0Q54 120 52.50 360Q51 600 50 720Q50 736 67 736Q84 736 84 720Q86 348 88 162M158 24Q192 45 181 88Q170 136 88 129L88 14Q132 8 158 24Z"  horiz-adv-x="341" vert-adv-y="1000"  />

      
      <glyph glyph-name="uni042C" unicode="&#x042C;" d="M215 89Q225 26 177-4Q135-29 67-16Q58-13 55 0Q54 120 52.50 360Q51 600 50 720Q50 736 67 736Q84 736 84 720Q86 348 88 162Q202 170 215 89M158 24Q192 45 181 88Q170 136 88 129L88 14Q132 8 158 24Z"  horiz-adv-x="267" vert-adv-y="1000"  />

      
      <glyph glyph-name="uni042D" unicode="&#x042D;" d="M221 474Q226 309 217 157Q217 155 216 140.50Q215 126 215 121Q215 116 213.50 101.50Q212 87 210.50 80.50Q209 74 206.50 61Q204 48 201 41Q198 34 193 24Q188 14 182.50 8Q177 2 169.50-4Q162-10 153-13Q130-21 107-11.50Q84-2 71 19Q50 57 50 135Q50 151 67 151Q84 151 84 135Q84 55 105 29Q119 14 135 17.50Q151 21 161 38Q175 62 181 116Q184 148 186 212Q189 278 189 344Q158 345 97 345Q87 345 82.50 353Q78 361 82.50 369.50Q87 378 97 378Q97 379 143 378L189 378Q189 413 187 483Q186 526 182 612Q177 672 162 691Q148 706 129.50 703.50Q111 701 101 683Q85 654 87 588Q87 578 79 574Q71 570 62 574Q53 578 53 588Q51 676 81 713Q99 735 129.50 737Q160 739 181 719Q208 694 214 626Q219 576 221 474Z"  horiz-adv-x="273" vert-adv-y="1000"  />

      
      <glyph glyph-name="uni042E" unicode="&#x042E;" d="M343 623Q350 539 348 337Q348 315 348 270.50Q348 226 347 204Q345 92 335 58Q335 57 334 57Q315-7 267-15Q227-23 201 10Q186 29 178 59Q170 89 169 106.50Q168 124 166 162Q163 222 161 344Q136 345 86 345Q88 115 88 0Q88-16 71.50-16Q55-16 55 0Q54 120 52.50 360Q51 600 50 720Q50 736 67 736Q84 736 84 720Q84 607 86 379Q136 379 161 378L161 399Q161 440 163 524Q165 606 169 633Q175 679 198 710Q221 741 264 737Q332 730 343 623M248 18Q285 12 302 66Q312 100 314 213L314 341Q316 500 310 602Q307 693 265 703Q247 707 233.50 698.50Q220 690 213.50 672.50Q207 655 204 640.50Q201 626 200 608Q188 435 199 170Q203 82 216 50Q229 20 248 18Z"  horiz-adv-x="399" vert-adv-y="1000"  />

      
      <glyph glyph-name="uni042F" unicode="&#x042F;" d="M303 720Q304 600 305 360Q306 120 307 0Q307-16 290.50-16Q274-16 274 0Q272 187 270 559Q245 559 232 561Q213 537 205 483Q200 453 198 392Q198 359 198 293Q198 227 197 194Q197 102 187 58Q175 5 142-10Q113-23 87-11Q52 5 50 55Q50 72 67 72Q84 72 84 55Q85 36 95.50 24.50Q106 13 124 19Q135 22 144 37Q158 62 162 127Q164 162 164 286Q164 420 167 453Q175 532 198 569Q147 590 140 639Q133 697 176 721Q211 741 286 737Q293 737 298 732.50Q303 728 303 720M174 643Q178 613 206.50 601Q235 589 270 592Q270 611 269.50 648.50Q269 686 269 704Q249 704 233.50 702.50Q218 701 202 695.50Q186 690 178.50 676.50Q171 663 174 643Z"  horiz-adv-x="357" vert-adv-y="1000"  />

      
      <glyph glyph-name="uni0430" unicode="&#x0430;" d="M235 5Q238-5 231.50-11.50Q225-18 215.50-16Q206-14 203-4Q199 10 198 17Q186 2 173-6Q149-20 119-14Q89-8 73 14Q53 41 58.50 77.50Q64 114 90 134Q134 168 187 138Q186 161 186 208Q186 214 186.50 235.50Q187 257 186.50 267.50Q186 278 183.50 295Q181 312 176 324Q167 342 153 343Q126 346 120 312Q119 306 114.50 303Q110 300 105 300Q100 300 95.50 302.50Q91 305 88.50 310Q86 315 87 321Q93 351 115.50 367Q138 383 168 375Q205 363 215 310Q220 284 220 197Q220 192 220 166Q220 140 220 131.50Q220 123 221 101Q222 79 223.50 66.50Q225 54 228 36.50Q231 19 235 5M164 29Q184 48 186 97Q168 114 147.50 117Q127 120 107 104Q92 89 91 65Q90 41 106 27Q119 17 135.50 17.50Q152 18 164 29Z"  horiz-adv-x="287" vert-adv-y="1000"  />

      
      <glyph glyph-name="uni0431" unicode="&#x0431;" d="M204 86Q214 26 167-5Q130-29 68-16Q56-13 55 0Q54 60 52.50 179.50Q51 299 51 359Q50 365 55 370.50Q60 376 67 376Q84 376 113 376.50Q142 377 158 377Q174 376 174 359.50Q174 343 158 343Q112 343 84 342Q84 311 85 248.50Q86 186 87 155Q130 158 164 142Q198 126 204 86M149 23Q181 44 170 85Q165 109 140.50 117Q116 125 87 121Q88 103 88.50 67.50Q89 32 89 14Q125 9 149 23Z"  horiz-adv-x="256" vert-adv-y="1000"  />

      
      <glyph glyph-name="uni0432" unicode="&#x0432;" d="M216 102Q223 32 175-2Q135-30 72-16Q55-16 55 0Q54 121 50 358Q50 371 67 375Q128 381 154 356Q185 327 181 270Q177 221 150 194Q154 193 162 189Q211 163 216 102M125 336Q111 345 84 343Q86 249 86 203Q114 202 130 224Q146 246 148 276Q148 321 125 336M155 25Q189 48 183 102Q179 138 151.50 155Q124 172 87 169Q87 117 89 15Q130 8 155 25Z"  horiz-adv-x="267" vert-adv-y="1000"  />

      
      <glyph glyph-name="uni0433" unicode="&#x0433;" d="M156 377Q172 376 172 359.50Q172 343 156 343Q111 343 84 342Q84 285 86 171Q88 57 88 0Q88-16 71.50-16Q55-16 54 0Q54 60 52 179.50Q50 299 50 359Q50 366 55 371Q60 376 67 376Q84 376 112 376.50Q140 377 156 377Z"  horiz-adv-x="233" vert-adv-y="1000"  />

      
      <glyph glyph-name="uni0434" unicode="&#x0434;" d="M319 0Q320-9 320-28Q320-45 303-45Q296-45 291-40Q286-35 286-28L286-17L84-17L84-28Q82-45 67-45Q60-45 55-40Q50-35 50-28L50 0Q50 5 53 10Q58 17 67 17L94 17Q112 25 124 60Q135 96 138 143Q142 191 142 359Q142 376 159 376L243 376Q249 376 254.50 371Q260 366 260 359Q262 131 264 17L303 17Q319 17 319 0M170 120Q161 48 141 17L230 17Q230 71 228.50 179.50Q227 288 226 343L176 343Q176 176 170 120Z"  horiz-adv-x="370" vert-adv-y="1000"  />

      
      <glyph glyph-name="uni0435" unicode="&#x0435;" d="M178 60Q181 70 190.50 72Q200 74 207 67.50Q214 61 211 51Q191-12 146-17Q109-20 86 8Q69 28 60.50 61Q52 94 51 116Q50 138 50 176Q50 255 59 294Q74 363 119 374Q154 383 175 359Q196 335 200.50 304Q205 273 202 242Q202 237 200.50 233Q199 229 197.50 226.50Q196 224 192.50 222.50Q189 221 187 220Q185 219 179.50 218.50Q174 218 172.50 218Q171 218 164.50 218Q158 218 157 218L85 218Q81 136 90 88Q99 36 120 22Q140 9 155 22.50Q170 36 178 60M94 296Q87 273 86 252L135 252L169 252Q171 277 169 289Q164 340 137 342Q120 343 110 329.50Q100 316 94 296Z"  horiz-adv-x="262" vert-adv-y="1000"  />

      
      <glyph glyph-name="uni0436" unicode="&#x0436;" d="M252 205Q343 20 348 11Q353 2 347.50-6Q342-14 333.50-14Q325-14 319-6Q303 24 275 83.50Q247 143 231 173Q226 165 220 158Q222 52 222 0Q222-16 205.50-16Q189-16 188 0Q188 27 187.50 80.50Q187 134 187 161Q186 163 183.50 167Q181 171 179 173Q164 146 151 119Q138 92 121.50 54Q105 16 93-8Q88-16 79.50-16Q71-16 65.50-8Q60 0 64 9Q73 28 103.50 94.50Q134 161 157 205Q152 212 75 351Q70 360 75.50 368Q81 376 89.50 376Q98 376 104 368Q114 350 141 300.50Q168 251 186 223Q186 246 185.50 291.50Q185 337 185 360Q185 376 201.50 376Q218 376 219 360Q219 265 220 218Q239 247 267 298Q295 349 308 370Q317 384 331 376Q345 368 337 353Q286 261 252 205Z"  horiz-adv-x="409" vert-adv-y="1000"  />

      
      <glyph glyph-name="uni0437" unicode="&#x0437;" d="M200 213Q228 152 207 72Q187-8 133-16Q104-20 80.50 0.50Q57 21 51 51Q50 57 52 62Q54 67 58.50 69.50Q63 72 68 72Q73 72 77.50 69Q82 66 83 60Q87 40 102.50 26Q118 12 136 20Q167 33 177 92Q180 119 180 153.50Q180 188 160.50 213Q141 238 107 228Q96 226 88 235Q80 244 87 253Q124 302 148 343L72 343Q56 343 56 360Q56 377 72 377L176 377Q186 377 190.50 368.50Q195 360 191 351Q171 310 137 264Q178 256 200 213Z"  horiz-adv-x="266" vert-adv-y="1000"  />

      
      <glyph glyph-name="uni0438" unicode="&#x0438;" d="M182 369Q186 375 193.50 376Q201 377 207 372.50Q213 368 213 360Q211 240 209 0Q208-16 191.50-16Q175-16 175 0Q176 43 177 128.50Q178 214 178 257Q162 213 130.50 126.50Q99 40 84-4Q80-16 65-15.50Q50-15 50 0Q52 240 54 360Q54 376 71 376Q88 376 88 360Q88 316 87 228.50Q86 141 85 97Q154 288 179 364Q181 368 182 369Z"  horiz-adv-x="263" vert-adv-y="1000"  />

      
      <glyph glyph-name="uni0439" unicode="&#x0439;" d="M164 444Q174 444 178.50 436Q183 428 178.50 419Q174 410 164 410L111 410Q95 411 95 427.50Q95 444 111 444Q138 442 164 444M182 369Q186 375 193.50 376Q201 377 207 372.50Q213 368 213 360Q211 240 209 0Q208-16 191.50-16Q175-16 175 0Q176 43 177 128.50Q178 214 178 257Q162 213 130.50 126.50Q99 40 84-4Q80-16 65-15.50Q50-15 50 0Q52 240 54 360Q54 376 71 376Q88 376 88 360Q88 316 87 228.50Q86 141 85 97Q154 288 179 364Q181 368 182 369Z"  horiz-adv-x="263" vert-adv-y="1000"  />

      
      <glyph glyph-name="uni043A" unicode="&#x043A;" d="M236 9Q241 0 235.50-8Q230-16 221.50-16Q213-16 207-8Q157 76 97 174Q95 172 91 166.50Q87 161 85 158Q87 52 87 0Q87-16 70.50-16Q54-16 53 0L50 360Q50 376 66.50 376Q83 376 84 360Q84 265 85 218Q134 292 181 368Q187 377 196.50 376.50Q206 376 210.50 368.50Q215 361 210 351Q161 272 117 205Q197 75 236 9Z"  horiz-adv-x="289" vert-adv-y="1000"  />

      
      <glyph glyph-name="uni043B" unicode="&#x043B;" d="M286 359Q288 240 290 0Q290-10 282-14.50Q274-19 265.50-14.50Q257-10 257 0Q255 115 253 343L202 343Q205 283 202.50 204.50Q200 126 188 67Q173-4 132-15Q99-24 74.50-1.50Q50 21 50 55Q51 72 67.50 72Q84 72 84 55Q84 41 91.50 29.50Q99 18 112 17Q132 16 143 37Q158 65 162 124Q168 183 168 359Q168 365 173 370.50Q178 376 185 376Q197 376 211 376Q225 376 242.50 376Q260 376 270 376Q286 376 286 359Z"  horiz-adv-x="341" vert-adv-y="1000"  />

      
      <glyph glyph-name="uni043C" unicode="&#x043C;" d="M314 359Q314 300 315.50 180Q317 60 318 0Q318-16 301.50-16Q285-16 284 0L281 267Q275 250 248.50 169.50Q222 89 203 47Q199 38 189.50 37.50Q180 37 175 47Q156 89 129.50 169.50Q103 250 97 267L94 0Q93-16 76.50-16Q60-16 60 0Q61 60 62.50 180Q64 300 64 359Q64 374 78.50 375.50Q93 377 97 365Q98 364 98 363Q103 350 135 250Q167 150 189 98Q211 150 243 250Q275 350 280 363L281 365Q286 377 300 375.50Q314 374 314 359Z"  horiz-adv-x="378" vert-adv-y="1000"  />

      
      <glyph glyph-name="uni043D" unicode="&#x043D;" d="M178 359Q178 376 195 376Q212 376 212 359Q210 240 208 0Q207-16 190.50-16Q174-16 174 0Q174 29 175 85Q176 141 176 170L85 170Q85 114 83 0Q83-10 74.50-14.50Q66-19 58-14.50Q50-10 50 0Q51 60 52.50 180Q54 300 54 359Q54 376 71 376Q88 376 88 359Q86 257 86 204L176 204Q176 230 176.50 281.50Q177 333 178 359Z"  horiz-adv-x="262" vert-adv-y="1000"  />

      
      <glyph glyph-name="uni043E" unicode="&#x043E;" d="M213 206Q215 140 208 88Q200 33 181 9Q158-21 125-16Q92-11 76 23Q62 51 54 114Q47 183 53 242Q63 369 128 375L134 375Q152 375 165.50 367Q179 359 187.50 342Q196 325 201 311.50Q206 298 208.50 272.50Q211 247 211.50 238Q212 229 213 206M164 48Q184 103 178 223Q176 274 165 308Q155 342 131 342Q109 341 97 301Q85 263 85 203Q83 149 89 104Q95 59 106 37Q118 13 136 16Q153 19 164 48Z"  horiz-adv-x="264" vert-adv-y="1000"  />

      
      <glyph glyph-name="uni043F" unicode="&#x043F;" d="M195 376Q201 376 206.50 371Q212 366 212 359Q210 240 208 0Q207-16 190.50-16Q174-16 174 0Q174 57 175.50 171Q177 285 178 343L87 343Q86 228 84 0Q83-16 66.50-16Q50-16 50 0Q51 60 52.50 180Q54 300 54 359Q54 365 59 370.50Q64 376 71 376L195 376Z"  horiz-adv-x="262" vert-adv-y="1000"  />

      
      <glyph glyph-name="uni0440" unicode="&#x0440;" d="M199 286Q218 181 200 80Q183-18 123-18Q102-18 84-4L84-138Q84-154 67-154Q50-154 50-138Q50 193 53 359Q54 375 70 375.50Q86 376 87 361Q104 376 127 376Q183 375 199 286M172 126Q179 216 166 283Q162 301 159 310.50Q156 320 146 332Q136 344 122 342Q103 338 94 308Q85 280 85 236Q84 190 84 98L84 97Q84 47 100 27Q117 7 137 20Q165 39 172 126Z"  horiz-adv-x="259" vert-adv-y="1000"  />

      
      <glyph glyph-name="uni0441" unicode="&#x0441;" d="M185 60Q188 69 197.50 71Q207 73 213.50 67Q220 61 217 51Q201 4 173-10Q147-24 115-12Q77 4 62 60Q49 109 51 213Q51 335 104 367Q139 387 172 365Q199 348 203 302Q205 288 191 286Q175 285 171 299Q170 300 170 302Q167 323 153.50 335.50Q140 348 121 337Q98 324 88 268Q84 242 84 188Q84 137 87 112Q94 46 118 25Q131 14 148 17Q172 20 185 60Z"  horiz-adv-x="268" vert-adv-y="1000"  />

      
      <glyph glyph-name="uni0442" unicode="&#x0442;" d="M222 376Q238 376 238 359Q238 342 222 342L165 342Q167 228 169 0Q169-10 161-14.50Q153-19 144.50-14.50Q136-10 136 0Q135 57 133.50 171Q132 285 131 342L71 342Q54 342 54 359Q54 376 71 376L222 376Z"  horiz-adv-x="292" vert-adv-y="1000"  />

      
      <glyph glyph-name="uni0443" unicode="&#x0443;" d="M201 120Q201 24 200-24Q200-25 199.50-36Q199-47 199-49.50Q199-52 198-62.50Q197-73 196-77Q195-81 193.50-90Q192-99 190.50-103.50Q189-108 186-115.50Q183-123 179.50-127.50Q176-132 171.50-137Q167-142 162-146Q150-156 131-156.50Q112-157 99-149Q74-136 63-100Q60-90 67-83.50Q74-77 83.50-79Q93-81 96-91Q101-108 112.50-117.50Q124-127 140-120Q162-111 165-45Q167-17 167-1L165-3Q149-18 125.50-17Q102-16 86 0Q61 26 55 88Q51 128 51 209Q50 259 52 359Q52 369 61 373.50Q70 378 78 373.50Q86 369 86 359Q83 288 85 200Q85 112 90 79Q92 63 95.50 50.50Q99 38 109.50 25Q120 12 135 17Q167 29 167 113L167 144Q167 252 164 359Q164 376 181 376Q198 376 198 359Q198 337 199 292Q200 247 200 224Q200 207 200.50 172.50Q201 138 201 121L201 120Z"  horiz-adv-x="251" vert-adv-y="1000"  />

      
      <glyph glyph-name="uni0444" unicode="&#x0444;" d="M322 286Q340 185 323 81Q304-17 245-17Q222-17 206-4L206-138Q206-154 189-154Q172-154 172-138Q172-121 172.50-87.50Q173-54 173-38L173-2Q149-24 117-16Q65-2 53 104Q48 160 53 215Q55 270 66 306Q76 341 97.50 362Q119 383 151 374Q165 369 175 361Q175 383 176 395Q176 405 184.50 409Q193 413 201 409Q209 405 209 395L209 361Q225 377 250 376Q306 376 322 286M126 17Q144 12 155 27.50Q166 43 169 59Q172 75 173 97L173 98L173 101Q173 201 174 251Q173 268 172 281Q171 294 166.50 311Q162 328 153 336Q144 344 130 342Q102 337 92 267Q79 192 87 106Q93 25 126 17M294 126Q301 218 288 284Q285 300 281.50 311Q278 322 268 333.50Q258 345 244 342Q226 338 217 308Q208 282 208 247Q207 195 207 90Q207 48 223 28Q238 8 260 20Q273 29 282 57Q292 90 294 126Z"  horiz-adv-x="382" vert-adv-y="1000"  />

      
      <glyph glyph-name="uni0445" unicode="&#x0445;" d="M208 4Q211-6 204-12Q197-18 187.50-16Q178-14 175-5Q145 89 129 136Q121 112 105.50 65.50Q90 19 83-5Q80-14 70.50-16Q61-18 54.50-12Q48-6 51 4L111 190Q75 300 58 355Q55 364 61.50 370.50Q68 377 77.50 375Q87 373 90 364Q97 344 110 303.50Q123 263 129 243Q164 351 168 364Q171 373 181 375Q191 377 197.50 370.50Q204 364 201 355L147 190Q157 159 177.50 97Q198 35 208 4Z"  horiz-adv-x="259" vert-adv-y="1000"  />

      
      <glyph glyph-name="uni0446" unicode="&#x0446;" d="M233 17Q241 17 246 10.50Q251 4 249-4Q247-16 241-38Q238-48 228.50-50Q219-52 212-45.50Q205-39 208-29L211-17L71-17Q65-17 59.50-12Q54-7 54 0Q52 240 50 359Q50 376 67 376Q84 376 84 359Q84 302 86 188Q88 74 88 17L159 17Q157 245 155 359Q155 376 172 376Q189 376 189 359Q190 302 191 188Q192 74 193 17L233 17Z"  horiz-adv-x="300" vert-adv-y="1000"  />

      
      <glyph glyph-name="uni0447" unicode="&#x0447;" d="M196 359Q196 299 197.50 179.50Q199 60 200 0Q200-16 183.50-16Q167-16 166 0Q166 22 165.50 66Q165 110 165 132Q148 120 129 120Q107 120 89 133Q71 146 63 167Q50 197 50 241L50 360Q51 376 67.50 376Q84 376 84 360L84 265Q84 220 86 207Q93 167 113 157Q130 150 144.50 160.50Q159 171 164 190Q164 218 163 274.50Q162 331 162 359Q162 376 178.50 376Q195 376 196 359Z"  horiz-adv-x="250" vert-adv-y="1000"  />

      
      <glyph glyph-name="uni0448" unicode="&#x0448;" d="M303 0Q303-7 298-12Q293-17 286-17L72-17Q66-17 60.50-12Q55-7 55 0Q53 119 51 359Q51 369 59 373.50Q67 378 75.50 373.50Q84 369 84 359Q86 245 88 17L163 17Q162 74 161 188Q160 302 159 359Q159 376 176 376Q193 376 193 359Q194 302 195 188Q196 74 197 17L269 17Q268 74 267 188Q266 302 265 359Q265 376 282 376Q299 376 299 359Q299 300 300.50 180Q302 60 303 0Z"  horiz-adv-x="353" vert-adv-y="1000"  />

      
      <glyph glyph-name="uni0449" unicode="&#x0449;" d="M341 17Q349 17 354 10.50Q359 4 357-4Q354-16 348-38Q346-48 336.50-50Q327-52 320-45.50Q313-39 316-29L319-17L72-17Q66-17 60.50-12Q55-7 55 0Q54 60 52.50 179.50Q51 299 50 359Q50 376 67 376Q84 376 84 359Q86 245 88 17L163 17Q162 74 161 188Q160 302 159 359Q159 376 175.50 376Q192 376 193 359Q195 131 197 17L269 17Q268 74 267 188Q266 302 265 359Q265 376 281.50 376Q298 376 299 359Q301 131 303 17L341 17Z"  horiz-adv-x="408" vert-adv-y="1000"  />

      
      <glyph glyph-name="uni044A" unicode="&#x044A;" d="M242 73Q245 18 204-7Q168-29 114-16Q104-14 102 0Q102 57 100 171.50Q98 286 98 343L67 343Q50 343 50 359.50Q50 376 67 377Q75 377 91 376.50Q107 376 115 376Q131 376 131 359Q133 223 134 154Q178 156 209 136Q240 116 242 73M186 21Q211 36 209 73Q205 125 134 121Q134 103 135 67.50Q136 32 136 14Q166 10 186 21Z"  horiz-adv-x="293" vert-adv-y="1000"  />

      
      <glyph glyph-name="uni044B" unicode="&#x044B;" d="M86 154Q130 156 161 136Q192 116 195 73Q197 17 157-7Q120-29 67-16Q55-13 55 0Q54 60 52.50 179.50Q51 299 50 359Q50 376 67 376Q84 376 84 359Q86 223 86 154M138 21Q163 35 161 73Q157 125 87 121Q87 103 87.50 67.50Q88 32 88 14Q118 10 138 21M259 359Q260 299 261.50 179.50Q263 60 264 0Q264-16 247-16Q230-16 230 0Q229 60 227.50 179.50Q226 299 225 359Q225 376 242 376Q259 376 259 359Z"  horiz-adv-x="314" vert-adv-y="1000"  />

      
      <glyph glyph-name="uni044C" unicode="&#x044C;" d="M195 73Q198 18 157-7Q123-27 67-16Q55-13 55 0Q54 60 52.50 179.50Q51 299 50 359Q50 376 67 376Q84 376 84 359Q86 223 87 154Q131 156 161.50 136Q192 116 195 73M138 21Q163 35 161 73Q158 125 87 121Q87 103 87.50 67.50Q88 32 88 14Q118 10 138 21Z"  horiz-adv-x="246" vert-adv-y="1000"  />

      
      <glyph glyph-name="uni044D" unicode="&#x044D;" d="M209 283Q214 242 214 182Q214 117 204 72Q187 1 146-13Q113-25 85-4Q57 17 51 52Q48 68 64.50 73Q81 78 83 61Q86 43 95.50 30.50Q105 18 122 17Q141 16 155 37Q175 70 179 139Q180 144 180 154.50Q180 165 181 170L119 170Q102 170 102 187Q102 204 119 204L181 204Q181 245 175 284Q165 338 137 343Q122 346 112.50 334Q103 322 98 304Q96 294 86.50 292Q77 290 70 296.50Q63 303 66 313Q77 358 108 372Q128 380 148 374.50Q168 369 182 353Q201 330 209 283Z"  horiz-adv-x="264" vert-adv-y="1000"  />

      
      <glyph glyph-name="uni044E" unicode="&#x044E;" d="M313 207Q315 133 308 88Q302 38 282 9Q258-21 225-16Q192-11 176 23Q161 56 155 114Q153 134 151 170L86 170Q86 141 85 85Q84 29 84 0Q84-16 67-16Q50-16 50 0Q52 119 54 359Q54 376 71 376Q88 376 88 359Q87 333 86.50 281.50Q86 230 86 204L151 204Q152 210 152 223Q152 236 153 243Q163 367 228 376L236 376Q261 375 277.50 358Q294 341 300.50 313Q307 285 309.50 263Q312 241 313 213Q313 209 313 207M265 48Q285 103 279 224Q275 283 266 309Q253 343 232 343Q209 341 197 301Q187 270 185 204Q185 145 190 104Q194 61 207 37Q219 13 237 17Q254 20 265 48Z"  horiz-adv-x="364" vert-adv-y="1000"  />

      
      <glyph glyph-name="uni044F" unicode="&#x044F;" d="M235 360L238 0Q238-16 221-16Q204-16 204 0Q204 33 203.50 99Q203 165 203 198L188 198Q180 185 175.50 169Q171 153 170 143Q169 133 168.50 111.50Q168 90 167 82Q162 24 143 0Q122-23 89-16Q37-6 46 58Q48 74 64 69.50Q80 65 78 49Q76 33 84.50 23Q93 13 108 17Q121 20 127 44Q133 65 136.50 120.50Q140 176 153 204Q99 222 93 273Q88 328 127 358Q161 383 220 376Q234 374 235 360M127 274Q130 249 152.50 239Q175 229 203 232Q202 269 202 344Q168 346 145 327.50Q122 309 127 274Z"  horiz-adv-x="288" vert-adv-y="1000"  />

      
      <glyph glyph-name="uni0451" unicode="&#x0451;" d="M80 426.50Q80 426.50 80 434.75Q80 443 97 443Q114 443 114 426.50Q114 410 97 410Q80 410 80 426.50M148 426.50Q148 426.50 148 434.75Q148 443 164 443Q180 443 180 426.50Q180 410 164 410Q148 410 148 426.50M178 60Q181 70 190.50 72Q200 74 207 67.50Q214 61 211 51Q191-12 146-17Q109-20 86 8Q69 28 60.50 61Q52 94 51 116Q50 138 50 176Q50 255 59 294Q74 363 119 374Q154 383 175 359Q196 335 200.50 304Q205 273 202 242Q202 237 200.50 233Q199 229 197.50 226.50Q196 224 192.50 222.50Q189 221 187 220Q185 219 179.50 218.50Q174 218 172.50 218Q171 218 164.50 218Q158 218 157 218L85 218Q81 136 90 88Q99 36 120 22Q140 9 155 22.50Q170 36 178 60M94 296Q87 273 86 252L135 252L169 252Q171 277 169 289Q164 340 137 342Q120 343 110 329.50Q100 316 94 296Z"  horiz-adv-x="262" vert-adv-y="1000"  />

      
      <glyph glyph-name="uni20AC" unicode="&#x20AC;" d="M258 128Q258 144 275 144Q292 144 292 128Q290 24 243-8Q221-25 191-23Q161-21 141-1Q132 8 125 19Q118 30 113.50 45Q109 60 106 70Q103 80 101.50 99.50Q100 119 99.50 126Q99 133 98.50 155Q98 177 98 180Q96 225 94 317Q90 317 80.50 316.50Q71 316 66 316Q50 316 50 333Q50 350 66 350L94 350L94 396L66 396Q50 396 50 413Q50 430 66 430L94 430Q95 460 97 518Q97 523 97.50 552.50Q98 582 98.50 595.50Q99 609 103.50 635.50Q108 662 114.50 676Q121 690 134.50 705Q148 720 167 726Q192 735 216.50 726.50Q241 718 254 695Q273 661 271 582Q270 566 253.50 566Q237 566 237 582Q239 659 221 684Q206 701 183.50 695.50Q161 690 151 671Q136 645 134 590Q130 520 128 449L128 430Q195 430 229 429Q239 429 243.50 420.50Q248 412 243.50 404Q239 396 229 396Q212 396 178 396.50Q144 397 128 397L128 350Q154 350 208 348Q218 348 222.50 339.50Q227 331 222.50 323Q218 315 208 315Q194 315 168 315.50Q142 316 128 316Q130 222 132 173Q132 171 133 145.50Q134 120 135 111.50Q136 103 138.50 84Q141 65 146.50 52Q152 39 161 28Q173 12 192 10.50Q211 9 226 21Q258 46 258 128Z"  horiz-adv-x="342" vert-adv-y="1000"  />

      
      <glyph glyph-name="uni20BD" unicode="&#x20BD;" d="M213 720Q256 696 254 641Q251 586 195 566Q166 555 122 557Q122 527 123 512L202 512Q218 511 218 494.50Q218 478 202 478Q189 478 162.50 478.50Q136 479 123 479Q125 159 126 0Q126-16 109-16Q92-16 92 0Q91 159 89 479Q86 479 78 478.50Q70 478 67 478Q50 478 50 495Q50 512 67 512L89 512L89 558Q74 558 67 559Q50 559 50 575.50Q50 592 67 592Q80 592 88 591L88 720Q87 727 91.50 731.50Q96 736 102 736Q104 737 107 737Q180 739 213 720M220 641Q221 661 213 674.50Q205 688 188.50 694Q172 700 156.50 702Q141 704 121 704Q122 666 122 590Q217 588 220 641Z"  horiz-adv-x="305" vert-adv-y="1000"  />

      
      <glyph glyph-name="uni2116" unicode="&#x2116;" d="M437 497Q447 497 451.50 488.50Q456 480 451.50 472Q447 464 437 464L308 464Q292 464 292 480.50Q292 497 308 498Q394 498 437 497M412 548Q392 532 365.50 534.50Q339 537 323 556Q290 593 303 664Q313 722 366 725L370 725L374 725Q434 718 439 645Q445 575 412 548M370 691Q354 691 345 680Q336 669 334.50 656.50Q333 644 334 627Q336 601 344 584.50Q352 568 373 569Q406 569 406 627Q406 689 370 691M188 714Q188 724 196 728.50Q204 733 212.50 728.50Q221 724 221 714Q222 594 223.50 354Q225 114 226-6Q226-22 209-22Q192-22 192-6Q192 82 191 125Q148 276 85 472Q86 312 88-6Q88-16 80-20.50Q72-25 63.50-20.50Q55-16 55-6Q54 114 52.50 354Q51 594 50 714Q50 730 67 730Q84 730 84 714Q84 627 85 584L85 583Q157 359 190 247Q190 402 188 714Z"  horiz-adv-x="504" vert-adv-y="1000"  />

      

  </font>
</defs>
</svg>
